<svg xmlns="http://www.w3.org/2000/svg" width="651" height="782"><path fill-rule="evenodd" d="M27.555.89c2.82-.071 7.288.916 10.214 1.858C51.852 7.285 62.396 10.804 75.5 14.975c28.164 8.999 56.336 17.898 84.5 26.897 95.99 30.664 192.01 61.378 288 92.041 34.997 11.166 70.004 21.929 105 33.095 11.789 3.886 25.125 7.833 35.983 11.459 4.576 1.528 7.487 4.146 9.326 7.015 1.196 1.866 4.289 7.41 5.094 11.585 1.576 8.169 2.578 21.2 3.885 34.488.84 8.543 1.816 17.268 2.755 24.628 5.725 57.756 12.163 116.109 17.938 173.647 6.166 57.661 11.955 115.576 17.991 173 .879 8.3 2.833 26.181 4.136 40.723.733 8.184-.512 18.041-2.742 20.517-3.602 3.438-3.708 4.771-18.394 4.572-20.933-.094-41.297.437-58.493.441-27.759.036-93.621.625-155.084 1.066-17.918.129-35.434.353-51.479.402-16.102.07-30.487.094-42.584.214-1.816 20.18-6.259 39.42-1.415 53.32 1.648 5.824 4.271 9.93 6.666 12.684 5.726 7.724 11.688 9.419 24.102 10.692 9.095.933 18.676 1.826 29.315 2.914 32.779 3.217 77.575 6.956 126.364 11.631 1.463.219 2.888 2.03 3.054 2.363.138 1.238-.278 2.952-1.022 3.602-1.507.659-6.664 1.269-14.49 1.818-17.358 1.218-46.243 3.454-66.406 4.472-13.665.833-27.335 1.635-41 2.468-10.89.728-22.618 1.084-34.827 1.471-6.984.221-14.126.501-21.359.481-16.863-.045-31.505-1.322-47.076-3.16-10.667-1.259-17.653-1.921-26.905-2.95-9.234-1.028-19.837-2.018-30.204-2.96-11.602-1.055-22.477-2.331-32.199-3.763-8.866-1.306-13.734-6.454-15.757-9.207-5.421-7.378-7.322-16.945-7.826-27.478-.688-14.384 3.569-27.906 8.681-47.295-.467 1.709 2.94-9.673 2.94-9.84-42.096.165-55.861.233-99.647.723-11.152-.129-36.956.356-43.339.319-21.16-.125-24.362-.156-31.556-9.969-8.964-10.356-5.944-27.814-6.066-46.771.307-30.071.917-61.092 1.312-93 1.5-123.487 3.02-247.008 4.408-370.5.403-33.87.751-67.336 1.251-101 .292-15.343-.955-29.702 2.423-37.897C13.113 8.672 19.069 2.295 27.555.89z"/></svg>