<svg xmlns="http://www.w3.org/2000/svg" width="23" height="21" viewBox="0 0 23 21">
    <g fill="none" fill-rule="evenodd">
        <g fill="#000" fill-rule="nonzero" stroke="#000" stroke-width=".5">
            <g>
                <path d="M16.5.139v5.703h1.1c1.823 0 3.3 1.532 3.3 3.423v5.703h-4.4v4.563H4.4v-4.563H0V9.264c0-1.889 1.478-3.422 3.3-3.422h1.1V.14h12.1zm1.1 10.266c-.608 0-1.1-.51-1.1-1.14 0-.631.492-1.141 1.1-1.141.608 0 1.1.51 1.1 1.14 0 .631-.492 1.141-1.1 1.141zM1.1 9.267v4.563h3.3v-2.282h12.1v2.282h3.3V9.267c0-1.26-.984-2.282-2.2-2.282H3.3c-1.214 0-2.2 1.022-2.2 2.282zm14.3 9.126v-5.704H5.5v5.704h9.9zM5.5 1.28v4.563h9.9V1.281H5.5z" transform="translate(-953 -1462) translate(954 1463)"/>
            </g>
        </g>
    </g>
</svg>
