<svg xmlns="http://www.w3.org/2000/svg" width="22" height="15" viewBox="0 0 22 15">
    <g fill="none" fill-rule="evenodd">
        <g fill="#000" fill-rule="nonzero">
            <g>
                <path d="M21.732 6.838l-3.828-3.907c-3.813-3.892-9.995-3.892-13.807 0L.268 6.838c-.358.366-.358.958 0 1.324l3.828 3.907c3.813 3.892 9.995 3.892 13.807 0l3.828-3.907c.359-.366.359-.958 0-1.324zm-5.125 3.908c-3.097 3.16-8.117 3.16-11.214 0L2.213 7.5l3.18-3.246c3.097-3.16 8.117-3.16 11.214 0l3.18 3.246-3.18 3.246z" transform="translate(-1470 -1465) translate(1470 1465)"/>
                <path d="M11 2.822c-2.531 0-4.583 2.094-4.583 4.678S8.469 12.178 11 12.178s4.583-2.094 4.583-4.678S13.531 2.822 11 2.822zm0 7.485c-1.519 0-2.75-1.257-2.75-2.807S9.481 4.693 11 4.693 13.75 5.95 13.75 7.5s-1.231 2.807-2.75 2.807z" transform="translate(-1470 -1465) translate(1470 1465)"/>
            </g>
        </g>
    </g>
</svg>
