<svg xmlns="http://www.w3.org/2000/svg" width="15" height="15" viewBox="0 0 15 15">
    <g fill="none" fill-rule="evenodd">
        <g fill="#000" fill-rule="nonzero">
            <g>
                <path d="M13.125 1.875H12.5V.625C12.5.28 12.22 0 11.875 0h-.625c-.345 0-.625.28-.625.625v1.25h-6.25V.625C4.375.28 4.095 0 3.75 0h-.625C2.78 0 2.5.28 2.5.625v1.25h-.625C.841 1.875 0 2.716 0 3.75v9.375C0 14.159.841 15 1.875 15h11.25C14.159 15 15 14.159 15 13.125V3.75c0-1.034-.841-1.875-1.875-1.875zm.625 11.25c0 .344-.28.625-.625.625H1.875c-.344 0-.625-.28-.625-.625v-6.85h12.5v6.85z" transform="translate(-1632 -1464) translate(1632 1464)"/>
            </g>
        </g>
    </g>
</svg>
