<svg xmlns="http://www.w3.org/2000/svg" width="20" height="15" viewBox="0 0 20 15">
    <g fill="none" fill-rule="evenodd">
        <g fill="#1D1D1B" fill-rule="nonzero">
            <g>
                <path d="M17.472.067H2.528C1.134.067 0 1.217 0 2.632v9.736c0 1.414 1.134 2.565 2.528 2.565h14.944c1.394 0 2.528-1.151 2.528-2.565V2.632C20 1.218 18.866.067 17.472.067zm-.395 1.655L10 7.269 2.922 1.722h14.155zm.395 11.556H2.528c-.495 0-.898-.408-.898-.91V2.799l7.872 6.17c.146.115.322.173.498.173s.352-.058.498-.173L18.37 2.8v9.569c0 .502-.403.91-.898.91z" transform="translate(-1552 -1464) translate(1552 1464)"/>
            </g>
        </g>
    </g>
</svg>
