<svg xmlns="http://www.w3.org/2000/svg" width="22" height="18" viewBox="0 0 22 18">
    <g fill="none" fill-rule="evenodd">
        <g>
            <g>
                <g fill="#000" fill-rule="nonzero">
                    <path d="M20.313 3.25H6.5c-.449 0-.813-.364-.813-.813 0-.448.364-.812.813-.812h13.813c.448 0 .812.364.812.813 0 .448-.364.812-.813.812zM3.25 3.25H.812C.364 3.25 0 2.886 0 2.437c0-.448.364-.812.813-.812H3.25c.449 0 .813.364.813.813 0 .448-.364.812-.813.812zM14.625 9.75H.812C.364 9.75 0 9.386 0 8.937c0-.448.364-.812.813-.812h13.812c.449 0 .813.364.813.813 0 .448-.364.812-.813.812zM6.5 16.25H.812c-.448 0-.812-.364-.812-.813 0-.448.364-.812.813-.812H6.5c.449 0 .813.364.813.813 0 .448-.364.812-.813.812z" transform="translate(-831 -1464) translate(829 1460) translate(2.438 4.063)"/>
                    <path d="M4.875 4.875c-1.346 0-2.438-1.091-2.438-2.438C2.438 1.091 3.53 0 4.876 0s2.438 1.091 2.438 2.438c0 1.346-1.092 2.437-2.438 2.437zm0-3.25c-.449 0-.813.364-.813.813 0 .448.364.812.813.812.449 0 .813-.364.813-.813 0-.448-.364-.812-.813-.812zM16.25 11.375c-1.346 0-2.438-1.091-2.438-2.438 0-1.346 1.092-2.437 2.438-2.437s2.438 1.091 2.438 2.438c0 1.346-1.092 2.437-2.438 2.437zm0-3.25c-.449 0-.813.364-.813.813 0 .448.364.812.813.812.449 0 .813-.364.813-.813 0-.448-.364-.812-.813-.812zM8.125 17.875c-1.346 0-2.438-1.091-2.438-2.438C5.688 14.091 6.78 13 8.126 13s2.438 1.091 2.438 2.438c0 1.346-1.092 2.437-2.438 2.437zm0-3.25c-.449 0-.813.364-.813.813 0 .448.364.812.813.812.449 0 .813-.364.813-.813 0-.448-.364-.812-.813-.812z" transform="translate(-831 -1464) translate(829 1460) translate(2.438 4.063)"/>
                    <path d="M20.313 9.75h-2.438c-.449 0-.813-.364-.813-.813 0-.448.364-.812.813-.812h2.438c.448 0 .812.364.812.813 0 .448-.364.812-.813.812zM20.313 16.25H9.75c-.449 0-.813-.364-.813-.813 0-.448.364-.812.813-.812h10.563c.448 0 .812.364.812.813 0 .448-.364.812-.813.812z" transform="translate(-831 -1464) translate(829 1460) translate(2.438 4.063)"/>
                </g>
                <g>
                    <path d="M0 0H26V26H0z" transform="translate(-831 -1464) translate(829 1460)"/>
                </g>
            </g>
        </g>
    </g>
</svg>
