<svg xmlns="http://www.w3.org/2000/svg" width="15" height="13" viewBox="0 0 15 13">
    <g fill="none" fill-rule="evenodd">
        <g fill="#797979" fill-rule="nonzero">
            <g>
                <path d="M6.25 3.156V.498c0-.188-.113-.358-.286-.432-.173-.073-.375-.036-.509.096L.142 5.318c-.09.088-.142.21-.142.336 0 .127.051.248.142.337l5.313 5.156c.136.131.337.168.509.095.173-.073.286-.243.286-.431V8.154h.886c2.898 0 5.569 1.575 6.97 4.108l.014.024c.084.152.243.243.411.243.039 0 .078-.004.117-.014.207-.053.352-.24.352-.454 0-4.86-3.91-8.822-8.75-8.905z" transform="translate(-1311 -1386) rotate(-180 663 699.5)"/>
            </g>
        </g>
    </g>
</svg>
