<svg xmlns="http://www.w3.org/2000/svg" width="16" height="19" viewBox="0 0 16 19">
    <g fill="none" fill-rule="evenodd">
        <g fill="#000" fill-rule="nonzero">
            <g>
                <path d="M15.744.628c-.162-.235-.38-.406-.655-.515C14.914.038 14.73 0 14.539 0H1.46C1.268 0 1.085.038.91.113.636.222.417.393.255.628.093.862.01 1.122.01 1.406v16.186c0 .285.082.544.244.78.162.233.38.405.655.514.175.075.358.113.55.113.39 0 .735-.138 1.035-.414L8 13.26l5.505 5.325c.29.267.636.401 1.035.401.209 0 .392-.033.55-.1.274-.109.493-.28.655-.515.162-.235.243-.494.243-.779V1.407c0-.285-.08-.545-.243-.779zM14.39 17.203l-5.28-5.098L8 11.038l-1.111 1.067-5.28 5.098V1.607h12.78v15.596z" transform="translate(-1394 -1464) translate(1394 1464)"/>
            </g>
        </g>
    </g>
</svg>
