<svg xmlns="http://www.w3.org/2000/svg" width="13" height="19" viewBox="0 0 13 19">
    <g fill="none" fill-rule="evenodd">
        <g fill="#000" fill-rule="nonzero">
            <g>
                <path d="M5.927 15.601c.019.02.039.036.059.053l.029.021.035.025c.011.008.023.014.035.021l.033.019.037.017.035.016.036.013c.013.004.026.01.039.013l.036.01.04.009.044.006.035.005c.053.005.107.005.16 0 .012 0 .024-.003.036-.005l.042-.006.04-.01c.013-.003.025-.005.037-.009l.039-.013.036-.013.035-.016c.013-.006.025-.01.037-.017l.033-.019c.012-.007.024-.013.035-.021l.035-.025.029-.021.059-.052 5.677-5.542c.317-.31.317-.81 0-1.12-.317-.309-.83-.309-1.147 0l-4.292 4.19V.792C7.31.354 6.948 0 6.5 0c-.448 0-.81.354-.81.792V13.13L1.396 8.94c-.317-.309-.83-.309-1.147 0-.316.31-.316.81 0 1.12L5.927 15.6zM12.176 17.417H.824c-.448 0-.811.354-.811.791 0 .438.363.792.81.792h11.353c.448 0 .811-.354.811-.792 0-.437-.363-.791-.81-.791z" transform="translate(-1074 -1464) translate(1074 1464)"/>
            </g>
        </g>
    </g>
</svg>
