<svg xmlns="http://www.w3.org/2000/svg" width="15" height="17" viewBox="0 0 15 17">
    <g fill="none" fill-rule="evenodd">
        <g fill="#455FEB" fill-rule="nonzero">
            <g>
                <path d="M14.979 3.863c-.107-1.036-.599-1.967-1.385-2.62L13.14.865C12.469.308 11.623 0 10.758 0c-1.154 0-2.23.526-2.953 1.444l-6.96 8.833c-.637.809-.93 1.825-.824 2.86.107 1.035.6 1.966 1.387 2.62l.453.377c.672.558 1.518.866 2.383.866.133 0 .268-.007.401-.022 1.002-.108 1.904-.608 2.537-1.404l4.695-5.958c.836-1.061.676-2.622-.357-3.48l-.237-.198c-.427-.354-.964-.55-1.514-.55-.732 0-1.415.335-1.874.917l-4.687 5.948c-.306.389-.247.96.131 1.275.157.13.354.202.555.202.268 0 .519-.122.687-.336l4.686-5.948c.123-.155.305-.245.501-.245.149 0 .289.051.404.147l.237.197c.134.111.217.269.235.445.018.176-.031.348-.14.485l-4.68 5.94c-.387.49-.962.772-1.579.772-.462 0-.914-.164-1.274-.463l-.452-.376c-.421-.35-.685-.848-.741-1.401-.057-.554.1-1.097.44-1.53l6.96-8.832c.386-.49.961-.772 1.578-.772.463 0 .915.165 1.274.463l.453.376c.87.723 1.004 2.037.3 2.93-.148.189-.216.425-.191.666.025.24.14.457.323.61.156.13.353.202.555.202.268 0 .518-.123.686-.337.637-.808.929-1.823.823-2.86z" transform="translate(-1184 -1310) translate(1184 1310)"/>
            </g>
        </g>
    </g>
</svg>
