<svg xmlns="http://www.w3.org/2000/svg" width="8" height="13" viewBox="0 0 8 13">
    <g fill="none" fill-rule="evenodd">
        <g fill="#3851FF" fill-rule="nonzero">
            <g>
                <path d="M4 12.8c-2.206 0-4-1.794-4-4V3.2c0-.295.239-.533.533-.533.295 0 .534.238.534.533v5.6c0 1.617 1.315 2.933 2.933 2.933 1.618 0 2.933-1.316 2.933-2.933V2.933c0-1.029-.837-1.866-1.866-1.866-1.03 0-1.867.837-1.867 1.866v5.334c0 .44.359.8.8.8.441 0 .8-.36.8-.8V3.2c0-.295.239-.533.533-.533.295 0 .534.238.534.533v5.067c0 1.029-.838 1.866-1.867 1.866-1.03 0-1.867-.837-1.867-1.866V2.933C2.133 1.316 3.45 0 5.067 0 6.684 0 8 1.316 8 2.933V8.8c0 2.206-1.794 4-4 4z" transform="translate(-974 -615) translate(974 615)"/>
            </g>
        </g>
    </g>
</svg>
