<svg xmlns="http://www.w3.org/2000/svg" width="14" height="14" viewBox="0 0 14 14">
    <g fill="none" fill-rule="evenodd">
        <g fill="#000" fill-rule="nonzero">
            <g>
                <path d="M13.61 10.267l-1.953-1.952c-.697-.697-1.883-.418-2.162.488-.209.628-.906.976-1.534.837-1.394-.349-3.277-2.162-3.625-3.626-.21-.628.209-1.325.836-1.534.907-.279 1.186-1.464.488-2.162L3.708.366c-.558-.488-1.394-.488-1.883 0L.501 1.691c-1.325 1.394.14 5.09 3.416 8.367 3.277 3.277 6.973 4.811 8.368 3.417l1.324-1.325c.489-.558.489-1.395 0-1.883z" transform="translate(-460 -961) translate(460 961)"/>
            </g>
        </g>
    </g>
</svg>
