<svg xmlns="http://www.w3.org/2000/svg" width="11" height="16" viewBox="0 0 11 16">
    <g fill="none" fill-rule="evenodd">
        <g fill="#000" fill-rule="nonzero">
            <g>
                <path d="M10.21 2.74C9.245 1.064 7.53.04 5.622 0h-.244C3.47.041 1.755 1.064.79 2.74-.197 4.453-.224 6.51.718 8.244l3.945 7.262.005.01c.174.303.485.484.832.484s.658-.181.832-.485l.005-.01 3.945-7.261c.942-1.734.915-3.791-.072-5.504zM5.5 7.25C4.266 7.25 3.263 6.24 3.263 5S4.266 2.75 5.5 2.75c1.234 0 2.237 1.01 2.237 2.25S6.734 7.25 5.5 7.25z" transform="translate(-461 -924) translate(461 924)"/>
            </g>
        </g>
    </g>
</svg>
