<svg xmlns="http://www.w3.org/2000/svg" width="40" height="37" viewBox="0 0 40 37">
    <g fill="none" fill-rule="evenodd">
        <g fill="#3AC5CC" fill-rule="nonzero">
            <g>
                <path d="M.702 20.134c-.451.53-.67 1.206-.617 1.904.053.698.371 1.333.898 1.786l12.788 11.073c.475.41 1.064.63 1.682.63.077 0 .154-.004.232-.01.7-.063 1.33-.4 1.776-.946L39.333 7.68c.439-.54.644-1.221.577-1.918-.07-.696-.4-1.324-.935-1.769L34.971.672c-1.103-.914-2.738-.754-3.646.361L14.49 21.73l-6.764-5.854c-1.085-.935-2.723-.812-3.654.284L.702 20.134z" transform="translate(-1341 -2457) translate(1341 2457)"/>
            </g>
        </g>
    </g>
</svg>
