<svg xmlns="http://www.w3.org/2000/svg" xmlns:xlink="http://www.w3.org/1999/xlink" width="60" height="61" viewBox="0 0 60 61">
    <defs>
        <path id="l78vy44zja" d="M0 0.133L59.665 0.133 59.665 54 0 54z"/>
    </defs>
    <g fill="none" fill-rule="evenodd">
        <g>
            <g>
                <path fill="#FFB7FD" d="M3 0H40V43H3z" transform="translate(-1397 -877) translate(1397 877)"/>
                <g>
                    <g transform="translate(-1397 -877) translate(1397 877) translate(0 5) translate(0 .468)">
                        <mask id="kt545gfjtb" fill="#fff">
                            <use xlink:href="#l78vy44zja"/>
                        </mask>
                        <path fill="#000" d="M57.733 6.497v7.646h-8.817V6.505c0-2.42 2.012-4.44 4.43-4.44h.025c2.424.024 4.373 2.001 4.362 4.425v.007zM46.983 45.79c0 3.438-2.75 6.278-6.188 6.278h-.02c-3.455-.025-6.24-2.836-6.232-6.292v-4.66c.003-.54-.425-.986-.966-1.005H10.403l.248-33.966c0-2.247 1.858-4.08 4.14-4.08h34.02c-1.1 1.208-1.828 2.737-1.828 4.442V45.79zm-38.83 6.278h-.007c-3.437 0-6.213-2.84-6.213-6.277v-3.747H32.61v3.732c-.008 2.175.851 4.262 2.387 5.803.163.164.334.248.508.49H8.152zM53.372.133H14.792c-3.348 0-6.073 2.698-6.073 6.004L8.47 40.11H.942c-.534 0-.942.472-.942 1.006v4.675c0 4.377 3.502 7.956 7.73 8.153V54h32.49v-.064c.241.01.388.064.553.064h.024c4.508-.026 8.143-3.701 8.119-8.21V16.075h9.808c.533 0 .941-.483.941-1.016V6.481C59.671 2.994 56.86.158 53.373.133z" mask="url(#kt545gfjtb)"/>
                    </g>
                    <path fill="#000" d="M21.62 12.36l6.582-3.247 6.582 3.257v6.29c0 1.455-.953 3.306-2.157 4.127l-4.436 3.034-4.42-3.034c-1.203-.821-2.151-2.672-2.151-4.128v-6.298zm1.069 12.023l4.982 3.406c.325.224.755.224 1.08 0l4.966-3.405c1.725-1.177 3-3.637 3-5.725v-6.89c.01-.365-.19-.702-.515-.869l-7.585-3.73c-.266-.132-.579-.132-.845 0l-7.57 3.72c-.325.166-.526.504-.515.868v6.901c0 2.088 1.277 4.548 3.002 5.724z" transform="translate(-1397 -877) translate(1397 877) translate(0 5)"/>
                    <path fill="#000" d="M26.568 20.118c.18.184.426.288.684.29h.002c.256-.001.502-.104.683-.286l3.844-3.845c.378-.377.378-.99 0-1.367-.376-.378-.989-.378-1.367-.001l-3.157 3.157-1.262-1.274c-.376-.38-.988-.383-1.366-.007-.38.376-.383.988-.007 1.368l1.946 1.965zM40.22 30.553H17.03c-.534 0-.966.433-.966.966 0 .534.432.967.966.967h23.19c.534 0 .966-.433.966-.967 0-.533-.432-.966-.966-.966M40.22 35.022H17.03c-.534 0-.966.433-.966.966 0 .534.432.967.966.967h23.19c.534 0 .966-.433.966-.967 0-.533-.432-.966-.966-.966" transform="translate(-1397 -877) translate(1397 877) translate(0 5)"/>
                </g>
            </g>
        </g>
    </g>
</svg>
