<svg xmlns="http://www.w3.org/2000/svg" width="40" height="40" viewBox="0 0 40 40">
    <g fill="none" fill-rule="evenodd">
        <g fill="#5A7481" fill-rule="nonzero">
            <g>
                <path d="M19.994 0C8.952 0 0 8.952 0 19.994 0 31.037 8.952 39.99 19.994 39.99c11.043 0 19.995-8.952 19.995-19.995C39.977 8.957 31.032.012 19.994 0zm0 37.132c-9.465 0-17.138-7.673-17.138-17.138 0-9.465 7.673-17.138 17.138-17.138 9.465 0 17.138 7.673 17.138 17.138-.01 9.461-7.677 17.128-17.138 17.138z" transform="translate(-400 -3156) translate(400 3156)"/>
                <path d="M21.423 18.566h-2.857c-1.577 0-2.856-1.279-2.856-2.856v-1.428c0-1.578 1.279-2.857 2.856-2.857h2.857c1.577 0 2.856 1.28 2.856 2.857 0 .789.64 1.428 1.428 1.428.789 0 1.428-.64 1.428-1.428 0-3.155-2.557-5.713-5.712-5.713V7.141c0-.789-.64-1.428-1.429-1.428-.788 0-1.428.64-1.428 1.428v1.428c-3.155 0-5.713 2.558-5.713 5.713v1.428c0 3.155 2.558 5.713 5.713 5.713h2.857c1.577 0 2.856 1.279 2.856 2.856v1.428c0 1.578-1.279 2.856-2.856 2.856h-2.857c-1.577 0-2.856-1.278-2.856-2.856 0-.789-.64-1.428-1.428-1.428-.789 0-1.429.64-1.429 1.428 0 3.155 2.558 5.713 5.713 5.713v1.428c0 .789.64 1.428 1.428 1.428.79 0 1.429-.64 1.429-1.428V31.42c3.155 0 5.712-2.558 5.712-5.713v-1.428c0-3.155-2.557-5.713-5.712-5.713z" transform="translate(-400 -3156) translate(400 3156)"/>
            </g>
        </g>
    </g>
</svg>
