<svg xmlns="http://www.w3.org/2000/svg" width="46" height="62" viewBox="0 0 46 62">
    <g fill="none" fill-rule="evenodd">
        <g>
            <g>
                <path fill="#FFC399" d="M6 14H46V62H6z" transform="translate(-785 -880) translate(785 880)"/>
                <g fill="#000">
                    <path d="M12.015 0v3.574H0V56h40V3.574H27.986V0h-15.97zm1.791 5.362V1.787h12.388v5.958H13.806V5.362zm14.18 4.17v-4.17h10.223v48.851H1.792V5.362h10.223v4.17h15.97z" transform="translate(-785 -880) translate(785 880)"/>
                    <path d="M7.896 41.106L31.776 41.106 31.776 39.319 7.896 39.319zM7.896 48.851L31.776 48.851 31.776 47.064 7.896 47.064zM7.896 33.957h5.97V23.83h-5.97v10.127zm1.79-1.787h2.389v-6.553H9.687v6.553zM16.85 33.957h5.97V19.66h-5.97v14.297zm1.792-1.787h2.388V21.447h-2.388V32.17zM25.806 33.957h5.97V13.702h-5.97v20.255zm1.791-1.787h2.388V15.49h-2.388v16.68z" transform="translate(-785 -880) translate(785 880)"/>
                </g>
            </g>
        </g>
    </g>
</svg>
