<svg xmlns="http://www.w3.org/2000/svg" xmlns:xlink="http://www.w3.org/1999/xlink" width="59" height="56" viewBox="0 0 59 56">
    <defs>
        <path id="11v0tmv3ua" d="M0 0L55.549 0 55.549 55.549 0 55.549z"/>
    </defs>
    <g fill="none" fill-rule="evenodd">
        <g>
            <g>
                <path fill="#91EFF4" d="M0 36H21V42H0zM34 36H55V42H34z" transform="translate(-1552 -877) translate(1552 877)"/>
                <g transform="translate(-1552 -877) translate(1552 877) translate(3)">
                    <mask id="i7epz24ubb" fill="#fff">
                        <use xlink:href="#11v0tmv3ua"/>
                    </mask>
                    <path fill="#000" d="M49.068 38.884H39.81c-2.199-.002-4.094-1.549-4.536-3.703h18.33c-.442 2.154-2.337 3.701-4.536 3.703zM44.2 14.778c.153.054.321.047.469-.019l8.512 18.57H35.698L44.2 14.78zM31.094 49.994h-6.64l1.852-1.851h2.936l1.852 1.851zm5.938 1.852c1.177.001 2.226.743 2.62 1.851H15.897c.394-1.108 1.443-1.85 2.619-1.851h18.516zm-10.184-5.554H28.7v-33.33h-1.852v33.33zm0-35.181H28.7V9.259h-1.852v1.852zm-.622-8.503c.72-.856 1.998-.965 2.854-.244.088.075.169.156.243.244.375.476.507 1.099.359 1.687l-.78 3.112h-2.257l-.778-3.112c-.148-.588-.016-1.211.359-1.687zM19.85 33.329H2.368l8.504-18.553c.156.041.32.041.474 0l8.505 18.553zm-4.113 5.555H6.48c-2.198-.002-4.094-1.549-4.536-3.703h18.331c-.442 2.154-2.337 3.701-4.537 3.703zm39.718-5.012l.008-.003-9.12-19.899 2.212-1.1-.828-1.658-2.156 1.074-.292-.636c-.212-.465-.762-.669-1.227-.456-.201.093-.363.254-.456.456l-.26.568c-1.569-.729-3.279-1.107-5.009-1.107h-7.776V9.259h1.851V7.407h-1.591l.665-2.664C31.99 2.698 30.745.626 28.7.115c-2.045-.511-4.118.732-4.63 2.777-.151.608-.151 1.244 0 1.851l.667 2.664h-1.592V9.26h1.852v1.852h-7.772c-1.732 0-3.444.38-5.014 1.11l-.26-.568c-.213-.465-.762-.669-1.227-.456-.202.092-.364.254-.456.456l-.291.636-2.156-1.079-.829 1.66 2.212 1.105-9.12 19.894c-.056.122-.084.253-.084.387.004 3.577 2.903 6.476 6.48 6.48h9.258c3.578-.004 6.478-2.903 6.481-6.48-.002-.134-.033-.265-.092-.384L12.98 13.898c1.33-.617 2.779-.937 4.244-.937h7.772v33.873l-3.16 3.16h-3.321c-2.555.003-4.626 2.074-4.63 4.63 0 .511.415.925.927.925h25.923c.51 0 .925-.414.925-.925-.003-2.556-2.073-4.627-4.629-4.63h-3.32l-3.16-3.16V12.961h7.776c1.466 0 2.914.32 4.243.937L33.413 33.87c-.056.122-.085.253-.084.387.004 3.577 2.903 6.476 6.481 6.48h9.258c3.577-.004 6.477-2.903 6.48-6.48-.002-.134-.033-.265-.092-.384z" mask="url(#i7epz24ubb)"/>
                </g>
            </g>
        </g>
    </g>
</svg>
