<svg xmlns="http://www.w3.org/2000/svg" width="46" height="50" viewBox="0 0 46 50">
    <g fill="none" fill-rule="evenodd">
        <g fill-rule="nonzero">
            <g>
                <g fill="#CFD8DC">
                    <path d="M1.058 27.924c.551 0 .998-.446.998-.997v-3.99c0-.55-.447-.997-.998-.997-.55 0-.997.447-.997.998v3.989c0 .55.446.997.997.997zM3.053 31.913h-.997v-.997c0-.55-.447-.997-.998-.997-.55 0-.997.446-.997.997v1.995c0 .55.446.997.997.997h1.995c.55 0 .997-.447.997-.997 0-.551-.446-.998-.997-.998zM3.053 0H1.058C.508 0 .061.447.061.997v1.995c0 .55.446.997.997.997.551 0 .998-.446.998-.997v-.997h.997c.55 0 .997-.447.997-.998C4.05.447 3.604 0 3.053 0zM1.058 11.967c.551 0 .998-.446.998-.997V6.981c0-.55-.447-.997-.998-.997-.55 0-.997.446-.997.997v3.99c0 .55.446.996.997.996zM11.031 31.913H7.042c-.55 0-.997.447-.997.998 0 .55.446.997.997.997h3.99c.55 0 .997-.447.997-.997 0-.551-.447-.998-.998-.998zM1.058 19.946c.551 0 .998-.447.998-.998V14.96c0-.55-.447-.997-.998-.997-.55 0-.997.447-.997.997v3.99c0 .55.446.997.997.997zM32.972 5.984c-.551 0-.998.446-.998.997v3.99c0 .55.447.997.998.997.55 0 .997-.447.997-.998V6.981c0-.55-.447-.997-.997-.997zM32.972 13.962c-.551 0-.998.447-.998.997v3.99c0 .55.447.997.998.997.55 0 .997-.447.997-.997v-3.99c0-.55-.447-.997-.997-.997zM26.988 0h-3.99c-.55 0-.997.447-.997.997 0 .551.447.998.998.998h3.989c.55 0 .997-.447.997-.998 0-.55-.446-.997-.997-.997zM32.972 0h-1.995c-.55 0-.997.447-.997.997 0 .551.446.998.997.998h.997v.997c0 .55.447.997.998.997.55 0 .997-.446.997-.997V.997c0-.55-.447-.997-.997-.997zM19.01 31.913h-3.99c-.55 0-.997.447-.997.998 0 .55.447.997.997.997h3.99c.55 0 .997-.447.997-.997 0-.551-.447-.998-.998-.998zM19.01 0h-3.99c-.55 0-.997.447-.997.997 0 .551.447.998.997.998h3.99c.55 0 .997-.447.997-.998 0-.55-.447-.997-.998-.997zM11.031 0H7.042c-.55 0-.997.447-.997.997 0 .551.446.998.997.998h3.99c.55 0 .997-.447.997-.998 0-.55-.447-.997-.998-.997z" transform="translate(-761 -2455) translate(761 2455)"/>
                </g>
                <path fill="#3AC5CC" d="M45.645 34.199l-25.93-25.93c-.388-.39-1.02-.39-1.41-.001-.188.187-.293.442-.293.708v37.897c0 .55.448.996.998.996.28 0 .545-.117.733-.322l10.675-11.645H44.94c.55.001.998-.444 1-.995 0-.266-.106-.52-.294-.708z" transform="translate(-761 -2455) translate(761 2455)"/>
            </g>
        </g>
    </g>
</svg>
