<svg xmlns="http://www.w3.org/2000/svg" width="54" height="46" viewBox="0 0 54 46">
    <g fill="none" fill-rule="evenodd">
        <g>
            <g>
                <path fill="#8FDC9C" d="M0 0H37V25H0z" transform="translate(-1242 -888) translate(1242 888)"/>
                <g fill="#000" fill-rule="nonzero" transform="translate(-1242 -888) translate(1242 888) translate(4 3)">
                    <path d="M40.286 23.197V4.701c0-2.561-2.072-4.65-4.613-4.65H4.613C2.07.051 0 2.14 0 4.701v18.496c0 2.562 2.071 4.65 4.612 4.65H5.93v5.576c0 1.028.826 1.862 1.857 1.862.53 0 1.04-.237 1.398-.648l5.826-6.8h20.674c2.53.01 4.602-2.078 4.602-4.64zm-25.857 2.13c-.368 0-.705.154-.95.432l-5.06 5.894v-5.071c0-.7-.562-1.265-1.256-1.265h-2.55c-1.164 0-2.113-.957-2.113-2.13V4.701c0-1.173.949-2.13 2.112-2.13h31.061c1.164 0 2.113.957 2.113 2.13v18.496c0 1.173-.95 2.13-2.113 2.13H14.43z"/>
                    <path d="M40.786 42.26c.357.421.867.647 1.387.647.215 0 .44-.04.654-.123.734-.278 1.204-.957 1.204-1.749V35.46h1.316c2.54 0 4.612-2.089 4.612-4.65V12.314c0-2.562-2.071-4.65-4.612-4.65-.694 0-1.255.566-1.255 1.255 0 .7.561 1.265 1.255 1.265 1.163 0 2.112.957 2.112 2.13V30.81c0 1.173-.949 2.13-2.112 2.13h-2.561c-.694 0-1.255.565-1.255 1.265v5.071l-5.062-5.894c-.234-.278-.581-.432-.949-.432H16.745c-.694 0-1.255.565-1.255 1.265s.561 1.265 1.255 1.265h18.204l5.837 6.78z"/>
                    <ellipse cx="20.143" cy="14.392" rx="1.49" ry="1.502"/>
                    <ellipse cx="25.133" cy="14.392" rx="1.49" ry="1.502"/>
                    <ellipse cx="15.153" cy="14.392" rx="1.49" ry="1.502"/>
                </g>
            </g>
        </g>
    </g>
</svg>
