<svg xmlns="http://www.w3.org/2000/svg" width="42" height="43" viewBox="0 0 42 43">
    <g fill="none" fill-rule="evenodd">
        <path fill="#FFCB19" fill-rule="nonzero" d="M35.51 29.46a2.238 2.238 0 0 1-2.235-2.236V19.15c0-5.619-3.794-10.367-8.955-11.819A4.4 4.4 0 0 0 25.42 4.42 4.424 4.424 0 0 0 21 0a4.424 4.424 0 0 0-4.419 4.419A4.4 4.4 0 0 0 17.68 7.33c-5.16 1.452-8.955 6.2-8.955 11.819v8.076A2.237 2.237 0 0 1 6.49 29.46a3.17 3.17 0 0 0-3.166 3.165v.444a3.17 3.17 0 0 0 3.166 3.166h9.6v1.02a4.916 4.916 0 0 0 4.91 4.91 4.916 4.916 0 0 0 4.91-4.91v-1.02h9.6a3.17 3.17 0 0 0 3.166-3.166v-.444a3.17 3.17 0 0 0-3.166-3.166zM21 1.963a2.458 2.458 0 0 1 2.455 2.455A2.458 2.458 0 0 1 21 6.874a2.458 2.458 0 0 1-2.455-2.455A2.458 2.458 0 0 1 21 1.964zm2.946 35.29A2.95 2.95 0 0 1 21 40.202a2.95 2.95 0 0 1-2.946-2.946v-1.02h5.892v1.02zm12.766-4.185c0 .663-.54 1.202-1.202 1.202H6.49c-.663 0-1.202-.54-1.202-1.202v-.444c0-.663.54-1.202 1.202-1.202a4.204 4.204 0 0 0 4.2-4.199V19.15c0-5.686 4.625-10.311 10.31-10.311 5.685 0 10.31 4.625 10.31 10.31v8.076c0 .196.015.388.041.577h-5.136a.982.982 0 1 0 0 1.964h5.955a4.194 4.194 0 0 0 3.34 1.658c.663 0 1.202.54 1.202 1.202v.444z"/>
        <path fill="#FFCB19" d="M21.845 27.8h-.098a.982.982 0 1 0 0 1.965h.098a.982.982 0 1 0 0-1.964z"/>
        <path fill="#A8AAB7" d="M41.982 16.8a21.202 21.202 0 0 0-5.74-12.248.982.982 0 1 0-1.42 1.358 19.228 19.228 0 0 1 5.208 11.108.982.982 0 1 0 1.952-.217zM36.126 17.453a.982.982 0 1 0 1.952-.218 17.253 17.253 0 0 0-4.673-9.966.982.982 0 1 0-1.419 1.358 15.28 15.28 0 0 1 4.14 8.826zM7.147 4.522a.982.982 0 0 0-1.388.03A21.203 21.203 0 0 0 .019 16.8a.982.982 0 1 0 1.951.217A19.228 19.228 0 0 1 7.177 5.91a.982.982 0 0 0-.03-1.388zM4.79 18.32a.982.982 0 0 0 1.085-.867 15.279 15.279 0 0 1 4.139-8.826.982.982 0 1 0-1.418-1.358 17.252 17.252 0 0 0-4.674 9.966.982.982 0 0 0 .868 1.085z"/>
    </g>
</svg>
