<svg xmlns="http://www.w3.org/2000/svg" xmlns:xlink="http://www.w3.org/1999/xlink" width="8" height="8" viewBox="0 0 8 8">
    <defs>
        <path id="prefix__a" d="M6.308 7.705L4.002 5.401 1.692 7.71c-.386.388-1.015.388-1.401 0-.388-.386-.388-1.013 0-1.4l2.31-2.31L.29 1.692c-.388-.387-.388-1.014 0-1.4.386-.388 1.015-.388 1.401 0l2.31 2.308L6.308.295c.386-.388 1.014-.388 1.401 0 .387.387.387 1.014 0 1.4L5.404 4l2.305 2.305c.388.386.388 1.014 0 1.4-.386.387-1.015.387-1.401 0z"/>
    </defs>
    <g fill="none" fill-rule="evenodd">
        <use fill="#FFF" xlink:href="#prefix__a"/>
    </g>
</svg>
