<svg xmlns="http://www.w3.org/2000/svg" width="14" height="12" viewBox="0 0 14 12">
    <path fill="#333" fill-rule="nonzero" d="M13.578.41a1.294 1.294 0 0 0-.949-.394H1.344c-.37 0-.686.132-.95.395C.133.674 0 .99 0 1.36v9.136c0 .37.132.685.395.949.263.263.58.394.949.394h11.285c.37 0 .686-.131.95-.394.263-.264.394-.58.394-.95V1.36c0-.37-.131-.686-.395-.95zM4.3 10.497a.261.261 0 0 1-.076.193.261.261 0 0 1-.193.075H1.344a.262.262 0 0 1-.194-.075.262.262 0 0 1-.075-.193V8.883a.26.26 0 0 1 .075-.193.261.261 0 0 1 .194-.075H4.03a.26.26 0 0 1 .193.075.26.26 0 0 1 .075.193v1.613zm0-3.225a.261.261 0 0 1-.076.193.261.261 0 0 1-.193.076H1.344a.262.262 0 0 1-.194-.076.261.261 0 0 1-.075-.193V5.66c0-.078.025-.143.075-.193a.262.262 0 0 1 .194-.076H4.03c.078 0 .143.025.193.076.05.05.075.115.075.193V7.27zm0-3.224a.261.261 0 0 1-.076.193.262.262 0 0 1-.193.075H1.344a.262.262 0 0 1-.194-.075.262.262 0 0 1-.075-.193V2.434c0-.078.025-.142.075-.193a.262.262 0 0 1 .194-.075H4.03c.078 0 .143.025.193.075.05.05.075.115.075.193v1.613zm4.299 6.449a.262.262 0 0 1-.075.193.262.262 0 0 1-.194.075H5.643a.262.262 0 0 1-.193-.075.262.262 0 0 1-.076-.193V8.883a.26.26 0 0 1 .076-.193.261.261 0 0 1 .193-.075H8.33a.26.26 0 0 1 .193.075c.05.05.076.115.076.193v1.613zm0-3.225a.262.262 0 0 1-.075.193.261.261 0 0 1-.194.076H5.643a.262.262 0 0 1-.193-.076.261.261 0 0 1-.076-.193V5.66c0-.078.025-.143.076-.193a.262.262 0 0 1 .193-.076H8.33c.079 0 .143.025.193.076.05.05.076.115.076.193V7.27zm0-3.224a.262.262 0 0 1-.075.193.262.262 0 0 1-.194.075H5.643a.262.262 0 0 1-.193-.075.262.262 0 0 1-.076-.193V2.434c0-.078.025-.142.076-.193a.262.262 0 0 1 .193-.075H8.33c.079 0 .143.025.193.075.05.05.076.115.076.193v1.613zm4.3 6.449a.262.262 0 0 1-.076.193.262.262 0 0 1-.194.075H9.944a.261.261 0 0 1-.194-.075.262.262 0 0 1-.075-.193V8.883a.26.26 0 0 1 .075-.193.26.26 0 0 1 .194-.075h2.687c.078 0 .142.025.193.075.05.05.075.115.075.193v1.613zm0-3.225a.262.262 0 0 1-.076.193.262.262 0 0 1-.194.076H9.944a.261.261 0 0 1-.194-.076.261.261 0 0 1-.075-.193V5.66c0-.078.025-.143.075-.193a.262.262 0 0 1 .194-.076h2.687c.078 0 .142.025.193.076.05.05.075.115.075.193V7.27zm0-3.224a.262.262 0 0 1-.076.193.263.263 0 0 1-.194.075H9.944a.262.262 0 0 1-.194-.075.262.262 0 0 1-.075-.193V2.434c0-.078.025-.142.075-.193a.261.261 0 0 1 .194-.075h2.687c.078 0 .142.025.193.075.05.05.075.115.075.193v1.613z"/>
</svg>
