<svg xmlns="http://www.w3.org/2000/svg" width="14" height="14" viewBox="0 0 14 14">
    <g fill="none" fill-rule="evenodd">
        <path d="M0 0h14v14H0z"/>
        <path fill="#333" d="M11.375 11.375V8.75h1.75v4.375H7.437v-1.75h3.938zm-4.813 1.75H.875V8.75h1.75v2.625h3.938v1.75zm2.625-5.25v.875L7.438 7l1.75-1.75v.875h3.938v1.75H9.187zm-4.374-1.75V5.25L6.563 7l-1.75 1.75v-.875H.874v-1.75h3.938zm6.562-3.5H7.437V.875h5.688V5.25h-1.75V2.625zM.875.875h5.688v1.75H2.624V5.25H.875V.875z"/>
    </g>
</svg>
