<svg xmlns="http://www.w3.org/2000/svg" width="14" height="12" viewBox="0 0 14 12">
    <g fill="#333" fill-rule="evenodd">
        <path d="M13.137.023H4.971c-.35 0-.584.233-.584.583v1.167c0 .35.234.583.584.583h8.166c.35 0 .584-.233.584-.583V.606c0-.35-.234-.583-.584-.583M13.137 4.68H4.971c-.35 0-.584.232-.584.582V6.43c0 .35.234.583.584.583h8.166c.35 0 .584-.233.584-.583V5.262c0-.35-.234-.583-.584-.583M13.137 9.392H4.971c-.35 0-.584.234-.584.584v1.166c0 .35.234.584.584.584h8.166c.35 0 .584-.234.584-.584V9.976c0-.35-.234-.584-.584-.584M.203 2.379h1.355a.117.117 0 0 0 .117-.117v-.415a.117.117 0 0 0-.117-.117h-.27V.117A.117.117 0 0 0 1.173 0H.795a.113.113 0 0 0-.062.018 1.335 1.335 0 0 1-.491.177.117.117 0 0 0-.096.115v.317c0 .064.053.117.118.117h.278v.986H.203a.117.117 0 0 0-.117.117v.415c0 .064.053.117.117.117M.321 5.444a.117.117 0 0 0 .082.034c.033-.006.064-.013.086-.038.11-.119.192-.17.278-.17.04 0 .162 0 .162.187 0 .282-.412.696-.858 1.101a.118.118 0 0 0-.038.087v.294c0 .064.052.116.116.116h1.489a.117.117 0 0 0 .116-.116v-.433a.117.117 0 0 0-.116-.116h-.396l-.055.001c.315-.365.47-.681.47-.964 0-.465-.338-.79-.821-.79-.318 0-.55.106-.797.367a.116.116 0 0 0 .003.163l.279.277zM1.469 10.506a.58.58 0 0 0 .223-.47c0-.436-.326-.707-.852-.707-.265 0-.507.096-.741.292a.118.118 0 0 0-.015.164l.259.315c.02.024.049.04.08.042a.107.107 0 0 0 .086-.028c.127-.11.21-.15.308-.15.107 0 .129.04.129.11 0 .055 0 .166-.365.166a.117.117 0 0 0-.117.117v.36c0 .065.052.117.117.117.43 0 .43.098.43.178 0 .085-.07.128-.211.128-.122 0-.245-.06-.366-.176a.116.116 0 0 0-.175.016l-.236.323a.117.117 0 0 0 .005.145c.19.223.476.34.823.34.536 0 .91-.305.91-.742 0-.229-.106-.42-.292-.54"/>
    </g>
</svg>
