<svg xmlns="http://www.w3.org/2000/svg" width="10" height="11" viewBox="0 0 10 11">
    <path fill="#A4A4A4" fill-rule="nonzero" d="M9.986 2.5A2.502 2.502 0 0 0 9.062.804L8.761.56a2.539 2.539 0 0 0-3.558.374L.563 6.65A2.5 2.5 0 0 0 .015 8.5c.071.67.4 1.272.925 1.696l.301.244a2.538 2.538 0 0 0 3.548-.363l3.13-3.855A1.6 1.6 0 0 0 7.68 3.97l-.158-.128a1.612 1.612 0 0 0-2.259.238L2.139 7.928a.586.586 0 0 0 .457.956c.179 0 .346-.079.458-.217l3.124-3.849a.428.428 0 0 1 .603-.063l.159.127a.424.424 0 0 1 .063.602l-3.12 3.844a1.357 1.357 0 0 1-1.902.2l-.302-.244a1.338 1.338 0 0 1-.494-.907c-.038-.358.066-.71.294-.989l4.64-5.715a1.357 1.357 0 0 1 1.902-.2l.3.243c.58.468.67 1.318.201 1.896a.582.582 0 0 0 .088.825.587.587 0 0 0 .828-.087c.424-.522.619-1.18.548-1.85z"/>
</svg>
