<svg xmlns="http://www.w3.org/2000/svg" width="15" height="15" viewBox="0 0 15 15">
    <g>
        <path d="M.52 4.52c.289 0 .522-.233.522-.52V1.777l3.354 3.354c.102.102.235.153.368.153.134 0 .267-.051.369-.153.203-.203.203-.533 0-.736L1.778 1.042H4c.288 0 .521-.233.521-.521 0-.288-.233-.52-.52-.52H.52C.234 0 0 .232 0 .52v3.478c0 .288.233.521.52.521zM14.434 10.435c-.288 0-.52.233-.52.52v2.221L10.454 9.72c-.203-.204-.533-.204-.736 0-.204.203-.204.533 0 .736l3.458 3.458h-2.221c-.288 0-.52.233-.52.52 0 .288.232.522.52.522h3.478c.288 0 .52-.234.52-.521v-3.478c0-.288-.232-.521-.52-.521zM4.5 9.719l-3.458 3.457v-2.22c0-.288-.233-.521-.52-.521-.289 0-.522.233-.522.52v3.479c0 .288.233.52.521.52H4c.288 0 .521-.232.521-.52 0-.288-.233-.52-.52-.52H1.778l3.457-3.459c.203-.203.203-.533 0-.736-.203-.204-.533-.204-.737 0zM14.434 0h-3.478c-.288 0-.521.233-.521.521 0 .288.233.52.52.52h2.222L9.823 4.397c-.204.203-.204.533 0 .737.101.101.235.152.368.152s.266-.05.368-.152l3.354-3.355V4c0 .288.233.521.521.521.288 0 .52-.233.52-.52V.52c0-.288-.232-.52-.52-.52z"/>
    </g>
</svg>
