<svg xmlns="http://www.w3.org/2000/svg" width="15" height="13" viewBox="0 0 15 13">
    <path fill="#1E201D" fill-rule="nonzero" stroke="#000" stroke-width=".2" d="M10.777 6.748a.344.344 0 0 0 0-.492.338.338 0 0 0-.487 0L7.8 8.742V.528a.346.346 0 1 0-.693 0v8.214L4.62 6.256a.344.344 0 0 0-.491 0 .344.344 0 0 0 0 .492l3.08 3.08a.353.353 0 0 0 .492 0l3.075-3.08zm2.441 2.255c0-.192.152-.344.344-.344.192 0 .349.152.349.344v3.38a.35.35 0 0 1-.349.349H1.344a.346.346 0 0 1-.344-.35v-3.38c0-.19.152-.343.344-.343.191 0 .349.152.349.344v3.036h11.525V9.003z"/>
</svg>
