<svg xmlns="http://www.w3.org/2000/svg" width="12" height="13" viewBox="0 0 12 13">
    <g fill="#000" fill-rule="nonzero">
        <path d="M3.437 6.465a.579.579 0 0 0-.57-.588H.59a.579.579 0 0 0-.57.588c0 .324.255.587.57.587h2.278c.315 0 .57-.263.57-.587zM11.411 5.877h-1.139a.579.579 0 0 0-.57.588c0 .324.256.587.57.587h1.14c.314 0 .569-.263.569-.587a.579.579 0 0 0-.57-.588zM6.285 3.526c.314 0 .57-.263.57-.587V.588A.579.579 0 0 0 6.284 0a.579.579 0 0 0-.57.588v2.35c0 .325.255.588.57.588zM6.285 9.403a.579.579 0 0 0-.57.588v2.35c0 .325.255.588.57.588.314 0 .57-.263.57-.587V9.99a.579.579 0 0 0-.57-.588zM2.66 1.893a.557.557 0 0 0-.806 0 .601.601 0 0 0 0 .832l1.611 1.662a.56.56 0 0 0 .806 0 .601.601 0 0 0 0-.831L2.66 1.893zM9.104 8.543a.557.557 0 0 0-.805 0 .601.601 0 0 0 0 .83l1.61 1.663a.559.559 0 0 0 .806 0 .601.601 0 0 0 0-.831l-1.61-1.662zM3.465 8.543l-1.61 1.662a.601.601 0 0 0 0 .831.559.559 0 0 0 .805 0l1.61-1.662a.601.601 0 0 0 0-.831.557.557 0 0 0-.805 0z"/>
    </g>
</svg>
