<svg xmlns="http://www.w3.org/2000/svg" xmlns:xlink="http://www.w3.org/1999/xlink" width="10" height="10" viewBox="0 0 10 10">
    <defs>
        <path id="a" d="M8.75 7.5c0-.675-.72-1.261-1.789-1.591A2.487 2.487 0 0 1 5 6.875c-.8 0-1.504-.383-1.961-.966-1.07.33-1.789.916-1.789 1.591v1.25h7.5V7.5zm-2.5-5a1.25 1.25 0 1 0-2.5 0v1.875a1.25 1.25 0 1 0 2.5 0V2.5zM9.375 10H.625A.625.625 0 0 1 0 9.375V7.5c0-1.165 1.03-2.17 2.542-2.707a2.425 2.425 0 0 1-.042-.418V2.5a2.5 2.5 0 0 1 5 0v1.875c0 .143-.019.282-.043.418C8.97 5.33 10 6.335 10 7.5v1.875c0 .345-.28.625-.625.625z"/>
    </defs>
    <use fill="#A4A4A4" fill-rule="evenodd" xlink:href="#a"/>
</svg>
