<svg xmlns="http://www.w3.org/2000/svg" width="13" height="14" viewBox="0 0 13 14">
    <g fill="#999" fill-rule="nonzero">
        <path d="M12.572 4.404a.521.521 0 0 0-.975.37 5.413 5.413 0 0 1-.088 4.069 5.404 5.404 0 0 1-2.98 2.907c-1.35.54-2.829.52-4.164-.052a5.405 5.405 0 0 1-2.907-2.98 5.404 5.404 0 0 1 .052-4.163 5.405 5.405 0 0 1 2.98-2.908 5.4 5.4 0 0 1 3.99-.017l-.37.624c-.101.171-.023.285.173.254l1.755-.284a.292.292 0 0 0 .237-.399L9.679.15c-.066-.188-.204-.201-.305-.03l-.357.602A6.439 6.439 0 0 0 4.103.679 6.44 6.44 0 0 0 .551 4.144a6.44 6.44 0 0 0-.061 4.96 6.44 6.44 0 0 0 3.464 3.552 6.44 6.44 0 0 0 4.961.062 6.44 6.44 0 0 0 3.552-3.464 6.45 6.45 0 0 0 .105-4.85z"/>
        <path d="M6.28 2.536a.422.422 0 0 0-.422.422v4.206l3.846 1.988a.422.422 0 0 0 .387-.75L6.703 6.65V2.958a.422.422 0 0 0-.422-.422z"/>
    </g>
</svg>
