<svg xmlns="http://www.w3.org/2000/svg" width="11" height="14" viewBox="0 0 11 14">
    <g fill="#364AED" fill-rule="nonzero">
        <path d="M7.471 2.396h-6.37c-.597 0-1.083.486-1.083 1.084v9.14c0 .597.486 1.082 1.083 1.082h6.37c.598 0 1.083-.485 1.083-1.083V3.48a1.087 1.087 0 0 0-1.083-1.083zm.323 10.22c0 .18-.146.326-.326.326h-6.37a.326.326 0 0 1-.325-.326V3.48c0-.18.146-.326.326-.326h6.37c.18 0 .325.146.325.326v9.136z"/>
        <path d="M9.907 0h-6.37C2.94 0 2.454.485 2.454 1.083c0 .21.168.379.379.379.21 0 .379-.168.379-.379 0-.18.146-.325.325-.325h6.37c.18 0 .326.146.326.325v9.14c0 .18-.146.325-.326.325a.377.377 0 0 0-.379.379c0 .21.169.379.379.379.598 0 1.083-.486 1.083-1.083v-9.14C10.99.485 10.505 0 9.907 0z"/>
    </g>
</svg>
