<svg xmlns="http://www.w3.org/2000/svg" width="14" height="12" viewBox="0 0 14 12">
    <path fill="#C7C7CC" fill-rule="evenodd" d="M2.725 2.01H1.579V1.721 1.69l.002-.028c0-.02.002-.039.004-.058a.246.246 0 0 1 .016-.057.177.177 0 0 1 .03-.048.21.21 0 0 1 .039-.035.227.227 0 0 1 .097-.023h.772c.018 0 .033 0 .05.005a.15.15 0 0 1 .047.018c.014.01.027.021.04.035a.21.21 0 0 1 .043.105.322.322 0 0 1 .004.058c.002.01.002.019.002.028v.319zM7 4.26a2.595 2.595 0 0 0-2.597 2.593A2.594 2.594 0 0 0 7 9.445a2.594 2.594 0 0 0 2.597-2.591A2.595 2.595 0 0 0 7 4.26zm7.134-.668l-.001-.112a1.638 1.638 0 0 0-.022-.242.77.77 0 0 0-.414-.567.81.81 0 0 0-.23-.076 1.511 1.511 0 0 0-.243-.021c-.037-.002-.074-.002-.111-.002H11.29c-.057 0-.115 0-.17-.002a2.512 2.512 0 0 1-.371-.033 1.229 1.229 0 0 1-.352-.116c-.111-.056-.235-.206-.3-.312-.153-.248-.123-.191-.25-.437-.031-.063-.038-.1-.063-.15a1.212 1.212 0 0 0-.518-.517 1.285 1.285 0 0 0-.352-.115 2.599 2.599 0 0 0-.37-.033H5.446c-.123.004-.248.011-.371.033a1.17 1.17 0 0 0-.869.631c-.025.05-.04.103-.064.151a2.668 2.668 0 0 1-.247.43c-.071.102-.19.266-.3.322a1.181 1.181 0 0 1-.351.115c-.123.024-.247.03-.37.033-.057.003-.115.003-.171.003H.878c-.037 0-.074 0-.112.002a1.51 1.51 0 0 0-.242.022.8.8 0 0 0-.426.217.797.797 0 0 0-.219.426 1.63 1.63 0 0 0-.02.242l-.002.111V10.676c0 .037 0 .076.002.111.002.08.007.163.02.242a.814.814 0 0 0 .22.426.792.792 0 0 0 .425.217c.08.016.162.019.242.021.038.001.075.01.112.01.044 0 .088.006.132.006h10.393l1.507.004h.071c.044 0 .088-.006.132-.006.037 0 .074-.004.111-.006.082-.001.163-.008.243-.023a.793.793 0 0 0 .426-.218.778.778 0 0 0 .218-.427c.015-.08.02-.16.022-.241l.001-.111c0-.044.01-.088.01-.133V3.724c0-.044-.01-.087-.01-.131zm-7.132 6.4a3.143 3.143 0 0 1-3.147-3.14c0-1.733 1.409-3.14 3.147-3.14a3.143 3.143 0 0 1 3.145 3.14 3.142 3.142 0 0 1-3.145 3.14zm4.006-5.65a.345.345 0 1 1 0-.69.345.345 0 0 1 0 .69z"/>
</svg>
