<svg xmlns="http://www.w3.org/2000/svg" width="12" height="12" viewBox="0 0 12 12">
    <g fill="#000" fill-rule="nonzero">
        <path d="M2.914 11.667V1.065l1.803 1.863a.293.293 0 0 0 .426 0 .316.316 0 0 0 0-.438L2.829.097a.3.3 0 0 0-.424 0L.088 2.49a.316.316 0 0 0 0 .438.292.292 0 0 0 .424 0l1.802-1.863v10.602c0 .172.135.311.302.311a.31.31 0 0 0 .298-.31zM9.154 11.885a.293.293 0 0 0 .426 0l2.315-2.393a.316.316 0 0 0 0-.438.292.292 0 0 0-.424 0l-1.802 1.864V.315a.306.306 0 0 0-.302-.311.306.306 0 0 0-.3.311v10.603l-1.8-1.864a.292.292 0 0 0-.425 0 .316.316 0 0 0 0 .438l2.312 2.393z"/>
    </g>
</svg>
