<svg xmlns="http://www.w3.org/2000/svg" width="13" height="14" viewBox="0 0 13 14">
    <g fill="#555" stroke="#555" stroke-width=".4">
        <path d="M11.622 2.774H9.057v-.418C9.057 1.608 8.45 1 7.701 1H5.263c-.748 0-1.356.608-1.356 1.356v.418H1.342c-.19 0-.342.152-.342.342 0 .19.152.343.342.343h.619v8.04c0 1.008.82 1.83 1.83 1.83h5.383c1.009 0 1.83-.822 1.83-1.83v-8.04h.618c.19 0 .343-.153.343-.343 0-.19-.153-.342-.343-.342zm-7.03-.418c0-.37.301-.672.671-.672h2.438c.37 0 .672.302.672.672v.418H4.591v-.418zm5.728 9.142c0 .631-.515 1.146-1.146 1.146H3.791c-.632 0-1.146-.515-1.146-1.146v-8.04h7.677v8.04h-.002z"/>
        <path d="M6.482 11.417c.19 0 .342-.152.342-.342V5.027c0-.19-.152-.342-.342-.342-.19 0-.342.152-.342.342v6.045c0 .19.152.345.342.345zM4.25 11.04c.19 0 .341-.153.341-.343V5.403c0-.19-.152-.343-.342-.343-.19 0-.342.152-.342.343v5.294c0 .19.155.342.342.342zM8.715 11.04c.19 0 .342-.153.342-.343V5.403c0-.19-.152-.343-.342-.343-.19 0-.342.152-.342.343v5.294c0 .19.152.342.342.342z"/>
    </g>
</svg>
