<svg xmlns="http://www.w3.org/2000/svg" width="10" height="13" viewBox="0 0 10 13">
    <g fill="#000" fill-rule="nonzero">
        <path d="M9.22 4.988H.78a.762.762 0 0 0-.767.756v6.5c0 .417.344.756.767.756h8.44c.423 0 .767-.34.767-.756v-6.5a.762.762 0 0 0-.767-.756zm-.154 7.105H.934V5.895h8.132v6.198z"/>
        <path d="M5 0C2.927 0 1.24 1.675 1.24 3.734V5.29h.921V3.734A2.836 2.836 0 0 1 5 .907a2.836 2.836 0 0 1 2.839 2.827V5.29h.92V3.734C8.76 1.675 7.073 0 5 0zM4.923 8.465a.457.457 0 0 0-.46.454v1.058c0 .25.206.453.46.453.255 0 .46-.203.46-.453V8.919a.457.457 0 0 0-.46-.454z"/>
    </g>
</svg>
