<svg xmlns="http://www.w3.org/2000/svg" width="13" height="15" viewBox="0 0 13 15">
    <path fill="#6D6D6D" fill-rule="nonzero" d="M12.703 2.461A.93.93 0 0 0 12 2.143h-1v-.804c0-.368-.122-.683-.367-.946A1.165 1.165 0 0 0 9.75 0h-.5c-.344 0-.638.131-.883.394A1.337 1.337 0 0 0 8 1.339v.804H5v-.804c0-.368-.122-.683-.367-.945A1.165 1.165 0 0 0 3.75 0h-.5c-.344 0-.638.131-.883.394A1.337 1.337 0 0 0 2 1.339v.804H1a.93.93 0 0 0-.703.318A1.067 1.067 0 0 0 0 3.214V13.93c0 .29.099.54.297.753A.93.93 0 0 0 1 15h11a.93.93 0 0 0 .703-.318c.198-.212.297-.463.297-.753V3.214c0-.29-.099-.541-.297-.753zM9 1.339a.27.27 0 0 1 .07-.192.235.235 0 0 1 .18-.075h.5c.073 0 .133.025.18.075.047.05.07.114.07.192V3.75a.271.271 0 0 1-.07.193.235.235 0 0 1-.18.075h-.5a.235.235 0 0 1-.18-.075A.271.271 0 0 1 9 3.75V1.34zm-6 0a.27.27 0 0 1 .07-.192.235.235 0 0 1 .18-.075h.5c.073 0 .133.025.18.075.047.05.07.114.07.192V3.75a.27.27 0 0 1-.07.193.235.235 0 0 1-.18.075h-.5a.235.235 0 0 1-.18-.075A.271.271 0 0 1 3 3.75V1.34zm9 12.59H1V5.357h11v8.572z"/>
</svg>
