<svg xmlns="http://www.w3.org/2000/svg" width="10" height="12" viewBox="0 0 10 12">
    <g opacity=".502">
        <path d="M9.874 2.108H9.32V1H8.212v1.108H3.78V1H2.671v1.108h-.554c-.612 0-1.103.496-1.103 1.108l-.005 7.758c0 .612.496 1.108 1.108 1.108h7.757c.613 0 1.109-.496 1.109-1.108V3.216c0-.612-.496-1.108-1.109-1.108zm0 8.866H2.117V4.879h7.757v6.095z" transform="translate(-1 -1)"/>
        <path d="M8.506 6.574L7.918 5.987 5.214 8.691 4.04 7.516 3.452 8.104 5.214 9.866z" transform="translate(-1 -1)"/>
    </g>
</svg>
