<svg xmlns="http://www.w3.org/2000/svg" width="35" height="35" viewBox="0 0 35 35">
    <g fill="#364AED" stroke="#364AED" stroke-width=".2">
        <path d="M34.513 2H2.487c-.129 0-.253.051-.344.143-.092.091-.143.215-.143.344v24.46c0 .13.051.253.143.345.091.091.215.143.344.143h12.914v4.084h-1.052c-1.653.002-2.992 1.341-2.994 2.994 0 .129.052.253.143.344.091.092.215.143.345.143h13.314c.13 0 .254-.051.345-.143.091-.091.143-.215.143-.344-.002-1.653-1.341-2.992-2.994-2.994h-1.052v-4.084h12.914c.129 0 .253-.052.344-.143.092-.092.143-.216.143-.345V2.487c0-.129-.051-.253-.143-.344-.091-.092-.215-.143-.344-.143h0zm-.488.975v19.354H2.975V2.975h31.05zm-9.415 31.05H12.39c.224-.899 1.032-1.53 1.959-1.531h8.302c.927 0 1.735.632 1.96 1.531h0zm-3.985-2.506h-4.25v-4.084h4.25v4.084zm.495-5.06H2.975v-3.155h31.05v3.156H21.12z" transform="translate(-1 -1)"/>
        <path d="M32.842 12.257c.129 0 .253-.051.344-.142.092-.092.143-.216.143-.345V7.778c0-.269-.218-.487-.487-.487-.27 0-.488.218-.488.487v3.992c0 .13.052.253.143.345.091.091.215.142.345.142zM20.17 24.395h-3.34c-.27 0-.488.218-.488.487 0 .27.218.487.487.487h3.342c.269 0 .487-.218.487-.487 0-.27-.218-.487-.487-.487z" transform="translate(-1 -1)"/>
    </g>
</svg>
