<svg xmlns="http://www.w3.org/2000/svg" xmlns:xlink="http://www.w3.org/1999/xlink" width="55" height="52" viewBox="0 0 55 52">
    <defs>
        <path id="a" d="M.067.123h11.832v35.2H.067z"/>
    </defs>
    <g fill="none" fill-rule="evenodd">
        <path fill="#b4b4b4" d="M16.494 28.645l-.24-1.067 1.68-.379-.651-2.9 1.232-.278 2.073 9.238-1.232.278-1.183-5.271-1.68.379zm-3.45 4.307l-1.003-.56a7.87 7.87 0 0 0 .9-1.292c.253-.455.44-.95.56-1.487.12-.536.164-1.119.134-1.747-.03-.629-.154-1.323-.373-2.083l1.272-.287c.221.892.336 1.728.344 2.508a7.13 7.13 0 0 0 1.426 1.636c.535.445 1.162.81 1.88 1.094l-.58 1.042a7.415 7.415 0 0 1-2.887-2.113 7.01 7.01 0 0 1-.628 1.76 7.867 7.867 0 0 1-1.046 1.529zM25.835 29.28c-.338.076-.62.166-.848.27a2.26 2.26 0 0 0-.538.325.848.848 0 0 0-.26.352.629.629 0 0 0-.026.351.626.626 0 0 0 .173.307c.09.091.22.16.386.206.167.046.375.067.625.063.25-.004.543-.044.881-.12.338-.077.62-.166.848-.27.228-.104.407-.212.538-.326a.895.895 0 0 0 .265-.353.606.606 0 0 0 .03-.352.608.608 0 0 0-.177-.305.894.894 0 0 0-.39-.205 2.246 2.246 0 0 0-.626-.063c-.25.004-.543.044-.881.12zm-.818-4.527l.206.917 1.61-.364-.206-.916-1.61.363zm.594 3.53c.517-.116.98-.17 1.39-.161.408.009.764.068 1.067.178.303.11.547.264.73.463a1.472 1.472 0 0 1 .329 1.46 1.794 1.794 0 0 1-.465.722c-.228.226-.524.43-.89.615a5.82 5.82 0 0 1-1.324.45c-.517.117-.98.17-1.39.162a3.309 3.309 0 0 1-1.057-.175 1.814 1.814 0 0 1-.718-.456 1.476 1.476 0 0 1-.328-1.46c.081-.259.232-.502.453-.73.22-.228.513-.433.88-.617a5.804 5.804 0 0 1 1.323-.45zm-1.368-1.586l-.537-2.392-1.898.429.536 2.391 1.899-.428zm1.374.727l-4.294.968-.977-4.354 4.293-.97.166.738 1.6-.361-.257-1.146 1.232-.278 1.252 5.58-1.232.279-.362-1.615-1.6.361.179.798zM38.148 23.989l-1.272.287.664 2.96-1.212.273-1.604-7.145 1.213-.274.704 3.14 1.272-.288.235 1.047zm-.03 5.126l-6.092 1.375-.579-2.581 1.242-.28.345 1.534 4.85-1.094.234 1.046zM33.17 23.07a1.06 1.06 0 0 0-.447-.668c-.235-.16-.557-.194-.968-.101a1.5 1.5 0 0 0-.508.203c-.133.09-.237.192-.312.306a.894.894 0 0 0-.14.377c-.018.137-.012.275.02.415.064.285.212.509.443.67.23.16.551.194.962.101.41-.092.688-.261.831-.506.144-.246.183-.51.12-.797zm-.094 2.094l.139.618c.392-.116.783-.234 1.173-.354.391-.119.76-.242 1.108-.37l.228 1.017c-.341.125-.703.25-1.085.376-.383.124-.775.244-1.178.36-.402.115-.802.224-1.2.328-.398.104-.779.197-1.143.279l-1.252.282-.235-1.046 1.242-.28a32.594 32.594 0 0 0 1.109-.271l-.146-.648a2.404 2.404 0 0 1-.821-.103c-.252-.08-.471-.19-.66-.333a1.903 1.903 0 0 1-.47-.511 2.024 2.024 0 0 1-.28-1.434c.048-.266.152-.516.312-.751s.374-.442.644-.622.593-.312.97-.397a2.875 2.875 0 0 1 1.047-.058c.32.046.602.142.847.285a1.943 1.943 0 0 1 .928 1.272c.05.226.061.452.032.679a2.06 2.06 0 0 1-.198.652 2.08 2.08 0 0 1-.434.58 2.466 2.466 0 0 1-.677.45zM43.733 24.215l-1.292.292.29 1.295 1.292-.291-.29-1.296zm-3.687.832l-.674-3 4.622-1.042-.217-.967-4.631 1.045-.235-1.046 5.863-1.323.678 3.02-4.641 1.047.217.966 4.92-1.11.23 1.027-1.233.278.29 1.295 2.276-.513.23 1.026-8.526 1.924-.23-1.026 2.534-.572-.29-1.296-1.183.267zM51.748 34.056l-.024.07.417.188c-.066-.355-.192-.38-.393-.258M47.71 11.105l.078-.1-.5-.667c-.14.062-.162.135-.152.21.152.173.302.348.45.526l.124.03M49.42 11.016l-.364.162.053.112.355-.183-.043-.091M50.468 11.687l-.072.032.855 1.176c-.25-.41-.51-.813-.783-1.208M50.116 12.216l-.11-.227.082-.044.107.231-.079.04zm.079.626c.741 1.013 1.459 2.044 2.231 3.034.232.297.48.58.74.859a25.832 25.832 0 0 0-1.263-2.704c-.619-.827-1.24-1.658-1.864-2.495-.199.127-.276.476-.562.284.1.156.194.318.303.468.136.189.285.369.428.552h.005l.173-.232.162.202-.335.03-.003.003-.015-.001zM49.818 10.862c.024.082.085.142.168.15a25.422 25.422 0 0 0-.581-.758c.005.255.341.368.413.608"/>
        <path fill="#b4b4b4" d="M38.238 3.499l.59-.457-.185-.344.057-.028c.22.341.433.687.662 1.022.07.103.134.276.337.14l.001-.005.002.004c-.001 0-.002 0-.003.002l-.09.424-.339.154c.26-.565-.08-.842-.364-1.253l-.066.308-.602.033m.651.897l-.04-.12.342-.047-.302.167m2.003-.618l.064.189-.07.021-.026-.198a2.16 2.16 0 0 1 .032-.012m3.695 3.272c.025.07-.036.175-.061.265l-.115-.022-.144-.347c.17.05.303.054.32.104m.991 1.45c.031.062.07.122.087.188.004.014-.076.053-.118.08a72.06 72.06 0 0 1-.087-.21l.118-.057m.396-.491l.251.333c-.155-.077-.231-.099-.284-.146-.034-.03-.031-.097-.045-.148a6.27 6.27 0 0 0 .078-.04m1.127.113c.44.248.447.257.446.694l-.446-.694m.829 1.035l.481.384-.17.11c-.06-.188-.415-.19-.311-.494m-8.68-4.482l.182-.094.002-.002v.001l.53-.234-.312.52c.81.391 1.595.827 2.351 1.306l-.24-.375.051-.02.299.465a23.828 23.828 0 0 1 3.719 2.94c.078-.018.17-.014.257-.016-.055.036-.112.069-.165.107.383.375.754.763 1.112 1.163.029-.065.073-.147.133-.26l-.51-.976.062-.037c.197.274.393.55.592.822.194.265.388.53.59.79.102.133.216.102.407-.146-.103.305-.157.513.049.626.084.047.19.059.288.086l.079-.09-1.178-1.831c.362.293.577.704 1.012.937.172.091.2.412.305.657l.719-.096c-.46-.824-.753-1.206-.997-1.293l.113-.212h.004a25.94 25.94 0 0 0-2.84-2.797l1.309 2.035-.044.037c-.09-.079-.188-.15-.268-.239-.084-.093-.151-.201-.224-.304-.083-.116-.2-.22-.236-.352-.037-.134-.241.121-.216-.107.014-.12-.062-.25-.122-.361-.059-.11-.153-.2-.221-.307a4.8 4.8 0 0 1-.212-.37c-.05-.097-.09-.198-.135-.297l.033-.015a25.389 25.389 0 0 0-4.812-3.095l.037.036c-.064.092.132.405-.308.371.094-.25 0-.428-.127-.6a25.628 25.628 0 0 0-1.64-.705l-.161.182a63.06 63.06 0 0 1-.15-.234l-.01.005a.204.204 0 0 1-.04-.06l-.045-.047a25.355 25.355 0 0 0-2.087-.673c.081.123.202.227.28.346.404.61.844 1.194 1.266 1.791.115.164.218.337.326.506l.182-.041.002-.01-.01-.164c.013.01.052.032.049.04a.688.688 0 0 0-.039.124l.001.01h-.003a.597.597 0 0 0-.011.116c.344.14.685.287 1.021.441M47.715 11.23c.127.155.252.312.375.47l.126-.06-.018-.006.01-.007-.288-.448-.205.05M49.506 11.473c.215-.1.45-.132.676-.192-.03-.044-.063-.088-.095-.131l-.05.006a1.876 1.876 0 0 0-1.006.395l.011.006c.157-.023.325-.02.464-.084"/>
        <path fill="#b4b4b4" d="M48.207 11.627l.004.006.833-.075-.025.002.012-.009c-.277-.134-.551-.133-.824.076M26.791 1.283l-.277.18c.175.077.175.077.277-.18M28.02 2.114l.139.215-.033.026-.165-.184.06-.057M28.264.77l.263.355C28.072.99 28.072.99 28.265.77m.752 1.207l-.515-.598c.217-.032.217-.032.515.598m.423.26l.074.218-.074.03-.08-.216a25.1 25.1 0 0 0 .08-.032m2.153.071l.152.13-.048.063-.174-.085.07-.108M26.904.804c.001.697.527 1.102.888 1.588.045.062.093.123.14.185a23.806 23.806 0 0 1 3.149.01l-.633-.748.105-.084.706.845c.19.015.378.032.566.05l-.003-.098.116.11c.674.072 1.339.172 1.995.3L32.125.75a25.833 25.833 0 0 0-3.612-.123l.206.258-.025.02-.288-.233.05-.043c-.103.004-.208.008-.312.014.011.067-.028.122-.212.146a102.21 102.21 0 0 0-.084-.13c-.134.008-.269.017-.403.028a.337.337 0 0 1-.044.045c-.105.092-.024.047.044.064.122.03.221.125.362.212l-.544.269c-.048-.209-.065-.455-.356-.476l-.002.002v.001"/>
        <path fill="#b4b4b4" d="M25.591 1.434c.269.368.268.368.724.597.05.025.085.075.125.116l.01-.005V2.141l.003-.002c.043-.28-.062-.473-.402-.577l.418-.322-.072-.216c.26.145.425.064.507-.22V.801v0h.003l.124-.08c-.354.033-.707.074-1.059.121l.24.273-.082.073-.323-.323c-.205.029-.409.06-.613.094.07.087.14.174.207.262.057.076.134.136.19.213M25.782 2.81c.133-.02.266-.04.4-.058-.14-.2-.277-.402-.42-.6-.104-.143-.11-.138-.537-.103l.557.761M32.953.873c.058.01.12.009.17.032.017.008.003.073.004.152-.087-.025-.15-.03-.191-.06-.017-.014.01-.08.017-.124m1.874 1.674l.244.227-.04.114c-.023-.029-.045-.06-.073-.085-.044-.04-.099-.07-.139-.113-.023-.026-.027-.069-.04-.104l.048-.039m1.32.593l.145.26-.025.016-.162-.251.041-.025m.767.196l.108.168-.07.044a207.44 207.44 0 0 0-.098-.175l.06-.037m-3.34-1.054c.186.235.363.477.543.716.13.027.26.054.39.083-.49-.542-.89-1.135-1.294-1.724.03-.024.063-.048.094-.071.159.224.33.442.473.676.135.22.348.371.449.633.072.186.223.339.384.51.093.02.185.042.277.064.29-.332.725-.475 1.05-.85-.065.388-.267.555-.558.625.03.23.03.229.322.324.042.014.076.05.106.083l.069.077c.605.172 1.201.368 1.786.587a22.315 22.315 0 0 1-.389-.55c-.31-.458-.66-.884-.91-1.387a7.814 7.814 0 0 0-.348-.607 25.179 25.179 0 0 0-1.8-.412l.856 1.211-.673.117.168-.217-.496-.58.482.347.076-.064-.581-.846-.25-.044c.056.081.112.161.17.24-.037.027-.075.053-.112.078l-.223-.346c-.422-.07-.845-.13-1.271-.178.195.247.383.5.58.746.206.256.426.501.63.759M41.042 46.896l.23.276a3.457 3.457 0 0 0-.048.042l-.196-.305.014-.013m1-.1l-.068-.107.012-.009.085.106-.029.01m-1.744 2.644c.4-.188.795-.387 1.183-.595a.557.557 0 0 1-.134-.318c.116.107.201.185.265.247.49-.267.972-.55 1.443-.847l-.63-.65c.257.182.495.381.723.59.28-.18.558-.364.83-.554l-.678-.767.108-.092c.22.269.466.514.713.76l.167-.12a1.697 1.697 0 0 1-.295-.468c-.113-.263-.393-.449-.6-.668l-.336-.355c-.573.407-1.164.789-1.773 1.144.115.112.23.224.342.339.22.225.43.458.644.688l-.127.1-.95-1.075c-.64.371-1.301.713-1.979 1.023.24.269.45.564.601.911.113.258.294.485.483.707"/>
        <path fill="#b4b4b4" d="M35.068 3.212l.193.049-.103-.155-.09.106M16.608 5.223l-.221-.246.054-.053.243.226-.076.073m.227.185l.153.19-.046.041-.17-.176.063-.055m-.58-1.141a26.77 26.77 0 0 0-.205.125l.227.285-.077.032-.189-.293c-.324.2-.644.409-.96.624.406.503.824.996 1.243 1.488.387-.26.781-.508 1.183-.745-.297-.366-.597-.73-.88-1.106a6.078 6.078 0 0 0-.341-.41M38.36 2.281l.007.01.075-.039-.137-.051a.28.28 0 0 0 .013.035l.043.045zM26.44 2.147l-.225.11c.073.159.153.31.238.459.438-.055.879-.099 1.324-.13a38.53 38.53 0 0 1-.278-.358c-.12-.158-.21-.277-.468-.118l.253.393-.06.045a514.6 514.6 0 0 1-.421-.428c.065-.185.42-.075.319-.409-.102.056-.198.101-.285.158-.131.086-.256.18-.384.27l-.003.018-.01-.01M5.087 22.553c.068.089.12.158.174.226l.098-.06c-.02-.12-.04-.24-.272-.166M4.665 21.942c.252.015.405.1.33.362l-.638.315-.196-.306c-.039.249-.073.499-.104.75a8.23 8.23 0 0 0 1.268-.854c-.244-.057-.216-.532-.66-.267M4.52 23.32c-.086-.062-.231-.123-.324-.091-.222.075-.107.24-.065.363.019.057.088.095.163.171-.111.028-.218.063-.322.095l-.018.2c.266-.17.506-.326.746-.481-.057-.09-.098-.198-.18-.257"/>
        <path fill="#b4b4b4" d="M4.422 22.13a13.708 13.708 0 0 0-.191-.251c-.024.14-.047.281-.069.423l.259.167c.161-.127.072-.242.001-.338M4.864 23.361c.285-.253.285-.253-.02-.582-.169.22-.235.415.02.582M39.434 4.58l-.001.001-.081.142.25.119-.168-.262zM52.507 36.318h-.001v0"/>
        <path fill="#b4b4b4" d="M5.865 22.997c-.04.256-.04.256-.447.254l.447-.254m-.299.441c.139.071.259.093.368.066.066-.572.152-1.138.258-1.697-.015-.033-.008-.081.03-.151l.01-.056a.33.33 0 0 0-.14-.116c-.188-.054-.142-.164-.076-.35.1.088.185.165.263.235l.079-.361c-.545-.585-1.032-1.212-1.507-1.848-.083.29-.162.582-.234.875l.063.099-.029.02-.046-.072c-.068.279-.132.558-.191.838.087.144.18.233.314.335.244.185.423.446.628.676l.004-.016.04-.013c.135-.091.138-.193.03-.323-.256-.306-.5-.62-.762-.946.23-.014.696.51 1.066 1.166l-.333.103a.612.612 0 0 1-.038.024l.055.259.586-.34.002.362-.271-.102c-.002.083-.019.134 0 .164.056.094.255.146.084.302-.15.136-.235.005-.326-.078-.02-.018-.053-.022-.11-.043l.32.495-.947.612c.127-.04.254-.086.383-.108.143-.024.32-.066.427-.01M53.133 34.532a.456.456 0 0 0-.017-.401l-.03-.025.001-.008-.081.052.007.006-.018.005c0 .078.027.193-.011.22-.133.098-.29.162-.438.24.089-.005.178-.003.266-.015.101-.014.203-.04.304-.06 0-.003-.002-.005-.003-.007l.02-.007M5.883 23.707l.025.03.007-.063-.032.033"/>
        <path fill="#b4b4b4" d="M4.74 21.667l-.377-.501c-.028.143-.056.286-.082.43.072.072.157.14.237.214l-.018-.189c.062.033.125.066.189.098l.05-.052M12.264 42.764c.239.118.721.867.86 1.336l-.86-1.336m.832 1.896l-.108-.167a1.4 1.4 0 0 1 .007-.025l.136.168-.035.024M9.26 40.015c-.021-.01-.043-.018-.065-.027l.041-.48c.1.024.173.043.316.08l-.292.427m-.47.434c.275-.016.303.008.423.491l-.424-.491m-.26-1.557l.29.21c-.303.204-.208-.135-.29-.21m-.255.498a.215.215 0 0 1-.013-.014c-.262.035-.443-.023-.453-.324-.002-.069-.087-.128-.134-.192.286-.026.538.197.584.513l.018.001h-.001l-.001.016c.085.084.234.1.224.298-.008.158.142.312.182.489-.26-.197-.472-.418-.406-.787m-.812-.966l-.157-.244.123-.07.123.262-.089.052M7.45 35.87l-.392-.77c.394.269.394.269.392.77m2.472 6.702l.282.44-.015.01-.282-.44.015-.01m-4.057-8.287l-.046-.126.267-.11.037.083-.258.153m-.51.207c.294-.218.294-.218.47-.074l-.47.074m-.227-.278c.022-.04.038-.085.068-.117.02-.02.063-.02.21-.062l-.278.18m.374-.632l-.018.013-.14-.186.032-.022.126.195m-.024-1.09h.005l-.004.003v-.003c-.277.013-.382-.18-.508-.364.338-.085.415-.027.507.364m8.838 13.773l.065.29-.116.032-.05-.29.101-.032m.338-1.435l.167.147-.064.068-.165-.151.062-.064m.395.51l.108.168-.055.032c-.028-.058-.056-.116-.082-.176-.002-.003.019-.016.029-.025m.253.947l.153.193-.048.048-.14-.216.035-.025m.797.892l.304-.062-.266.274c.218.007.488-.063.458.248-.492-.069-.699-.448-.875-.86l.38.4m1.156 1.45l-.09-.222c.169.012.169.012.09.223m1.078-1.108l.252.298-.103.06-.177-.317.028-.04m.509.4c.063.115.112.204.164.293l.016.004-.007.01.123.39c-.242-.18-.246-.183-.123-.39l-.003-.01H19.01l-.003-.004-.377-.084.213-.209m.693-.054l.17.265-.065.035-.13-.286.025-.014m.318.44l.148.23-.055.043-.164-.204.071-.068m.273.4l.269.29-.072.068-.27-.287.073-.07m1.027.728c-.391-.157-.428-.527-.565-.879l.565.879m.367-.577l.009-.016s-.001.01-.003.014l-.006.002c-.086.153-.182.271-.366.116.125-.04.245-.076.366-.116m-.039 1.317l-.174-.416c.223.154.223.154.174.416m.62-.008l.173.187-.04.035a116.39 116.39 0 0 0-.167-.192l.033-.03m1.263-.508l-.006.014c.064-.004.17-.033.184-.009.162.281.31.57.513.958l-.47-.394-.063.037.203.466-.608-.637.247-.435m3.208.413l.02.005-.015.01c.112.305-.126.223-.305.198l.305-.198-.005-.015m4-.069l.06-.028a.149.149 0 0 1-.06.028l-.553.26c.107-.422.38-.22.552-.26M14.1 46.756c.226.17.454.337.685.499l.066-.054.115.18c.754.519 1.534.996 2.34 1.431.03-.058.087-.125.176-.218.024-.024.058-.042.076-.069.419-.633.675-.465.945.046.204.386.467.74.707 1.107.019.03.039.058.057.088.16.069.32.137.481.203l.014-.01.016.022.131.053c.153.062.307.122.461.18l-.011-.018.053-.048.208.16.141.052c.107-.086.28-.15.285-.297-.018-.054-.039-.11-.05-.158.037.062.05.114.05.158.025.077.044.149.016.177a.664.664 0 0 0-.132.18c.218.077.436.15.655.222a.687.687 0 0 0-.008-.07l.115.104.286.09c-.04-.1-.075-.205-.115-.307l.792.48-.012.02c2.17.599 4.41.904 6.69.91l-.138-.175c.16.013.267-.003.282.028.024.05.05.098.075.147a27 27 0 0 0 .341-.004l.078-.002a4.28 4.28 0 0 1-.178-.313c-.02-.04.04-.124.065-.188l.16-.1.193-.143-.034.265.002-.001.01.026c.071.035.161.056.198.113l.21.32c.113-.005.226-.01.339-.017a5.34 5.34 0 0 1-.216-.341l.101-.054.305.383.332-.024c-.17-.239-.34-.478-.512-.716-.095-.133-.215-.247-.323-.37l-.093.05.072.383c-.028.005-.067.02-.073.012-.087-.12-.17-.243-.254-.365l-.007.016.002-.023.005.007.204-.466.54-.382.018-.01.041-.032a23.57 23.57 0 0 1-6.46-.435c.21.133.296.36.43.533.166.213.356.347.65.328l.002-.002c-.036-.286.202-.137.31-.194l.041.447-.952.48-.048-.082c.246-.11.497-.21.734-.337.061-.034.11-.159.106-.234-.004-.077-.055-.197-.191-.08v.002h-.002l-.464.378c-.182-.267-.337-.477-.473-.697-.116-.19-.348-.317-.373-.59a23.569 23.569 0 0 1-9.94-4.834l-.037.016-.038-.079a23.854 23.854 0 0 1-.778-.673l.102.134-.043.034-.27-.311.03-.023c-.632-.583-1.23-1.2-1.796-1.848l.017.11c-.067-.11-.135-.22-.205-.328a23.77 23.77 0 0 1-3.34-5.143c-.262.094-.146-.078-.144-.238l.12.186a23.6 23.6 0 0 1-.968-2.356c-.036.002-.074.006-.085-.009-.02-.027-.017-.084 0-.119.003-.007.018-.01.037-.01a23.582 23.582 0 0 1-1.03-4.28l-.2-.064.046-.018c.053-.024.097-.043.135-.058a23.885 23.885 0 0 1-.221-3.57c-.307.426-.636.84-.945 1.264-.045.06-.032.157-.037.191l-.682.44c.126.229.107.515.462.595.125.028.185.26.319.47-.381-.05-.521-.233-.647-.434-.086-.135-.173-.268-.317-.328l.015.205c.194.281.262.637.4.991l-.293.06c.063.524.143 1.044.238 1.56.151.01.176.081.114.207l-.054.108.02.096.27-.254.205.685c.013.003.097.018.179.039.002 0-.01.079-.022.082-.072.018-.163.052-.219.028-.067-.03-.094-.133-.162-.166a.53.53 0 0 0-.173-.04c.219 1.006.498 1.997.838 2.97l.058.044c.003.002-.01.032-.021.039l-.008.002a25.619 25.619 0 0 0 2.284 4.812l.161-.118a.917.917 0 0 1 .023.027l-.136.17a25.6 25.6 0 0 0 3.952 4.937 49.495 49.495 0 0 1-2.311-3.615L12.009 45c.533.497 1.083.97 1.651 1.417l-.312-.457c-.07-.101-.114-.22-.187-.317-.159-.21-.33-.41-.492-.616-.04-.052-.066-.114-.099-.171l.112-.063 1.418 1.963"/>
        <path fill="#b4b4b4" d="M17.944 49.062l.043-.162c-.242 0-.12-.128-.081-.239.01-.028-.043-.073-.069-.113-.273.263-.305.294-.156.463.11.058.222.114.334.17l-.071-.12"/>
        <g transform="translate(43.083 11.687)">
            <mask id="b" fill="#fff">
                <use xlink:href="#a"/>
            </mask>
            <path fill="#b4b4b4" d="M2.952 33.827l-.535-.744.091-.064.496.771-.052.037M.8 33.764l-.117-.213.021-.016.16.186a3.04 3.04 0 0 0-.064.043m3.802-3.58c-.016-.038.07-.123.11-.187.028.047.055.094.084.14a.201.201 0 0 0 .048.056c.128.091.128.09-.032.289-.077-.103-.164-.19-.21-.297m1.101-.29l.021.06-.353.229-.035-.051.367-.238m1.993-2.41l.07-.008.009.226-.075.008-.004-.226m.176-2.016c.011-.04.048-.075.074-.111l.088.044-.152.191c-.004-.041-.02-.085-.01-.124m.58.968l-.117.037c-.109-.2-.217-.402-.338-.628l.273-.14c.025.271.263.453.182.73m1.56-19.786c.22.057.285.119.335.4l-.336-.4m.043 4.75l-.169-.214a.767.767 0 0 1 .023-.024l.218.193-.072.044M9.118 7.14c.466-.055.421.29.563.431.146.145.207.37.305.56l-.059.034-.81-1.025m.457 1.418l-.307-.423.055-.042.31.422c-.02.015-.038.03-.058.043M9.45 6.531c-.375-.169-1.203-1.38-1.372-2.134L9.45 6.53m.345.436l-.114.09-.187-.29.071-.052.23.252m-.102-1.028l-.109.065-.407-.762c.242.187.446.4.516.697m.753.413l.176.226c-.015.01-.03.021-.046.03l-.155-.24.025-.016m.385 9.102c.056.01.132 0 .162.033.03.032.014.105.022.197-.104-.01-.211-.006-.213-.023-.008-.065.016-.137.029-.207m-.252-5.186l-.28-.435.02-.013.28.434-.02.014m-4.13-8.722l-.216-.242.076-.058.172.268a2.51 2.51 0 0 0-.032.032m-.312-.46L5.97.827l.054-.04.194.244-.081.057M6.66 30.1l-.025-.017.073-.075.012.014a25.479 25.479 0 0 0 1.59-2.364c-.37-.295-.44-.477-.605-1.074l.588.204-.271.099c.06.26.112.467.435.52.096-.166.19-.333.282-.5.042-.178.047-.372.252-.471l.054-.103c-.045-.071-.082-.132-.125-.19-.015-.018-.058-.017-.088-.026.353-.243.392-.35.116-.581-.145-.123-.153-.235-.062-.355.035-.045.2-.007.303.004.101.01.2.034.334.059-.007-.247-.303-.38-.101-.614-.11-.15-.216-.305-.33-.451-.091-.116-.243-.2-.176-.442l.932.886c.075-.176.149-.353.22-.531.02-.048.038-.096.056-.143-.062.004-.136-.007-.198-.004l.027-.25.332-.164c.244-.653.46-1.312.648-1.978a3.984 3.984 0 0 1-.138-.224c.062.018.125.032.189.045.65-2.361.955-4.804.91-7.294a25.584 25.584 0 0 0-1.418-7.979c-.857-1.184-1.711-2.37-2.575-3.55-.437-.597-.944-1.147-1.332-1.774-.19-.306-.433-.476-.775-.652l.106.312-.044.029L5.663.21l-.108.047.149.528-.07.035-.307-.697a.866.866 0 0 0-.213.029 23.622 23.622 0 0 1 4.591 10.753l.02.027-.014.011a23.903 23.903 0 0 1 .274 3.774l.013.022.02.022s-.005.002-.008.001c-.004-.008-.009-.015-.012-.023l-.013-.012a23.646 23.646 0 0 1-1.13 7.073l.178.072c-.077.026-.152.05-.225.076l-.058.172c.031-.008.062-.016.092-.026.269-.09.41-.013.531.161-.016.296-.263.388-.453.525l.992-.306v-.004l.01-.007c-.13-.097-.265-.187-.383-.297-.02-.019.046-.122.072-.187.122.151.424.149.393.432l.007-.005.022.037.341.286-.324.116-.004.01-.013.003c.03.084.077.165.081.252.008.17-.082.29-.272.249-.215-.046-.42-.123-.63-.186l-.209.009c-.054-.05-.103-.108-.165-.148-.143-.094-.07-.159.02-.223l-.364.03a23.75 23.75 0 0 1-3.705 6.526l.013.013h.004l-.002.002-.002-.002h-.023c-.333.414-.678.818-1.038 1.21l1.087 1.15c-.265.072-.325-.292-.572-.117-.033-.088-.048-.187-.1-.263-.158-.232-.327-.458-.494-.685a23.89 23.89 0 0 1-2.304 2.178c.244.237.446.508.605.814l-.728-.712c-.38.31-.77.608-1.168.894.359.359.717.717 1.069 1.082.071.074.077.205.133.299l.053.092a25.54 25.54 0 0 0 2.202-1.796c-.02-.329-.175-.618-.346-.903l-.011.005.004-.018.007.013c.169-.068.306-.102.348.14.028.156.1.314.196.438.024.031.05.054.077.07.143-.134.284-.27.424-.407l-.463-.51c.082-.165.194-.2.267-.072.093.16.165.332.25.529A25.914 25.914 0 0 0 6.66 30.1" mask="url(#b)"/>
        </g>
        <path fill="#b4b4b4" d="M18.72 49.207c-.212-.306-.405-.625-.652-.915-.098.234-.01.427.091.58.127.19.257.38.387.567.173.082.347.162.522.24a12.802 12.802 0 0 1-.348-.472M4.384 31.413l.048.226.156-.138c-.073-.051-.137-.089-.204-.088M3.864 26.107a26.574 26.574 0 0 0 .055 1.825.284.284 0 0 0 .056-.266l-.034-.408.432-.408c-.171-.25-.342-.495-.509-.743M4.397 25.323l-.158-.245.01-.013.19.228-.042.03m.442.075c-.216-.101-.38-.17-.244-.455.022-.046-.101-.135-.135-.215-.048-.111-.075-.232-.131-.416l-.38-.196-.03.407.141.173a4.668 4.668 0 0 1-.041.05c-.026-.017-.059-.028-.075-.052a1.055 1.055 0 0 1-.032-.047c-.013.21-.023.42-.03.63l.618.845-.1.083-.512-.591a1.47 1.47 0 0 1-.017.013c0 .046-.002.091-.003.137l.563.876c.274-.224.258-.46.152-.724l.358.448c.008-.195-.015-.292.02-.365.191-.39.203-.447-.122-.6M4.691 26.825l.152.208.16-.245c-.02-.034-.037-.068-.055-.102l-.257.14M13.703 6.122l.192.298-.029.02-.211-.296.048-.022m.015 1.012h-.001.002l.047-.077.69.839a23.816 23.816 0 0 1 1.604-1.209c-.249-.318-.494-.638-.744-.955a3.373 3.373 0 0 0-.278-.318 2.727 2.727 0 0 1-.203-.224c-.556.387-1.096.798-1.62 1.23.276.208.358.486.503.714M4.444 27.042l-.25.53c.32-.332.32-.332.25-.53M52.797 36.624l.038-.087-.328-.218c-.016.233.119.291.29.305M37.92 49.481c.065.07.13.137.196.206a2.554 2.554 0 0 0-.038.037l-.224-.176.066-.067m-1.613-.16l1.059 1.287c.276-.09.552-.186.825-.287-.053-.074-.107-.148-.159-.224l.209.206a25.506 25.506 0 0 0 1.963-.819l-1.173-1.58a23.45 23.45 0 0 1-.623.269l.474.519-.05.044-.526-.521-.363.145c.154.134.311.267.46.406.192.179.376.364.635.617-.336-.196-.906-.747-1.096-1.023-.58.225-1.171.428-1.772.607l.11.301a.232.232 0 0 1 .029.039l-.002.014M13.465 7.972l.016.023c.106.058.253.078.184.289a64.443 64.443 0 0 1-.184-.289l-.018-.01-.046-.066-.492-.516.083-.067.409.583.049.051-.003.015.002-.013m-1.177.738l.355.361c-.325-.002-.296-.218-.355-.361m-.08.639l-.475-.536.096-.08.458.548-.079.068m-1.04.23l-.01-.001s.003-.01.003-.007l.006.008c.324.02.327.329.459.522a65.346 65.346 0 0 1-.459-.522m-.403.191l-.33-.514.04-.03.373.503-.083.041M9.09 13.16c.293-.136.271.09.36.301l-.36-.3m-.498-.843l.085-.065.448.697-.09.057-.443-.689m.185 1.38a5.624 5.624 0 0 1-.077.007l-.013-.23.127.004-.037.22m-.247 1.205l-.254-.254.088-.076.223.274-.057.056m-.76.236l-.233-.328.079-.042.21.328-.055.042m-.305-1.108l.33.393-.07.05-.276-.428.016-.015m-.847 2.397l-.332-.46.067-.023.336.428-.071.055m-.116.399l-.167-.26a.786.786 0 0 1 .018-.016l.19.231-.04.045m-.047-1.468l.185.22-.066.035-.165-.218.046-.037m-.383 2.361l-.198-.308.024-.016.193.3-.019.024m-.33-1.066l.049-.052.228.194-.084.08a101.65 101.65 0 0 1-.192-.222m-.037 2.362l.09.231-.083.033a64.336 64.336 0 0 1-.08-.223l.073-.041m.27.479l.11.343-.193-.302.084-.041m6.664-12.59c.035.058.072.121.114.187a2.1 2.1 0 0 1-.163-.145 25.994 25.994 0 0 0-1.936 1.891l.502.732-.001.004c-.17-.244-.34-.484-.511-.725-.156.17-.31.34-.462.514.034.026.068.052.1.08l.005-.002-.001.001a.215.215 0 0 1-.002.005l.481.749c-.063.14-.175.034-.273-.03-.245-.163-.312-.403-.208-.719l-.002-.002-.22.159-.04-.055c-.224.26-.441.524-.653.791.17.21.34.421.508.632a.275.275 0 0 1 .052.198c-.23-.22-.487-.42-.695-.656l-.164.213.016.008.006.002.003.007.368.572-.076.041-.292-.613c0-.002-.002-.004-.004-.006l-.005-.003-.018-.005c-.175.23-.345.462-.511.697.11.12.233.229.392.301-.052.255.177.342.29.499.099.137.185.284.34.526-.178-.065-.278-.069-.317-.12a149.4 149.4 0 0 1-.81-1.056c-.044.061-.087.124-.13.186l.21.26a1.109 1.109 0 0 1-.294-.135 25.444 25.444 0 0 0-1.081 1.749l.07.079-.069.054-.045-.054a25.64 25.64 0 0 0-1.148 2.323l.128-.027.019.085c-.051.02-.102.052-.154.058-.008 0-.017-.018-.026-.04a26.052 26.052 0 0 0-.361.888l.196-.011-.02.09c-.067-.007-.133-.013-.2-.018a25.584 25.584 0 0 0-.64 1.888c.23.284.46.567.685.854.27.344.535.69.8 1.037.036-.157.074-.313.114-.468l-.056-.45c.029.08.083.141.121.199.04-.148.08-.295.123-.442l-.22-.29.062-.044.186.236c.044-.153.09-.305.138-.456-.259-.323-.52-.643-.782-.964-.05-.06-.117-.107-.175-.16h-.001l-.002-.003-.438-.595.076-.049.362.644.002.003c.059.004.144-.016.17.013.28.324.554.653.83.979.064-.2.13-.398.2-.595l-.212-.39.29.17c.057-.156.115-.312.175-.467l-.283.182-.05-.084.342-.22.024.036c.256-.657.542-1.3.853-1.928-.052-.044-.104-.09-.163-.122l.211.025c.048-.095.096-.19.145-.283-.141-.16-.348-.278-.357-.533l.4.453a23.79 23.79 0 0 1 1.54-2.54l-.044-.051.046-.037.032.04c.155-.222.314-.44.476-.656a.117.117 0 0 1-.004-.004l.019-.015c.158-.21.32-.417.484-.622l-.087-.135.057-.037.075.117c.064-.08.13-.16.195-.238l-.586-.639c.312.037.452.32.676.532l.193-.227-.445-.564.06-.045.435.552c.379-.436.774-.858 1.183-1.265l-.066-.095.055-.04.064.083c.126-.125.253-.248.382-.37l-.207-.268.059-.052.21.262c.355-.332.719-.654 1.093-.964l-.66-.83-.545-.677c-.178.147-.354.297-.528.45M30.177 51.384l-.278.128.233.347.261-.008a5.563 5.563 0 0 1-.204-.442l-.014-.007.002-.018M18.267 4.017c.037.026.085.05.1.087.085.211.179.254.51.224.01.09.02.178.026.247l-.41.196-.688-1.07c.217.148.34.231.462.316m.208-.437l.176.147-.035.045-.204-.087.063-.105M18.3 5.054a86.818 86.818 0 0 0-.17-.138l.056-.065.174.135-.06.068m1.459-2.487c-.147.417.12.4.455.317-.215.246-.355.312-.5.157-.119-.126-.23-.267.045-.474m.59 1.682a28.22 28.22 0 0 1-.019.017l-.467-.586.082-.06.404.629m1.257-.858l-.105.118-.32-.244c.114.067.334.028.425.126m1.765-1.04c.126.152.245.311.382.454.061.064.16.095.275.16l-.121.154c-.118-.125-.224-.234-.324-.348-.1-.114-.195-.234-.293-.351.028-.023.055-.046.081-.07m-5.786 3.37a23.49 23.49 0 0 1 4.234-1.933.393.393 0 0 1 .079-.066c.015-.009.041-.001.08.012.308-.102.618-.198.931-.288a17.614 17.614 0 0 1-.257-.37l.242.16-.16-.368c.133.17.26.345.39.517.493-.137.994-.258 1.5-.363-.415-.496-.823-.997-1.276-1.46l.097-.09c.055.052.126.096.162.16.204.365.61.556.814.923.075.136.197.245.297.367.016.02.031.045.047.07.288-.057.578-.11.87-.157l-.711-.893.518-.133-.566-.794c-.11.02-.221.04-.332.062l.026.376-.267-.328a24.5 24.5 0 0 0-.487.105l.498.647.012-.002-.004.013.004-.013.056.076.767.82-.106.085c-.22-.301-.441-.602-.661-.905l-.06-.063-.008-.011c-.072.014-.18.052-.196.028a18.46 18.46 0 0 1-.42-.648c-.348.08-.694.166-1.038.26l.201.276-.094.062a684.5 684.5 0 0 1-.18-.317c-.441.123-.879.257-1.313.404.198.248.391.5.565.763.084.127.41.03.292.315-.006.015 0 .04-.01.048-.008.007-.031 0-.069-.001-.183-.061-.203-.44-.633-.188.1-.16.139-.22.173-.273l-.474-.611c-.223.077-.445.157-.667.24l.007.016c.072.134.192.242.294.359.11.125.222.246.294.405-.307-.176-.53-.433-.765-.715l-.27.106.216.215-.086.07-.195-.26a25.73 25.73 0 0 0-2.302 1.058l.047.073c-.018.01-.036.023-.053.034l-.05-.077a25.43 25.43 0 0 0-1.203.672l.754.927c.157.195.301.4.446.603"/>
        <path fill="#b4b4b4" d="M33.275 50.114l.117.164-.028.019-.108-.169.019-.014m2.222-.614l.133.205-.05.03a68.32 68.32 0 0 1-.12-.213l.037-.022m.617.854l.19.142-.092.09-.16-.162.062-.07m-5.391.035c-.002.073-.021.132 0 .164.27.41.536.824.812 1.23.334-.027.667-.061.998-.101-.274-.37-.553-.738-.866-1.083-.093.383.333.505.342.857-.284-.166-.368-.566-.774-.57l-.05-.636.352.314c.019-.098.033-.143.033-.187 0-.026-.133-.427-.127-.482.356.126.34.502.53.723.203.238.354.517.53.778l.18.267.308-.041-.053-.051-.016-.007.002-.006s-.002.006-.002.003l-.034-.06-.52-.81.045-.027c.159.278.317.557.475.838l.036.056.014.013c.038.015.082.027.122.041.79-.112 1.572-.262 2.345-.448l-.313-.488.025-.016.32.497a25.2 25.2 0 0 0 1.76-.494c-.303-.39-.602-.785-.897-1.182-.025-.034 0-.103.007-.16l-.014-.016-.014-.037c-.067-.073-.176-.127-.189-.277-.497.147-1.002.278-1.512.392l.383.504-.075.054-.353-.548a23.55 23.55 0 0 1-.651.134c.314.355.563.77.615 1.032l-.739-1.008a22.93 22.93 0 0 1-.344.061l.03.039.546.479-.097.088c-.15-.188-.3-.378-.448-.567l-.042-.037c-.72.123-1.451.213-2.192.269-.07.255-.25.41-.488.506M5.65 25.907c.031-.231.05-.374.067-.49.019-.002.046-.003.075-.003.009-.269.023-.536.04-.802-.06-.088-.127-.179-.192-.28l.113-.289-.394-.465c-.204.228-.196.438-.047.657.087.128.155.269.244.395.146.204-.03.24-.11.277-.12-.08-.197-.157-.294-.192-.197-.07-.249-.167-.09-.344.01-.01-.016-.047-.028-.077-.081.007-.165.015-.308.03.046.67.388 1.124.924 1.583M14.05 9.955l-.038-.06-.312-.36c-.14.131-.277.265-.413.401.15.197.3.394.443.596.055.076.07.18.088.281.167-.169.336-.335.507-.498l-.236-.322a2.633 2.633 0 0 1-.04-.036v-.002zM8.206 20.696c-.154-.173-.277-.366-.312-.616a.252.252 0 0 0-.005-.006l-.002-.002c-.166.15-.263-.088-.412-.046l.003.005-.012-.004c.235.27.47.54.703.812l.037-.143"/>
        <path fill="#b4b4b4" d="M7.89 20.074l.002-.004.002.01.203.262.233-.1a21.7 21.7 0 0 1 .275-.9l-.002-.004a.084.084 0 0 1 .005-.004c.24-.726.518-1.436.83-2.127a.663.663 0 0 1-.015-.042c-.054-.164-.177-.28-.433-.174.237-.198.279-.232.622-.16.304-.642.638-1.266 1-1.871-.178-.29-.443-.528-.67-.811a22.794 22.794 0 0 0-.944 1.681l.412.468c-.034.2-.15.309-.485.336l.347-.312c-.113-.12-.224-.241-.34-.36a23.162 23.162 0 0 0-1.028 2.386l.365.401a8.627 8.627 0 0 0-.078.077l-.325-.375c-.05.141-.1.283-.148.425.02.02.041.039.065.054.123.08.242.166.39.268l-.15.354c-.136-.179-.254-.338-.368-.487-.063.192-.123.384-.181.578.137.144.276.285.413.43l.007-.006-.005.007zM7.384 19.953l.089.074h.002c-.025-.05-.047-.1-.07-.149l-.021.075M14.83 8.533c-.137.114-.273.229-.407.346.01.015.022.03.034.043l.002-.012v.002l.01.022c.153.136.256.359.558.296l-.35.105-.207-.4c-.004-.005-.008-.009-.013-.012l-.048.296-.154-.193c-.17.151-.34.305-.505.461l.262.409c.013.015.027.03.04.047l.037.05c.098.09.202.174.289.271.265-.251.537-.497.815-.735l-.016-.024.065-.048.016.017.199-.168-.203-.248a74.21 74.21 0 0 1-.424-.525M28.404 3.965l-.188-.293c.011-.01.023-.018.034-.026l.214.28-.06.039m.481-.007c-.182-.22-.363-.441-.543-.663-.12.006-.241.012-.362.02l.07.073c-.092.006-.141-.023-.173-.067-.328.022-.654.05-.979.086.138.197.28.39.42.583l.021.008-.003.012a.183.183 0 0 1 .002-.01l.021.042.234.285a.51.51 0 0 0-.008.006c.365-.03.733-.052 1.103-.064a12.527 12.527 0 0 1-.051-.072l.145.069.238-.006c.433-.008.863-.003 1.29.014.055-.066.133-.107.278-.07l-.118.077c1.04.049 2.063.172 3.062.363a.435.435 0 0 1 .062-.047c.051.022.078.047.09.076.495.098.985.214 1.47.345l-.204-.279.078-.065.241.376c.147.04.293.083.44.127l.042-.481c-.093.044-.112.048-.12.058-.01.013-.004.035-.013.048-.017.021-.04.039-.08.076l-.471-.574c.153.114.265.339.499.061l.906.974-.085.054c.193.065.385.133.575.203l-.758-1.18c.151.128.301.257.45.386-.068-.153-.144-.3-.228-.44a22.842 22.842 0 0 0-.305-.096l.1.155a2.4 2.4 0 0 1-.223-.192c-.205-.062-.411-.12-.618-.176a.375.375 0 0 1 .002.168l-.206-.222a22.822 22.822 0 0 0-.373-.094l-.058.051-.066-.08c-.904-.214-1.82-.371-2.748-.472l.377.45-.092.074-.46-.542c-.149-.015-.299-.03-.449-.041l.722.858-.08.062-.772-.93a23.32 23.32 0 0 0-.408-.028l.12.146c-.016.012-.032.023-.05.034l-.117-.182a22.892 22.892 0 0 0-.456-.02c.193.302.345.634.536.939l-.692-.945a23.973 23.973 0 0 0-.377-.008l.538.665-.065.054-.605-.64.128-.079a23.543 23.543 0 0 0-.727.002h-.025l.211.237-.317-.234c-.122.003-.242.007-.363.012.226.275.452.553.662.85-.096-.06-.217-.098-.285-.18M7.348 20.08l-.06.223.187.24-.081.059-.138-.182c-.054.207-.105.415-.153.624l.67-.434-.425-.53M38.197 5.016l-.195-.08.036.082c.059.025.11.02.159-.002M23.01 5.215l-.157-.044c.013-.027.018-.063.039-.08.144-.118.199.01.272.078.289-.086.58-.167.873-.242l-.05-.061a55.555 55.555 0 0 1-.612-.788c-.71.194-1.41.423-2.099.687l.63.822c.364-.133.732-.257 1.104-.372"/>
        <path fill="#b4b4b4" d="M24.634 4.1c.241-.206.216-.014.232.113l-.232-.112m2.684-.11c-.103-.04-.228-.06-.292-.133a8.936 8.936 0 0 1-.346-.426c-.129.016-.257.032-.385.05l.039.06-.038.027-.052-.08c-.238.033-.475.07-.712.11.05.088.099.177.158.256.026.034.072.053.11.079v-.001l.003.003c.099.07.197.14.378.271-.325.011-.284-.196-.38-.273H25.8l-.036.347c-.205-.2-.399-.407-.588-.618-.23.043-.461.09-.69.14a1.816 1.816 0 0 0-.017.01l-.004-.005c-.108.024-.215.048-.323.074l-.014.01-.005-.005c-.16.037-.32.077-.478.118.116.118.24.229.378.33l-.122.166.3.386c.9-.221 1.82-.387 2.76-.492-.125-.174-.25-.348-.38-.518-.04-.051-.159-.044-.244-.065.089-.115.166-.161.272-.031.162.196.326.39.501.597.132-.014.264-.026.396-.038-.05-.099-.098-.198-.147-.298l-.024-.03-.017-.022M7.762 22.134c-.08.242-.255.27-.469.24.075-.248.075-.248.469-.24m-.104.854l.071.068.026-.173-.14-.219.047-.031.106.164c.012-.072.023-.144.036-.215l-.005-.006a.222.222 0 0 1 .006-.004c.068-.402.146-.801.236-1.197l-.306-.475c-.373.191-.373.191-.446.488l-.209-.148a.982.982 0 0 0-.038.077 20.89 20.89 0 0 0-.047.218c.012.118.101.213.3.288-.176.05-.276.02-.349-.046l-.036.19c.311.289.43.729.748 1.02M12.967 40.804c.834.89 1.405 1.964 2.064 2.978l-2.064-2.978m1.597 1.626l1.037 1.613-.055.034-1.035-1.61.053-.037m1.316 1.895l.229.308-.078.07-.23-.319.079-.06M8.99 35.03l.108-.07.565.88c-.337-.188-.498-.503-.672-.81m16.513 12.979l.255.24-.058.063-.267-.23.07-.073m6.561.31c.044.046.09.092.13.143.002.003-.039.04-.06.062l-.15-.138.08-.067m-16.839-4.351l.05-.034.478.741c.196.147.394.29.595.43l-.013-.02.03-.023.066.101a22.787 22.787 0 0 0 7.03 3.264l.067-.081.174.14a.056.056 0 0 0-.003.004 23.13 23.13 0 0 0 9.255.45c-.144-.133-.306-.252-.33-.476.303-.117.502-.336.673-.584a21.939 21.939 0 0 1-10.155-.575l.13.201-.031.02-.168-.234.007-.005a21.686 21.686 0 0 1-2.268-.83c-.014.037-.03.077-.044.12-.05-.079-.1-.142-.141-.2a21.78 21.78 0 0 1-1.7-.84.48.48 0 0 0-.024.127l-.1-.074.01-.116c-.162-.09-.322-.182-.48-.276l.327.482-.122.077c-.194-.25-.378-.508-.555-.77-.221-.136-.44-.275-.655-.42l.07.111-.068.045-.174-.27a22.129 22.129 0 0 1-4.326-3.858l-.006.004-.028-.043A22.03 22.03 0 0 1 9.83 36.1c.005.04.009.079.01.118 0 .002-.07.02-.073.014-.027-.06-.045-.124-.066-.187l.091-.022a21.876 21.876 0 0 1-1.09-2.599c-.024.214-.287.287-.367.468.072.244.224.062.394.02l-.2.443c-.118-.12-.19-.208-.279-.28-.085-.07-.185-.125-.278-.186l-.09.09.262.353a.392.392 0 0 1-.13.098 23.14 23.14 0 0 0 .946 2.147l.328-.24-.005-.017.021.005-.016.012c.1.313-.17.22-.321.253.214.425.44.84.68 1.25a.802.802 0 0 1 .18-.044l-.135.122c.132.224.267.445.406.664l.181-.072c-.022.045-.037.094-.067.133-.01.011-.044.004-.074.001a23.162 23.162 0 0 0 5.476 5.927l-.388-.604M17.406 7.86c.393-.26.795-.506 1.204-.74l-.353-.4.083-.068.348.424c.408-.23.824-.448 1.247-.653l-.346-.435.056-.045c.125.143.24.298.361.446.586-.281 1.187-.536 1.8-.765a17.27 17.27 0 0 1-.546-.853 22.826 22.826 0 0 0-1.689.726c.035.061.05.133.028.227-.008.038-.126.06-.223.103L19.36 5.6a22.85 22.85 0 0 0-1.315.698l.145.124-.077.077-.142-.158-.242.142.522.664-.061.046-.54-.664c-.298.18-.592.366-.882.559.215.255.428.513.638.772M50.782 34.275c.023.036.049.063.077.082.038-.1.075-.2.11-.3l-.008-.001a.682.682 0 0 0 .014-.014l.044-.121-.291.045.043.29h.021l-.01.019M42.42 44.376l.135.24-.044.026-.15-.234.06-.032zm-1.53 1.16v-.001c.002.001.002.003.003.005l.275.428a22.69 22.69 0 0 0 1.962-1.32l-.204-.219.023.248c-.016 0-.058.008-.062 0a3.094 3.094 0 0 0-.481-.732c-.32.236-.645.464-.978.682l.246.382c-.014.01-.029.018-.043.027l-.21-.404c-.3.198-.606.389-.917.572l.383.329h.004v.002z"/>
        <path fill="#b4b4b4" d="M38.65 47.27c.026-.01.051-.022.077-.033a22.951 22.951 0 0 0 2.397-1.244c-.077-.15-.154-.301-.23-.453l-.004-.005-.003-.002a.596.596 0 0 1-.473-.276c-.457.267-.924.517-1.401.75l.363.487a1.007 1.007 0 0 1-.436-.451 21.706 21.706 0 0 1-3.708 1.397c.248.25.514.483.748.748-.273-.265-.705-.366-.923-.7-.445.119-.895.224-1.351.315l.023.22c-.18-.07-.361-.157-.535.082-.24.332-.293.468-.159.822a22.583 22.583 0 0 0 1.595-.312l-.128-.142.055-.05.17.17c.877-.209 1.742-.47 2.591-.783a11.836 11.836 0 0 1-.483-.52c.216.143.417.3.6.477.182-.068.363-.14.543-.212-.163-.244-.205-.553-.463-.715l.097-.066.473.737c.167-.068.333-.138.498-.21l-.187-.252c.086.073.17.147.255.222M43.635 43.444c.01.017-.024.086-.028.085-.122-.015-.243-.036-.404-.062.21-.173.336-.171.432-.023m7.827-15.193c-.006-.037.03-.084.047-.127.036.024.083.04.103.074.022.037.02.089.043.219a.665.665 0 0 1 .014-.013l.077.068-.335.239-.04-.045.28-.247c-.132-.112-.184-.135-.19-.168m-.347-7.945l.023-.017.62.86-.069.05c-.19-.298-.382-.596-.574-.893m-1.487-4.203l-1.989-2.758.092-.065 1.973 2.769-.076.054M43.2 44.595c.22-.167.44-.337.654-.513l-.202-.287c.149.035.256.09.327.184.452-.374.89-.766 1.314-1.175l-.314-.86.075-.047c.15.127.298.255.447.383l-.024.045-.293-.113.191.512a22.939 22.939 0 0 0 4.118-5.401l-.18-.245.072-.044.128.255a23.027 23.027 0 0 0 1.273-2.74 50.29 50.29 0 0 0-.147-.015l.143-.26-.01-.012.02-.007-.02.007a.1.1 0 0 1-.001-.006l-.705.006.537-.212-.334-.066c.443-.267.488-.293.824-.275l.06-.178-.04-.122.092-.036a22.916 22.916 0 0 0 1.122-7.556l-.005-.188a6.065 6.065 0 0 1-.682-.91c.23.22.459.439.675.669a22.857 22.857 0 0 0-1.952-8.477 22.882 22.882 0 0 0-2.749-4.636l-.009.013-.323-.215.093.387-.078.043-.223-.27c-.147.136-.296.267-.44.403a22.01 22.01 0 0 1 2.813 4.654 5.59 5.59 0 0 1 .038-.022c.533.83 1.066 1.66 1.614 2.51-.209.035-.225-.394-.467-.084-.032-.025-.096-.07-.093-.073.049-.07.106-.134.199-.243l-.396-.144c0 .004-.185-.524-.206-.56-.123-.208-.252-.411-.366-.624a21.9 21.9 0 0 1 1.542 6.958c.11.135.21.276.338.394.107.098.255.154.411.244l-.078.232c-.004 0-.04.003-.056-.013a32.072 32.072 0 0 1-.6-.562l.01.305.023.044.016.005-.006.016-.01-.021-.022-.008.005.192c.003.167.004.335.003.502.079.107.155.216.23.327l-.23-.236c-.004.468-.022.934-.055 1.395l.025.039-.027-.014c-.05.68-.13 1.35-.24 2.011l.188-.121.052.057-.178.147-.03.625c0 .003.002.005.004.008 0 0-.007.004-.005.002v-.01l-.123-.191a21.977 21.977 0 0 1-5.348 10.675l.256.398a.693.693 0 0 1-.043.083l-.47-.203-.18.189.051.056-.06.076-.051-.07c-.104.106-.208.211-.313.315l.08.077-.075.073-.08-.076-.12.116.127.112-.049.032-.122-.101a22.26 22.26 0 0 1-.787.718c.223.237.404.506.534.81-.158-.282-.436-.47-.655-.705-.368.316-.746.619-1.134.91a.634.634 0 0 0 .486.166l-.29.025.486.542M11.087 13.866l-.38-.093c.23-.199.3-.04.38.093m-.373.926c.057-.094.115-.187.174-.28l-.435-.466.079-.116c.166.172.325.378.59.22.185-.282.377-.56.576-.832l-.156-.243.01-.01.173.215c.131-.18.265-.357.402-.533l-.647-.79c-.134.169-.264.34-.393.511l.027.032-.031.023-.022-.02c-.252.337-.493.682-.726 1.032l.097.085.225-.25.092.13-.429.277-.083-.094c-.075.116-.15.233-.223.35.267.236.463.522.7.76M11.483 11.954c.118.054.411.351.708.71l.189-.236-.654-.773c-.082.1-.163.198-.243.299M7.764 29.65l-.018-.118a.196.196 0 0 0-.01.031c-.005.026.012.054.028.087M12.339 11.608l-.142-.182.035-.025.125.195-.018.012m.591-1.31c-.208.217-.41.437-.608.66l.023.035-.06.042-.014-.02c-.157.178-.313.358-.465.541.133.037.195.11.27.214.13.183.26.366.394.547.418-.51.858-1.002 1.319-1.473l-.58-.83c-.093.095-.187.189-.279.285M36.908 4.808c.104-.082.151-.157.162-.228-.14-.05-.28-.098-.42-.145.04.076.078.152.112.233.022.052.086.085.146.14M8.07 21.25c.016-.07.032-.139.05-.208a1.095 1.095 0 0 0-.304-.188l.254.395M9.47 17.056a.68.68 0 0 1 .023.03l.022-.05-.045.02M37.293 5.721l.074-.056-.029-.072c-.081.02-.162.038-.235.055l.19.073M46.404 12.348l.11.136c.057-.04.116-.077.177-.11-.089-.21-.192-.072-.287-.026M35.8 5.205l.14.043-.01-.095-.13.052"/>
        <path fill="#b4b4b4" d="M39.382 5.676l.019.006-.005.008.317.318c-.117.022-.207.067-.246.042-.13-.084-.157-.212-.07-.36l-.015-.014m-1.321.253l.176-.114.035.096-.211.018m-.985-.72c.232.031.284.21.395.35.073.092.223.126.356.172a.24.24 0 0 1 .071.026c.09-.288.322-.264.558-.225l-.557.225h-.001a.983.983 0 0 0-.071-.026c-.083-.014-.107.055-.076.14.005.014.01.027.017.04.875.363 1.723.782 2.538 1.251.125-.063.253-.167.43-.192-.11.087-.213.175-.311.26l.275.164.272-.175.082.161c.208-.084.128-.242.053-.297-.35-.255-.418-.697-.691-.995l-.012-.013a22.86 22.86 0 0 0-1.572-.783l-.043.141.02.006-.02-.002.019.002-.016.014c.042.17-.089.222-.268.233l.268-.233-.004-.016.001-.004c-.164-.045-.246-.159-.302-.295-.05-.022-.102-.043-.153-.064-.104.06-.118.095-.184.256-.235-.099-.331-.193-.442-.512a23.959 23.959 0 0 0-.411-.155.63.63 0 0 0 .07.166l-.605.17.346.538-.032-.327M7.541 33.058c.089.286.183.57.282.852l.133-.28-.415-.572M7.875 32.92l-.528-.822.061-.04.532.828-.065.033m-.683-2.788l.57.397c-.29.073-.29.073-.57-.397m.777 1.424l-.045.046-.254-.348.048-.038.25.34m.714 1.813l-.014-.042c-.147-.052-.375.128-.468-.117-.069-.183-.08-.332.075-.658.207.212-.07.393-.058.609.155.045.323.15.358-.114-.127-.39-.244-.786-.35-1.186l-.38.27c-.046-.302.12-.314.365-.331a21.89 21.89 0 0 1-.37-1.69 5.073 5.073 0 0 1-.06-.13l.044.035a20.61 20.61 0 0 1-.043-.254c-.375-.135-.556-.417-.651-.78.285-.103.433.007.558.147A22.179 22.179 0 0 1 7.67 23.5a.577.577 0 0 0-.176-.04c.129-.201.044-.336-.083-.473a38.72 38.72 0 0 1-.57-.63c-.03.173-.057.346-.082.52.365.292.355.34.302.606l-.325-.449-.044.34c.102.196.269.346.546.4l.16-.25.126.195-.385.197.205.16-.041.073c-.175-.043-.35-.085-.524-.13l.033.17.004-.007-.002.018-.002-.011c-.083.14-.145.307-.24.43a23.505 23.505 0 0 0-.052 2.042c.03 1.635.229 3.241.592 4.806.144.053.42-.14.509.063l-.475.08c.092.388.195.773.308 1.155.26.248.433.57.625.919l.604-.317"/>
        <path fill="#b4b4b4" d="M45.734 11.224l-.065-.142.344-.125.042.107-.32.16m-.834-.923l-.152-.237.304-.071-.152.308m-.34-.701l-.06-.075.19-.124.039.045-.17.154m2.819 2.373l-.125-.157a168.3 168.3 0 0 1-.36.007c.085-.087.15-.152.204-.198a22.625 22.625 0 0 0-.17-.202l-.367.09.23-.253-.047-.053-.647.182a1.796 1.796 0 0 1-.032-.04c.069-.052.135-.108.206-.155.086-.056.177-.104.286-.166l-.028-.067a23.308 23.308 0 0 0-2.134-2.106l-.27.327-.114-.065c.148-.056.132-.252.304-.33a22.807 22.807 0 0 0-3.508-2.485c.161.25.324.497.491.743.146.214.334.401.498.595-.275.156-.277.155-.438-.282-.205.032-.19.175-.207.316.246.157.489.319.728.485l.046-.202.524.611c.207.154.411.31.612.471l.03.012-.01.004a22.15 22.15 0 0 1 3.021 2.932l.56-.16.033.081-.462.233.109.132c.173-.068.346-.161.523-.187.175-.026.346-.064.514-.113M6.77 24.006v.012l.008.001-.002-.009a.075.075 0 0 0-.005-.004M6.668 23.569c-.013.108-.025.217-.036.326l.139.111a.82.82 0 0 0-.103-.437M17.159 8.026a58.007 58.007 0 0 1-.586-.697l-.057-.07c-.549.376-1.082.775-1.597 1.199l.633.77a22.075 22.075 0 0 1 1.607-1.202M48.682 43.033l-.005.006v.01c.001-.005.004-.01.006-.014l-.001-.002"/>
        <path fill="#b4b4b4" d="M48.682 43.033c.057-.083.112-.166.168-.25l.04-.009a10.32 10.32 0 0 1-.05.173 9.82 9.82 0 0 0 .172-.207c.016-.02.03-.054.044-.063a.588.588 0 0 0 .25-.409l-.193.013c.101-.086.156-.135.256-.225-.112.032-.192.054-.288.079-.075.107-.161.227-.262.36l-.085-.018c.01.074.025.119.022.176-.006.1.032.187-.095.337-.002.002.013.027.02.043M43.965 47.167l.003-.001-.004.001M43.551 47.222c-.105.09-.18.13-.277.074a8.143 8.143 0 0 1-.042.098c-.215.08-.415.144-.613.212-.028.01-.07.073-.061.094.047.111.14.107.37-.016.02-.01.05-.01.075-.012.164-.012.287-.096.34-.201.023-.048.127-.11.201-.16a.416.416 0 0 1 .151-.058c.09-.027.18-.056.269-.086-.047-.009-.087-.032-.142-.023-.088.015-.224.039-.27.078M47.867 44.19c.146-.16.282-.314.42-.479l-.022-.196c-.046.175-.097.3-.224.286-.033.045-.057.089-.086.112-.173.142-.201.204-.088.276"/>
        <path fill="#b4b4b4" d="M43.966 47.168l.002-.002-.004.002h.002"/>
        <path fill="#b4b4b4" d="M44.256 47.093c.096-.076.09-.08-.02-.16l.015.111a14.518 14.518 0 0 1-.192-.076l-.016.223a1.663 1.663 0 0 1-.077-.023l-.092.114c.172.013.275-.104.382-.189M48.676 43.05a11.43 11.43 0 0 1-.09.188c-.13.042-.14.059-.134.19.002.037-.032.1-.053.158.142-.105.1-.176.113-.267.177-.01.23-.205.315-.354-.054.062-.108.122-.162.181l.011-.097M48.827 42.965l.01-.012.003-.006-.006.007-.007.011M50.018 40.194l-.062.002-.018.044.13.034c.034-.098.067-.197.104-.316a9.563 9.563 0 0 1-.177.114l.023.122M47.131 44.311c.065-.052.117-.095.2-.164a23.304 23.304 0 0 1-.19-.022l-.01.186M43.818 45.744c.115-.039.188-.064.288-.1l-.043-.104c-.091.078-.153.13-.245.204M43.985 46.777c-.031-.002-.077.015-.116.023l-.019.03.089.014.11.01c.01-.015.034-.04.028-.044a.204.204 0 0 0-.092-.033M49.23 39.604l.116.085c.025-.151.013-.229-.115-.085M36.735 49.015l.15.014.01-.01-.143-.015-.017.01M36.585 48.606c-.02.01-.041.014-.036.019a.202.202 0 0 0 .06.02.224.224 0 0 0 .052-.005c-.006-.006-.027-.013-.076-.034M53.526 42.311c-.074-.006-.148-.01-.236-.018-.001.182.065.199.236.018M42.023 50.158c.093-.05.205-.098.273-.153.061-.049.074-.104.111-.162-.119.052-.206.09-.333.142l-.077.152.026.021M48.843 45.488c.01-.047.027-.098.05-.181-.068.036-.14.066-.148.08-.035.064-.052.124-.076.186l.003-.002-.07.083.212.002c.014-.082.018-.123.029-.168M41.49 50.168l.01.042-.275.022.144.123c.24-.094.061.064.197.046l-.055-.237-.02.004M41.37 50.357h.002l-.003-.002-.003.001.005.001"/>
        <path fill="#b4b4b4" d="M41.372 50.358h-.001l-.005-.001h.006M50.292 47.704c-.045.093-.065.131-.083.167-.142.11-.068-.136-.265.087-.094.105-.16.215-.257.343a19.17 19.17 0 0 1-.363-.036c-.086.079-.174.156-.262.234a7.494 7.494 0 0 1-.06.137l.187.12c.1-.146.188-.275.285-.425l.288.064c-.045-.11.077-.261.318-.438.122.03.238.055.354.08l.078-.078c-.252.09-.145-.147-.22-.255M46.399 50.599l.147.238c.179-.209.145-.247-.147-.238M52.186 45.7c-.088.147-.146.24-.214.35l-.111-.01-.046.062.142.017.222-.19.007-.23"/>
        <path fill="#b4b4b4" d="M51.958 46.119h-.001c-.001 0-.002 0-.002.002l.003-.002M52.385 45.756c-.05-.103.007-.322-.058-.412l-.053.06c.014.142.026.284.038.427l.073-.075M54.03 41.942l.153-.092.031-.1a1.655 1.655 0 0 1-.085-.035c-.032.076-.065.152-.099.227M39.075 50.122l-.14.073c-.148-.007.026-.147-.216-.104-.116.02-.215.062-.345.099a20.903 20.903 0 0 1-.215-.26c-.097.007-.194.012-.292.016l-.11.068.057.211c.142-.05.266-.094.407-.148l.153.232c.029-.112.186-.152.433-.131.064.1.127.194.19.288l.09-.01c-.21-.093-.02-.204-.012-.334M52.58 40.529a9.01 9.01 0 0 0-.082-.069 9.292 9.292 0 0 0-.035.053c.008.099.002.222.03.284.009.019.117-.137.178-.216l.022-.089c.014.04.05.083.038.116a1.033 1.033 0 0 1-.141.268c-.045.052-.091.045-.134.056-.066.015-.107-.06-.217.125-.028.046-.079.041-.12.06l-.026.07.125.076.075-.19.114-.063c-.015.196.028.245.133.133-.02.083-.038.161-.066.27.075-.121.132-.219.188-.316-.036-.02-.034-.057.037-.15.083-.108.14-.216.038-.225.12-.182.222-.345.323-.512l-.024-.212c-.044.047-.102.11-.159.168l.034-.203v-.003c-.069.068-.138.135-.208.2-.035.11-.077.235-.123.369M52.665 41.091l-.003.006.003.001v-.007M50.057 44.151l-.004.005.004-.005M49.802 44.298l-.045.06c.036.014.061.049.109.04.135-.027.174.047.09.225.077-.074.155-.15.23-.227a12.453 12.453 0 0 1-.131-.014l.029-.058.168-.07.128-.177c-.1.032-.174.056-.247.078l-.02.046-.06-.045c-.052.068-.106.135-.164.207l-.087-.065M51.923 41.892l.045.112-.11.148c.018.023.035.043.05.064.212-.245.21-.248.326-.134l.145-.174a11.301 11.301 0 0 0-.172-.133c-.058.1-.059.101-.284.117M53.224 40.202a.2.2 0 0 0 .022.112c.006.01.052-.04.055-.05.043-.187.082-.126.122-.156l.076-.18a7.992 7.992 0 0 1-.093.106l.09-.247c-.039-.271-.23.206-.31.143l-.026.095a12.1 12.1 0 0 0 .195-.088l-.012.06c-.022.024-.046.042-.066.076a.461.461 0 0 0-.053.129M50.192 43.678c0 .026.057.007.093-.002a.389.389 0 0 0 .052-.083.108.108 0 0 0-.06-.032c-.057-.013-.126.005-.127-.102-.002-.123-.144-.02-.28.201.061-.006.106.002.163-.02.085-.035.162-.072.16.038M48.117 46.373l-.003.003a10.531 10.531 0 0 0 .167.063c.048-.066.047-.064-.22-.13l.056.064-.007.002.007-.002"/>
        <path fill="#b4b4b4" d="M48.332 46.53c-.226.106-.126-.098-.196-.145-.007-.003-.015-.005-.022-.009-.037.05-.087.106-.105.148-.028.068-.032.127-.04.158.085.003.166.004.248.004l.115-.156M49.233 44.925c.188-.177.224.039.445-.192-.09-.082-.215-.08-.43.052l-.015.14M52.432 40.133l.023-.19.106-.047a15.28 15.28 0 0 0-.057-.312c-.023.125-.034.186-.05.264-.067.048-.136.095-.192.133l.17.152M51.572 41.832l.022.135c.06-.128.117-.256.193-.432a9.8 9.8 0 0 1-.257.121c.02.084.032.129.042.176M51.594 41.968v-.001l-.002.002h.002M35.007 49.967l-.037.278c.233-.06.231-.11.037-.278M50.711 43.7c.015 0 .055-.043.081-.073.006-.007 0-.038.004-.062.005-.03.016-.065.032-.126-.156.228-.18.23-.197.06l-.148.178c.086.01.154.023.228.023M52.24 41.509c-.022.018-.04.015-.062.027-.04.02-.08.047-.121.07l-.011.041c.033.02.056.067.1.052.043-.015.106-.094.18-.166l.016-.129c-.034.036-.068.077-.101.105M41.307 49.887c-.13.048-.213.077-.31.11l-.068-.082-.061.015.084.107c.077.005.155.008.24.011l.115-.16M40.953 50.038h-.003.003M52.81 41.369l-.018.157-.188.227.247-.027-.05-.125c.047-.1.136-.262.008-.232M50.594 42.763c.053.041.102.088.161.118.016.007.065-.04.099-.064-.01-.02-.013-.049-.03-.055-.062-.022-.13-.037-.195-.054l-.035.055M41.41 50.062c.018-.108.161-.226.162-.334a5.806 5.806 0 0 1-.064.006c-.06.112-.12.222-.183.333l.085-.005M50.455 43.526c.059.05.125-.109.21-.199l-.117-.065-.093.264M51.02 43.28a10.032 10.032 0 0 0-.15-.124c-.08.228-.059.246.15.124M51.113 42.724c-.06.1-.104.172-.164.267l.145-.061.107-.213-.088.007M50.053 44.155l.004-.003a.035.035 0 0 1-.004.003"/>
        <path fill="#b4b4b4" d="M49.901 44.27c.052-.038.102-.076.152-.115a12.1 12.1 0 0 0-.026-.15c-.156.187-.157.186-.126.266M47.158 46.745l.066.21c.103-.206.088-.234-.066-.21M46.017 47.69a1.296 1.296 0 0 0-.012-.144l-.079.035.031.153c.05-.036.06-.042.06-.044M48.11 46.375a.01.01 0 0 0 .004.001l-.004-.001M44.291 48.59l.144.049.066-.042a3.219 3.219 0 0 1-.04-.083l-.17.076M48.031 46.224l-.186.01-.004.187c.07-.07.116-.118.19-.197M36.436 47.583c-.128-.063-.26-.019-.39-.048-.048-.012-.098-.015-.166-.024l.033.103.007.001-.006.001v.001c.192.03.386.057.58.08l.021-.03-.08-.084M36.434 47.582l.002.001.005.002a.152.152 0 0 1-.007-.003M48.337 40.617v0M48.133 40.516c.032-.162-.042-.139-.155-.051 0 .03-.002.06-.004.103l-.053-.004v.004c.03.064.05.127.165.052.052-.035.119.003.147.047.034.057.058.036.104-.05l-.006-.133-.198.032M47.736 41.554l.006-.005a.017.017 0 0 1-.004.003l-.002.002M47.878 41.268c-.04.048-.083.095-.122.144-.05.064-.098.13-.162.213a9.83 9.83 0 0 0 .144-.073c.05-.087.1-.174.148-.262l-.008-.022M36.548 49.48c.056.02.096.05.152.07.046.015.121.032.155.025.038-.007.064-.042.058-.065-.022-.078-.16-.119-.318-.095.057-.07.005-.105-.184-.109l.107.071c-.004.004-.009.01-.016.013l-.105.061c.05.01.108.015.151.03M49.577 41.783v-.003.003M50.063 41.6a13.684 13.684 0 0 0-.132-.155l-.031.046c.005.02.01.04.02.072-.103.01-.192.018-.297.026l-.045.192.076.05.02-.225.355.055.034-.06M41.48 48.696l.252-.052-.028-.04c.09-.023.175-.046.273-.073l-.168-.076c-.13.075-.376.118-.33.24M36.225 49.682a14.951 14.951 0 0 1-.466-.021l.01.03c.158.014.315.024.472.032l-.016-.04M45.332 47.286c.078-.056.155-.112.257-.19-.047.008-.107.007-.125.021-.065.054-.116.112-.174.169h.042M48.303 44.475c-.091.077-.152.127-.242.2l.207-.044.035-.156M48.233 44.404l.001.047.155-.077.005-.103c-.053.045-.106.09-.16.133M35.788 47.86l.055.111c.007-.217.325.015.42-.082l-.084-.059c-.072.003-.128.01-.187.005a9.375 9.375 0 0 1-.512-.065c-.007.08.13.07.219.087l-.003.034c-.148.006-.296.01-.447.012.139.102.464.08.54-.042M35.477 47.77h.002l.001-.003-.003.002M35.476 47.769l.002-.001h-.002M48.463 40.867l-.18-.06c-.038.059-.069.103-.094.139l.159.147.016-.147.099-.08M6.289 30.9a.144.144 0 0 1-.004-.007l-.009-.005.01.012h.003M6.289 30.9l.161.254-.007.04a11.399 11.399 0 0 1-.139-.115l.12.24c.013.024.038.05.041.066a.587.587 0 0 0 .275.393c.017-.052.036-.104.064-.183.04.128.062.198.104.325.015-.115.028-.198.043-.295-.068-.112-.143-.24-.225-.385l.05-.072c-.072-.02-.118-.023-.17-.049-.088-.046-.183-.045-.27-.222 0-.002-.03.001-.047.002M4.385 24.914v-.001.001M4.5 24.512c-.04-.133-.048-.217.043-.284a7.347 7.347 0 0 1-.073-.078c.013-.23.034-.44.05-.649.002-.03-.039-.093-.062-.093-.12-.001-.153.086-.132.348.001.02-.012.05-.02.072-.054.156-.026.303.05.393.034.04.049.16.066.25.01.05.003.111-.008.16-.01.095-.02.189-.028.282.027-.039.064-.067.077-.121.022-.087.054-.22.037-.28M5.555 29.69c.087.196.175.383.27.576l.189.058c-.142-.112-.236-.208-.173-.32-.028-.048-.058-.088-.069-.124-.06-.215-.105-.266-.217-.19M4.384 24.915l.001.002v-.004.002"/>
        <path fill="#b4b4b4" d="M4.337 25.211c.032.119.037.116.155.046l-.108-.03c.05-.05.084-.086.146-.147l-.198-.104.052-.061-.067-.13c-.081.153-.015.294.02.426M6.276 30.888c-.045-.05-.089-.102-.137-.159.013-.136.002-.152-.121-.198-.034-.013-.079-.07-.123-.112.04.172.121.162.2.21-.063.167.096.294.198.431a15.727 15.727 0 0 1-.101-.221l.084.049M6.293 31.06l.006.015.005.004c0-.003-.002-.005-.003-.008l-.008-.01M8.353 33.26l.023-.059-.032-.033-.084.105c.077.07.154.14.247.222-.017-.1-.025-.151-.033-.209l-.12-.026M5.737 28.964l.07.25.096-.167-.166-.083M5.746 25.346l-.023.305.112.002a11.367 11.367 0 0 1-.09-.307M4.734 25.088c.014-.028.017-.077.025-.116l-.019-.029-.049.076c-.018.031-.035.065-.052.097.01.016.023.048.028.044a.205.205 0 0 0 .067-.072M9.207 32.77l-.124.073c.128.083.204.102.124-.073M5.575 17.528a17.5 17.5 0 0 0-.073.132l.005.013.071-.125-.003-.02M6.009 17.554c-.002-.024.003-.045-.003-.041a.195.195 0 0 0-.042.047.22.22 0 0 0-.017.05c.008-.003.023-.02.062-.056M5.02 35.643l.11-.21c-.166-.074-.208-.02-.11.21M2.423 21.936c.008.107.008.229.031.314.02.075.066.109.104.166 0-.13 0-.225.003-.363l-.108-.132-.03.015M3.978 30.07c.04.028.08.064.146.118-.006-.077-.004-.155-.013-.168-.046-.057-.094-.097-.14-.144v.004l-.048-.099-.087.196c.07.045.106.065.142.093M2.625 21.444l-.042-.009c.027-.078.053-.157.09-.261l-.17.083c-.01.259-.083.03-.12.162l.238.045a.988.988 0 0 0 .004-.02"/>
        <path fill="#b4b4b4" d="M2.5 21.258h.003v-.004a.032.032 0 0 0-.002.004"/>
        <path fill="#b4b4b4" d="M2.5 21.259v-.001l.003-.005-.003.006M1.374 30.52l-.119-.143c-.045-.174.151-.008.026-.278-.06-.129-.134-.233-.212-.373l.178-.32a15.353 15.353 0 0 1-.11-.334 7.038 7.038 0 0 1-.101-.11l-.185.124c.093.151.177.283.275.432-.055.077-.112.154-.172.24.117.002.208.174.273.467-.075.1-.145.196-.214.293l.04.103c.02-.267.192-.075.321-.1M.277 25.786L0 25.827c.12.247.169.231.277-.041M2.454 33.06c-.1-.14-.163-.23-.235-.336l.053-.098-.039-.067-.071.124c.026.09.054.182.085.28l.207.097M2.161 32.684v-.001-.003a.04.04 0 0 0 0 .004M2.323 33.22c.114-.003.291.135.4.112a4.911 4.911 0 0 1-.034-.073l-.406-.135.04.097M5.156 36.253l.024.178.078.068.067-.064a19.94 19.94 0 0 1-.17-.182M3.63 19.24l-.01-.158c.065-.134.124.083.18-.158.028-.114.029-.222.047-.356l.323-.095c.033-.091.067-.183.102-.274a10.174 10.174 0 0 1-.018-.13l-.216-.03c-.011.15-.02.282-.027.433l-.273.049c.091.07.065.23-.052.45l-.34.059-.027.087c.17-.155.195.064.311.123M7.027 35.482l.095-.048a8.663 8.663 0 0 0-.034-.053c-.094-.032-.204-.087-.272-.085-.02 0 .079.161.126.25l.073.055c-.041-.003-.096.013-.121-.012a1.034 1.034 0 0 1-.189-.236c-.03-.062-.005-.102.003-.146.012-.066.096-.074-.029-.249-.03-.044-.006-.089-.006-.133l-.055-.053-.119.085.144.145.012.13c-.173-.092-.235-.073-.174.07l-.222-.17c.083.118.149.209.215.3.034-.026.067-.01.122.093.066.12.143.214.192.125.119.183.227.341.34.5.047.016.117.037.203.063-.026-.059-.06-.138-.09-.213.07.046.12.08.172.112l.002.001c-.035-.09-.068-.18-.1-.27a18.058 18.058 0 0 1-.288-.26"/>
        <path fill="#b4b4b4" d="M6.478 35.337l-.004-.006c0 .001 0 .002-.002.003l.006.003M4.718 31.72l-.003-.006a.067.067 0 0 0 .003.005"/>
        <path fill="#b4b4b4" d="M4.685 31.426a10.382 10.382 0 0 1-.037-.065c-.027.027-.069.036-.08.084-.029.135-.112.141-.242-.006l.116.3.065-.114.042.05-.002.183c.012.02.043.076.11.188.01-.105.018-.183.027-.259l-.034-.037.065-.036-.124-.233.094-.055M6.042 34.335c-.047 0-.08-.002-.121-.003-.034-.06-.062-.108-.09-.161l-.08.022c.14.292.143.292-.008.352l.102.203.19-.105c-.068-.094-.069-.095.007-.308M7.07 36.205a.198.198 0 0 0-.113-.024c-.01 0 .016.063.026.07.153.114.081.126.092.174l.135.142a7.823 7.823 0 0 1-.06-.128l.19.182c.264.072-.096-.294-.007-.344a9.57 9.57 0 0 1-.077-.06l.004.213-.05-.034c-.014-.03-.02-.059-.044-.091a.46.46 0 0 0-.097-.1M5.097 32.032c-.023-.011-.029.05-.035.086a.391.391 0 0 0 .055.08.108.108 0 0 0 .053-.042c.035-.047.046-.117.144-.076.113.047.075-.124-.073-.337-.018.058-.044.097-.045.157-.003.092 0 .178-.099.132M3.458 29.05a.041.041 0 0 1-.001-.004 13.463 13.463 0 0 0-.124.128c.04.071.04.07.206-.15l-.08.025v-.007.007"/>
        <path fill="#b4b4b4" d="M3.23 29.185c-.008-.25.14-.077.21-.122l.016-.017c-.031-.054-.061-.123-.093-.155-.05-.053-.103-.08-.13-.1l-.101.226.097.168M4.339 30.653c.086.243-.125.19-.002.485.11-.05.16-.166.123-.415l-.121-.07M7.447 35.504l.165.097.001.116c.095.023.18.043.309.071-.106-.07-.157-.105-.223-.15a15.433 15.433 0 0 1-.045-.23l-.207.096M6.236 34.036c-.043-.01-.088-.022-.132-.034.094.106.188.21.318.35a10.29 10.29 0 0 1-.008-.285c-.086-.014-.13-.021-.178-.031M6.103 34.002h.001l-.001-.001v.001M5.392 15.56l-.24-.145c-.037.238.01.257.24.144M4.87 32.5c-.006.014.018.068.034.104.004.008.036.014.056.028.025.017.053.04.102.08-.146-.234-.139-.257.024-.205l-.104-.207c-.044.074-.082.132-.112.2M6.265 34.78c-.008-.028.003-.044 0-.068-.003-.045-.01-.093-.016-.14l-.033-.026c-.03.022-.083.025-.087.071-.003.045.044.135.08.231l.111.067c-.019-.046-.042-.094-.055-.135M2.956 21.386c.008-.137.015-.226.023-.33.038-.01.07-.02.102-.03l.01-.061L2.96 21l-.105.215.1.171M2.959 21l.002-.002-.002.002M6.167 35.359l-.137-.078c-.042-.081-.079-.155-.133-.264-.027.084-.047.147-.074.238l.135.004c.073.083.185.23.209.1M5.774 32.766c-.059.032-.12.059-.172.101-.013.012.011.076.02.116.02 0 .049.008.06-.005.046-.049.086-.105.128-.158a19.122 19.122 0 0 0-.036-.054M2.755 21.411c.09.06.143.239.24.283l.02-.062c-.077-.099-.155-.199-.231-.3l-.03.08M5.131 32.334c-.069.034.05.158.098.273l.107-.083a18.617 18.617 0 0 1-.205-.19M5.131 32.952c.053-.026.106-.053.174-.09-.177-.162-.202-.15-.173.09M5.603 33.258a14.367 14.367 0 0 1-.179-.256c0 .047 0 .102-.002.157.048.059.09.11.152.183l.029-.084M4.716 31.714l.002.004a.04.04 0 0 1-.002-.004M4.67 31.528l.046.186.148.035c-.11-.218-.108-.218-.193-.221M3.5 28.02l-.218-.024c.147.177.178.175.218.024M3.09 26.593c.045.018.091.035.137.047l-.001-.087-.153-.032c.014.06.015.072.017.072M3.46 29.042a.01.01 0 0 0-.004.004l.003-.004M2.954 24.648l-.102.113.012.077a3.64 3.64 0 0 1 .092-.004l-.002-.186M3.629 29.03l.064-.175a17.948 17.948 0 0 1-.169-.078c.037.091.062.153.105.253M7.004 17.823c.109-.092.12-.232.2-.339.028-.04.051-.084.087-.143l-.107-.01a.075.075 0 0 0-.004.005l.001-.006c-.105.165-.207.332-.304.501l.02.032.107-.04M7.005 17.823h-.001L7 17.827l.005-.004M8.636 31.545l-.007-.003.007.003M8.81 31.397c.135.094.143.016.108-.122l-.093-.045.025-.047-.003-.002c-.07.002-.137-.003-.114.131.011.062-.05.109-.102.117-.065.009-.055.039.005.116l.124.047.05-.195M8.018 30.618l.002.008a.02.02 0 0 1 0-.005l-.002-.003M8.223 30.863c-.028-.056-.053-.114-.083-.17-.038-.071-.08-.142-.13-.234l.01.162c.059.081.119.161.18.24l.023.002M5.223 17.171c-.04.044-.084.068-.124.113a.408.408 0 0 0-.085.132c-.008.037.013.076.037.079.08.01.172-.1.213-.255.043.08.095.047.173-.126l-.107.07c-.002-.004-.005-.011-.006-.02l-.014-.12c-.029.043-.056.093-.087.127M7.076 32.22c0 .001 0 .002.002.002l-.002-.001M7.049 32.74c.065-.019.13-.038.194-.059l-.03-.047-.073-.01.094-.284-.157-.118-.076.05c.044.024.096.054.198.108l-.192.305.042.056M3.977 22.02l-.053.252.047-.01-.042.28.137-.124c-.016-.15.042-.392-.09-.399M5.167 16.794c.066-.14.135-.281.206-.42l-.033-.004c-.074.14-.147.28-.217.422l.044.002M3.732 26.125c.02.093.041.187.071.31.012-.045.037-.1.03-.122-.022-.081-.055-.152-.084-.227a1.564 1.564 0 0 1-.017.039M5.12 29.977c-.034-.115-.055-.19-.086-.302a22.73 22.73 0 0 0-.043.207c.043.032.08.06.13.095M5.213 29.94c-.015-.005-.029-.01-.043-.017.003.058.005.116.009.173l.092.046c-.02-.067-.04-.134-.058-.201M7.007 17.117l-.122.007c.195.093-.144.293-.092.42l.087-.055c.026-.067.042-.122.07-.174.082-.15.172-.298.264-.445-.071-.038-.116.091-.168.166l-.03-.016c.054-.139.11-.276.167-.415-.148.086-.258.394-.176.512M7.215 16.867v.002l.001.002v-.004M7.216 16.867v0M8.357 31.56l.125-.14-.088-.142-.198.087.128.073.033.123M37.653 4.517l.008.001.01-.003h-.016l-.002.002"/>
        <path fill="#b4b4b4" d="M37.653 4.517a14.127 14.127 0 0 0-.297-.047l-.025-.032c.059-.01.119-.02.177-.028a9.763 9.763 0 0 0-.259-.07c-.025-.005-.062-.004-.076-.012a.584.584 0 0 0-.475-.055l.094.17a11.423 11.423 0 0 0-.312-.137c.076.088.13.152.193.228.128.023.273.05.435.086l.021.085c.062-.041.096-.074.15-.095.092-.036.155-.108.344-.056.003 0 .02-.023.03-.037M43.385 7.053l-.002-.002.002.002M43.61 7.405c.125.058.193.108.184.22l.106-.003c.163.163.305.317.451.468.021.02.096.033.11.016.081-.09.038-.173-.171-.33-.017-.013-.03-.042-.042-.063-.08-.144-.208-.22-.325-.223-.053-.001-.153-.07-.23-.116a.416.416 0 0 1-.116-.113c-.063-.07-.127-.14-.192-.208.012.047.008.093.04.14.05.073.129.186.184.212M39.043 4.767a13.189 13.189 0 0 0-.61-.178c-.047.028-.09.054-.168.103.177-.033.312-.04.353.081.055.012.105.015.138.031.202.098.27.097.287-.037M43.385 7.051h-.002l.003.002v-.002"/>
        <path fill="#b4b4b4" d="M43.195 6.82c-.11-.055-.11-.05-.137.086l.095-.061.013.206.208-.08.012.08.14.036c-.06-.162-.21-.206-.331-.267M37.67 4.515c.068 0 .135 0 .21.002.092.1.111.103.228.04.032-.016.104-.012.165-.017-.155-.085-.202-.017-.29.01-.083-.157-.283-.123-.453-.137.079.023.157.047.232.071l-.092.031M37.53 4.413a.346.346 0 0 0-.015-.004h-.007l.009.003.013.001M34.522 4.504l.029.055c.015 0 .031 0 .047-.002l-.024-.132c-.103.01-.207.023-.33.039.087.054.13.081.178.113l.1-.073M39.464 5.384a11.524 11.524 0 0 0-.233-.112l.061.183c.073-.03.11-.046.172-.07M42.161 7.788a12.47 12.47 0 0 0-.213-.22l-.075.084c.11.05.182.084.288.136M43.024 7.2c.011.028.046.063.07.095l.034.005-.024-.087-.038-.104c-.018-.003-.05-.014-.051-.008a.206.206 0 0 0 .01.099M34.323 5.47l.028-.142c-.148.041-.213.085-.028.141M48.114 12.84l-.05-.142-.013-.005.046.136.017.01M47.808 13.148c.018.015.03.032.032.025a.205.205 0 0 0-.007-.062.227.227 0 0 0-.027-.046c-.003.008 0 .03.002.083M34.951.42l.084.224c.164-.077.151-.144-.084-.223M46.91 7.551c-.085-.064-.176-.145-.255-.184-.07-.034-.125-.023-.194-.032.098.086.169.15.27.243l.17.006.009-.033M39.804 3.331c-.048.01-.1.017-.186.032.062.046.12.1.135.1.073.005.135-.005.2-.009l-.002-.003.105.03a11.618 11.618 0 0 0-.089-.195c-.08.022-.119.036-.163.045M47.143 8.03l.034-.026.137.24.05-.183c-.187-.178.032-.082-.042-.197l-.19.15.011.016M47.365 8.06v-.002l-.001.003.002.003V8.06"/>
        <path fill="#b4b4b4" d="M47.365 8.058v.002l.002.004-.002-.006M41.192 1.077l.186.005c.16.082-.094.119.191.204.135.041.262.054.419.088.042.116.081.23.12.345.108.045.216.092.323.14l.15-.004.029-.221c-.175-.03-.329-.054-.505-.08-.02-.092-.04-.186-.064-.288-.08.087-.268.04-.53-.104-.026-.123-.051-.24-.078-.355L41.33.77c.187.19-.071.193-.138.307M45.456 3.39c.05-.079.098-.153.153-.236-.265-.073-.285-.026-.153.235M38.58.205c.17.017.279.03.406.046l.038.105.076.015-.045-.136c-.085-.04-.172-.08-.266-.121l-.21.09M39.055.234v.001l.003.002-.003-.003M38.546 0c-.072.089-.293.13-.347.226l.076.024c.123-.073.246-.145.37-.215L38.546 0M34.404.119l-.148-.1a8.415 8.415 0 0 0-.103.014l.004.092.247-.006M48.124 10.245l.125.096c.056.138-.144.039-.002.24.067.097.147.17.235.271-.047.104-.095.205-.143.306.047.085.092.172.137.258.045.03.09.059.109.073l.166-.142a16.923 16.923 0 0 0-.306-.308l.144-.237c-.113.022-.215-.104-.301-.338.063-.1.122-.197.18-.293l-.046-.078c.003.23-.178.103-.298.152M33.741 2.035l-.027.104.062.009c.086-.05.2-.096.244-.148.013-.015-.173-.048-.27-.07l-.09.017c.03-.029.054-.08.089-.083.101-.007.23-.005.302.015.066.019.08.064.107.098.041.054-.009.122.204.144.054.006.07.054.104.084.026-.002.05-.005.076-.006l.016-.146-.204.012-.106-.077c.184-.069.21-.128.064-.177l.273-.054a14.727 14.727 0 0 0-.366-.037c-.003.042-.037.056-.15.03-.133-.03-.255-.035-.22.06a15.348 15.348 0 0 0-.6-.076l-.181.111.219.074c-.08.022-.14.038-.197.055h-.003c.09.034.18.07.269.105.113-.014.245-.03.385-.044"/>
        <path fill="#b4b4b4" d="M34.213 1.72h.006v-.003l-.006.003M38.082 2.794l.005.002a.078.078 0 0 0-.005-.002M38.322 2.964l.073.015c-.002-.038.019-.076-.01-.116-.081-.11-.03-.178.165-.177l-.301-.113.042.125-.064-.001a15.508 15.508 0 0 0-.136-.123c-.024-.005-.086-.018-.214-.042.072.077.125.134.176.192l.05-.001-.015.072.256.062c-.01.043-.015.075-.022.107M35.25 2.055l.082-.089.181.039.036-.074c-.31-.089-.313-.086-.258-.24l-.218-.057-.048.212c.115.011.116.011.225.21M33.173 1.588a.199.199 0 0 0 .092-.068c.007-.01-.058-.03-.07-.027-.186.04-.147-.022-.19-.046l-.196.007.136.04-.263.022c-.228.15.284.122.262.223l.096-.018a11.95 11.95 0 0 0-.162-.14l.059-.014c.032.01.057.024.097.027a.459.459 0 0 0 .14-.006M37.597 2.872c.024-.01-.018-.055-.042-.084a.384.384 0 0 0-.096-.012.109.109 0 0 0-.004.068c.013.058.058.112-.038.158-.11.054.043.14.3.17-.03-.053-.043-.098-.088-.14-.067-.062-.133-.116-.032-.16M40.91 3.617h.004a9.779 9.779 0 0 0-.014-.178c-.08-.016-.078-.015-.024.256l.034-.078.005.005-.005-.005"/>
        <path fill="#b4b4b4" d="M40.96 3.355c.192.16-.034.156-.047.239l.001.024c.061.012.132.034.178.032.073-.003.128-.024.16-.03a9.408 9.408 0 0 0-.1-.227 16.173 16.173 0 0 0-.191-.038M39.13 3.216c-.24-.096-.06-.22-.362-.324-.036.117.018.23.229.368.048-.016.085-.03.132-.044M33.446 2.336l-.181.06-.088-.076-.258.184c.123-.033.183-.048.26-.067.072.041.144.084.202.119l.065-.22M35.345 2.4c.035-.027.075-.052.112-.077-.14 0-.28 0-.472.006.083.068.134.11.219.183.067-.055.102-.084.141-.112M35.459 2.322h-.002.002M49.706 14.006l.266-.083c-.152-.187-.198-.164-.266.083M37.397 2.39c-.006-.013-.062-.031-.1-.042-.009-.003-.034.017-.058.023-.029.008-.065.013-.127.024.272.045.284.065.137.154.063.016.122.031.224.059-.027-.083-.045-.15-.076-.218M34.77 1.928c.026.013.031.031.05.046.037.027.078.053.116.08l.041-.007c.004-.038.037-.08.005-.113-.032-.032-.13-.056-.226-.092-.021.006-.073.022-.123.039.046.015.098.03.137.047M46.967 8.316c.098.098.16.161.231.236l-.045.096.04.05.06-.123a12.948 12.948 0 0 0-.091-.221l-.195-.038M47.254 8.574v0M34.403 1.471l.15-.051.284.075c-.045-.076-.08-.133-.13-.213l-.091.099c-.11 0-.294-.013-.213.09M36.6 2.893c.015-.065.036-.13.038-.196 0-.017-.064-.041-.1-.062-.012.016-.038.032-.036.05.006.066.022.133.033.2l.065.008M47.082 8.149c-.105.029-.273-.05-.37-.006l.032.055c.126.007.252.016.378.025l-.04-.074M37.349 2.697c.02-.074-.152-.068-.27-.107l-.008.134.278-.027M36.886 2.288c-.015.057-.03.114-.048.19.24-.026.247-.052.048-.19M36.346 2.439c.116.012.198.022.31.036l-.117-.106a18.9 18.9 0 0 0-.237-.007l.044.077M38.086 2.796h.001l-.005-.002.004.002M38.256 2.885l-.17-.089c-.04.03-.082.058-.124.088.235.062.235.063.294.001M41.652 4.33l.162-.148c-.23-.007-.249.018-.162.148M42.99 4.967a1.267 1.267 0 0 0-.126.072l.065.057.125-.093c-.054-.03-.064-.037-.065-.036"/>
        <path fill="#b4b4b4" d="M40.915 3.622a.01.01 0 0 0 0-.005v.005M44.533 6.154l-.018-.151c-.021-.014-.043-.03-.065-.043a2.604 2.604 0 0 1-.058.072l.14.122M40.812 3.757l.088.165.17-.076a13.516 13.516 0 0 0-.258-.089M46.947 13.717c-.003.143.093.244.121.375.01.048.029.095.049.16l.079-.073-.002-.007.004.005a13.395 13.395 0 0 0-.173-.56l-.037-.007a8.65 8.65 0 0 1-.041.107M46.946 13.719v-.002-.005.007M35.616 5.852l.006-.003-.006.003M35.61 6.08c-.159.04-.106.098.02.163l.096-.04c.008.02.014.035.018.05l.004-.002c.046-.053.093-.1-.023-.172-.053-.032-.048-.109-.02-.153.037-.055.008-.068-.089-.074l-.118.063.113.166M36.717 6.002l-.007-.004a.031.031 0 0 1 .004.003h.003M36.399 5.994c.06.016.12.035.18.05l.263.057a9.391 9.391 0 0 0-.128-.1l-.299-.024-.016.017M48.614 12.812c-.006-.059.005-.109-.002-.168a.406.406 0 0 0-.042-.151c-.023-.03-.066-.04-.084-.025-.06.053-.04.196.05.33-.09-.022-.099.039-.022.213l.02-.128c.004.002.011.004.018.01l.1.069c-.013-.05-.033-.105-.038-.15M36.145 4.233h-.003.003M35.774 3.868c-.029.062-.057.123-.084.186.018.002.037.005.055.009l.056-.048c.053.088.098.166.15.258l.191-.04.014-.09c-.047.016-.104.036-.212.077a20.04 20.04 0 0 0-.101-.347l-.07-.005M45.818 8.664l-.154-.208-.024.043c-.059-.072-.115-.14-.182-.218l.003.185c.123.087.266.292.357.198M48.933 13.02c.061.143.12.288.177.432l.025-.021a14.924 14.924 0 0 0-.172-.443l-.03.032M42.914 5.76a13.8 13.8 0 0 0-.28-.153c.026.04.05.094.071.104.076.037.15.06.226.088a1.238 1.238 0 0 1-.017-.04M39.116 4.25c.108.05.179.085.283.136l-.126-.17-.157.034M39.082 4.344l.041-.02-.134-.108a3.328 3.328 0 0 0-.095.038l.188.09M47.472 14.188a6.75 6.75 0 0 0 .076-.097c-.198.085-.123-.302-.252-.347l-.017.102c.033.064.064.112.083.167.058.162.109.327.158.493.076-.027.008-.147-.013-.235l.031-.012c.069.132.135.265.2.4.034-.168-.123-.454-.266-.471M47.52 14.51v-.003h-.003l.004.002M47.52 14.51h0M35.789 5.633c.01.073.016.13.022.187l.165.027.066-.206-.14.048a8.87 8.87 0 0 0-.113-.056"/>
    </g>
</svg>
