<svg xmlns="http://www.w3.org/2000/svg" width="12" height="14" viewBox="0 0 12 14">
    <path fill="#000" fill-rule="nonzero" d="M11.633 1.424h-3.44c-.027-.297-.12-.797-.444-1.118A1.053 1.053 0 0 0 6.98 0H4.531c-.307 0-.566.103-.77.306-.323.32-.417.821-.444 1.118H.367a.241.241 0 0 0-.245.237c0 .131.11.237.245.237h.5l.47 10.92c.008.41.27 1.182 1.201 1.182h6.924c.93 0 1.193-.773 1.202-1.176l.469-10.926h.5a.241.241 0 0 0 .245-.237.241.241 0 0 0-.245-.237zm-7.837 10.44c0 .132-.11.238-.245.238a.241.241 0 0 1-.245-.238v-7.83c0-.131.11-.237.245-.237s.245.106.245.237v7.83zm2.449 0c0 .132-.11.238-.245.238a.241.241 0 0 1-.245-.238v-7.83c0-.131.11-.237.245-.237s.245.106.245.237v7.83zm2.449 0c0 .132-.11.238-.245.238a.241.241 0 0 1-.245-.238v-7.83c0-.131.11-.237.245-.237s.245.106.245.237v7.83zM4.112.636a.565.565 0 0 1 .419-.161h2.448c.172 0 .309.052.419.161.197.195.276.54.303.788H3.81c.027-.249.106-.593.303-.788z"/>
</svg>
