<svg xmlns="http://www.w3.org/2000/svg" width="22" height="21" viewBox="0 0 22 21">
    <g fill="#A4A4A4" fill-rule="nonzero">
        <path d="M17.867 5.322a6.341 6.341 0 0 0-1.984-3.637A6.346 6.346 0 0 0 11.592.018 6.344 6.344 0 0 0 8.14 1.034a6.335 6.335 0 0 0-2.064 2.173 3.488 3.488 0 0 0-4.08 4.143A4.847 4.847 0 0 0 0 11.257c0 1.252.465 2.467 1.315 3.43.871.984 2.023 1.567 3.252 1.635h3.921c.34 0 .61-.271.61-.61a.607.607 0 0 0-.61-.61H4.621c-1.847-.113-3.401-1.87-3.401-3.849a3.62 3.62 0 0 1 1.793-3.117.615.615 0 0 0 .267-.74 2.267 2.267 0 0 1 2.9-2.905.613.613 0 0 0 .763-.312 5.161 5.161 0 0 1 4.653-2.95 5.117 5.117 0 0 1 5.119 4.644.61.61 0 0 0 .506.542c2.01.343 3.528 2.2 3.528 4.318 0 2.246-1.767 4.197-3.944 4.364h-3.33a.607.607 0 0 0-.61.61c0 .339.272.61.61.61h3.398a5.405 5.405 0 0 0 3.623-1.789 5.626 5.626 0 0 0 1.472-3.795c-.004-2.534-1.734-4.788-4.101-5.411z"/>
        <path d="M14.646 11.836a.608.608 0 0 0 0-.863l-3.23-3.23a.598.598 0 0 0-.858 0l-3.23 3.23a.614.614 0 1 0 .43 1.044.595.595 0 0 0 .428-.181l2.19-2.191v10.07c0 .338.272.609.61.609.34 0 .61-.271.61-.61V9.644l2.191 2.192c.235.24.62.24.859 0z"/>
    </g>
</svg>
