<svg xmlns="http://www.w3.org/2000/svg" width="50" height="44" viewBox="0 0 50 44">
    <g fill="#F95F5F" fill-rule="nonzero">
        <path d="M48.45 28.374L33.706 4.817A10.21 10.21 0 0 0 25 0a10.21 10.21 0 0 0-8.705 4.817L1.55 28.374A10.173 10.173 0 0 0 0 33.78C0 39.415 4.6 44 10.254 44h29.492C45.4 44 50 39.415 50 33.779c0-1.917-.536-3.786-1.55-5.405zM39.747 41.08H10.254c-4.039 0-7.324-3.275-7.324-7.301 0-1.37.382-2.704 1.105-3.859L18.78 6.363A7.294 7.294 0 0 1 25 2.92a7.294 7.294 0 0 1 6.22 3.443L45.964 29.92a7.263 7.263 0 0 1 1.105 3.859c0 4.026-3.285 7.3-7.324 7.3z"/>
        <path d="M28.706 8.047A4.351 4.351 0 0 0 25 6a4.351 4.351 0 0 0-3.706 2.047L6.656 31.373A4.3 4.3 0 0 0 6 33.663C6 36.054 7.957 38 10.362 38h29.276C42.043 38 44 36.054 44 33.663c0-.814-.227-1.606-.656-2.29L28.706 8.047zM26.454 32.12h-2.908V29.23h2.908v2.891zm0-5.783h-2.908V16.12h2.908v10.217z"/>
    </g>
</svg>
