<svg xmlns="http://www.w3.org/2000/svg" width="10" height="14" viewBox="0 0 10 14">
    <g fill="#FFF" fill-rule="nonzero">
        <path d="M9.42 2.675V1.508c.33-.192.554-.545.554-.954V.277A.277.277 0 0 0 9.697 0H.277A.277.277 0 0 0 0 .277v.277c0 .409.224.762.554.954v1.167c0 1.098.468 2.149 1.284 2.883L3.051 6.65 1.838 7.741a3.884 3.884 0 0 0-1.284 2.883v1.166c-.33.193-.554.546-.554.955v.277c0 .153.124.277.277.277h9.42a.277.277 0 0 0 .277-.277v-.277c0-.409-.224-.762-.554-.955v-1.166A3.884 3.884 0 0 0 8.136 7.74L6.923 6.649l1.213-1.09A3.884 3.884 0 0 0 9.42 2.674zm-2.026 2.06l-1.67 1.503a.553.553 0 0 0 0 .823l1.67 1.503c.583.525.918 1.276.918 2.06v1.012h-.693l-2.41-3.213a.287.287 0 0 0-.444 0l-2.41 3.213h-.693v-1.012c0-.784.335-1.535.918-2.06l1.67-1.503a.553.553 0 0 0 0-.823L2.58 4.735a2.775 2.775 0 0 1-.918-2.06V1.662h6.65v1.013c0 .784-.335 1.535-.918 2.06z"/>
        <path d="M6.897 3.879h-3.82a.277.277 0 0 0-.205.463l1.93 1.78a.276.276 0 0 0 .37 0l1.93-1.78a.277.277 0 0 0-.205-.463z"/>
    </g>
</svg>
