<svg xmlns="http://www.w3.org/2000/svg" width="14" height="10" viewBox="0 0 14 10">
    <g fill="none" fill-rule="evenodd">
        <g fill="#999" fill-rule="nonzero">
            <g>
                <path d="M9.28 4.884L14 7.868 14 1.774zM0 1.774L0 7.868 4.72 4.884zM13.125 0H.875C.438 0 .092.326.026.745L7 5.339 13.974.745C13.908.325 13.562 0 13.125 0zM8.479 5.413l-1.238.815c-.074.048-.157.072-.241.072-.084 0-.167-.024-.24-.072L5.52 5.412.028 8.886c.067.416.412.739.847.739h12.25c.435 0 .78-.323.847-.739L8.479 5.413z" transform="translate(-98 -272) translate(98 272)"/>
            </g>
        </g>
    </g>
</svg>
