<svg xmlns="http://www.w3.org/2000/svg" width="11" height="18" viewBox="0 0 11 18">
    <g fill="none" fill-rule="evenodd">
        <g fill="#999" fill-rule="nonzero">
            <g>
                <path d="M10.497.487V.485C10.19.175 9.77 0 9.332 0H1.676C.766.003.03.74.026 1.649v14.085c.001.438.176.857.486 1.166.308.31.727.484 1.164.484h7.657c.437 0 .856-.175 1.164-.484.31-.309.484-.727.485-1.164V1.65c0-.436-.175-.855-.485-1.163zM5.504 16.266c-.246 0-.445-.2-.445-.446s.2-.445.445-.445c.246 0 .446.2.446.445 0 .246-.2.446-.446.446zm4.169-2.797c0 .596-.483 1.078-1.078 1.078H2.412c-.595 0-1.078-.482-1.078-1.078V2.972c0-.595.483-1.077 1.078-1.077h6.185c.595 0 1.078.482 1.078 1.077L9.673 13.47z" transform="translate(-961 -281) translate(961 281)"/>
            </g>
        </g>
    </g>
</svg>
