<svg xmlns="http://www.w3.org/2000/svg" width="12" height="16" viewBox="0 0 12 16">
    <g fill="none" fill-rule="evenodd">
        <g fill="#999" fill-rule="nonzero">
            <g>
                <path d="M10.5 5.895H10V3.93C10 1.763 8.206 0 6 0S2 1.763 2 3.93v1.965h-.5c-.827 0-1.5.66-1.5 1.473v6.878c0 .812.673 1.473 1.5 1.473h9c.827 0 1.5-.66 1.5-1.473V7.368c0-.812-.673-1.473-1.5-1.473zM3.333 3.93C3.333 2.485 4.53 1.31 6 1.31c1.47 0 2.667 1.175 2.667 2.62v1.965H3.333V3.93zm3.334 7.022v1.492c0 .362-.298.655-.667.655-.369 0-.667-.293-.667-.655v-1.492c-.396-.227-.666-.645-.666-1.127 0-.723.598-1.31 1.333-1.31s1.333.587 1.333 1.31c0 .482-.27.9-.666 1.127z" transform="translate(-100 -315) translate(100 315)"/>
            </g>
        </g>
    </g>
</svg>
