<svg xmlns="http://www.w3.org/2000/svg" width="12" height="14" viewBox="0 0 12 14">
    <g fill="none" fill-rule="evenodd">
        <g fill="#999" fill-rule="nonzero">
            <g>
                <path d="M5.898 6.723c.95 0 1.772-.331 2.444-.985.673-.653 1.013-1.453 1.013-2.377 0-.923-.34-1.723-1.013-2.376C7.67.33 6.848 0 5.898 0S4.125.331 3.453.985C2.781 1.638 2.44 2.438 2.44 3.36c0 .924.341 1.724 1.013 2.377.672.653 1.495.985 2.445.985zM11.948 10.732c-.02-.272-.06-.569-.117-.882-.058-.316-.133-.614-.223-.887-.093-.282-.219-.56-.375-.827-.162-.276-.352-.518-.565-.716-.223-.207-.496-.374-.812-.496-.315-.121-.664-.182-1.037-.182-.146 0-.288.058-.562.231-.168.107-.365.23-.585.367-.188.117-.443.226-.758.325-.307.096-.618.145-.926.145-.308 0-.62-.049-.927-.145-.314-.099-.569-.208-.756-.325-.218-.135-.415-.259-.586-.367-.274-.173-.416-.232-.562-.232-.373 0-.722.062-1.037.183-.315.122-.589.288-.812.496-.213.199-.403.44-.565.716-.156.267-.282.545-.375.827-.09.273-.165.571-.223.887-.058.313-.097.61-.116.882-.02.267-.029.544-.029.824 0 .729.238 1.319.708 1.754.464.429 1.078.646 1.824.646h6.912c.747 0 1.36-.217 1.825-.646.47-.435.708-1.025.708-1.754 0-.281-.01-.558-.03-.824z" transform="translate(-100 -406) translate(100 406)"/>
            </g>
        </g>
    </g>
</svg>
