<svg xmlns="http://www.w3.org/2000/svg" width="100" height="80" viewBox="0 0 100 80">
    <defs>
        <linearGradient id="72488qjxda" x1="84.44%" x2="38.874%" y1="83.877%" y2="39.849%">
            <stop offset="0%" stop-color="#C6FCFF"/>
            <stop offset="58.34%" stop-color="#D5E4F4"/>
            <stop offset="100%" stop-color="#D9FEFF"/>
        </linearGradient>
    </defs>
    <g fill="none" fill-rule="evenodd">
        <g fill-rule="nonzero">
            <g>
                <path fill="url(#72488qjxda)" d="M98.022 19.84C93.655 8.73 80.204 2.066 68.812 6.476c-13.004 5.033-8.693 25.717-20.505 29.9-6.38 2.26-15.813-6.18-22.26-7.475C14.17 26.516 3.416 34.898.768 46.505c-2.702 11.842 1.631 27.659 14.642 30.873 15.498 3.828 23.57-10.104 36.572-14.104 13.342-4.105 28.176 5.59 39.221-6.206 8.16-8.715 11.144-26.225 6.82-37.228z" transform="translate(-1506 -244) translate(1506 244)"/>
                <g>
                    <path fill="#2626BC" d="M82.587 24.725c0-7.714-6.253-13.968-13.968-13.968-5.976 0-11.074 3.755-13.068 9.033H5.04c-2.157 0-3.906 1.75-3.906 3.906v43.245c0 2.157 1.75 3.906 3.907 3.906h68.823c2.157 0 3.906-1.749 3.906-3.906V35.273c2.949-2.561 4.816-6.335 4.816-10.548z" opacity=".1" transform="translate(-1506 -244) translate(1506 244) translate(10.547)"/>
                    <g transform="translate(-1506 -244) translate(1506 244) translate(10.547) translate(0 4.883)">
                        <g>
                            <path fill="#6DE5EB" d="M72.888 51.12H4.065c-2.158 0-3.906-1.749-3.906-3.906V3.97C.159 1.812 1.907.064 4.065.064h68.823c2.158 0 3.906 1.748 3.906 3.906v43.244c0 2.157-1.748 3.906-3.906 3.906z" transform="translate(.977 9.96)"/>
                            <path fill="#8399FE" d="M76.795 3.97v16.505c-2.451 2.127-5.65 3.416-9.152 3.416-7.715 0-13.97-6.254-13.97-13.967 0-3.848 1.557-7.334 4.075-9.86h15.14c2.157 0 3.907 1.749 3.907 3.907z" transform="translate(.977 9.96)"/>
                            <path fill="#2EB4BB" d="M76.795 3.97v4.925L42.047 35.588c-1.02.783-2.287 1.213-3.57 1.213-1.284 0-2.551-.43-3.57-1.213L.157 8.895V3.97c0-2.158 1.75-3.906 3.906-3.906H72.89c2.156 0 3.906 1.748 3.906 3.906z" transform="translate(.977 9.96)"/>
                            <path fill="#3AC5CC" d="M39.666 18.694l37.129 28.52c0 2.157-1.75 3.906-3.907 3.906H4.065c-2.158 0-3.906-1.749-3.906-3.906l37.128-28.52c.701-.54 1.678-.54 2.38 0z" transform="translate(.977 9.96)"/>
                            <path fill="#2EB4BB" d="M51.854 28.055l-9.807 7.533c-1.02.783-2.287 1.213-3.57 1.213-1.284 0-2.551-.43-3.57-1.213L25.1 28.055l12.187-9.361c.701-.54 1.678-.54 2.379 0l12.188 9.36z" transform="translate(.977 9.96)"/>
                            <path fill="#6DE5EB" d="M37.287 32.49L.159 3.97C.159 1.812 1.907.064 4.065.064h68.823c2.158 0 3.906 1.748 3.906 3.906L39.666 32.49c-.701.54-1.678.54-2.38 0z" transform="translate(.977 9.96)"/>
                        </g>
                        <g>
                            <path fill="#02FFB3" d="M31.63 6.47h-6.276c-.539 0-.976-.438-.976-.977V1.166c0-.539.437-.976.976-.976h6.276c.54 0 .977.437.977.976v4.327c0 .54-.437.977-.977.977z" transform="translate(30.273 49.414)"/>
                            <g fill="#FFF">
                                <path d="M20.092 2.098h-5.436c-.54 0-.977-.437-.977-.976 0-.54.437-.977.977-.977h5.436c.54 0 .977.437.977.977 0 .539-.438.976-.977.976zM20.092 6.08H.984c-.54 0-.977-.438-.977-.977 0-.54.438-.977.977-.977h19.108c.54 0 .977.437.977.977 0 .539-.438.976-.977.976z" transform="translate(30.273 49.414) translate(0 .39)"/>
                            </g>
                        </g>
                        <circle cx="68.619" cy="14.96" r="13.968" fill="#FF5BA8"/>
                        <path fill="#2626BC" d="M68.62 29.904c8.24 0 14.944-6.704 14.944-14.944C83.564 6.719 76.86.015 68.619.015c-8.24 0-14.945 6.704-14.945 14.945 0 4.793 2.272 9.064 5.792 11.8L40.048 41.678c-.35.27-.84.27-1.19 0l-36.711-28.2C2.366 12.077 3.58 11 5.04 11H49.84c.54 0 .977-.437.977-.976 0-.54-.437-.977-.977-.977H5.042c-2.693 0-4.883 2.19-4.883 4.883v43.244c0 2.692 2.19 4.883 4.883 4.883h68.823c2.692 0 4.883-2.19 4.883-4.883V31.366c0-.539-.437-.976-.977-.976s-.976.437-.976.976v23.827l-25.568-19.64 9.949-7.643c2.193 1.266 4.734 1.994 7.443 1.994zm-40.94 5.649L2.112 55.193v-39.28l25.568 19.64zm49.076 22.074c-.219 1.4-1.43 2.478-2.891 2.478H5.042c-1.462 0-2.673-1.077-2.892-2.478l27.133-20.843 8.386 6.442c.525.403 1.155.605 1.784.605.63 0 1.26-.202 1.785-.605l8.386-6.442 27.132 20.843zM55.628 14.96c0-7.164 5.827-12.992 12.991-12.992S81.611 7.796 81.611 14.96c0 7.163-5.828 12.991-12.992 12.991-7.164 0-12.991-5.828-12.991-12.991z"/>
                        <path fill="#FFF" d="M62.522 10.196l1.994 4.764-1.994 4.763c-.338.809.478 1.62 1.285 1.275l12.035-5.14c.79-.338.79-1.459 0-1.796l-12.035-5.14c-.807-.345-1.623.465-1.285 1.274z"/>
                        <path fill="#FFDBED" d="M69.063 15.871l-6.001 2.565 1.453-3.477-1.455-3.476 6.003 2.564c.748.32.748 1.506 0 1.824z"/>
                    </g>
                    <path fill="#00ECA2" d="M54.068 5.795c-.725 0-1.45-.276-2.003-.828-1.104-1.104-1.104-2.901 0-4.005s2.901-1.104 4.005 0c1.105 1.104 1.105 2.9 0 4.005-.552.552-1.277.828-2.002.828zm0-3.71c-.225 0-.45.086-.622.258-.342.343-.342.9 0 1.243.343.343.9.343 1.243 0 .343-.343.343-.9 0-1.243-.171-.171-.396-.257-.621-.257zM32.136 79.554c-.725 0-1.45-.276-2.002-.828-1.105-1.105-1.105-2.901 0-4.005 1.104-1.105 2.901-1.105 4.005 0 1.104 1.104 1.104 2.9 0 4.005-.552.552-1.277.828-2.003.828zm0-3.71c-.225 0-.45.086-.621.258-.343.342-.343.9 0 1.243.343.342.9.342 1.243 0 .342-.343.342-.9 0-1.243-.171-.172-.397-.257-.622-.257z" transform="translate(-1506 -244) translate(1506 244) translate(10.547)"/>
                    <path fill="#FF7EB8" d="M47.027 8.31c-.25 0-.5-.095-.69-.286l-1.165-1.165-1.165 1.165c-.381.381-1 .381-1.381 0s-.381-1 0-1.381l1.855-1.856c.381-.38 1-.38 1.381 0l1.856 1.856c.381.381.381 1 0 1.381-.19.19-.44.286-.69.286zM75.341 75.844c-.25 0-.5-.095-.69-.286l-1.165-1.165-1.165 1.165c-.382.381-1 .381-1.381 0-.382-.381-.382-1 0-1.38l1.855-1.856c.381-.382 1-.382 1.381 0l1.855 1.855c.382.382.382 1 0 1.381-.19.19-.44.286-.69.286z" transform="translate(-1506 -244) translate(1506 244) translate(10.547)"/>
                    <path fill="#6583FE" d="M24.391 76.772c-.25 0-.5-.095-.69-.286l-1.165-1.165-1.165 1.165c-.381.381-1 .381-1.381 0-.381-.382-.381-1 0-1.381l1.856-1.856c.38-.38 1-.38 1.38 0l1.856 1.856c.381.381.381 1 0 1.38-.19.191-.44.287-.69.287z" transform="translate(-1506 -244) translate(1506 244) translate(10.547)"/>
                </g>
            </g>
        </g>
    </g>
</svg>
