<svg xmlns="http://www.w3.org/2000/svg" width="100" height="85" viewBox="0 0 100 85">
    <defs>
        <linearGradient id="ht9pzgum0a" x1="84.44%" x2="38.874%" y1="83.877%" y2="39.849%">
            <stop offset="0%" stop-color="#C6FCFF"/>
            <stop offset="58.34%" stop-color="#D5E4F4"/>
            <stop offset="100%" stop-color="#D9FEFF"/>
        </linearGradient>
    </defs>
    <g fill="none" fill-rule="evenodd">
        <g fill-rule="nonzero">
            <g transform="translate(-1506 -642) translate(1506 642)">
                <path fill="url(#ht9pzgum0a)" d="M98.022 18.805C93.655 7.695 80.204 1.031 68.812 5.441c-13.004 5.033-8.693 25.717-20.505 29.9-6.38 2.26-15.813-6.18-22.26-7.475C14.17 25.481 3.416 33.863.768 45.47-1.935 57.312 2.398 73.13 15.409 76.343c15.498 3.828 23.57-10.104 36.572-14.104 13.342-4.105 28.176 5.59 39.221-6.206 8.16-8.715 11.144-26.225 6.82-37.228z"/>
                <path fill="#2626BC" d="M41.102 15.284c-.407-5.695-5.153-10.19-10.952-10.19-6.066 0-10.984 4.918-10.984 10.984 0 3.83 1.962 7.2 4.934 9.166v18.768c0 .73.77 1.201 1.42.871l2.053-1.046V75h-5.948c-1.08 0-1.954.874-1.954 1.953v3.336c0 2.248 1.823 4.07 4.069 4.07h41.125c-.043 0-.085-.005-.127-.006 2.195-.058 3.958-1.852 3.958-4.061v-60.94c0-2.246 1.824-4.068 4.072-4.068H41.102z" opacity=".11"/>
                <path fill="#3AC5CC" d="M69.982 15.25v10.258h8.898c1.08 0 1.954-.875 1.954-1.954V15.25c0-1.803-1.174-3.334-2.801-3.866-.4-.132-.826-.203-1.27-.203h-10.85c2.247 0 4.069 1.823 4.069 4.069z"/>
                <path fill="#2626BC" d="M65.295 19.937v10.258h8.898c1.079 0 1.953-.874 1.953-1.953v-8.305c0-1.803-1.174-3.334-2.8-3.865-.401-.133-.827-.203-1.27-.203h-10.85c2.246 0 4.069 1.822 4.069 4.068z" opacity=".11"/>
                <path fill="#2EB4BB" d="M69.982 15.25v10.258h5.25V15.25c0-1.803 1.174-3.334 2.8-3.866-.4-.132-.825-.203-1.269-.203h-10.85c2.247 0 4.069 1.823 4.069 4.069z"/>
                <path fill="#6DE5EB" d="M76.87 11.182c-2.248 0-4.073 1.822-4.073 4.069V76.19c0 2.246-1.82 4.066-4.066 4.066H31.674V15.251c0-2.247 1.82-4.069 4.069-4.069H76.87z"/>
                <path fill="#FFDBED" d="M58.618 51.589H41.653c-.539 0-.976.437-.976.976V79.98h18.918V52.565c0-.539-.438-.976-.977-.976z"/>
                <path fill="#B7C5FF" d="M72.797 36.327V51.55c-.293.036-.591.053-.894.053-4.234 0-7.666-3.432-7.666-7.666 0-4.232 3.432-7.664 7.666-7.664.303 0 .601.018.894.053zM45.235 15.124c0 3.83-1.961 7.2-4.934 9.166v18.767c0 .73-.77 1.201-1.42.871l-4.628-2.361-2.579 1.314v-27.63c0-2.247 1.82-4.069 4.069-4.069h8.763c.471 1.223.729 2.553.729 3.942z"/>
                <path fill="#3AC5CC" d="M68.966 80.257H27.841c-2.246 0-4.068-1.822-4.068-4.07v-3.336c0-1.079.874-1.953 1.953-1.953h37.219c1.079 0 1.953.874 1.953 1.953v3.336c0 2.248 1.822 4.07 4.068 4.07z"/>
                <circle cx="71.903" cy="41.276" r="7.665" fill="#C3C3C3"/>
                <path fill="#7E98FF" d="M40.301 16.844v23.067c0 .73-.77 1.2-1.42.87l-4.628-2.36-4.631 2.36c-.65.33-1.42-.14-1.42-.87V16.844h12.1z"/>
                <path fill="#FF5BA8" d="M40.301 16.844v7.004c-1.816.932-3.873 1.455-6.048 1.455-2.178 0-4.235-.525-6.051-1.455v-7.004h12.1z"/>
                <circle cx="34.252" cy="11.976" r="10.984" fill="#FFFADB"/>
                <path fill="#FFDBED" d="M47.388 30.177h17.198c.644 0 1.166-.522 1.166-1.166v-6.15c0-.643-.522-1.165-1.166-1.165H47.388c-.644 0-1.166.521-1.166 1.165v6.15c0 .644.522 1.166 1.166 1.166z"/>
                <path fill="#97FFD2" d="M49.174 22.672h-3.263c-.54 0-.976-.437-.976-.976 0-.54.437-.977.976-.977h3.263c.54 0 .977.438.977.977 0 .54-.437.976-.977.976z"/>
                <path fill="#FF7EB8" d="M56.03 28.771H45.911c-.54 0-.976-.437-.976-.976 0-.54.437-.977.976-.977h10.12c.539 0 .976.437.976.977 0 .539-.437.976-.977.976zM60.856 32.069H45.911c-.54 0-.976-.437-.976-.977 0-.539.437-.976.976-.976h14.945c.54 0 .977.437.977.976 0 .54-.437.977-.977.977zM53.003 47.125H40.356c-.54 0-.977-.437-.977-.977 0-.539.437-.976.977-.976h12.647c.54 0 .976.437.976.976 0 .54-.437.977-.976.977z"/>
                <path fill="#97FFD2" d="M65.207 52.725H40.356c-.54 0-.977-.438-.977-.977 0-.539.437-.976.977-.976h24.85c.54 0 .977.437.977.976 0 .54-.437.977-.976.977zM65.207 56.44H40.356c-.54 0-.977-.438-.977-.977 0-.54.437-.976.977-.976h24.85c.54 0 .977.437.977.976 0 .54-.437.977-.976.977zM65.207 60.154H40.356c-.54 0-.977-.437-.977-.976 0-.54.437-.977.977-.977h24.85c.54 0 .977.438.977.977 0 .54-.437.976-.976.976z"/>
                <g fill="#6583FE" transform="translate(45.117 35.156)">
                    <circle cx="1.21" cy="1.285" r="1.092"/>
                    <circle cx="4.513" cy="1.285" r="1.092"/>
                    <circle cx="7.815" cy="1.285" r="1.092"/>
                </g>
                <path fill="#FF5BA8" d="M34.252 31.592c-.54 0-.977-.438-.977-.977v-2.251c0-.54.437-.977.977-.977.539 0 .976.437.976.977v2.251c0 .54-.437.977-.976.977z"/>
                <path fill="#2626BC" d="M76.9 10.208l-9.898-.003c-.54 0-.977.437-.977.976 0 .54.437.977.977.977h5.881c-.664.854-1.061 1.928-1.061 3.092v17.387c-4.728.043-8.561 3.901-8.561 8.639 0 4.738 3.833 8.596 8.56 8.64v26.272c0 1.666-1.323 3.024-2.973 3.087-1.65-.063-2.974-1.421-2.974-3.087v-3.336c0-1.616-1.314-2.93-2.93-2.93H32.652V40.334l1.6-.816 4.188 2.134c.281.143.585.215.888.215.353 0 .704-.097 1.019-.29.584-.358.933-.98.933-1.665V21.646c2.94-2.143 4.87-5.592 4.928-9.488h15.307c.54 0 .976-.437.976-.977 0-.539-.437-.976-.976-.976H46.08C45.22 4.447 40.244.016 34.252.016c-6.595 0-11.96 5.366-11.96 11.96 0 3.97 1.946 7.493 4.933 9.67v5.64c0 .539.437.976.976.976.54 0 .977-.437.977-.977v-4.481c1.541.725 3.26 1.132 5.074 1.132 1.813 0 3.532-.407 5.073-1.132V39.91l-4.63-2.36c-.279-.142-.608-.142-.887 0l-4.63 2.36v-7.138c0-.539-.438-.976-.977-.976-.54 0-.976.437-.976.976v7.139c0 .684.348 1.307.932 1.665.584.358 1.297.386 1.908.075l.632-.323v28.593h-4.97c-1.616 0-2.93 1.314-2.93 2.93v3.336c0 2.783 2.263 5.046 5.045 5.046h41.125c.067 0 .133-.007.197-.02 2.58-.221 4.611-2.39 4.611-5.026V49.71c3.867-.858 6.768-4.313 6.768-8.434 0-4.122-2.901-7.577-6.768-8.435v-6.357h5.105c1.615 0 2.93-1.314 2.93-2.93V15.25c0-2.736-2.19-4.97-4.91-5.042zm-52.655 1.768c0-5.518 4.489-10.007 10.007-10.007s10.007 4.49 10.007 10.007c0 5.518-4.49 10.007-10.007 10.007-5.518 0-10.007-4.489-10.007-10.007zm38.401 67.305H27.842c-1.705 0-3.092-1.388-3.092-3.093v-3.336c0-.539.438-.977.977-.977h37.218c.538 0 .976.438.976.977v3.336c0 1.165.397 2.238 1.062 3.093h-2.337zm15.945-38.005c0 3.688-3 6.688-6.688 6.688-3.688 0-6.689-3-6.689-6.688 0-3.688 3-6.688 6.689-6.688 3.687 0 6.688 3 6.688 6.688zm1.266-17.722c0 .539-.438.977-.977.977h-5.105v-9.28c0-1.69 1.36-3.063 3.043-3.09 1.68.028 3.039 1.402 3.039 3.09v8.303z"/>
                <path fill="#FFEAC4" d="M34.252 19.533c-4.167 0-7.557-3.39-7.557-7.557 0-4.166 3.39-7.556 7.557-7.556 4.166 0 7.556 3.39 7.556 7.556 0 4.167-3.39 7.557-7.556 7.557zm0-13.16c-3.09 0-5.604 2.513-5.604 5.603s2.514 5.604 5.604 5.604c3.09 0 5.603-2.514 5.603-5.604 0-3.09-2.514-5.603-5.603-5.603z"/>
                <path fill="#6DE5EB" d="M34.595 15.654c-.54 0-.977-.437-.977-.977v-4.309h-.086c-.54 0-.977-.437-.977-.977 0-.539.437-.976.977-.976h1.063c.54 0 .976.437.976.976v5.286c0 .54-.437.977-.976.977z"/>
                <path fill="#FF7EB8" d="M68.996 21.696c0-1.79-1.455-3.245-3.244-3.245-1.79 0-3.245 1.456-3.245 3.245 0 .882.355 1.683.929 2.268-.574.586-.929 1.386-.929 2.268 0 .54.437.977.977.977.539 0 .976-.437.976-.977 0-.712.58-1.291 1.292-1.291.712 0 1.291.58 1.291 1.291 0 .54.437.977.977.977s.976-.437.976-.977c0-.882-.355-1.682-.928-2.268.573-.585.928-1.386.928-2.268zm-3.244-1.292c.712 0 1.291.58 1.291 1.292 0 .712-.58 1.291-1.291 1.291-.713 0-1.292-.579-1.292-1.291s.58-1.292 1.292-1.292z"/>
                <path fill="#8399FE" d="M87.001 41.433h-.634v-.635c0-.54-.438-.977-.977-.977-.54 0-.977.437-.977.977v.635h-.634c-.54 0-.977.437-.977.976 0 .54.437.977.977.977h.634v.635c0 .539.438.976.977.976.54 0 .977-.437.977-.976v-.635H87c.54 0 .977-.437.977-.977s-.437-.976-.977-.976zM19.996 31.348h-.634v-.634c0-.54-.438-.977-.977-.977-.54 0-.977.437-.977.977v.634h-.634c-.54 0-.977.438-.977.977 0 .54.437.977.977.977h.634v.634c0 .54.438.977.977.977.54 0 .977-.437.977-.977v-.634h.634c.54 0 .977-.438.977-.977 0-.54-.437-.977-.977-.977z"/>
                <path fill="#01ECA5" d="M80.704 76.478h-.634v-.634c0-.54-.438-.977-.977-.977-.54 0-.977.437-.977.977v.634h-.634c-.54 0-.977.437-.977.977s.437.976.977.976h.634v.635c0 .54.438.977.977.977.54 0 .977-.437.977-.977v-.635h.634c.54 0 .977-.437.977-.976 0-.54-.437-.977-.977-.977z"/>
                <path fill="#FF7EB8" d="M14.802 26.217c-.285 0-.57-.044-.85-.13-.728-.226-1.323-.723-1.678-1.397-.354-.674-.425-1.446-.199-2.174.226-.727.722-1.323 1.397-1.678.674-.354 1.446-.425 2.174-.198 1.501.467 2.343 2.069 1.876 3.57-.226.727-.722 1.323-1.397 1.678-.415.218-.867.329-1.323.329zm-.005-3.753c-.143 0-.286.035-.417.103-.212.112-.368.3-.44.53-.071.229-.049.472.063.684.112.213.3.37.529.44.229.072.472.05.685-.062.212-.112.369-.3.44-.529.147-.473-.118-.978-.592-1.125-.087-.028-.178-.041-.268-.041z"/>
                <path fill="#01ECA5" d="M57.404 8.444c-.285 0-.571-.043-.85-.13-.728-.226-1.324-.723-1.679-1.397-.354-.674-.425-1.446-.198-2.174.467-1.501 2.068-2.343 3.57-1.876 1.501.467 2.343 2.069 1.876 3.57-.226.728-.722 1.323-1.396 1.678-.415.218-.867.329-1.323.329zM57.4 4.69c-.383 0-.74.247-.859.632-.071.23-.049.473.062.685.112.213.3.37.53.44.473.148.978-.118 1.125-.59v-.001c.147-.473-.118-.978-.592-1.125-.088-.028-.178-.041-.266-.041z"/>
                <path fill="#FFF" d="M71.903 44.452c-.26 0-.508-.103-.691-.286l-2.23-2.232c-.382-.382-.381-1 0-1.381.382-.382 1-.382 1.381 0l1.54 1.54 7.796-7.797c.381-.381 1-.381 1.381 0 .382.381.382 1 0 1.381l-8.487 8.489c-.183.183-.431.286-.69.286z"/>
            </g>
        </g>
    </g>
</svg>
