<svg xmlns="http://www.w3.org/2000/svg" xmlns:xlink="http://www.w3.org/1999/xlink" width="14" height="14" viewBox="0 0 14 14">
    <defs>
        <path id="11cekixe0a" d="M0 0L13.772 0 13.772 13.99 0 13.99z"/>
    </defs>
    <g fill="none" fill-rule="evenodd">
        <g>
            <g transform="translate(-558 -479) translate(558 479)">
                <mask id="mohvytv56b" fill="#fff">
                    <use xlink:href="#11cekixe0a"/>
                </mask>
                <path fill="#633E27" d="M6.886 0C3.083 0 0 2.678 0 5.983c0 2.123 1.277 3.987 3.195 5.051l-.65 2.665c-.024.081-.003.168.05.227.037.04.087.064.141.064.041 0 .083-.018.12-.05l2.79-2.074c.405.064.818.1 1.24.1 3.802 0 6.886-2.677 6.886-5.983C13.772 2.678 10.688 0 6.886 0" mask="url(#mohvytv56b)"/>
            </g>
        </g>
    </g>
</svg>
