<svg xmlns="http://www.w3.org/2000/svg" width="18" height="16" viewBox="0 0 18 16">
    <g fill="none" fill-rule="evenodd">
        <g fill="#FFF" fill-rule="nonzero">
            <g>
                <path d="M6.75 0C3.022 0 0 2.488 0 5.556c0 1.768 1.01 3.337 2.577 4.353l-.89 1.758 2.425-1.026c.52.182 1.06.332 1.637.402-.079-.339-.124-.686-.124-1.043 0-3.063 3.027-5.556 6.75-5.556.34 0 .674.028 1.002.068C12.783 1.943 10.044 0 6.75 0zM4.5 4.167c-.466 0-.844-.374-.844-.834 0-.46.378-.833.844-.833.466 0 .844.373.844.833 0 .46-.378.834-.844.834zm4.5 0c-.466 0-.844-.374-.844-.834 0-.46.378-.833.844-.833.466 0 .844.373.844.833 0 .46-.378.834-.844.834z" transform="translate(-559 -428) translate(559 428)"/>
                <path d="M18 10c0-2.454-2.519-4.444-5.625-4.444S6.75 7.546 6.75 10c0 2.454 2.519 4.444 5.625 4.444.51 0 .997-.07 1.468-.172l3.032 1.284-1.049-2.07C17.14 12.672 18 11.42 18 10zm-7.313-.278c-.465 0-.843-.373-.843-.833 0-.46.378-.833.844-.833.465 0 .843.373.843.833 0 .46-.378.833-.844.833zm3.376 0c-.466 0-.844-.373-.844-.833 0-.46.378-.833.844-.833.465 0 .843.373.843.833 0 .46-.378.833-.844.833z" transform="translate(-559 -428) translate(559 428)"/>
            </g>
        </g>
    </g>
</svg>
