<svg xmlns="http://www.w3.org/2000/svg" width="44" height="37" viewBox="0 0 44 37">
    <g fill="none" fill-rule="evenodd">
        <g fill="#3AC5CC" fill-rule="nonzero">
            <g>
                <path d="M24.292 25.667h-4.584c-1.263 0-2.291-1.029-2.291-2.292V12.833h-5.042c-1.204 0-1.83-1.45-.995-2.324L21.004.425c.52-.542 1.473-.542 1.991 0L32.62 10.51c.835.874.21 2.324-.995 2.324h-5.042v10.542c0 1.263-1.028 2.292-2.291 2.292z" transform="translate(-174 -4023) translate(174 4023)"/>
                <path d="M38.5 36.667h-33c-3.032 0-5.5-2.468-5.5-5.5V22c0-3.032 2.468-5.5 5.5-5.5h2.75c1.012 0 1.833.821 1.833 1.833s-.821 1.834-1.833 1.834H5.5c-1.01 0-1.833.823-1.833 1.833v9.167C3.667 32.177 4.49 33 5.5 33h33c1.01 0 1.833-.823 1.833-1.833V22c0-1.01-.823-1.833-1.833-1.833h-2.75c-1.012 0-1.833-.822-1.833-1.834s.821-1.833 1.833-1.833h2.75c3.032 0 5.5 2.468 5.5 5.5v9.167c0 3.032-2.468 5.5-5.5 5.5z" transform="translate(-174 -4023) translate(174 4023)"/>
            </g>
        </g>
    </g>
</svg>
