<svg xmlns="http://www.w3.org/2000/svg" xmlns:xlink="http://www.w3.org/1999/xlink" width="47" height="36" viewBox="0 0 47 36">
    <defs>
        <path id="j4v6x5asta" d="M0 0L47 0 47 35.655 0 35.655z"/>
    </defs>
    <g fill="none" fill-rule="evenodd">
        <g>
            <g transform="translate(-824 -3568) translate(824 3568)">
                <mask id="yidlhzsgab" fill="#fff">
                    <use xlink:href="#j4v6x5asta"/>
                </mask>
                <path fill="#3AC5CC" d="M43.759 27.552H17.828c-1.791 0-3.242 1.45-3.242 3.241 0 1.79 1.45 3.241 3.242 3.241h25.93c1.791 0 3.242-1.45 3.242-3.24 0-1.792-1.45-3.242-3.241-3.242m0-12.966H17.828c-1.791 0-3.242 1.45-3.242 3.242 0 1.79 1.45 3.241 3.242 3.241h25.93c1.791 0 3.242-1.45 3.242-3.241 0-1.791-1.45-3.242-3.241-3.242M17.828 8.103h25.93c1.791 0 3.242-1.45 3.242-3.24 0-1.792-1.45-3.242-3.241-3.242H17.828c-1.791 0-3.242 1.45-3.242 3.241 0 1.79 1.45 3.241 3.242 3.241M4.862 25.931C2.177 25.931 0 28.108 0 30.793c0 2.686 2.177 4.862 4.862 4.862 2.686 0 4.862-2.176 4.862-4.862 0-2.685-2.176-4.862-4.862-4.862m0-12.966C2.177 12.965 0 15.142 0 17.828c0 2.685 2.177 4.862 4.862 4.862 2.686 0 4.862-2.177 4.862-4.862 0-2.686-2.176-4.863-4.862-4.863M4.862 0C2.177 0 0 2.177 0 4.862c0 2.686 2.177 4.862 4.862 4.862 2.686 0 4.862-2.176 4.862-4.862C9.724 2.177 7.548 0 4.862 0" mask="url(#yidlhzsgab)"/>
            </g>
        </g>
    </g>
</svg>
