<svg xmlns="http://www.w3.org/2000/svg" width="46" height="62" viewBox="0 0 46 62">
    <g fill="none" fill-rule="evenodd">
        <g>
            <g>
                <path fill="#FFF789" d="M0 14H40V62H0z" transform="translate(-313 -882) translate(313 882)"/>
                <g fill="#000">
                    <path d="M12.015 0v3.582H0V56.12h40V3.582H27.986V0h-15.97zm1.791 5.373V1.792h12.388V7.76H13.806V5.373zm14.18 4.179V5.373h10.223V54.33H1.792V5.373h10.223v4.179h15.97z" transform="translate(-313 -882) translate(313 882) translate(6)"/>
                    <path d="M8.06 18.507L31.94 18.507 31.94 16.716 8.06 16.716zM8.06 26.866L31.94 26.866 31.94 25.075 8.06 25.075zM8.06 35.224L31.94 35.224 31.94 33.433 8.06 33.433z" transform="translate(-313 -882) translate(313 882) translate(6)"/>
                </g>
            </g>
        </g>
    </g>
</svg>
