<svg xmlns="http://www.w3.org/2000/svg" width="65" height="45" viewBox="0 0 65 45">
    <g fill="none" fill-rule="evenodd">
        <g>
            <g>
                <path fill="#82BDFF" d="M11 11H64V44H11z" transform="translate(-619 -891) translate(620 892)"/>
                <g fill="#000" fill-rule="nonzero" stroke="#000" stroke-width=".3">
                    <path d="M57.242.02H2.758C1.238.02 0 1.259 0 2.78v33.817c0 1.521 1.237 2.758 2.758 2.758h54.484c1.521 0 2.758-1.237 2.758-2.758V2.78C60 1.258 58.763.02 57.242.02zm1 36.576c0 .552-.448 1-1 1H2.758c-.552 0-1-.448-1-1V2.78c0-.552.448-1 1-1h54.484c.552 0 1 .448 1 1v33.817z" transform="translate(-619 -891) translate(620 892)"/>
                    <path d="M17.02 15.425c.151.101.321.15.49.15.283 0 .56-.137.73-.39l3.142-4.679c.27-.403.164-.949-.24-1.22-.403-.27-.948-.163-1.22.24l-3.141 4.68c-.27.403-.163.949.24 1.22h0zM13.901 13.33c.15.102.32.15.49.15.282 0 .56-.137.73-.39l3.142-4.678c.27-.403.163-.95-.24-1.22s-.949-.163-1.22.24l-3.142 4.679c-.27.403-.163.95.24 1.22h0zM46.099 26.044c-.403-.27-.95-.163-1.22.24l-3.142 4.68c-.27.402-.163.949.24 1.219.15.101.32.15.489.15.283 0 .56-.137.73-.39l3.142-4.68c.271-.402.164-.948-.24-1.219zM42.98 23.95c-.404-.271-.95-.164-1.22.24l-3.142 4.679c-.271.403-.164.949.24 1.22.15.1.32.149.488.149.283 0 .561-.137.73-.39l3.143-4.679c.27-.403.163-.949-.24-1.22zM41.76 15.186c.17.252.447.389.73.389.169 0 .339-.049.49-.15.402-.27.51-.816.239-1.22l-3.142-4.679c-.27-.402-.817-.51-1.22-.24-.403.271-.51.817-.24 1.22l3.143 4.68zM43.196 7.432c-.27-.403-.816-.51-1.22-.24-.402.27-.51.817-.239 1.22l3.142 4.679c.17.253.448.389.73.389.17 0 .34-.048.49-.15.403-.27.51-.816.24-1.219l-3.143-4.68zM15.12 26.284c-.27-.403-.816-.51-1.219-.24-.403.27-.51.817-.24 1.22l3.142 4.68c.17.252.448.388.73.388.17 0 .34-.048.49-.149.403-.27.51-.817.24-1.22l-3.142-4.679zM18.24 24.19c-.27-.404-.816-.51-1.22-.24-.402.27-.51.816-.24 1.22l3.143 4.679c.17.252.447.389.73.389.169 0 .34-.049.49-.15.402-.27.51-.816.24-1.22L18.24 24.19zM38.567 14.024c-.268-.404-.813-.515-1.218-.247-.404.268-.515.813-.247 1.218.819 1.237 1.295 2.651 1.393 4.122-.396-.572-.899-1.07-1.495-1.468-2.56-1.698-6.026-1.003-7.728 1.55-.566.848-1.428 1.426-2.427 1.626-.998.2-2.015-.001-2.863-.567-.85-.567-1.429-1.432-1.628-2.436-.198-.999 0-2.017.565-2.859.015-.023.033-.042.045-.065C24.5 12.65 27.08 11.173 30 11.173c1.674 0 3.296.488 4.692 1.413.405.268.95.157 1.218-.248s.158-.95-.247-1.218C33.978 10.004 32.02 9.415 30 9.415c-5.664 0-10.273 4.608-10.273 10.273 0 5.664 4.609 10.272 10.273 10.272s10.273-4.608 10.273-10.272c0-2.02-.59-3.979-1.706-5.664h0zm-1.484 10.384l-.015.023c-1.53 2.273-4.128 3.771-7.068 3.771-4.508 0-8.208-3.522-8.495-7.96.397.577.902 1.079 1.502 1.478 1.238.827 2.724 1.12 4.184.828 1.459-.292 2.717-1.136 3.544-2.375 1.165-1.748 3.54-2.223 5.291-1.06.85.566 1.427 1.429 1.626 2.43.2 1-.003 2.02-.57 2.865h0z" transform="translate(-619 -891) translate(620 892)"/>
                </g>
            </g>
        </g>
    </g>
</svg>
