<svg xmlns="http://www.w3.org/2000/svg" width="38" height="36" viewBox="0 0 38 36">
    <g fill="none" fill-rule="evenodd">
        <g fill="#3AC5CC" fill-rule="nonzero">
            <g>
                <path d="M13.854 27.548v7.254c0 .507.33.956.817 1.116.122.039.247.058.37.058.371 0 .729-.172.957-.48l4.296-5.774-6.44-2.174zM37.501.217c-.364-.255-.842-.289-1.238-.084L.638 18.512c-.421.217-.67.661-.635 1.13.037.468.352.869.8 1.02l9.904 3.345L31.797 6.19l-16.32 19.425 16.597 5.605c.124.04.253.062.383.062.216 0 .43-.058.618-.17.3-.182.505-.487.557-.83l4.354-28.936c.065-.438-.122-.873-.486-1.13z" transform="translate(-1044 -4023) translate(1044 4023)"/>
            </g>
        </g>
    </g>
</svg>
