<svg xmlns="http://www.w3.org/2000/svg" xmlns:xlink="http://www.w3.org/1999/xlink" width="40" height="46" viewBox="0 0 40 46">
    <defs>
        <path id="vp75gqhd7a" d="M0 0L40 0 40 45.757 0 45.757z"/>
    </defs>
    <g fill="none" fill-rule="evenodd">
        <g>
            <g transform="translate(-174 -4972) translate(174 4972)">
                <mask id="cekzkijsgb" fill="#fff">
                    <use xlink:href="#vp75gqhd7a"/>
                </mask>
                <path fill="#3AC5CC" d="M35.652 15.652C35.652 7.008 28.644 0 20 0 11.356 0 4.348 7.008 4.348 15.652 2.113 15.93 0 17.392 0 20.782v8.175c0 3.826 2.678 5.217 5.217 5.217H7.74c.48 0 .87-.39.87-.87V16.47c0-.48-.39-.87-.87-.87H6.087c0-7.684 6.23-13.913 13.913-13.913 7.684 0 13.913 6.23 13.913 13.913h-1.652c-.48 0-.87.39-.87.87v16.808c0 .48.39.87.87.87h1.652c-.243 5.974-3.113 7.374-8.843 7.626v-.583c0-.96-.779-1.739-1.74-1.739h-5.47c-.96 0-1.738.779-1.738 1.74v2.825c0 .96.778 1.74 1.739 1.74h5.487c.96 0 1.739-.78 1.739-1.74v-.504c5.513-.252 10.278-1.391 10.565-9.417 2.235-.279 4.348-1.74 4.348-5.13V20.79c0-3.408-2.104-4.86-4.348-5.139" mask="url(#cekzkijsgb)"/>
            </g>
        </g>
    </g>
</svg>
