<svg xmlns="http://www.w3.org/2000/svg" width="40" height="39" viewBox="0 0 40 39">
    <g fill="none" fill-rule="evenodd">
        <g fill="#3AC5CC" fill-rule="nonzero">
            <g>
                <path d="M5 16.646c-.427 0-.853-.163-1.178-.487-.652-.651-.652-1.703 0-2.354l11.51-11.496c.651-.651 1.705-.651 2.356 0 .652.65.652 1.703 0 2.354L6.178 16.159c-.325.324-.751.487-1.178.487z" transform="translate(-464 -4976) translate(464 4976)"/>
                <path d="M18.75 8.323c-.325 0-.645-.126-.883-.366l-5.834-5.826c-.358-.356-.465-.894-.271-1.36.193-.466.65-.771 1.155-.771h5.833C19.44 0 20 .56 20 1.248v5.827c0 .504-.305.96-.772 1.153-.155.064-.316.095-.478.095zM11.667 23.721v9.572h-10V23.72c0-1.149.933-2.08 2.083-2.08h5.833c1.15 0 2.084.931 2.084 2.08zM25 17.063v16.23H15v-16.23c0-1.15.933-2.081 2.083-2.081h5.834c1.15 0 2.083.932 2.083 2.08zM38.333 10.404v22.889h-10V10.404c0-1.149.934-2.08 2.084-2.08h5.833c1.15 0 2.083.931 2.083 2.08zM38.75 38.287H1.25c-.69 0-1.25-.56-1.25-1.249 0-.689.56-1.248 1.25-1.248h37.5c.69 0 1.25.559 1.25 1.248 0 .69-.56 1.249-1.25 1.249z" transform="translate(-464 -4976) translate(464 4976)"/>
            </g>
        </g>
    </g>
</svg>
