<svg xmlns="http://www.w3.org/2000/svg" width="46" height="50" viewBox="0 0 46 50">
    <g fill="none" fill-rule="evenodd">
        <g fill-rule="nonzero">
            <g>
                <g fill="#CFD8DC">
                    <path d="M1.058 28.184c.551 0 .998-.45.998-1.006V23.15c0-.556-.447-1.006-.998-1.006-.55 0-.997.45-.997 1.006v4.027c0 .556.446 1.006.997 1.006zM3.053 32.21h-.997v-1.006c0-.556-.447-1.007-.998-1.007-.55 0-.997.451-.997 1.007v2.013c0 .556.446 1.007.997 1.007h1.995c.55 0 .997-.45.997-1.007 0-.556-.446-1.006-.997-1.006zM3.053 0H1.058C.508 0 .061.45.061 1.007V3.02c0 .556.446 1.006.997 1.006.551 0 .998-.45.998-1.006V2.013h.997c.55 0 .997-.45.997-1.006S3.604 0 3.053 0zM1.058 12.079c.551 0 .998-.45.998-1.007V7.046c0-.556-.447-1.007-.998-1.007-.55 0-.997.451-.997 1.007v4.026c0 .556.446 1.007.997 1.007zM11.031 32.21H7.042c-.55 0-.997.451-.997 1.007 0 .556.446 1.007.997 1.007h3.99c.55 0 .997-.45.997-1.007 0-.556-.447-1.006-.998-1.006zM1.058 20.132c.551 0 .998-.451.998-1.007v-4.026c0-.556-.447-1.007-.998-1.007-.55 0-.997.45-.997 1.007v4.026c0 .556.446 1.007.997 1.007zM32.972 6.04c-.551 0-.998.45-.998 1.006v4.026c0 .556.447 1.007.998 1.007.55 0 .997-.45.997-1.007V7.046c0-.556-.447-1.007-.997-1.007zM32.972 14.092c-.551 0-.998.45-.998 1.007v4.026c0 .556.447 1.007.998 1.007.55 0 .997-.451.997-1.007V15.1c0-.556-.447-1.007-.997-1.007zM26.988 0h-3.99c-.55 0-.997.45-.997 1.007 0 .556.447 1.006.998 1.006h3.989c.55 0 .997-.45.997-1.006S27.54 0 26.988 0zM32.972 0h-1.995c-.55 0-.997.45-.997 1.007 0 .556.446 1.006.997 1.006h.997V3.02c0 .556.447 1.006.998 1.006.55 0 .997-.45.997-1.006V1.007C33.969.45 33.522 0 32.972 0zM19.01 32.21h-3.99c-.55 0-.997.451-.997 1.007 0 .556.447 1.007.997 1.007h3.99c.55 0 .997-.45.997-1.007 0-.556-.447-1.006-.998-1.006zM19.01 0h-3.99c-.55 0-.997.45-.997 1.007 0 .556.447 1.006.997 1.006h3.99c.55 0 .997-.45.997-1.006S19.56 0 19.009 0zM11.031 0H7.042c-.55 0-.997.45-.997 1.007 0 .556.446 1.006.997 1.006h3.99c.55 0 .997-.45.997-1.006S11.582 0 11.03 0z" transform="translate(-174 -2607) translate(174 2607)"/>
                </g>
                <path fill="#3AC5CC" d="M45.645 34.518L19.715 8.347c-.388-.394-1.02-.395-1.41-.002-.188.19-.293.446-.293.714v38.25c0 .556.448 1.006.998 1.006.28 0 .545-.118.733-.325l10.675-11.753H44.94c.55.001.998-.449 1-1.005 0-.268-.106-.525-.294-.714z" transform="translate(-174 -2607) translate(174 2607)"/>
            </g>
        </g>
    </g>
</svg>
