<svg xmlns="http://www.w3.org/2000/svg" width="42" height="42" viewBox="0 0 42 42">
    <g fill="none" fill-rule="evenodd">
        <g fill-rule="nonzero">
            <g transform="translate(-464 -2609) translate(464 2609)">
                <circle cx="21" cy="10.5" r="7" fill="#3AC5CC"/>
                <path fill="#3AC5CC" d="M26.688 21H15.313C10.729 21 7 24.73 7 29.313v4.375C7 34.411 7.588 35 8.313 35h25.374c.725 0 1.313-.588 1.313-1.313v-4.374C35 24.729 31.27 21 26.687 21z"/>
                <path fill="#CFD8DC" d="M8.75 0h-3.5C2.356 0 0 2.356 0 5.25v3.5c0 .968.784 1.75 1.75 1.75S3.5 9.718 3.5 8.75v-3.5c0-.966.786-1.75 1.75-1.75h3.5c.966 0 1.75-.782 1.75-1.75S9.716 0 8.75 0zM8.75 38.5h-3.5c-.964 0-1.75-.784-1.75-1.75v-3.5c0-.968-.784-1.75-1.75-1.75S0 32.282 0 33.25v3.5C0 39.645 2.356 42 5.25 42h3.5c.966 0 1.75-.782 1.75-1.75s-.784-1.75-1.75-1.75zM36.75 0h-3.5c-.966 0-1.75.782-1.75 1.75s.784 1.75 1.75 1.75h3.5c.964 0 1.75.784 1.75 1.75v3.5c0 .968.784 1.75 1.75 1.75S42 9.718 42 8.75v-3.5C42 2.356 39.645 0 36.75 0zM40.25 31.5c-.966 0-1.75.782-1.75 1.75v3.5c0 .966-.786 1.75-1.75 1.75h-3.5c-.966 0-1.75.782-1.75 1.75S32.284 42 33.25 42h3.5c2.895 0 5.25-2.355 5.25-5.25v-3.5c0-.968-.784-1.75-1.75-1.75z"/>
            </g>
        </g>
    </g>
</svg>
