<svg xmlns="http://www.w3.org/2000/svg" width="37" height="32" viewBox="0 0 37 32">
    <g fill="none" fill-rule="evenodd">
        <g fill="#3AC5CC" fill-rule="nonzero">
            <g>
                <path d="M33.136 3.53H16.584l-.669-1.274C15.3.893 13.93.014 12.42.014h-8.59C1.714.014 0 1.71 0 3.8v24.674c0 1.846 1.514 3.342 3.381 3.342h30.204c1.867 0 3.38-1.496 3.38-3.342V7.314c0-2.09-1.714-3.784-3.829-3.784zm-20.728.286c.029.065.06.129.093.192l.669 1.273c.661 1.26 1.978 2.05 3.414 2.05h16.535v2.86H3.847V3.817h8.56z" transform="translate(-1099 -4508) translate(1099 4508)"/>
            </g>
        </g>
    </g>
</svg>
