<svg xmlns="http://www.w3.org/2000/svg" width="43" height="38" viewBox="0 0 43 38">
    <g fill="none" fill-rule="evenodd">
        <g fill="#3AC5CC" fill-rule="nonzero">
            <g transform="translate(-619 -4504) translate(619 4504)">
                <circle cx="21.5" cy="7.36" r="7.307"/>
                <circle cx="36.281" cy="10.047" r="4.619"/>
                <circle cx="6.719" cy="10.047" r="4.619"/>
                <path d="M11.27 18.814c-1.818-1.49-3.465-1.292-5.567-1.292C2.558 17.522 0 20.065 0 23.19v9.172c0 1.357 1.108 2.46 2.47 2.46 5.881 0 5.173.107 5.173-.253 0-6.5-.77-11.266 3.627-15.755z"/>
                <path d="M23.5 17.555c-3.672-.306-6.864.004-9.617 2.276-4.608 3.69-3.72 8.66-3.72 14.738 0 1.608 1.308 2.94 2.94 2.94 17.728 0 18.433.573 19.485-1.755.344-.787.25-.537.25-8.069 0-5.981-5.18-10.13-9.338-10.13zM37.297 17.522c-2.113 0-3.751-.196-5.567 1.292 4.364 4.456 3.627 8.897 3.627 15.755 0 .362-.588.253 5.085.253 1.41 0 2.558-1.143 2.558-2.548V23.19c0-3.125-2.558-5.668-5.703-5.668z"/>
            </g>
        </g>
    </g>
</svg>
