<svg xmlns="http://www.w3.org/2000/svg" width="40" height="45" viewBox="0 0 40 45">
    <g fill="none" fill-rule="evenodd">
        <g fill="#5A7481" fill-rule="nonzero">
            <g>
                <path d="M34.143 10.314c-3.468-3.475-7.987-5.516-12.839-5.827V2.61h1.913c.72 0 1.305-.584 1.305-1.305 0-.72-.584-1.304-1.305-1.304h-6.434c-.72 0-1.305.584-1.305 1.304 0 .72.584 1.305 1.305 1.305h1.913v1.878c-3.327.213-6.497 1.24-9.279 2.985L8.178 6.23c-.603-.604-1.405-.937-2.259-.937-.853 0-1.656.333-2.259.937L1.776 8.12c-1.24 1.243-1.24 3.265 0 4.508l1.247 1.25C1.055 17.027 0 20.674 0 24.483c0 5.352 2.08 10.384 5.857 14.169 3.778 3.785 8.8 5.87 14.143 5.87s10.365-2.085 14.143-5.87C37.92 34.867 40 29.835 40 24.483s-2.08-10.384-5.857-14.169zm-30.52-.352l1.884-1.889c.149-.149.322-.17.412-.17.09 0 .264.021.413.17l.945.947c-.49.407-.964.838-1.42 1.294-.454.456-.883.93-1.288 1.419l-.946-.949c-.227-.226-.227-.596 0-.822zM20 41.913c-9.59 0-17.391-7.82-17.391-17.43 0-9.611 7.801-17.43 17.391-17.43 9.59 0 17.391 7.819 17.391 17.43S29.59 41.913 20 41.913z" transform="translate(-760 -3154) translate(760 3154)"/>
                <path d="M20 9.498c-8.247 0-14.957 6.722-14.957 14.985 0 8.263 6.71 14.985 14.957 14.985s14.957-6.722 14.957-14.985c0-8.263-6.71-14.985-14.957-14.985zm1.304 27.292v-1.524c0-.72-.584-1.305-1.304-1.305-.72 0-1.304.584-1.304 1.305v1.524c-5.77-.61-10.368-5.219-10.975-11.003h1.496c.72 0 1.305-.584 1.305-1.304 0-.72-.584-1.304-1.305-1.304H7.721c.607-5.784 5.205-10.393 10.975-11.003V13.7c0 .72.584 1.305 1.304 1.305.72 0 1.304-.584 1.304-1.305v-1.524c5.77.61 10.368 5.219 10.975 11.003h-1.496c-.72 0-1.305.584-1.305 1.304 0 .72.584 1.304 1.305 1.304h1.496c-.607 5.784-5.205 10.393-10.975 11.003z" transform="translate(-760 -3154) translate(760 3154)"/>
                <path d="M23.217 23.73h-1.84v-5.275c0-.72-.584-1.305-1.304-1.305-.72 0-1.304.584-1.304 1.305v6.58c0 .72.584 1.304 1.304 1.304h3.144c.72 0 1.305-.584 1.305-1.304 0-.72-.584-1.305-1.305-1.305z" transform="translate(-760 -3154) translate(760 3154)"/>
            </g>
        </g>
    </g>
</svg>
