<svg xmlns="http://www.w3.org/2000/svg" width="40" height="40" viewBox="0 0 40 40">
    <g fill="none" fill-rule="evenodd">
        <g fill="#5A7481" fill-rule="nonzero">
            <g>
                <path d="M40 16.28l-5.693-3.291V5.682h-7.425V3.978L20 0l-6.882 3.978v1.704H5.693v7.307L0 16.279v7.957l5.693 3.29v6.804h7.425v1.692L20 40l6.882-3.978V34.33h7.425v-6.803L40 24.236V16.28zm-11.422 2.706l3.37 1.947v3.897l-3.37-1.948v-3.896zm4.54-.083l-3.368-1.947 3.368-1.947 3.37 1.947-3.37 1.947zM15.46 6.685l3.37 1.946v3.897l-3.37-1.948V6.685zm5.71 1.946l3.37-1.946v3.895l-3.37 1.948V8.63zm2.199-3.976L20 6.6l-3.369-1.946 3.37-1.948 3.368 1.948zM8.053 20.933l3.369-1.946v3.895l-3.37 1.948v-3.897zm-1.171-2.03l-3.369-1.947 3.369-1.947 3.368 1.947-3.368 1.947zm-4.54.083l3.369 1.947v3.897l-3.37-1.948v-3.896zM20 30.69l-3.369-1.946 3.37-1.948 3.368 1.948L20 30.689zm-4.54.084l3.37 1.946v3.897l-3.37-1.948v-3.895zm5.71 5.843V32.72l3.37-1.947v3.895l-3.37 1.948zm5.712-4.63v-3.92L20 24.088l-6.882 3.978v3.92H8.035v-4.439l5.728-3.311V16.28l-5.728-3.312V8.026h5.083v3.908L20 15.912l6.882-3.978V8.026h5.083v4.943l-5.728 3.31v7.957l5.728 3.31v4.44h-5.083zm7.407-7.156v-3.897l3.37-1.946v3.895l-3.37 1.948z" transform="translate(-1480 -3156) translate(1480 3156)"/>
            </g>
        </g>
    </g>
</svg>
