<svg xmlns="http://www.w3.org/2000/svg" width="28" height="43" viewBox="0 0 28 43">
    <g fill="none" fill-rule="evenodd">
        <g fill="#3AC5CC" fill-rule="nonzero">
            <g>
                <path d="M24.228 6.107h-.336v2.076c0 2.06-1.692 3.737-3.772 3.737H7.88c-2.08 0-3.772-1.677-3.772-3.737V6.107h-.336C1.692 6.107 0 7.784 0 9.844v28.982c0 2.06 1.693 3.737 3.772 3.737h20.456c2.08 0 3.772-1.676 3.772-3.737V9.844c0-2.06-1.693-3.737-3.772-3.737zM6.747 20.064c.712.075 1.195.698 1.127 1.363-.067.638-.608 1.123-1.251 1.123-.694 0-1.258-.56-1.258-1.246 0-.742.655-1.313 1.382-1.24zm-1.014 12.75c-.738-.732-.302-2.008.766-2.12.76-.07 1.381.522 1.381 1.24 0 1.1-1.355 1.664-2.147.88zm2.141-6.072c-.067.643-.614 1.123-1.251 1.123-.693 0-1.258-.561-1.258-1.246 0-.748.662-1.313 1.381-1.24.702.072 1.197.688 1.128 1.363zm13.503 6.437h-9.389c-.694 0-1.257-.558-1.257-1.245 0-.688.563-1.246 1.257-1.246h9.39c.693 0 1.257.558 1.257 1.246 0 .687-.564 1.245-1.258 1.245zm0-5.314h-9.389c-.694 0-1.257-.559-1.257-1.246 0-.688.563-1.246 1.257-1.246h9.39c.693 0 1.257.558 1.257 1.246 0 .687-.564 1.246-1.258 1.246zm0-5.315h-9.389c-.694 0-1.257-.558-1.257-1.246s.563-1.246 1.257-1.246h9.39c.693 0 1.257.558 1.257 1.246s-.564 1.246-1.258 1.246z" transform="translate(-1044 -4970) translate(1044 4970)"/>
                <path d="M21.467 5.13v3.475c0 .685-.57 1.241-1.273 1.241H7.806c-.703 0-1.273-.556-1.273-1.24V5.13c0-.686.57-1.241 1.273-1.241h2.8c0-1.828 1.52-3.392 3.394-3.392s3.394 1.564 3.394 3.392h2.8c.703 0 1.273.555 1.273 1.24z" transform="translate(-1044 -4970) translate(1044 4970)"/>
            </g>
        </g>
    </g>
</svg>
