<svg xmlns="http://www.w3.org/2000/svg" xmlns:xlink="http://www.w3.org/1999/xlink" width="53" height="50" viewBox="0 0 53 50">
    <defs>
        <path id="tunnfz2q8a" d="M0 50L50 50 50 0 0 0z"/>
    </defs>
    <g fill="none" fill-rule="evenodd">
        <g>
            <g>
                <path fill="#FF8282" d="M9 12H53V45H9z" transform="translate(-470 -887) translate(470 887)"/>
                <g transform="translate(-470 -887) translate(470 887)">
                    <path fill="#000" d="M19.647 11.968l.214.208c.147.144.214.35.18.553l-.051.295.264-.14c.183-.095.4-.095.582 0l.265.14-.05-.295c-.035-.202.032-.41.179-.553l.214-.208-.296-.043c-.203-.03-.38-.158-.47-.342l-.133-.268-.132.268c-.091.184-.267.312-.47.342l-.296.043zm2.284 2.824c-.102 0-.201-.025-.291-.072l-1.095-.576-1.094.576c-.306.16-.684.043-.844-.262-.064-.122-.086-.261-.063-.397l.209-1.219-.886-.863c-.247-.24-.252-.637-.01-.884.095-.098.22-.162.357-.182l1.224-.178.547-1.109c.105-.213.322-.348.56-.348.238 0 .456.135.56.348l.548 1.11 1.224.177c.342.05.578.367.529.708-.02.137-.084.262-.183.358l-.885.863.209 1.22c.058.34-.17.662-.51.72-.036.007-.07.01-.106.01zM25.164 16.134l.214.209c.147.143.214.35.18.553l-.05.295.263-.139c.182-.096.4-.096.582 0l.264.14-.05-.295c-.035-.203.032-.41.18-.554l.213-.208-.296-.043c-.203-.03-.379-.157-.47-.342l-.132-.268-.133.268c-.09.185-.267.313-.47.342l-.295.042zm2.284 2.824c-.101 0-.201-.024-.29-.071l-1.095-.576-1.095.576c-.306.16-.683.043-.844-.263-.064-.121-.086-.26-.063-.396l.21-1.219-.886-.863c-.247-.241-.252-.637-.012-.884.096-.098.222-.163.358-.182l1.224-.178.547-1.11c.153-.309.528-.436.837-.283.124.06.223.16.284.284l.547 1.109 1.224.178c.342.05.578.367.528.709-.02.135-.084.261-.182.357l-.886.863.21 1.219c.058.34-.171.663-.511.721-.035.006-.07.01-.105.01zM24.647 22.898l.214.209c.147.143.214.35.18.553l-.051.294.264-.139c.183-.095.4-.095.582 0l.265.14-.05-.295c-.036-.203.032-.41.179-.553l.214-.209-.296-.043c-.203-.03-.38-.157-.47-.341l-.133-.268-.132.268c-.091.184-.267.312-.47.341l-.296.043zm2.284 2.824c-.102 0-.201-.024-.291-.072l-1.095-.575-1.094.575c-.306.161-.684.044-.844-.262-.064-.122-.086-.26-.063-.396l.209-1.22-.886-.862c-.247-.241-.252-.637-.01-.884.095-.099.22-.163.357-.182l1.224-.178.547-1.11c.105-.212.322-.348.56-.348.238 0 .456.136.56.349l.548 1.109 1.224.178c.342.05.578.367.529.708-.02.136-.084.262-.183.358l-.885.863.209 1.219c.058.34-.17.663-.51.721-.035.006-.07.01-.106.01zM19.647 27.801l.214.208c.147.144.214.35.18.554l-.051.294.264-.139c.183-.096.4-.096.582 0l.265.14-.05-.295c-.035-.203.032-.41.179-.554l.214-.208-.296-.043c-.203-.03-.38-.157-.47-.342l-.133-.268-.132.268c-.091.185-.267.313-.47.342l-.296.043zm2.284 2.824c-.102 0-.201-.025-.291-.072l-1.095-.575-1.094.575c-.306.16-.684.043-.844-.262-.064-.122-.086-.261-.063-.397l.209-1.218-.886-.864c-.247-.24-.252-.636-.01-.883.095-.099.22-.163.357-.183l1.224-.177.547-1.11c.105-.213.322-.348.56-.348.238 0 .456.135.56.349l.548 1.108 1.224.178c.342.05.578.367.529.709-.02.136-.084.262-.183.357l-.885.864.209 1.219c.058.34-.17.663-.51.721-.036.006-.07.009-.106.009zM10.15 18.062l1.66 1.587c.202.192.294.472.246.746l-.396 2.261 2.095-1.08c.24-.123.524-.123.764 0l2.095 1.08-.396-2.261c-.048-.274.044-.554.245-.746l1.661-1.587-2.311-.33c-.27-.038-.504-.206-.627-.45L14.137 15.2l-1.05 2.083c-.122.244-.356.412-.626.45l-2.311.33zm.4 6.937c-.46 0-.833-.373-.833-.833 0-.048.004-.096.012-.144l.609-3.476-2.58-2.465c-.333-.318-.344-.845-.026-1.178.129-.135.3-.222.484-.249l3.58-.51 1.597-3.173c.207-.41.708-.576 1.119-.37.16.081.29.21.37.37l1.597 3.173 3.58.51c.455.065.772.487.707.943-.027.185-.115.355-.25.484l-2.58 2.465.609 3.476c.08.454-.224.886-.678.965-.179.031-.363.003-.525-.08l-3.205-1.652-3.205 1.651c-.118.061-.249.093-.382.093z"/>
                    <mask id="4v38p525zb" fill="#fff">
                        <use xlink:href="#tunnfz2q8a"/>
                    </mask>
                    <path fill="#000" d="M4.167 50L5.833 50 5.833 35.833 4.167 35.833z" mask="url(#4v38p525zb)"/>
                    <path fill="#000" d="M1.667 3.333v-.416c0-.69.56-1.25 1.25-1.25h.833c.69 0 1.25.56 1.25 1.25v.416H1.667zm47.92 3.296c-3.452-2.017-7.197-3.02-11.453-3.069-3.714-.042-7.423.632-11.208 1.386l-.73.141c-6.729 1.302-13.106 2.536-19.53-.906V2.917C6.666 1.307 5.36.002 3.75 0h-.833C1.307.002.002 1.307 0 2.917v1.25C0 4.627.373 5 .833 5v45H2.5V5h1.667v29.167h1.666V5.625c6.971 3.75 13.933 2.403 20.68 1.098l.733-.142c7.849-1.563 14.41-2.46 21.087 1.251V10H50V7.348c0-.296-.157-.57-.413-.72z" mask="url(#4v38p525zb)"/>
                    <path fill="#000" d="M48.333 34.681c-3.14-1.148-6.53-1.461-10.317-.96-3.71.491-7.417 1.697-11.198 2.993l-.73.246c-7.155 2.413-13.913 4.692-20.723 1.38l-.73 1.498c2.69 1.308 5.374 1.815 8.047 1.815 4.707 0 9.372-1.574 13.938-3.114l.734-.247c8.011-2.746 14.68-4.609 21.477-1.614.42.185.913-.006 1.098-.427.047-.106.071-.22.071-.336V11.667h-1.667V34.68z" mask="url(#4v38p525zb)"/>
                </g>
            </g>
        </g>
    </g>
</svg>
