<svg xmlns="http://www.w3.org/2000/svg" width="40" height="36" viewBox="0 0 40 36">
    <g fill="none" fill-rule="evenodd">
        <g fill="#5A7481" fill-rule="nonzero">
            <g>
                <path d="M36 .047c-2.205-.004-3.995 1.775-4 3.974-.001 1.037.402 2.033 1.125 2.778l-7.308 14.575c-.16-.027-.321-.043-.484-.05-.516.002-1.027.103-1.505.299l-5.673-6.364c.33-.584.507-1.242.512-1.913 0-2.204-1.791-3.99-4-3.99-2.21 0-4 1.786-4 3.99.004.952.352 1.87.981 2.588L4.715 28.046c-.236-.045-.475-.07-.715-.072-2.21 0-4 1.786-4 3.99 0 2.203 1.79 3.99 4 3.99s4-1.787 4-3.99c-.004-.953-.352-1.872-.981-2.588l6.933-12.113c.744.147 1.516.068 2.215-.226l5.673 6.364c-.33.584-.504 1.243-.507 1.913-.006 2.204 1.78 3.995 3.988 4.002 2.21.007 4.006-1.774 4.012-3.978.003-1.04-.4-2.039-1.125-2.786l7.308-14.575c.16.026.322.043.484.049 2.21 0 4-1.786 4-3.99 0-2.203-1.79-3.99-4-3.99zM4 33.294c-.736 0-1.333-.596-1.333-1.33 0-.735.597-1.33 1.333-1.33s1.333.595 1.333 1.33c0 .734-.597 1.33-1.333 1.33zm10.667-18.619c-.737 0-1.334-.595-1.334-1.33 0-.734.597-1.33 1.334-1.33.736 0 1.333.596 1.333 1.33 0 .735-.597 1.33-1.333 1.33zm10.666 11.97c-.736 0-1.333-.596-1.333-1.33 0-.735.597-1.33 1.333-1.33.737 0 1.334.595 1.334 1.33 0 .734-.597 1.33-1.334 1.33zM36 5.365c-.736 0-1.333-.595-1.333-1.33 0-.734.597-1.33 1.333-1.33s1.333.596 1.333 1.33c0 .735-.597 1.33-1.333 1.33z" transform="translate(-1120 -3158) translate(1120 3158)"/>
            </g>
        </g>
    </g>
</svg>
