<svg xmlns="http://www.w3.org/2000/svg" xmlns:xlink="http://www.w3.org/1999/xlink" width="52" height="55" viewBox="0 0 52 55">
    <defs>
        <path id="vf510j67ba" d="M0 0.454L49.55 0.454 49.55 50.362 0 50.362z"/>
    </defs>
    <g fill="none" fill-rule="evenodd">
        <g>
            <g>
                <path fill="#8FA1DC" d="M17 17H52V55H17z" transform="translate(-1089 -887) translate(1089 887)"/>
                <g>
                    <g transform="translate(-1089 -887) translate(1089 887) translate(0 .184)">
                        <mask id="382gka345b" fill="#fff">
                            <use xlink:href="#vf510j67ba"/>
                        </mask>
                        <path fill="#000" d="M14.22 41.13c.18 0 .36.05.52.153 1.842 1.184 3.856 2.026 5.986 2.5.443.1.759.495.759.952v3.678h6.58V44.74c0-.458.316-.854.76-.952 2.133-.473 4.15-1.313 5.994-2.496.383-.247.883-.191 1.204.132l2.575 2.593 4.653-4.686-2.568-2.588c-.322-.324-.376-.829-.131-1.214 1.18-1.859 2.018-3.892 2.49-6.044.099-.446.492-.764.946-.764h3.626v-6.628h-3.621c-.455 0-.848-.319-.945-.765-.47-2.155-1.308-4.191-2.487-6.053-.245-.386-.19-.89.131-1.214l2.559-2.577-4.653-4.687-2.559 2.577c-.32.324-.822.38-1.206.133-1.848-1.188-3.87-2.031-6.008-2.505-.444-.1-.76-.495-.76-.952V2.403h-6.58v3.653c0 .457-.316.853-.76.952-2.135.476-4.154 1.32-5.999 2.509-.383.247-.884.192-1.205-.132l-2.57-2.587-4.653 4.687 2.575 2.593c.321.323.376.828.132 1.213-1.176 1.857-2.01 3.89-2.479 6.038-.097.446-.49.765-.945.765H1.936v6.628h3.65c.454 0 .847.318.946.764.472 2.146 1.306 4.174 2.482 6.029.244.386.19.89-.132 1.214l-2.584 2.603 4.654 4.686 2.584-2.602c.187-.188.434-.286.684-.286m13.845 9.232h-6.58c-1.068 0-1.936-.874-1.936-1.95v-2.91c-1.821-.479-3.559-1.204-5.184-2.164l-2.044 2.059c-.755.76-1.983.76-2.738 0L4.93 40.71c-.754-.76-.754-1.997 0-2.757l2.045-2.06c-.953-1.637-1.674-3.386-2.15-5.221H1.936C.868 30.672 0 29.798 0 28.722v-6.628c0-1.075.868-1.95 1.936-1.95h2.883c.474-1.837 1.193-3.59 2.147-5.23l-2.037-2.05c-.754-.761-.754-1.998 0-2.758l4.654-4.688c.755-.759 1.983-.759 2.738 0l2.028 2.045c1.63-.965 3.373-1.693 5.2-2.175V2.403c0-1.075.868-1.95 1.936-1.95h6.58c1.068 0 1.936.875 1.936 1.95v2.88c1.83.478 3.576 1.206 5.208 2.17l2.02-2.035c.755-.759 1.983-.759 2.738 0l4.653 4.688c.755.76.755 1.997 0 2.757l-2.02 2.035c.957 1.644 1.68 3.403 2.156 5.246h2.858c1.067 0 1.936.875 1.936 1.95v6.628c0 1.076-.869 1.95-1.936 1.95H44.75c-.477 1.84-1.201 3.596-2.158 5.237l2.028 2.044c.755.76.755 1.996 0 2.757l-4.652 4.687c-.755.76-1.983.76-2.738 0l-2.036-2.05c-1.628.959-3.369 1.684-5.192 2.162v2.904c0 1.075-.868 1.95-1.936 1.95" mask="url(#382gka345b)"/>
                    </g>
                    <path fill="#000" d="M24.775 39.817c-3.618 0-7.237-1.388-9.991-4.161-5.51-5.55-5.51-14.579 0-20.128 2.222-2.237 5.04-3.637 8.148-4.047 3.01-.397 6.116.205 8.75 1.692.465.263.632.857.37 1.327-.261.469-.851.636-1.317.373-4.74-2.677-10.736-1.84-14.582 2.034-4.755 4.789-4.755 12.58 0 17.37 2.377 2.394 5.5 3.59 8.622 3.591 3.123 0 6.245-1.197 8.623-3.59 3.717-3.745 4.637-9.441 2.29-14.174-.24-.482-.045-1.068.433-1.308.478-.241 1.059-.046 1.298.436 2.72 5.485 1.655 12.085-2.653 16.424-2.754 2.773-6.373 4.161-9.991 4.161" transform="translate(-1089 -887) translate(1089 887)"/>
                    <path fill="#000" d="M34.293 17.405c-.255 0-.504-.103-.685-.286-.18-.181-.282-.432-.282-.689 0-.257.102-.508.282-.689.18-.182.43-.286.685-.286.254 0 .504.104.685.286.18.181.282.432.282.69 0 .256-.103.507-.282.688-.181.183-.43.286-.685.286M18.657 25.633l4.752 4.787 7.483-7.537-2.103-2.119-4.695 4.73c-.182.183-.429.286-.685.286-.256 0-.502-.103-.684-.285l-1.965-1.98-2.103 2.118zm4.752 7.14c-.256 0-.502-.103-.684-.286l-6.12-6.164c-.378-.381-.378-.998 0-1.379l3.47-3.496c.182-.183.428-.286.685-.286.257 0 .503.103.685.286l1.964 1.978 4.696-4.73c.378-.38.99-.38 1.369 0l3.471 3.498c.378.38.378.997 0 1.378l-8.851 8.915c-.182.183-.429.286-.685.286z" transform="translate(-1089 -887) translate(1089 887)"/>
                </g>
            </g>
        </g>
    </g>
</svg>
