<svg xmlns="http://www.w3.org/2000/svg" xmlns:xlink="http://www.w3.org/1999/xlink" width="17" height="13" viewBox="0 0 17 13">
    <defs>
        <path id="prefix__a" d="M0.011 0.072L16.447 0.072 16.447 8.478 0.011 8.478z"/>
    </defs>
    <g fill="none" fill-rule="evenodd">
        <path fill="#FFCB19" d="M.036 11.62L.869 8.16l.833-3.462c.036-.149.097-.292.177-.425.196-.321.507-.58.854-.714.04-.015.082-.029.124-.041.125-.036.253-.056.382-.056H15.202v-.494c0-.683-.554-1.236-1.239-1.236H7.23L5.494 0H1.24C.555 0 0 .553 0 1.236v10.385c0 .049.003.098.01.147.003-.035.01-.07.017-.105.003-.015.005-.029.009-.043"/>
        <g transform="translate(.477 3.884)">
            <mask id="prefix__b" fill="#fff">
                <use xlink:href="#prefix__a"/>
            </mask>
            <path fill="#FFCB19" d="M16.356.234c-.084-.106-.219-.162-.39-.162H2.761c-.452 0-.945.4-1.055.857L.011 8.012c-.002.129.034.241.105.322.084.094.214.144.376.144h13.474c.338 0 .627-.226.715-.541L16.425.699c.045-.187.02-.352-.07-.465" mask="url(#prefix__b)"/>
        </g>
    </g>
</svg>
