<svg xmlns="http://www.w3.org/2000/svg" width="50" height="50" viewBox="0 0 50 50">
    <g fill="#50525A" fill-rule="nonzero">
        <path d="M21.774 43.548h-.888a4.04 4.04 0 0 0-3.95-3.225h-2.42v-2.666c0-1.867.373-3.684 1.107-5.398l.074-.17a15.25 15.25 0 0 0 1.238-6.036V25c0-1.54-.608-2.979-1.713-4.052a5.557 5.557 0 0 0-4.105-1.59c-3.017.09-5.472 2.712-5.472 5.844v.85c0 2.087.417 4.118 1.24 6.038l.071.166a13.631 13.631 0 0 1 1.109 5.401v2.666h-2.42a4.04 4.04 0 0 0-3.95 3.225H.805a.806.806 0 0 0-.806.807v4.839c0 .445.36.806.806.806h20.968a.806.806 0 0 0 .807-.806v-4.84a.806.806 0 0 0-.807-.806zM7.258 26.053v-.85c0-2.27 1.753-4.17 3.908-4.234a4.023 4.023 0 0 1 2.932 1.137A4 4 0 0 1 15.323 25v1.053a13.63 13.63 0 0 1-1.108 5.398l-.073.17a15.195 15.195 0 0 0-1.21 5.476H9.649a15.232 15.232 0 0 0-1.211-5.478l-.072-.166a13.631 13.631 0 0 1-1.108-5.4zm2.42 12.657h3.225v1.613H9.677V38.71zm-4.033 3.225h11.29c1.05 0 1.937.677 2.271 1.613H3.374a2.416 2.416 0 0 1 2.271-1.613zm15.323 6.452H1.613v-3.226h19.355v3.226z"/>
        <path d="M49.763 8.3l-2.989-2.989V.806A.806.806 0 0 0 45.968 0H20.16a.806.806 0 0 0-.806.806v37.097c0 .445.36.807.806.807h2.42v2.419c0 .445.36.806.806.806h25.807A.806.806 0 0 0 50 41.13V8.871a.802.802 0 0 0-.237-.571zM45.16 5.98l2.086 2.085H45.16V5.979zm-22.58-1.948v33.065h-1.613V1.613H45.16v2.085l-.235-.235a.802.802 0 0 0-.571-.237H23.387a.806.806 0 0 0-.806.806zm25.806 36.29H24.194V4.84h19.354V8.87c0 .445.36.806.807.806h4.032v30.646z"/>
        <path d="M26.613 12.903h14.516a.806.806 0 0 0 .806-.806V7.258a.806.806 0 0 0-.806-.806H26.613a.806.806 0 0 0-.807.806v4.839c0 .445.36.806.807.806zm.806-4.838h12.904v3.225H27.419V8.065zM25.806 14.516h20.968v1.613H25.806zM25.806 17.742h20.968v1.613H25.806zM42.007 25.267l-1.013-1.521-1.342.894 1.612 2.42a.806.806 0 0 0 .628.358l.043.001a.807.807 0 0 0 .62-.29l4.033-4.839-1.24-1.032-3.34 4.009zM42.007 30.912l-1.013-1.521-1.342.895 1.612 2.419a.806.806 0 0 0 .628.358.807.807 0 0 0 .664-.289l4.032-4.838-1.24-1.033-3.34 4.01zM42.007 36.557l-1.013-1.52-1.342.894 1.612 2.42a.806.806 0 0 0 .628.357.807.807 0 0 0 .664-.289l4.032-4.838-1.24-1.033-3.34 4.01zM25.806 37.097H38.71v1.613H25.806zM25.806 31.452H38.71v1.613H25.806zM25.806 25.806H38.71v1.613H25.806z"/>
    </g>
</svg>
