<svg xmlns="http://www.w3.org/2000/svg" width="14" height="14" viewBox="0 0 14 14">
    <path fill="#333" fill-rule="nonzero" d="M5.127 11.107l-.708.704a1.585 1.585 0 0 1-2.227 0 1.532 1.532 0 0 1-.457-1.095c0-.413.162-.802.457-1.095L4.8 7.034c.54-.536 1.557-1.325 2.297-.59A.867.867 0 1 0 8.32 5.213c-1.26-1.25-3.121-1.02-4.742.59L.97 8.39A3.256 3.256 0 0 0 0 10.716c0 .88.344 1.705.97 2.326.644.639 1.49.958 2.335.958.846 0 1.692-.32 2.336-.958l.71-.704a.867.867 0 1 0-1.224-1.23zm7.902-10.05C11.677-.284 9.785-.356 8.533.886l-.883.877a.867.867 0 1 0 1.223 1.23l.882-.875c.649-.645 1.498-.377 2.052.172.296.293.458.682.458 1.095 0 .414-.162.803-.457 1.096L9.026 7.24c-1.272 1.261-1.869.67-2.124.416A.868.868 0 0 0 5.68 8.887c.584.58 1.25.867 1.95.867.855 0 1.759-.43 2.618-1.284l2.782-2.76c.625-.62.97-1.447.97-2.326s-.345-1.705-.97-2.326z"/>
</svg>
