<svg xmlns="http://www.w3.org/2000/svg" xmlns:xlink="http://www.w3.org/1999/xlink" width="14" height="10" viewBox="0 0 14 10">
    <defs>
        <path id="a" d="M.002.009H6.09v9.203H.002z"/>
    </defs>
    <g fill="none" fill-rule="evenodd">
        <path fill="#333" d="M5.129.24v3.488H1.774V.24H0v8.868h1.774V5.274h3.355v3.834h1.762V.24z"/>
        <g transform="translate(7.907 .064)">
            <mask id="b" fill="#fff">
                <use xlink:href="#a"/>
            </mask>
            <path fill="#333" d="M.002 7.978L.83 6.864c.527.515 1.175.91 1.977.91.9 0 1.51-.443 1.51-1.234 0-.875-.515-1.414-2.444-1.414v-1.27c1.63 0 2.157-.564 2.157-1.355 0-.695-.432-1.102-1.187-1.114-.635.012-1.15.312-1.677.79L.265 1.1C1.034.43 1.885.01 2.927.01c1.714 0 2.876.839 2.876 2.36 0 .96-.539 1.654-1.486 2.026v.06c1.007.275 1.774 1.019 1.774 2.18 0 1.63-1.426 2.577-3.116 2.577-1.402 0-2.349-.527-2.972-1.234" mask="url(#b)"/>
        </g>
    </g>
</svg>
