<svg xmlns="http://www.w3.org/2000/svg" width="14" height="12" viewBox="0 0 14 12">
    <g fill="#364aed" fill-rule="nonzero">
        <path d="M11.633-.662A1.108 1.108 0 0 0 10.82-1H1.15c-.316 0-.587.113-.813.338A1.109 1.109 0 0 0 0 .151v7.827c0 .317.113.587.338.813.226.225.496.338.813.338h9.669c.316 0 .587-.113.813-.338.225-.226.338-.497.338-.813V.151c0-.317-.113-.587-.338-.813zm-7.95 8.64a.224.224 0 0 1-.065.165.224.224 0 0 1-.165.065H1.151a.224.224 0 0 1-.165-.065.224.224 0 0 1-.065-.165V6.596a.224.224 0 0 1 .23-.23h2.302c.067 0 .123.022.166.065a.223.223 0 0 1 .064.165v1.382zm0-2.763a.224.224 0 0 1-.065.166.224.224 0 0 1-.165.065H1.151a.224.224 0 0 1-.165-.065.224.224 0 0 1-.065-.166v-1.38c0-.068.021-.123.065-.166a.225.225 0 0 1 .165-.065h2.302c.067 0 .122.022.166.065a.224.224 0 0 1 .064.165v1.381zm0-2.762a.224.224 0 0 1-.065.165.224.224 0 0 1-.165.065H1.151a.225.225 0 0 1-.165-.065.224.224 0 0 1-.065-.165V1.072c0-.067.021-.123.065-.166A.224.224 0 0 1 1.15.842h2.302c.067 0 .122.021.166.064a.224.224 0 0 1 .064.166v1.381zm3.684 5.525a.224.224 0 0 1-.065.165.224.224 0 0 1-.166.065H4.834a.224.224 0 0 1-.165-.065.224.224 0 0 1-.065-.165V6.596c0-.067.022-.122.065-.165a.224.224 0 0 1 .165-.065h2.302c.068 0 .123.022.166.065a.224.224 0 0 1 .064.165v1.382zm0-2.763a.224.224 0 0 1-.065.166.224.224 0 0 1-.166.065H4.834a.224.224 0 0 1-.165-.065.224.224 0 0 1-.065-.166v-1.38c0-.068.022-.123.065-.166a.225.225 0 0 1 .165-.065h2.302c.068 0 .123.022.166.065a.225.225 0 0 1 .064.165v1.381zm0-2.762a.224.224 0 0 1-.065.165.224.224 0 0 1-.166.065H4.834a.225.225 0 0 1-.165-.065.224.224 0 0 1-.065-.165V1.072c0-.067.022-.123.065-.166a.224.224 0 0 1 .165-.064h2.302c.068 0 .123.021.166.064a.225.225 0 0 1 .064.166v1.381zm3.683 5.525a.225.225 0 0 1-.065.165.225.225 0 0 1-.165.065H8.518a.224.224 0 0 1-.166-.065.224.224 0 0 1-.064-.165V6.596c0-.067.021-.122.064-.165a.223.223 0 0 1 .166-.065h2.302c.067 0 .122.022.165.065a.224.224 0 0 1 .065.165v1.382zm0-2.763a.224.224 0 0 1-.065.166.224.224 0 0 1-.165.065H8.518a.224.224 0 0 1-.166-.065.224.224 0 0 1-.064-.166v-1.38c0-.068.021-.123.064-.166a.224.224 0 0 1 .166-.065h2.302c.067 0 .122.022.165.065a.225.225 0 0 1 .065.165v1.381zm0-2.762a.225.225 0 0 1-.065.165.225.225 0 0 1-.165.065H8.518a.224.224 0 0 1-.166-.065.224.224 0 0 1-.064-.165V1.072c0-.067.021-.123.064-.166a.224.224 0 0 1 .166-.064h2.302c.067 0 .122.021.165.064a.224.224 0 0 1 .065.166v1.381z"/>
        <path stroke="#FFF" stroke-width=".4" d="M13.26 7.35a.54.54 0 0 1 .54.539v.787a.54.54 0 0 1-.54.54h-.617c-.019 0-.027.006-.034.023-.007.017-.005.027.007.04l.437.437a.538.538 0 0 1 0 .763l-.556.557a.548.548 0 0 1-.764 0l-.436-.437c-.01-.01-.016-.011-.024-.011-.024 0-.04.014-.04.037v.618a.54.54 0 0 1-.54.54h-.787a.54.54 0 0 1-.54-.54v-.618c0-.023-.016-.037-.039-.037-.008 0-.014.002-.024.011l-.436.437a.548.548 0 0 1-.764 0l-.556-.557a.538.538 0 0 1 0-.763l.436-.437c.013-.013.016-.023.009-.04-.008-.017-.016-.023-.035-.023H7.34a.54.54 0 0 1-.54-.54v-.787a.54.54 0 0 1 .54-.54h.617c.019 0 .027-.006.034-.023.007-.017.005-.027-.008-.04l-.436-.437a.538.538 0 0 1 0-.763l.556-.557a.548.548 0 0 1 .764 0l.436.437c.01.01.016.011.024.011.023 0 .04-.014.04-.037v-.618a.54.54 0 0 1 .54-.54h.787a.54.54 0 0 1 .54.54v.618c0 .014.002.02.009.025.007.008.02.012.03.012.008 0 .014-.002.024-.011l.436-.437a.548.548 0 0 1 .764 0l.556.557a.538.538 0 0 1 0 .763l-.436.437c-.013.013-.016.023-.009.04.008.017.016.023.035.023h.617zm-2.304.933a.657.657 0 0 0-1.312 0 .657.657 0 0 0 1.312 0z"/>
    </g>
</svg>
