<svg xmlns="http://www.w3.org/2000/svg" width="14" height="12" viewBox="0 0 14 12">
    <g fill="#333" fill-rule="evenodd">
        <path d="M1.75 0H.583C.233 0 0 .233 0 .583V1.75c0 .35.233.583.583.583H1.75c.35 0 .583-.233.583-.583V.583C2.333.233 2.1 0 1.75 0M1.75 4.667H.583C.233 4.667 0 4.9 0 5.25v1.167C0 6.767.233 7 .583 7H1.75c.35 0 .583-.233.583-.583V5.25c0-.35-.233-.583-.583-.583M1.75 9.333H.583c-.35 0-.583.234-.583.584v1.166c0 .35.233.584.583.584H1.75c.35 0 .583-.234.583-.584V9.917c0-.35-.233-.584-.583-.584M13.417 0H5.25c-.35 0-.583.233-.583.583V1.75c0 .35.233.583.583.583h8.167c.35 0 .583-.233.583-.583V.583c0-.35-.233-.583-.583-.583M13.417 4.667H5.25c-.35 0-.583.233-.583.583v1.167c0 .35.233.583.583.583h8.167c.35 0 .583-.233.583-.583V5.25c0-.35-.233-.583-.583-.583M13.417 9.333H5.25c-.35 0-.583.234-.583.584v1.166c0 .35.233.584.583.584h8.167c.35 0 .583-.234.583-.584V9.917c0-.35-.233-.584-.583-.584"/>
    </g>
</svg>
