<svg xmlns="http://www.w3.org/2000/svg" width="16" height="16" viewBox="0 0 16 16">
    <g fill="#A8AAB7" fill-rule="evenodd">
        <path d="M15.403 14.563H.57a.558.558 0 0 0-.555.556c0 .298.257.556.555.556h14.848a.558.558 0 0 0 .556-.556.57.57 0 0 0-.57-.556M1.139 9.885l6.698-6.699 1.83 1.83-6.698 6.686-1.844.013.014-1.83zm8.529-8.53l1.83 1.831-1.03 1.03-1.83-1.83 1.03-1.03zM.014 9.642L0 12.285c0 .149.054.298.163.407a.543.543 0 0 0 .393.162l2.63-.013c.15 0 .285-.055.394-.163l9.084-9.085a.573.573 0 0 0 0-.8L10.061.163a.573.573 0 0 0-.8 0l-1.817 1.83L.176 9.247a.604.604 0 0 0-.162.394z"/>
    </g>
</svg>
