<svg xmlns="http://www.w3.org/2000/svg" width="12" height="14" viewBox="0 0 12 14">
    <g fill="#000" fill-rule="nonzero">
        <path d="M11.613 1.935H8.815V1.48A1.48 1.48 0 0 0 7.335 0h-2.66a1.48 1.48 0 0 0-1.479 1.48v.455H.398a.372.372 0 0 0-.373.374c0 .207.166.373.373.373h.675v8.77c0 1.101.896 1.997 1.996 1.997h5.873c1.1 0 1.996-.896 1.996-1.996V2.682h.675a.372.372 0 0 0 .373-.373.372.372 0 0 0-.373-.374zm-7.67-.456c0-.403.329-.732.733-.732h2.66c.403 0 .732.329.732.732v.456H3.943V1.48zm6.249 9.974c0 .688-.562 1.25-1.25 1.25H3.069c-.688 0-1.25-.562-1.25-1.25V2.682h8.375v8.77h-.002z"/>
        <path d="M6.006 11.364a.372.372 0 0 0 .373-.373V4.394a.372.372 0 0 0-.373-.374.372.372 0 0 0-.374.374v6.594c0 .207.166.376.374.376zM3.57 10.952a.372.372 0 0 0 .373-.373V4.803a.372.372 0 0 0-.373-.374.372.372 0 0 0-.374.374v5.776c0 .207.169.373.374.373zM8.441 10.952a.372.372 0 0 0 .374-.373V4.803a.372.372 0 0 0-.374-.374.372.372 0 0 0-.373.374v5.776c0 .207.166.373.373.373z"/>
    </g>
</svg>
