<svg xmlns="http://www.w3.org/2000/svg" width="15" height="14" viewBox="0 0 15 14">
    <g fill="#4C4C4C" fill-rule="nonzero">
        <path d="M7.3 11.197c-1.04.815-2.855.145-2.873-1.338l-.637-.191h-.245c0 1.742 1.238 2.761 2.739 2.761.559 0 1.104-.185 1.558-.539.284-.222.504-.5.669-.806l-.87-.261a1.648 1.648 0 0 1-.34.374zM3.545 4.395H1.318A1.32 1.32 0 0 0 0 5.713V7.47a1.32 1.32 0 0 0 1.318 1.318h2.227V4.395z"/>
        <path d="M12.773 0a.44.44 0 0 0-.439.44v1.43l-7.91 2.373V8.94l7.91 2.373v1.431a.44.44 0 1 0 .879 0V.44a.44.44 0 0 0-.44-.439zM14.121 5.15v2.883c.528-.286.879-.825.879-1.441 0-.617-.35-1.155-.879-1.442z"/>
    </g>
</svg>
