<svg xmlns="http://www.w3.org/2000/svg" width="15" height="14" viewBox="0 0 15 14">
    <path fill="#000" fill-rule="nonzero" d="M12 .776v3.89h.75c1.242 0 2.25 1.044 2.25 2.333v3.888h-3V14H3.75v-3.112h-3V7C.75 5.71 1.758 4.665 3 4.665h.75V.776H12zm.75 7A.764.764 0 0 1 12 7c0-.43.335-.778.75-.778.414 0 .75.347.75.778 0 .43-.336.777-.75.777zM1.5 7v3.111h2.25V8.556H12v1.555h2.25V7c0-.86-.672-1.556-1.5-1.556H3c-.828 0-1.5.697-1.5 1.556zm9.75 6.222V9.333H4.5v3.89h6.75zM4.5 1.556v3.11h6.75v-3.11H4.5z"/>
</svg>
