<svg xmlns="http://www.w3.org/2000/svg" width="10" height="10" viewBox="0 0 10 10">
    <path fill="#787993" fill-rule="evenodd" d="M5 6.47c-.81 0-1.47-.66-1.47-1.47 0-.81.66-1.47 1.47-1.47.81 0 1.47.66 1.47 1.47 0 .81-.66 1.47-1.47 1.47M9.485 3.89H8.55a.35.35 0 0 1-.332-.222.35.35 0 0 1 .078-.391l.661-.662a.512.512 0 0 0 0-.728l-.843-.843a.527.527 0 0 0-.728 0l-.662.661a.35.35 0 0 1-.391.078.35.35 0 0 1-.222-.332V.515A.515.515 0 0 0 5.596 0H4.404a.515.515 0 0 0-.515.515v.935a.35.35 0 0 1-.222.332.349.349 0 0 1-.391-.078l-.662-.661a.527.527 0 0 0-.728 0l-.843.843a.512.512 0 0 0 0 .728l.661.662a.35.35 0 0 1 .078.391.349.349 0 0 1-.332.222H.515A.515.515 0 0 0 0 4.404v1.192c0 .284.23.515.515.515h.935a.35.35 0 0 1 .332.222.35.35 0 0 1-.078.391l-.661.662a.512.512 0 0 0 0 .728l.843.843a.527.527 0 0 0 .728 0l.662-.661a.35.35 0 0 1 .391-.078.35.35 0 0 1 .222.332v.935c0 .284.23.515.515.515h1.192c.284 0 .515-.23.515-.515V8.55a.35.35 0 0 1 .222-.332.35.35 0 0 1 .391.078l.661.661a.527.527 0 0 0 .729 0l.843-.843a.512.512 0 0 0 0-.728l-.662-.662a.35.35 0 0 1-.077-.391.35.35 0 0 1 .332-.222h.935c.284 0 .515-.23.515-.515V4.404a.515.515 0 0 0-.515-.515"/>
</svg>
