<svg xmlns="http://www.w3.org/2000/svg" width="50" height="50" viewBox="0 0 50 50">
    <g fill="none" fill-rule="nonzero">
        <path fill="#525359" d="M26.872 5.714a2.625 2.625 0 0 0-3.713 0L5.83 23.044a2.626 2.626 0 0 0 0 3.714l17.331 17.33a2.626 2.626 0 0 0 3.713 0l17.33-17.33a2.626 2.626 0 0 0 0-3.713L26.872 5.715zm16.092 19.801l-17.33 17.331a.875.875 0 0 1-1.238 0l-17.33-17.33a.875.875 0 0 1 0-1.238l17.33-17.33a.875.875 0 0 1 1.237 0l17.331 17.33a.875.875 0 0 1 0 1.237z"/>
        <path fill="#525359" d="M26.872.76a2.689 2.689 0 0 0-3.713 0L.88 23.044a2.626 2.626 0 0 0 0 3.713l22.28 22.276a2.625 2.625 0 0 0 3.713 0l22.28-22.28a2.625 2.625 0 0 0 0-3.714L26.873.76zm21.043 24.755l-22.28 22.281a.875.875 0 0 1-1.238 0L2.116 25.516a.874.874 0 0 1 0-1.238l22.281-22.28a.875.875 0 0 1 1.238 0l22.28 22.28a.874.874 0 0 1 0 1.237z"/>
        <path fill="#F95F5F" d="M24.876 12.016a3.361 3.361 0 0 0-3.356 3.545l.641 11.729a2.626 2.626 0 0 0 2.626 2.482h.187a2.625 2.625 0 0 0 2.625-2.482l.642-11.729a3.36 3.36 0 0 0-3.365-3.545zm.968 15.176a.876.876 0 0 1-.876.828h-.186a.876.876 0 0 1-.875-.828l-.642-11.727a1.61 1.61 0 1 1 3.218 0l-.64 11.727zM25.016 31.521a2.626 2.626 0 1 0 0 5.251 2.626 2.626 0 0 0 0-5.251zm0 3.501a.875.875 0 1 1 0-1.75.875.875 0 0 1 0 1.75z"/>
    </g>
</svg>
