<svg xmlns="http://www.w3.org/2000/svg" width="13" height="10" viewBox="0 0 13 10">
    <g fill="#FFF" fill-rule="nonzero">
        <path d="M12.62 2.335H11.45v5.332h1.168c.21 0 .381-.17.381-.381v-4.57a.38.38 0 0 0-.38-.381zM.38 2.335a.38.38 0 0 0-.38.38v4.571c0 .21.17.38.38.38H1.55V2.336H.38zM6.21 2.716a.758.758 0 0 0-.682.42l-1.16 2.32a1.514 1.514 0 0 0 1.97-.716l.252-.5h.737c.2 0 .397.08.539.222l2.823 2.824v-4.57H6.21z"/>
        <path d="M7.327 5h-.266l-.022.045c-.36.72-1.061 1.227-1.863 1.293-.59.048-.999-.122-1.484-.342a.383.383 0 0 1-.186-.519l1.34-2.68a1.524 1.524 0 0 1 1.363-.843h1.644c.105-.234.17-.489.17-.762a.38.38 0 0 0-.38-.38H4.686c-.433 0-.829.244-1.022.631l-.341.681a.381.381 0 0 1-.34.21H2.31v5.333h1.746l1.08 1.079a1.13 1.13 0 0 0 1.151.281l3.253-1.022c.194-.055.358-.162.491-.299L7.327 5.001z"/>
    </g>
</svg>
