<svg xmlns="http://www.w3.org/2000/svg" xmlns:xlink="http://www.w3.org/1999/xlink" width="50" height="69" viewBox="0 0 50 69">
    <defs>
        <path id="a" d="M0 0h49.87v67.905H0z"/>
    </defs>
    <g fill="none" fill-rule="evenodd">
        <path fill="#3F3F46" d="M29.621 9.87a.998.998 0 1 1 0 1.995.998.998 0 0 1 0-1.996"/>
        <g transform="translate(0 .132)">
            <mask id="b" fill="#fff">
                <use xlink:href="#a"/>
            </mask>
            <path fill="#3F3F46" d="M35.832 12.21c0 .2-.074.36-.12.44a.856.856 0 0 1-.755.435H24.285a.856.856 0 0 1-.755-.436.853.853 0 0 1 0-.872l5.336-9.242a.856.856 0 0 1 .755-.435c.151 0 .528.042.755.436l5.336 9.242c.09.154.12.301.12.431zM8.859 5.148V4.125c0-1.16.943-2.115 2.103-2.13a2.106 2.106 0 0 1 1.523.615c.408.403.633.941.633 1.515V5.15h-4.26zM48.873 44.06c.55 0 .998-.447.998-.998V13.527a3.612 3.612 0 0 0-3.609-3.608h-3.357V8.757a3.612 3.612 0 0 0-3.608-3.608h-5.108l-2.085-3.611A2.838 2.838 0 0 0 29.47.108a2.831 2.831 0 0 0-2.332 1.43l-2.084 3.61h-9.94V4.126a4.095 4.095 0 0 0-1.227-2.935A4.11 4.11 0 0 0 10.937 0a4.14 4.14 0 0 0-4.074 4.126v1.023H3.608A3.612 3.612 0 0 0 0 8.757v20.32a.998.998 0 1 0 1.995 0V8.756c0-.89.724-1.613 1.613-1.613h9.51v5.899c0 .688-.559 1.247-1.247 1.247-.687 0-1.247-.56-1.247-1.247v-2.107a.998.998 0 0 0-1.995 0v2.107a3.246 3.246 0 0 0 3.242 3.243 3.246 3.246 0 0 0 3.243-3.243V7.144h8.787l-2.099 3.636a2.86 2.86 0 0 0-.388 1.433c0 .493.13.985.388 1.434a2.838 2.838 0 0 0 2.483 1.434h10.672a2.838 2.838 0 0 0 2.483-1.434 2.86 2.86 0 0 0 .389-1.434c0-.492-.13-.984-.389-1.433l-2.099-3.636h3.956c.89 0 1.613.724 1.613 1.613v50.77c0 .888-.723 1.612-1.613 1.612H3.608c-.889 0-1.613-.724-1.613-1.613V33.068a.998.998 0 1 0-1.995 0v26.458a3.612 3.612 0 0 0 3.608 3.608h3.357v1.162a3.612 3.612 0 0 0 3.608 3.609h35.69a3.613 3.613 0 0 0 3.608-3.609V47.054a.998.998 0 0 0-1.996 0v17.242c0 .89-.723 1.613-1.613 1.613H10.573c-.889 0-1.612-.723-1.612-1.613v-1.162h30.336a3.612 3.612 0 0 0 3.609-3.608V11.914h3.356c.89 0 1.613.724 1.613 1.613v29.536c0 .551.447.998.998.998z" mask="url(#b)"/>
        </g>
        <path fill="#3F3F46" d="M9.626 21.432h9.347a.998.998 0 1 0 0-1.996H9.626a.998.998 0 1 0 0 1.996M9.626 27.376h23.387a.998.998 0 1 0 0-1.996H9.626a.998.998 0 1 0 0 1.996M9.626 33.32h23.387a.998.998 0 1 0 0-1.996H9.626a.998.998 0 1 0 0 1.995M9.626 39.263h23.387a.998.998 0 1 0 0-1.996H9.626a.998.998 0 1 0 0 1.996M9.626 45.206h23.387a.998.998 0 1 0 0-1.995H9.626a.998.998 0 1 0 0 1.995M9.626 51.15h23.387a.998.998 0 1 0 0-1.996H9.626a.998.998 0 1 0 0 1.996M33.013 55.098h-6.355a.998.998 0 1 0 0 1.995h6.355a.998.998 0 1 0 0-1.995M29.621 4.848a.998.998 0 0 0-.997.998v2.339a.998.998 0 1 0 1.995 0V5.846a.998.998 0 0 0-.998-.998"/>
    </g>
</svg>
