<svg xmlns="http://www.w3.org/2000/svg" width="60" height="61" viewBox="0 0 60 61">
    <g fill="#3F3F46" fill-rule="nonzero">
        <path d="M36.474 30.441c-.653 1.268-.494 2.865.502 3.934.398.428.9.748 1.453.927a2.212 2.212 0 0 1 1.421 1.42 3.378 3.378 0 0 0 3.238 2.348c.901 0 1.808-.343 2.489-1.023l9.703-9.703c1.313-1.313 1.371-3.467.13-4.8a3.435 3.435 0 0 0-1.454-.927 2.212 2.212 0 0 1-1.421-1.42 3.436 3.436 0 0 0-.927-1.454c-1.07-.996-2.666-1.155-3.934-.501L37.062 8.63c.654-1.268.495-2.865-.501-3.934a3.435 3.435 0 0 0-1.453-.927 2.212 2.212 0 0 1-1.421-1.421A3.436 3.436 0 0 0 32.76.895c-1.333-1.242-3.487-1.184-4.8.13l-9.703 9.702c-1.313 1.313-1.371 3.466-.13 4.8.399.428.901.748 1.454.927a2.213 2.213 0 0 1 1.42 1.42 3.378 3.378 0 0 0 3.238 2.348c.558 0 1.118-.131 1.624-.393l2.985 2.985L1.151 50.511a3.655 3.655 0 0 0 0 5.163 3.64 3.64 0 0 0 2.582 1.067c.934 0 1.87-.355 2.58-1.067L34.01 27.977l2.464 2.464zm17.672-5.721c.616.661.577 1.74-.087 2.403l-9.703 9.703c-.664.664-1.742.703-2.403.087a1.684 1.684 0 0 1-.461-.72 3.907 3.907 0 0 0-.42-.893L52.533 23.84c.276.175.575.318.892.42.277.09.52.245.721.461zm-3.714-3.714c.216.201.371.444.46.72.103.318.246.617.42.893L39.853 34.08a3.914 3.914 0 0 0-.892-.42 1.684 1.684 0 0 1-.722-.46c-.615-.662-.576-1.74.087-2.404l4.852-4.852 4.851-4.851c.349-.349.81-.525 1.267-.525.414 0 .823.145 1.137.438zM19.39 14.35c-.616-.662-.577-1.74.087-2.404l9.703-9.702c.348-.349.81-.525 1.267-.525a1.66 1.66 0 0 1 1.598 1.159c.102.317.245.615.42.891L21.003 15.232a3.913 3.913 0 0 0-.892-.42 1.682 1.682 0 0 1-.72-.461zm3.715 3.714a1.68 1.68 0 0 1-.461-.721 3.912 3.912 0 0 0-.42-.892l11.46-11.461c.277.175.576.317.893.42.277.09.52.245.72.46.617.662.578 1.74-.086 2.404l-9.703 9.703c-.664.664-1.742.703-2.403.087zm12.854-8.098l10.377 10.377-4.38 4.38-4.379 4.38L27.2 18.725l8.76-8.759zM5.094 54.453c-.75.75-1.972.751-2.722 0a1.927 1.927 0 0 1 0-2.722l27.696-27.696 2.722 2.722L5.094 54.453zM59.927 56.004a.86.86 0 0 0-.176-.525l-3.511-4.587v-2.097a.863.863 0 0 0-.863-.862h-24.16a.863.863 0 0 0-.862.862v2.097l-3.51 4.587a.86.86 0 0 0-.177.525l-.001 3.676c0 .477.386.863.862.863h31.536a.863.863 0 0 0 .863-.863l-.001-3.676zM32.08 49.658h22.433v.664H32.081v-.664zm-.437 2.39h23.307l2.368 3.093H29.277l2.367-3.093zm-3.252 6.77v-1.951h29.81v1.95h-29.81z"/>
        <path d="M42.611 20.79a.86.86 0 0 0 1.22 0 .863.863 0 0 0 0-1.22l-7.097-7.098a.863.863 0 0 0-1.22 1.22l7.097 7.098z"/>
    </g>
</svg>
