<svg xmlns="http://www.w3.org/2000/svg" width="50" height="66" viewBox="0 0 50 66">
    <g fill="#3F3F46" fill-rule="nonzero">
        <path d="M49.473 31.964l-4.438-4.116a.969.969 0 0 0-.66-.259H5.526a.97.97 0 0 0-.66.259L.429 31.964a.967.967 0 0 0-.407.789v6.928c0 .536.433.97.969.97h20.782a.969.969 0 1 0 0-1.939H1.96v-4.99h45.983v4.99H25.648a.969.969 0 1 0 0 1.938h23.263a.969.969 0 0 0 .969-.969v-6.928a.967.967 0 0 0-.407-.789zm-46-.18l2.432-2.257h38.09l2.433 2.256H3.472zM49.759 48.66a3.44 3.44 0 0 0-3.435-3.435h-24.82a3.44 3.44 0 0 0-3.435 3.435c0 .042.002.083.008.124a3.873 3.873 0 0 0-.008.237v1.163H13.18a.969.969 0 1 0 0 1.938h4.889v2.482H7.323a.969.969 0 1 0 0 1.938H18.07v2.482H13.18a.969.969 0 1 0 0 1.937h4.889v1.164c0 .08.003.158.008.236a.975.975 0 0 0-.008.125 3.44 3.44 0 0 0 3.435 3.435h24.819a3.44 3.44 0 0 0 3.436-3.435.984.984 0 0 0-.008-.124c.005-.079.008-.158.008-.237V49.02a3.9 3.9 0 0 0-.008-.237.984.984 0 0 0 .008-.124zm-10.538 6.913l8.6-5.196V60.77l-8.6-5.196zm6.742-8.41c.739 0 1.377.434 1.676 1.06l-12.68 7.66c-.644.39-1.446.39-2.091 0l-12.679-7.66c.3-.626.937-1.06 1.676-1.06h24.098zm-25.956 3.214l8.6 5.196-8.6 5.195v-10.39zm1.858 13.606a1.859 1.859 0 0 1-1.676-1.06l10.292-6.218 1.385.836a3.956 3.956 0 0 0 4.096 0l1.388-.838.048.033 10.24 6.186c-.298.626-.936 1.061-1.675 1.061H21.865zM9.057 10.5a.97.97 0 0 0-.032.245v10.457c0 .063.006.125.018.185a.962.962 0 0 0-.018.176 3.44 3.44 0 0 0 3.435 3.435H19.6a.969.969 0 1 0 0-1.938h-7.14a1.5 1.5 0 0 1-1.412-1.001l10.39-6.277 1.385.837a3.956 3.956 0 0 0 4.096 0l1.416-.856c.056.058.12.11.192.154l10.167 6.142a1.5 1.5 0 0 1-1.413 1.001H23.475a.969.969 0 1 0 0 1.938H37.28a3.44 3.44 0 0 0 3.435-3.435.96.96 0 0 0-.018-.176.972.972 0 0 0 .018-.185V8.098a3.9 3.9 0 0 0-.008-.237.958.958 0 0 0 .008-.124 3.44 3.44 0 0 0-3.435-3.435H17.033A5.572 5.572 0 0 0 11.616 0a5.57 5.57 0 0 0-5.563 5.563 5.567 5.567 0 0 0 3.004 4.938zm1.906 9.346v-8.76a5.54 5.54 0 0 0 2.366-.231.97.97 0 0 0 .17.132l6.064 3.663-8.6 5.196zm19.214-5.196l8.6-5.195v10.39l-8.6-5.195zm-13.04-8.41h19.782c.739 0 1.377.434 1.676 1.06l-12.68 7.66c-.644.39-1.446.39-2.091 0l-1.892-1.143-.007-.004-6.682-4.037a5.557 5.557 0 0 0 1.893-3.536zm-5.521-4.302a3.63 3.63 0 0 1 3.625 3.625 3.63 3.63 0 0 1-3.625 3.625A3.63 3.63 0 0 1 7.99 5.563a3.63 3.63 0 0 1 3.625-3.625z"/>
    </g>
</svg>
