<svg xmlns="http://www.w3.org/2000/svg" width="58" height="61" viewBox="0 0 58 61">
    <g fill="#3F3F46" fill-rule="nonzero">
        <path d="M44.231 11.961a2.621 2.621 0 0 0 2.619-2.618 2.621 2.621 0 0 0-2.619-2.618 2.621 2.621 0 0 0-2.618 2.618 2.621 2.621 0 0 0 2.618 2.618zm0-3.45a.833.833 0 0 1 0 1.664.833.833 0 0 1 0-1.664zM50.28 11.961a2.621 2.621 0 0 0 2.617-2.618 2.621 2.621 0 0 0-2.618-2.618 2.621 2.621 0 0 0-2.618 2.618 2.621 2.621 0 0 0 2.618 2.618zm0-3.45a.833.833 0 0 1 0 1.664.833.833 0 0 1 0-1.664zM14.031 7h-3.56c-.364 0-.756.173-.756.552v6.514c0 .38.445.553.86.553.413 0 .859-.173.859-.553V11.48h1.49c.355 0 .541-.334.541-.664 0-.34-.186-.686-.541-.686h-1.49V8.515h2.597c.32 0 .542-.316.542-.768 0-.372-.167-.747-.542-.747zM19.279 7.514c-.11-.35-.543-.575-1.103-.575-.56 0-.994.226-1.104.575l-1.909 6.261c-.01.044-.022.09-.022.127 0 .437.643.716 1.085.716.4 0 .536-.185.58-.341l.338-1.238h2.073l.337 1.239c.045.155.181.34.58.34.443 0 1.086-.279 1.086-.716a.578.578 0 0 0-.023-.13L19.28 7.514zm-1.103 1.711l.67 2.463h-1.341l.67-2.463zM25.623 7c-1.66 0-2.573.881-2.573 2.48v2.72c0 1.78 1.086 2.313 2.02 2.442v.543c0 .362.279.551.553.551s.552-.19.552-.551v-.543c.939-.13 2.03-.663 2.03-2.443V9.481c0-1.6-.917-2.48-2.582-2.48zm0 5.13c-.275 0-.552.167-.552.541v.341c-.203-.158-.302-.425-.302-.813V9.481c0-.641.287-.966.854-.966.565 0 .863.334.863.966v2.718c0 .375-.104.647-.311.811v-.339c0-.374-.278-.541-.552-.541z"/>
        <path d="M55.402 2.998H29.5a.891.891 0 0 0-.263.04c-.24-.199-.49-.388-.753-.568C26.124.854 22.784 0 18.824 0c-3.959 0-7.299.854-9.66 2.47-.247.169-.483.347-.708.532a.883.883 0 0 0-.078-.004H2.635A2.557 2.557 0 0 0 .08 5.552v52.79a2.557 2.557 0 0 0 2.554 2.553h52.767a2.557 2.557 0 0 0 2.554-2.553V5.552a2.556 2.556 0 0 0-2.554-2.554zM18.824 1.786c3.598 0 6.59.747 8.651 2.158 2.259 1.546 3.404 3.88 3.404 6.94v3.842c0 1.207-.982 2.19-2.189 2.19h-6.168a.893.893 0 0 0-.73.38l-2.624 3.738a.92.92 0 0 0-.042.067.336.336 0 0 1-.301.174.336.336 0 0 1-.302-.174.92.92 0 0 0-.042-.067l-2.623-3.738a.893.893 0 0 0-.731-.38H8.959a2.192 2.192 0 0 1-2.19-2.19v-3.842c0-3.06 1.146-5.394 3.404-6.94 2.063-1.411 5.054-2.158 8.651-2.158zM2.634 4.785h4.153c-1.188 1.667-1.804 3.729-1.804 6.099V13.9H1.867V5.552c0-.423.345-.767.768-.767zm52.768 54.324H2.635a.768.768 0 0 1-.768-.767V15.687h3.234a3.982 3.982 0 0 0 3.858 3.015h5.703l2.337 3.33a2.112 2.112 0 0 0 1.826 1.029c.756 0 1.435-.384 1.825-1.029l2.337-3.33h5.703a3.982 3.982 0 0 0 3.858-3.015h8.164a.893.893 0 0 0 0-1.786h-8.046v-3.017c0-2.37-.616-4.432-1.804-6.1h24.54c.423 0 .768.345.768.768v8.349H44.285a.893.893 0 0 0 0 1.786H56.17v42.654a.768.768 0 0 1-.768.768z"/>
        <path d="M38.184 6.725a2.621 2.621 0 0 0-2.619 2.618 2.621 2.621 0 0 0 2.619 2.618 2.621 2.621 0 0 0 2.618-2.618 2.621 2.621 0 0 0-2.618-2.618zm0 3.45a.833.833 0 0 1 0-1.664.833.833 0 0 1 0 1.664zM49.9 25.349H37.7a2.822 2.822 0 0 0-2.818 2.819v.86a2.822 2.822 0 0 0 2.819 2.818h12.2a2.822 2.822 0 0 0 2.818-2.818v-.86a2.822 2.822 0 0 0-2.819-2.819zm1.032 3.679c0 .569-.462 1.032-1.032 1.032H37.7a1.033 1.033 0 0 1-1.031-1.032v-.86c0-.57.463-1.033 1.032-1.033h12.2c.569 0 1.032.463 1.032 1.032v.86zM49.9 35.323H37.7a2.822 2.822 0 0 0-2.818 2.819v.86a2.822 2.822 0 0 0 2.819 2.819h12.2a2.822 2.822 0 0 0 2.818-2.819v-.86a2.822 2.822 0 0 0-2.819-2.819zm1.032 3.68c0 .568-.462 1.031-1.032 1.031H37.7a1.033 1.033 0 0 1-1.031-1.032v-.86c0-.57.463-1.032 1.032-1.032h12.2c.569 0 1.032.463 1.032 1.032v.86zM49.9 45.298H37.7a2.822 2.822 0 0 0-2.818 2.818v.86a2.822 2.822 0 0 0 2.819 2.82h12.2a2.822 2.822 0 0 0 2.818-2.82v-.86a2.822 2.822 0 0 0-2.819-2.818zm1.032 3.679c0 .569-.462 1.032-1.032 1.032H37.7a1.033 1.033 0 0 1-1.031-1.032v-.86c0-.57.463-1.033 1.032-1.033h12.2c.569 0 1.032.463 1.032 1.032v.86zM28.77 25.349h-12.2a2.822 2.822 0 0 0-2.818 2.819v.86a2.822 2.822 0 0 0 2.819 2.818h12.2a2.822 2.822 0 0 0 2.818-2.818v-.86a2.822 2.822 0 0 0-2.819-2.819zm1.032 3.679c0 .569-.463 1.032-1.032 1.032h-12.2a1.033 1.033 0 0 1-1.031-1.032v-.86c0-.57.463-1.033 1.032-1.033h12.2c.568 0 1.031.463 1.031 1.032v.86zM28.77 35.323h-12.2a2.822 2.822 0 0 0-2.818 2.819v.86a2.822 2.822 0 0 0 2.819 2.819h12.2a2.822 2.822 0 0 0 2.818-2.819v-.86a2.822 2.822 0 0 0-2.819-2.819zm1.032 3.68c0 .568-.463 1.031-1.032 1.031h-12.2a1.033 1.033 0 0 1-1.031-1.032v-.86c0-.57.463-1.032 1.032-1.032h12.2c.568 0 1.031.463 1.031 1.032v.86zM28.77 45.298h-12.2a2.822 2.822 0 0 0-2.818 2.818v.86a2.822 2.822 0 0 0 2.819 2.82h.91a.893.893 0 0 0 0-1.787h-.91a1.033 1.033 0 0 1-1.032-1.032v-.86c0-.57.463-1.033 1.032-1.033h12.2c.568 0 1.031.463 1.031 1.032v.86c0 .57-.463 1.033-1.032 1.033h-7.717a.893.893 0 0 0 0 1.786h7.717a2.822 2.822 0 0 0 2.819-2.818v-.86a2.822 2.822 0 0 0-2.819-2.82zM8.956 27.704H8.42v-.534a.893.893 0 0 0-1.786 0v.534H6.1a.893.893 0 0 0 0 1.787h.534v.534a.893.893 0 0 0 1.786 0v-.534h.535a.893.893 0 0 0 0-1.787zM8.956 37.679H8.42v-.534a.893.893 0 0 0-1.786 0v.534H6.1a.893.893 0 0 0 0 1.786h.534V40a.893.893 0 0 0 1.786 0v-.535h.535a.893.893 0 0 0 0-1.786zM8.956 47.653H8.42v-.534a.893.893 0 0 0-1.786 0v.534H6.1a.893.893 0 0 0 0 1.787h.534v.534a.893.893 0 0 0 1.786 0v-.534h.535a.893.893 0 0 0 0-1.787z"/>
    </g>
</svg>
