<svg xmlns="http://www.w3.org/2000/svg" xmlns:xlink="http://www.w3.org/1999/xlink" width="12" height="15" viewBox="0 0 12 15">
    <defs>
        <path id="a" d="M0 0h11.966v14.215H0z"/>
    </defs>
    <g fill="none" fill-rule="evenodd">
        <mask id="b" fill="#fff">
            <use xlink:href="#a"/>
        </mask>
        <path fill="#393939" d="M11.966 9.291c0-.05-.007-.1-.018-.147a.602.602 0 0 0-.164-.301L7.652 4.711a.61.61 0 0 0-.859 0l-.107.107a.61.61 0 0 0 0 .86l3.006 3.006H1.367V.608A.61.61 0 0 0 .76 0H.608A.61.61 0 0 0 0 .608v8.835a.61.61 0 0 0 .608.608H9.706l-3.02 3.02a.61.61 0 0 0 0 .86l.107.107a.61.61 0 0 0 .86 0l4.131-4.133a.604.604 0 0 0 .175-.372.613.613 0 0 0 .007-.09v-.152z" mask="url(#b)"/>
    </g>
</svg>
