<svg xmlns="http://www.w3.org/2000/svg" xmlns:xlink="http://www.w3.org/1999/xlink" width="155" height="38" viewBox="0 0 155 38">
    <defs>
        <path id="a" d="M.935.167h22.353v30.488H.935z"/>
        <path id="c" d="M0 38h154.204V.167H0z"/>
    </defs>
    <g fill="none" fill-rule="evenodd">
        <path fill="#030100" d="M1.167 28.77h27.596V1.174H1.167z"/>
        <path fill="#F9A51A" d="M0 29.936h29.93V.008H0v29.928zM22.316 6.769V2.386h4.866v9.243H2.749V2.386h4.869v4.383h14.698zM2.749 19.224h24.433v-4.863H2.749v4.863zm0 7.596h24.433v-4.865H2.749v4.865z"/>
        <g transform="translate(0 -.167)">
            <g transform="translate(38)">
                <mask id="b" fill="#fff">
                    <use xlink:href="#a"/>
                </mask>
                <path fill="#030100" d="M17.865 19.283c0-1.786-.525-3.268-1.58-4.45-1.082-1.24-2.506-1.864-4.274-1.864-1.778 0-3.225.61-4.33 1.824-1.063 1.168-1.59 2.664-1.59 4.469 0 1.824.524 3.334 1.567 4.535 1.106 1.248 2.561 1.879 4.353 1.879 1.745 0 3.167-.637 4.273-1.92 1.056-1.207 1.581-2.703 1.581-4.473m5.423.066c0 3.026-.948 5.642-2.842 7.85-1.979 2.308-4.466 3.456-7.447 3.456-2.449 0-4.67-.946-6.665-2.838v2.287H.935V.167h5.4V10.89c1.96-1.961 4.23-2.94 6.815-2.94 3.044 0 5.524 1.16 7.437 3.468 1.798 2.175 2.701 4.819 2.701 7.93" mask="url(#b)"/>
            </g>
            <path fill="#030100" d="M82.814 17.658c0 3.765-.301 6.348-.898 7.736-1.51 3.516-4.382 5.26-8.617 5.26-4.616 0-7.56-2.012-8.831-6.006-.42-1.342-.633-3.722-.633-7.152V8.507h5.497V18.9c0 1.536.058 2.637.177 3.288.238 1.275.767 2.187 1.579 2.75.606.437 1.356.664 2.255.664 1.828 0 3.053-.85 3.675-2.54.225-.626.33-1.948.33-3.995V8.507h5.466v9.151zM103.359 19.283c0-1.786-.527-3.268-1.584-4.45-1.08-1.24-2.51-1.864-4.274-1.864-1.785 0-3.22.61-4.331 1.824-1.056 1.168-1.58 2.664-1.58 4.469 0 1.824.517 3.334 1.56 4.535 1.11 1.248 2.559 1.879 4.35 1.879 1.746 0 3.168-.637 4.275-1.92 1.057-1.207 1.584-2.703 1.584-4.473m5.42.066c0 3.026-.945 5.642-2.838 7.85-1.982 2.308-4.468 3.456-7.454 3.456-2.444 0-4.661-.946-6.661-2.838V38H86.43V8.508h5.395v2.382c1.958-1.961 4.232-2.94 6.824-2.94 3.034 0 5.514 1.16 7.435 3.468 1.79 2.175 2.695 4.819 2.695 7.93M121.34 13.19h-3.198v16.913h-5.417V13.19h-2.779V8.507h2.78V.542h5.416v7.965h3.197z"/>
            <mask id="d" fill="#fff">
                <use xlink:href="#c"/>
            </mask>
            <path fill="#030100" d="M123.42 30.104h5.441V.167h-5.441zM148.72 16.584a5.263 5.263 0 0 0-2.156-2.951c-1.068-.717-2.264-1.073-3.6-1.073-1.507 0-2.825.415-3.952 1.253-.712.522-1.374 1.45-1.98 2.771h11.688zm5.481 3.253l-.019 1.037h-17.387c.264 1.575.953 2.808 2.06 3.68 1.11.888 2.484 1.323 4.123 1.323 2.02 0 3.763-.704 5.217-2.1l4.558 2.133c-2.224 3.16-5.476 4.744-9.749 4.744-3.32 0-6.066-1.038-8.222-3.127-2.17-2.1-3.248-4.797-3.248-8.104 0-3.267 1.047-5.997 3.144-8.193 2.1-2.187 4.773-3.28 8.03-3.28 3.4 0 6.167 1.08 8.295 3.253 2.2 2.256 3.264 5.127 3.198 8.634z" mask="url(#d)"/>
        </g>
    </g>
</svg>
