<svg xmlns="http://www.w3.org/2000/svg" width="84" height="30" viewBox="0 0 84 30">
    <g fill="#6F6F7A" fill-rule="evenodd" opacity=".5">
        <path d="M13.492 23.02l-1.456 6.887h1.448l1.455-6.887zM23.114 23.02l-2.621 4.394-.747-4.394h-2.012l-1.458 6.887h1.392l1.048-4.951.762 4.951h1.012l2.828-4.902-1.037 4.902h1.392l1.456-6.887h-2.015zM30.823 25.059c-.161.768-.884.832-1.61.832h-.549l.338-1.598h.733c.535 0 .867.089 1.015.271.063.08.095.178.095.3 0 .06-.007.124-.022.195m1.258-1.382c-.353-.436-1.001-.657-1.924-.657H27.82l-1.455 6.887h1.45l.578-2.743h.734c1.283 0 2.805-.235 3.192-2.068a2.48 2.48 0 0 0 .057-.51c0-.36-.098-.666-.296-.909M37.854 29.907l.28-1.335h-3.123l1.174-5.552h-1.448l-1.454 6.887h4.571zM42.1 27.113l1.306-2.184.365 2.184h-1.67zm2.322-4.093h-1.197l-4.452 6.887h1.633l.92-1.52h2.689l.295 1.52h1.623l-1.51-6.887zM53.66 23.02l-.984 4.648-2.05-4.648h-1.755l-1.456 6.887h1.45L49.88 25.1l2.082 4.807h1.69l1.457-6.887h-1.45zM56.715 23.02l-.282 1.33h2.03l-1.175 5.557h1.448l1.175-5.557h2.029l.282-1.33h-5.507zM10.333 12.047c-.147 1.084-.873 4.61-4.036 4.49-.727-.03-1.28-.28-1.643-.742-.387-.493-.584-1.225-.584-2.178 0-.696.108-1.377.199-1.826.502-2.482 2.025-4.15 3.789-4.15.77 0 1.356.225 1.743.67.607.694.78 1.916.532 3.736m25.202-6.363c-.147-.104-1.502-1.02-3.997-1.02-1.367 0-4.62.365-5.308 3.76-.307 1.514.408 2.865 2.066 3.905.92.576 2.63 1.647 2.316 2.843-.276 1.054-1.692 1.246-2.511 1.266-1.298.032-2.993-.736-3.162-1.664l.023-.17.034-.69c0-1.615-.991-3.117-2.792-4.234-1.954-1.212-2.489-1.754-2.489-2.52l.022-.302c.13-.94 1.043-1.579 2.274-1.59 1.852-.015 3.257 1.086 3.27 1.097l.18.146.084-.215 1.058-2.79-.1-.075c-.07-.053-1.759-1.29-4.664-1.29-2.643 0-5.862 1.281-6.235 4.889-.167 1.617.607 3.086 2.183 4.137l.132.088c1.142.76 3.05 2.03 2.57 3.466-.331.991-1.305 1.537-2.741 1.537-1.434 0-3.071-.833-3.642-2.088l.008-.025c.112-.33.3-.883.428-2.12l.072-1.072c0-1.544-.482-2.94-1.395-4.037-1.155-1.385-2.935-2.193-4.884-2.217C4.093 4.68 1.134 7.137.216 11.44c-.493 2.307-.139 4.304 1.025 5.777 1.177 1.492 2.745 2.222 4.795 2.233 1.118.012 3.885-.181 6.086-2.141l-.007.012a7.904 7.904 0 0 0 5.408 2.474c1.763.08 4.016-.28 5.95-2.06.462.403 1.95 1.708 4.706 1.792 3.5.107 6.023-1.536 6.383-4.154.27-1.966-.657-3.567-2.756-4.759-1.716-.974-1.927-1.32-1.762-2.002.207-.86 1.518-.975 1.915-.99 1.473-.054 2.537.783 2.653.878l.323.246.741-2.939c-.01-.029-.141-.123-.141-.123M47.78 8.343l.53-2.76H36.844l-.521 2.76h3.682l-2.232 10.736h4.146s2.23-10.692 2.238-10.736h3.623zM62.62 11.638c.057.234 1.805 6.568 1.805 6.568l1.161-.01 4.07-6.612-1.503 7.495h3.698l2.703-13.658-3.804.17-4.517 7.159-1.986-7.159h-3.396L58.105 19.08h3.012l1.503-7.441zM51.834 13.537h5.01l.535-2.712h-4.994c.012-.061.53-2.44.539-2.482h5.443l.574-2.76h-9.358L46.8 19.076h9.374l.538-2.747h-5.445l.567-2.792zM83.787 3.426c-.12-.433-.483-.964-.828-1.295-.854-.817-2.235-.993-3.362-.228-.367.25-.652.621-.71.796-.042.128.028.156.085.106.106-.095.194-.192.314-.28.727-.522 1.826-.338 2.366.467.537.802.335 1.857-.506 2.336-.962.55-2.308.23-2.834-.982a2.683 2.683 0 0 1 .77-3.085c.713-.6 1.581-.762 2.386-.648.355.05.782.213.972.326.24.145.262-.13-.36-.438-1.184-.586-2.804-.502-4.005.303a3.808 3.808 0 1 0 4.244 6.324c1.332-.894 1.895-2.177 1.468-3.702"/>
    </g>
</svg>
