<svg xmlns="http://www.w3.org/2000/svg" xmlns:xlink="http://www.w3.org/1999/xlink" width="280" height="155" viewBox="0 0 280 155">
    <defs>
        <path id="a" d="M0 .001H279.71v136.11H0z"/>
        <path id="c" d="M.33 1.35h6.396v6.395H.33z"/>
        <path id="e" d="M.33 1.35h6.395v6.395H.329z"/>
        <path id="g" d="M0 155.62h279.709V1.413H0z"/>
    </defs>
    <g fill="none" fill-rule="evenodd" transform="translate(0 -1)">
        <g transform="translate(0 18.447)">
            <mask id="b" fill="#fff">
                <use xlink:href="#a"/>
            </mask>
            <path fill="#F4F4F4" d="M141.228.001h-103a8.39 8.39 0 0 0-8.39 8.39 8.39 8.39 0 0 0 8.39 8.392h28.29a4.82 4.82 0 0 0 4.819 4.818h11.048c4.2 0 7.606 3.405 7.606 7.607a7.606 7.606 0 0 1-7.606 7.606H8.707a8.708 8.708 0 0 0-.015 17.415l48.758.054a7.524 7.524 0 0 1-.008 15.048H31.246c-5.579 0-10.101 4.523-10.101 10.101 0 5.578 4.522 10.1 10.101 10.1h8.233c6.709 0 12.148 5.439 12.148 12.146v34.433h172.029V83.283l45.488.001a7.404 7.404 0 0 0 7.405-7.404v-.19c0-4.253-3.41-7.671-7.624-7.671h-38.381a6.889 6.889 0 0 1-6.888-6.894 6.896 6.896 0 0 1 6.913-6.894l5.631.014c9.77.026 17.706-7.888 17.706-17.66v-2.889h-48.081a8.299 8.299 0 1 1 0-16.598h65.333a8.549 8.549 0 1 0 0-17.097H141.228z" mask="url(#b)"/>
        </g>
        <path fill="#FFF" d="M117.229 129.357l-30.376-9.575a1.505 1.505 0 0 1-.983-1.887l9.575-30.375a1.503 1.503 0 0 1 1.887-.983l30.376 9.573a1.505 1.505 0 0 1 .982 1.888l-9.573 30.376a1.505 1.505 0 0 1-1.888.983"/>
        <path fill="#FCC16B" d="M116.014 122.423l-24.84-7.83 7.373-23.39 24.84 7.83z"/>
        <path fill="#999" d="M123.265 118.738l-2.023-.638 6.249-19.824a1.071 1.071 0 0 0-.697-1.342l-29.185-9.2a1.069 1.069 0 0 0-1.34.7l-2.932 9.301-2.024-.637 2.933-9.301a3.168 3.168 0 0 1 1.568-1.871 3.156 3.156 0 0 1 2.434-.214l29.184 9.2a3.195 3.195 0 0 1 2.083 4.001l-6.25 19.825z"/>
        <path fill="#FFF" d="M82.77 114.114l-32.468 7.304a2.202 2.202 0 0 1-2.63-1.665l-4.85-21.557a2.2 2.2 0 0 1 1.664-2.63l32.467-7.304a2.2 2.2 0 0 1 2.63 1.664l4.851 21.557a2.201 2.201 0 0 1-1.664 2.63"/>
        <path fill="#F4F4F4" d="M79.1 87.779l-14.826 16.348a1.365 1.365 0 0 1-1.533.346l-20.402-8.425 36.762-8.27z"/>
        <path fill="#999" d="M63.258 105.635c-.31 0-.623-.059-.922-.182L42.325 97.19l.81-1.96 20.01 8.262a.31.31 0 0 0 .342-.075l14.357-15.832 1.57 1.426-14.355 15.83a2.43 2.43 0 0 1-1.8.794"/>
        <path fill="#999" d="M46.403 118.944l-4.74-21.066a2.701 2.701 0 0 1 2.039-3.223l3.444-.775.466 2.069-3.445.775a.577.577 0 0 0-.434.685l4.74 21.068-2.07.467zM80.234 97.652l-1.81-8.045a.583.583 0 0 0-.686-.436l-21.164 4.762-.466-2.07 21.165-4.76a2.702 2.702 0 0 1 3.221 2.037l1.81 8.045-2.07.467zM50.51 95.297l-.465-2.069 3.956-.89.465 2.07z"/>
        <path fill="#FFF" d="M119.738 122.188h-.333c-1.474-5.075-6.15-8.787-11.698-8.787a12.12 12.12 0 0 0-6.573 1.935c-1.232-7.997-8.122-14.126-16.462-14.126-7.487 0-13.82 4.934-15.93 11.726a11.471 11.471 0 0 0-2.976-.403c-5.713 0-10.436 4.186-11.302 9.655H52.6c-4.703 0-8.553 3.85-8.553 8.553v.63c0 4.704 3.85 8.554 8.553 8.554h67.14c4.703 0 8.552-3.85 8.552-8.553v-.63c0-4.704-3.85-8.554-8.553-8.554"/>
        <path fill="#999" d="M129.352 131.372h-2.122v-.63c0-4.132-3.36-7.493-7.492-7.493h-1.131l-.222-.765c-1.372-4.723-5.761-8.023-10.678-8.023-2.126 0-4.2.611-6 1.767l-1.372.882-.25-1.614c-1.18-7.663-7.662-13.225-15.413-13.225-6.883 0-12.877 4.413-14.917 10.98l-.302.976-.986-.266c-6.192-1.665-12.013 2.443-12.955 8.393l-.141.895h-2.772c-4.13 0-7.492 3.361-7.492 7.493v.63h-2.121v-.63c0-5.301 4.313-9.614 9.613-9.614h.993a12.44 12.44 0 0 1 14.455-9.438c2.577-6.942 9.138-11.54 16.625-11.54 8.298 0 15.315 5.612 17.22 13.542a13.17 13.17 0 0 1 5.815-1.352c5.588 0 10.606 3.58 12.471 8.797 5.098.231 9.174 4.45 9.174 9.605v.63z"/>
        <path fill="#999" d="M94.644 114.56a12.79 12.79 0 0 0-10.758-5.851c-2.308 0-4.57.62-6.54 1.787l-1.084-1.822a14.942 14.942 0 0 1 7.624-2.086c5.078 0 9.766 2.55 12.537 6.819l-1.779 1.154zM72.977 118.42h-2.121a4.882 4.882 0 0 0-4.876-4.877v-2.121a7.005 7.005 0 0 1 6.997 6.997"/>
        <path fill="#FFF" d="M85.001 80.079c.218 1.26-1.084 2.536-2.909 2.85-1.824.316-3.478-.449-3.696-1.707-.218-1.259 1.085-2.537 2.909-2.851 1.823-.316 3.479.45 3.696 1.708M94.365 80.079c.218 1.26-1.085 2.536-2.91 2.85-1.823.316-3.48-.449-3.697-1.707-.216-1.259 1.085-2.537 2.91-2.851 1.824-.316 3.479.45 3.697 1.708"/>
        <path fill="#999" d="M82.121 79.36c-.203 0-.415.017-.636.056-.662.114-1.267.398-1.659.783-.135.133-.447.485-.386.841.102.585 1.18 1.072 2.472.845.662-.115 1.267-.4 1.658-.784.137-.133.448-.483.387-.841-.085-.484-.841-.9-1.836-.9m-.857 4.703c-2.002 0-3.635-1.06-3.914-2.66-.164-.95.198-1.94.991-2.718.702-.69 1.69-1.171 2.783-1.36 2.44-.418 4.6.71 4.922 2.573.165.949-.197 1.94-.99 2.718-.702.689-1.692 1.17-2.783 1.36-.344.06-.682.087-1.009.087M91.485 79.36a3.74 3.74 0 0 0-.637.056c-1.292.222-2.146 1.042-2.044 1.626.1.583 1.177 1.07 2.47.843.664-.115 1.268-.4 1.66-.784.137-.133.448-.483.385-.841-.083-.484-.84-.9-1.834-.9m-.86 4.703c-2 0-3.634-1.06-3.912-2.66-.321-1.867 1.336-3.657 3.774-4.077 2.438-.422 4.6.71 4.923 2.572.164.949-.197 1.94-.992 2.718-.701.689-1.69 1.17-2.783 1.36-.343.06-.681.087-1.01.087"/>
        <path fill="#999" d="M95.449 80.353h-2.121V69.6h-7.242v10.753h-2.121V67.48h11.484z"/>
        <path fill="#FFF" d="M233.767 154.512l-.23-40.93c0-3.094-2.82-5.603-6.3-5.603h-58.606l.23 46.58 64.906-.047z"/>
        <path fill="#999" d="M232.706 152.62l-.23-38.335a5.245 5.245 0 0 0-5.238-5.244h-46.52v-2.12h46.52c4.057 0 7.359 3.3 7.359 7.357l.23 38.328-2.12.014z"/>
        <path fill="#F4F4F4" d="M233.767 106.256c0-2.499-2.247-4.525-5.02-4.525h-1.52v52.828h6.54v-48.303"/>
        <path fill="#999" d="M234.827 154.559h-2.12v-47.81a3.962 3.962 0 0 0-3.959-3.958h-.46v51.768h-2.12v-53.89h2.58a6.086 6.086 0 0 1 6.08 6.08v47.81z"/>
        <path fill="#F4F4F4" d="M211.114 121.141c4.535 4.536 4.535 11.888 0 16.423-4.535 4.534-11.887 4.534-16.422 0-4.535-4.535-4.535-11.887 0-16.423 4.535-4.535 11.887-4.535 16.422 0"/>
        <path fill="#999" d="M195.397 124.53l-.392-2.086c.997-.186 2.03-.257 3.05-.198l-.124 2.119a10.32 10.32 0 0 0-2.534.165zm7.364 1.304a10.464 10.464 0 0 0-2.322-1.028l.616-2.03c.98.299 1.92.715 2.794 1.238l-1.088 1.82zm-11.953.79l-1.318-1.663a12.64 12.64 0 0 1 2.605-1.593l.878 1.93c-.768.35-1.496.795-2.165 1.325zm15.58 2.815a10.566 10.566 0 0 0-1.57-2l.696-.803.765-.734-.765.734.776-.723c.753.751 1.388 1.559 1.912 2.425l-1.814 1.1zm-18.677 1.17l-1.937-.862a12.59 12.59 0 0 1 1.571-2.62l1.673 1.305a10.53 10.53 0 0 0-1.307 2.178zm20.177 3.646c-.052-.85-.206-1.69-.458-2.501l2.025-.63c.303.975.488 1.983.55 3.001l-2.117.13zm-23.179 1.458a12.805 12.805 0 0 1 .171-3.047l2.089.373a10.621 10.621 0 0 0-.143 2.538l-2.117.136zm24.212 4.374l-1.935-.867c.347-.773.6-1.59.752-2.428l2.086.38a12.61 12.61 0 0 1-.903 2.915zm-22.39 1.406a12.591 12.591 0 0 1-1.262-2.78l2.024-.638c.256.813.61 1.59 1.05 2.313l-1.811 1.105zm18.66 3.37l-1.315-1.666c.327-.256.64-.538.942-.839.31-.307.594-.63.856-.963l1.671 1.307a13.131 13.131 0 0 1-2.155 2.16zm-14.362.903a12.703 12.703 0 0 1-2.406-1.878l1.496-1.503a10.589 10.589 0 0 0 2.004 1.564l-1.094 1.817zm8.839 1.595l-.386-2.085c.836-.155 1.652-.41 2.425-.76l.874 1.933c-.93.42-1.91.727-2.913.912zm-3.046.19a12.765 12.765 0 0 1-3.004-.542l.624-2.026c.813.25 1.654.401 2.503.45l-.123 2.118z"/>
        <path fill="#F9F8D2" d="M244.587 39.256h-.395c-1.738-5.989-7.256-10.371-13.805-10.371-2.86 0-5.516.844-7.756 2.282-1.453-9.435-9.586-16.668-19.428-16.668-8.835 0-16.31 5.822-18.8 13.838a13.446 13.446 0 0 0-3.51-.478c-6.743 0-12.318 4.941-13.339 11.397h-2.202c-5.55 0-10.093 4.542-10.093 10.093v.744c0 5.551 4.543 10.094 10.093 10.094h79.235c5.551 0 10.092-4.543 10.092-10.094v-.744c0-5.55-4.54-10.093-10.092-10.093"/>
        <path fill="#FFF" d="M235.303 41.735h-.348c-1.533-5.28-6.396-9.142-12.17-9.142-2.52 0-4.863.744-6.837 2.012-1.282-8.318-8.45-14.694-17.127-14.694-7.788 0-14.378 5.132-16.572 12.198a11.893 11.893 0 0 0-3.096-.42c-5.944 0-10.858 4.356-11.759 10.046h-1.94c-4.894 0-8.898 4.004-8.898 8.898v.656c0 4.893 4.004 8.898 8.898 8.898h69.849c4.894 0 8.898-4.005 8.898-8.898v-.656c0-4.894-4.004-8.898-8.898-8.898"/>
        <path fill="#999" d="M215.132 30.15a15.28 15.28 0 0 0-12.859-6.993 15.33 15.33 0 0 0-7.816 2.137l-1.08-1.826a17.447 17.447 0 0 1 8.896-2.432c5.931 0 11.403 2.975 14.638 7.96l-1.779 1.154zM201.79 61.247h-36.438c-6.15 0-11.154-5.003-11.154-11.154v-.743c0-6.151 5.004-11.155 11.154-11.155v2.122c-4.98 0-9.033 4.051-9.033 9.033v.743c0 4.982 4.053 9.033 9.033 9.033h36.438v2.121z"/>
        <path fill="#999" d="M244.586 61.247h-12.082v-2.12h12.082c4.98 0 9.034-4.052 9.034-9.034v-.743c0-4.982-4.053-9.033-9.034-9.033h-1.19l-.223-.765c-1.641-5.657-6.9-9.607-12.786-9.607-2.546 0-5.03.731-7.183 2.114l-1.373.883-.249-1.612c-1.407-9.138-9.136-15.77-18.38-15.77a18.59 18.59 0 0 0-14.244 6.627 18.61 18.61 0 0 0-3.54 6.464l-.305.976-.986-.266c-4.368-1.178-8.716.044-11.806 2.987l-1.462-1.536c3.388-3.23 8.084-4.692 12.848-3.728a20.704 20.704 0 0 1 3.63-6.264 20.71 20.71 0 0 1 15.866-7.382c9.784 0 18.047 6.67 20.19 16.07a15.346 15.346 0 0 1 6.994-1.684c6.559 0 12.443 4.228 14.581 10.378 5.975.203 10.773 5.125 10.773 11.148v.743c0 6.151-5.005 11.154-11.155 11.154"/>
        <path fill="#999" d="M189.21 34.807h-2.12a5.952 5.952 0 0 0-5.947-5.945V26.74c4.448 0 8.067 3.618 8.067 8.067M272.68 53.804h-6.046c-.584 0-1.06-.475-1.06-1.06 0-.586.476-1.062 1.06-1.062h6.046a1.061 1.061 0 0 1 0 2.122"/>
        <path fill="#999" d="M269.658 56.827c-.586 0-1.061-.475-1.061-1.06v-6.045a1.061 1.061 0 0 1 2.121 0v6.044c0 .586-.475 1.06-1.06 1.06M71.827 47.31h-6.044a1.061 1.061 0 0 1 0-2.121h6.044a1.061 1.061 0 0 1 0 2.121"/>
        <path fill="#999" d="M68.805 50.332c-.585 0-1.06-.475-1.06-1.06v-6.045a1.061 1.061 0 0 1 2.12 0v6.044c0 .586-.474 1.061-1.06 1.061"/>
        <g transform="translate(209.293 .064)">
            <mask id="d" fill="#fff">
                <use xlink:href="#c"/>
            </mask>
            <path fill="#999" d="M1.39 7.745a1.06 1.06 0 0 1-.75-1.81L4.915 1.66a1.06 1.06 0 1 1 1.5 1.5L2.14 7.433a1.052 1.052 0 0 1-.75.312" mask="url(#d)"/>
        </g>
        <g transform="translate(209.293 .064)">
            <mask id="f" fill="#fff">
                <use xlink:href="#e"/>
            </mask>
            <path fill="#999" d="M5.665 7.745c-.272 0-.543-.104-.75-.312L.64 3.161a1.06 1.06 0 1 1 1.5-1.5l4.274 4.273a1.06 1.06 0 0 1-.75 1.81" mask="url(#f)"/>
        </g>
        <path fill="#999" d="M40.632 81.497a1.06 1.06 0 0 1-.75-1.81l4.274-4.275a1.06 1.06 0 1 1 1.5 1.5l-4.275 4.274a1.052 1.052 0 0 1-.75.31"/>
        <path fill="#999" d="M44.906 81.497c-.272 0-.543-.103-.75-.311l-4.275-4.274a1.06 1.06 0 1 1 1.5-1.5l4.274 4.275a1.06 1.06 0 0 1-.75 1.81"/>
        <mask id="h" fill="#fff">
            <use xlink:href="#g"/>
        </mask>
        <path fill="#999" d="M109.302 13.465h45.24v-2.12h-45.24zM134.037 5.688h71.725V3.566h-71.725zM158.077 13.465h7.826v-2.12h-7.826zM240.411 76.652h24.6v-2.121h-24.6zM267.133 76.652h5.048v-2.121h-5.048zM28.161 47.31h24.6V45.19h-24.6zM54.881 47.31h5.05V45.19h-5.05zM71.07 14.499a1.518 1.518 0 1 1-3.036 0 1.518 1.518 0 0 1 3.036 0M109.185 60.033a1.905 1.905 0 1 1-3.81 0 1.905 1.905 0 0 1 3.81 0M258.201 18.449a1.905 1.905 0 1 1-3.81 0 1.905 1.905 0 0 1 3.81 0" mask="url(#h)"/>
        <path fill="#F4F4F4" d="M172.875 154.559h-50.4a6.95 6.95 0 0 1-6.95-6.95V42.498a6.95 6.95 0 0 1 6.95-6.95h50.4a6.95 6.95 0 0 1 6.95 6.95v105.11a6.951 6.951 0 0 1-6.95 6.95" mask="url(#h)"/>
        <path fill="#999" d="M180.886 44.835h-2.122v-3.822a4.409 4.409 0 0 0-4.403-4.404H131.18v-2.12h43.18a6.533 6.533 0 0 1 6.526 6.524v3.822zM125.132 36.61h4.075v-2.122h-4.075zM174.36 155.62h-53.372a6.533 6.533 0 0 1-6.525-6.526V41.013a6.533 6.533 0 0 1 6.525-6.525h1.551v2.121h-1.551a4.409 4.409 0 0 0-4.404 4.404v108.081a4.41 4.41 0 0 0 4.404 4.404h53.372a4.41 4.41 0 0 0 4.404-4.404v-51.28h2.121v51.28a6.533 6.533 0 0 1-6.525 6.525M138.193 44.482h18.962V42.36h-18.962z" mask="url(#h)"/>
        <path fill="#999" d="M147.674 144.064a3.08 3.08 0 0 0-3.077 3.078 3.08 3.08 0 0 0 3.077 3.077 3.08 3.08 0 0 0 3.077-3.077 3.08 3.08 0 0 0-3.077-3.078m0 8.276a5.204 5.204 0 0 1-5.198-5.198 5.204 5.204 0 0 1 5.198-5.199 5.204 5.204 0 0 1 5.198 5.199 5.204 5.204 0 0 1-5.198 5.198" mask="url(#h)"/>
        <path fill="#FFF" d="M118.938 140.673h56.671V47.297h-56.671z" mask="url(#h)"/>
        <path fill="#F7F7F2" d="M135.045 134.56h-9.727a.55.55 0 0 1-.55-.55v-9.727a.55.55 0 0 1 .55-.55h9.727a.55.55 0 0 1 .55.55v9.726a.55.55 0 0 1-.55.55M167.964 134.56h-9.726a.55.55 0 0 1-.55-.55v-9.727a.55.55 0 0 1 .55-.55h9.726a.55.55 0 0 1 .55.55v9.726a.55.55 0 0 1-.55.55" mask="url(#h)"/>
        <path fill="#FCC16B" d="M135.371 118.613h-9.728a.55.55 0 0 1-.548-.55v-9.726a.55.55 0 0 1 .548-.55h9.728a.55.55 0 0 1 .55.55v9.726a.55.55 0 0 1-.55.55" mask="url(#h)"/>
        <path fill="#F7F7F2" d="M151.831 118.613h-9.726a.55.55 0 0 1-.55-.55v-9.726a.55.55 0 0 1 .55-.55h9.726a.55.55 0 0 1 .55.55v9.726a.55.55 0 0 1-.55.55" mask="url(#h)"/>
        <path fill="#FCC16B" d="M168.29 118.613h-9.727a.55.55 0 0 1-.549-.55v-9.726a.55.55 0 0 1 .549-.55h9.728a.55.55 0 0 1 .55.55v9.726a.55.55 0 0 1-.55.55" mask="url(#h)"/>
        <path fill="#F7F7F2" d="M152.158 102.667h-9.728a.55.55 0 0 1-.55-.55V92.39a.55.55 0 0 1 .55-.55h9.728a.55.55 0 0 1 .55.55v9.727a.55.55 0 0 1-.55.55" mask="url(#h)"/>
        <path fill="#FCC16B" d="M135.371 86.763h-9.728a.55.55 0 0 1-.548-.55v-9.726a.55.55 0 0 1 .548-.55h9.728a.55.55 0 0 1 .55.55v9.726a.55.55 0 0 1-.55.55" mask="url(#h)"/>
        <path fill="#F7F7F2" d="M151.504 70.86h-9.726a.55.55 0 0 1-.55-.55v-9.727a.55.55 0 0 1 .55-.55h9.726a.55.55 0 0 1 .55.55v9.727a.55.55 0 0 1-.55.55" mask="url(#h)"/>
        <path fill="#999" d="M26.891 155.62H258.56v-2.122H26.89zM20.44 155.62h3.873v-2.122H20.44zM260.768 155.62h8.554v-2.122h-8.554z" mask="url(#h)"/>
        <path fill="#FFF" d="M206.294 88.349c9.63-9.63 9.63-25.245 0-34.877-9.63-9.63-25.245-9.63-34.877 0-8.315 8.316-9.443 21.09-3.4 30.624l-7.019 14.5a.44.44 0 0 0 .593.584l14.418-7.22c9.496 5.807 22.068 4.606 30.285-3.611" mask="url(#h)"/>
        <path fill="#999" d="M161.394 100.287a1.5 1.5 0 0 1-1.35-2.154l6.766-13.974c-6.02-10.01-4.44-23.139 3.859-31.437 4.857-4.857 11.316-7.534 18.187-7.534 6.87 0 13.33 2.677 18.189 7.534a26.124 26.124 0 0 1 2.73 3.215l-1.723 1.237a23.704 23.704 0 0 0-2.508-2.951 23.442 23.442 0 0 0-16.688-6.914 23.442 23.442 0 0 0-16.688 6.914c-7.743 7.742-9.111 20.068-3.254 29.305l.317.499-6.481 13.385 13.31-6.665.502.308c9.327 5.704 21.244 4.28 28.982-3.456a23.753 23.753 0 0 0 2.87-3.473l1.758 1.19a25.996 25.996 0 0 1-3.127 3.784c-8.294 8.293-20.994 9.928-31.08 4.068l-13.9 6.96a1.51 1.51 0 0 1-.671.159" mask="url(#h)"/>
        <path fill="#999" d="M171.598 61.248h7.237v-2.121h-7.237zM180.597 61.248h36.694v-2.121h-36.694zM175.957 66.285h12.911v-2.121h-12.91zM173.078 71.304h9.335v-2.121h-9.335zM185.076 71.304h34.375v-2.121h-34.375zM174.324 76.652h18.626v-2.121h-18.626zM174.324 82.41h8.089v-2.12h-8.089zM185.076 82.41h42.786v-2.12h-42.786zM195.11 76.652h10.262v-2.121h-10.263zM191.072 66.285h6.455v-2.121h-6.455zM219.45 61.248h8.412v-2.121h-8.411z" mask="url(#h)"/>
        <path fill="#F4F4F4" d="M121.695 152.072v-15.013c0-1.097-.89-1.987-1.987-1.987H37.333c-1.098 0-1.987.89-1.987 1.987v15.013c0 1.097.89 1.987 1.987 1.987h82.375c1.097 0 1.987-.89 1.987-1.987" mask="url(#h)"/>
        <path fill="#999" d="M37.332 136.133a.928.928 0 0 0-.926.927v15.01c0 .513.416.928.926.928h82.375c.51 0 .927-.415.927-.927v-15.013a.927.927 0 0 0-.927-.925H37.332zm82.375 18.987H37.332a3.052 3.052 0 0 1-3.047-3.05v-15.01a3.051 3.051 0 0 1 3.047-3.048h82.375a3.051 3.051 0 0 1 3.048 3.046v15.013a3.052 3.052 0 0 1-3.048 3.049z" mask="url(#h)"/>
        <path fill="#999" d="M43.998 146.679h2.121v-11.606H44zM52.162 140.875h2.121v-5.803h-2.121zM60.327 140.875h2.121v-5.803h-2.12zM68.491 140.875h2.121v-5.803h-2.12zM76.656 146.679h2.122v-11.606h-2.122zM84.82 140.875h2.121v-5.803h-2.12zM92.985 140.875h2.122v-5.803h-2.122zM101.15 140.875h2.122v-5.803h-2.121zM109.316 146.679h2.121v-11.606h-2.121z" mask="url(#h)"/>
    </g>
</svg>
