<svg xmlns="http://www.w3.org/2000/svg" xmlns:xlink="http://www.w3.org/1999/xlink" width="590" height="435" viewBox="0 0 590 435">
    <defs>
        <path id="a" d="M6 0h519.39a6 6 0 0 1 6 6v364.207a6 6 0 0 1-6 6H6a6 6 0 0 1-6-6V6a6 6 0 0 1 6-6z"/>
        <filter id="b" width="119.8%" height="127.9%" x="-9.9%" filterUnits="objectBoundingBox">
            <feOffset dy="15" in="SourceAlpha" result="shadowOffsetOuter1"/>
            <feGaussianBlur in="shadowOffsetOuter1" result="shadowBlurOuter1" stdDeviation="15"/>
            <feColorMatrix in="shadowBlurOuter1" values="0 0 0 0 0.197172619 0 0 0 0 0.197172619 0 0 0 0 0.197172619 0 0 0 0.142837631 0"/>
        </filter>
        <linearGradient id="d" x1="50%" x2="50%" y1="0%" y2="100%">
            <stop offset="0%" stop-color="#F7F6F7"/>
            <stop offset="100%" stop-color="#D7D5D7"/>
        </linearGradient>
        <path id="e" d="M.217.039H5.41v7.035H.217z"/>
        <path id="g" d="M0 8.77h35.815V.038H0z"/>
    </defs>
    <g fill="none" fill-rule="evenodd" transform="translate(29.18 14)">
        <g transform="translate(0 .434)">
            <mask id="c" fill="#fff">
                <use xlink:href="#a"/>
            </mask>
            <use fill="#000" filter="url(#b)" xlink:href="#a"/>
            <use fill="#FFF" xlink:href="#a"/>
            <path fill="#F9FAFF" d="M0 29.648h531.254v26.443H0z" mask="url(#c)"/>
        </g>
        <path fill="url(#d)" stroke="#C1C1C1" stroke-width=".5" d="M.25 29.832h530.754V6.434a5.75 5.75 0 0 0-5.75-5.75H6a5.75 5.75 0 0 0-5.75 5.75v23.398zm530.754 0h.25l-.25.25v-.25z"/>
        <rect width="39.263" height="5.609" x="141.027" y="41.3" fill="#E0E3FD" rx="2.805"/>
        <circle cx="17.628" cy="15.658" r="4.808" fill="#FF6060"/>
        <circle cx="33.654" cy="15.658" r="4.808" fill="#FFC560"/>
        <circle cx="49.68" cy="15.658" r="4.808" fill="#9AD571"/>
        <path fill="#BCBABC" d="M512.023 10.851h19.231v19.231h-19.231z"/>
        <path fill="#6B696B" d="M522.44 20.466h4.007v.801h-4.007v4.007h-.801v-4.007h-4.007v-.8h4.007V16.46h.801v4.006z"/>
        <path fill="#030100" d="M40.271 46.87h6.41v-6.368h-6.41z"/>
        <path fill="#F9A51A" d="M40 47.14h6.951v-6.907H40v6.906zm5.183-5.347V40.78h1.13v2.133h-5.675v-2.133h1.131v1.012h3.414zm-4.545 2.874h5.675v-1.122h-5.675v1.122zm0 1.753h5.675v-1.123h-5.675v1.123z"/>
        <g transform="translate(40 40.192)">
            <g transform="translate(8.826)">
                <mask id="f" fill="#fff">
                    <use xlink:href="#e"/>
                </mask>
                <path fill="#030100" d="M4.15 4.45c0-.412-.123-.754-.368-1.027-.25-.286-.582-.43-.992-.43-.413 0-.75.14-1.006.42-.247.27-.37.615-.37 1.032 0 .42.122.77.365 1.047.257.288.594.433 1.01.433.406 0 .736-.147.993-.443.245-.278.367-.624.367-1.032m1.26.015c0 .698-.22 1.302-.66 1.812-.46.532-1.037.797-1.73.797-.569 0-1.085-.218-1.548-.655v.528H.217V.038h1.254v2.475c.455-.453.983-.678 1.583-.678.707 0 1.283.267 1.728.8.417.502.627 1.112.627 1.83" mask="url(#f)"/>
            </g>
            <path fill="#030100" d="M19.234 4.075c0 .869-.07 1.465-.208 1.785-.351.812-1.018 1.214-2.002 1.214-1.072 0-1.755-.464-2.05-1.386-.098-.31-.148-.859-.148-1.65V1.963h1.277v2.398c0 .355.013.609.041.76.055.293.178.504.367.634.14.1.315.153.523.153.425 0 .71-.196.854-.586.052-.145.077-.45.077-.922V1.963h1.27v2.112zM24.006 4.45c0-.412-.122-.754-.368-1.027-.25-.286-.583-.43-.993-.43-.414 0-.748.14-1.006.42-.245.27-.366.615-.366 1.032 0 .42.12.77.362 1.047.258.288.594.433 1.01.433.406 0 .736-.147.993-.443.246-.278.368-.624.368-1.032m1.259.015c0 .698-.22 1.302-.66 1.812-.46.532-1.037.797-1.73.797-.568 0-1.083-.218-1.548-.655v2.35h-1.253V1.963h1.253v.55c.455-.453.983-.678 1.585-.678.705 0 1.28.267 1.727.8.416.502.626 1.112.626 1.83M28.182 3.044h-.742v3.903H26.18V3.044h-.645v-1.08h.645V.124h1.259v1.838h.742z"/>
            <mask id="h" fill="#fff">
                <use xlink:href="#g"/>
            </mask>
            <path fill="#030100" d="M28.665 6.947h1.264V.04h-1.264zM34.541 3.827a1.215 1.215 0 0 0-.5-.681 1.47 1.47 0 0 0-.836-.248c-.35 0-.657.096-.918.29-.166.12-.32.334-.46.64h2.714zm1.273.75l-.004.24h-4.038c.061.363.221.648.478.85.258.204.577.304.958.304.469 0 .874-.162 1.212-.484l1.058.492c-.516.73-1.272 1.095-2.264 1.095-.771 0-1.409-.24-1.91-.721-.504-.485-.754-1.107-.754-1.87 0-.755.243-1.385.73-1.892.488-.504 1.109-.757 1.865-.757.79 0 1.432.25 1.927.751.51.52.758 1.183.742 1.993z" mask="url(#h)"/>
        </g>
        <rect width="39.263" height="5.609" x="93.751" y="41.3" fill="#E0E3FD" rx="2.805"/>
        <text fill="#000" font-family="AppleSDGothicNeo-Bold, Apple SD Gothic Neo" font-size="12" font-weight="bold" letter-spacing="-.175">
            <tspan x="101.821" y="115">법무관리시스템 구축사업 계약서</tspan>
        </text>
        <rect width="54" height="18" x="40.821" y="102" stroke="#99ACF3" stroke-width="2" rx="9"/>
        <text fill="#343434" font-family="AppleSDGothicNeo-Regular, Apple SD Gothic Neo" font-size="9" letter-spacing=".129">
            <tspan x="55.821" y="114">승인요청</tspan>
        </text>
        <g fill="#99ACF3">
            <path d="M50 114c.552 0 1-.285 1-.636h-2c0 .351.448.636 1 .636M47.594 112.727h4.812c.328 0 .594-.02.594-.327v-.052c0-.221-.139-.41-.338-.5l-.188-1.52c0-1.114-.843-2.043-1.965-2.262v-.59c0-.263-.228-.476-.509-.476s-.509.213-.509.475v.59c-1.122.22-1.965 1.15-1.965 2.263l-.188 1.52a.553.553 0 0 0-.338.5v.052c0 .307.266.327.594.327"/>
        </g>
        <circle cx="453.006" cy="110.006" r="2.006" fill="#FFCB19"/>
        <rect width="45" height="18" x="445.821" y="101" stroke="#FFCB19" stroke-width="2" rx="9"/>
        <text fill="#343434" font-family="AppleSDGothicNeo-Regular, Apple SD Gothic Neo" font-size="9" letter-spacing=".129">
            <tspan x="458.821" y="113">검토중</tspan>
        </text>
        <text fill="#777" font-family="AppleSDGothicNeo-Regular, Apple SD Gothic Neo" font-size="10" letter-spacing="-.146">
            <tspan x="39.821" y="79">작성중</tspan>
        </text>
        <text fill="#777" font-family="AppleSDGothicNeo-Regular, Apple SD Gothic Neo" font-size="10" letter-spacing="-.146">
            <tspan x="70.821" y="79">검토중</tspan>
        </text>
        <text fill="#777" font-family="AppleSDGothicNeo-Regular, Apple SD Gothic Neo" font-size="10" letter-spacing="-.146">
            <tspan x="101.821" y="79">최종승인</tspan>
        </text>
        <text fill="#777" font-family="AppleSDGothicNeo-Regular, Apple SD Gothic Neo" font-size="10" letter-spacing="-.146">
            <tspan x="141.821" y="79">완료</tspan>
        </text>
        <rect width="160.258" height="5.609" x="40.064" y="186.333" fill="#F0F1FE" rx="2.805"/>
        <rect width="160.258" height="5.609" x="40.064" y="141.461" fill="#F0F1FE" rx="2.805"/>
        <rect width="160.258" height="5.609" x="40.064" y="231.205" fill="#F0F1FE" rx="2.805"/>
        <rect width="160.258" height="5.609" x="40.064" y="275.857" fill="#F0F1FE" rx="2.805"/>
        <rect width="160.258" height="5.609" x="331.733" y="320.493" fill="#F0F0F0" rx="2.805"/>
        <rect width="160.258" height="5.609" x="39.463" y="320.493" fill="#F0F0F0" rx="2.805"/>
        <rect width="160.258" height="5.609" x="331.733" y="332.112" fill="#F0F0F0" rx="2.805"/>
        <rect width="160.258" height="5.609" x="39.463" y="332.112" fill="#F0F0F0" rx="2.805"/>
        <rect width="52.084" height="5.609" x="439.106" y="186.333" fill="#F0F0F0" rx="2.805"/>
        <rect width="52.084" height="5.609" x="439.106" y="141.461" fill="#F0F1FE" rx="2.805"/>
        <rect width="52.084" height="5.609" x="439.106" y="231.205" fill="#F0F0F0" rx="2.805"/>
        <rect width="52.084" height="5.609" x="439.106" y="275.857" fill="#F0F0F0" rx="2.805"/>
        <rect width="52.084" height="5.609" x="439.106" y="197.551" fill="#FFC4C4" rx="2.805"/>
        <rect width="52.084" height="5.609" x="439.106" y="152.679" fill="#FFC4C4" rx="2.805"/>
        <rect width="52.084" height="5.609" x="439.106" y="242.423" fill="#FFC4C4" rx="2.805"/>
        <rect width="52.084" height="5.609" x="439.106" y="287.075" fill="#FFC4C4" rx="2.805"/>
        <rect width="120.193" height="5.609" x="40.064" y="197.551" fill="#F0F1FE" rx="2.805"/>
        <rect width="120.193" height="5.609" x="40.064" y="152.679" fill="#F0F1FE" rx="2.805"/>
        <rect width="120.193" height="5.609" x="40.064" y="242.423" fill="#F0F1FE" rx="2.805"/>
        <rect width="120.193" height="5.609" x="40.064" y="287.075" fill="#F0F1FE" rx="2.805"/>
        <rect width="80.129" height="5.609" x="40.064" y="208.769" fill="#F0F1FE" rx="2.805"/>
        <rect width="80.129" height="5.609" x="40.064" y="163.897" fill="#F0F1FE" rx="2.805"/>
        <rect width="80.129" height="5.609" x="40.064" y="253.641" fill="#F0F1FE" rx="2.805"/>
        <rect width="80.129" height="5.609" x="40.064" y="298.293" fill="#F0F1FE" rx="2.805"/>
        <rect width="28.045" height="5.609" x="463.145" y="208.769" fill="#FFE99E" rx="2.805"/>
        <rect width="28.045" height="5.609" x="463.145" y="163.897" fill="#FFE99E" rx="2.805"/>
        <rect width="28.045" height="5.609" x="463.145" y="253.641" fill="#FFE99E" rx="2.805"/>
        <rect width="28.045" height="5.609" x="463.145" y="298.293" fill="#FFE99E" rx="2.805"/>
        <rect width="28.045" height="5.609" x="366.99" y="41.3" fill="#E0E3FD" rx="2.805"/>
        <rect width="28.045" height="5.609" x="403.048" y="41.3" fill="#E0E3FD" rx="2.805"/>
        <rect width="28.045" height="5.609" x="439.106" y="41.3" fill="#E0E3FD" rx="2.805"/>
        <rect width="28.045" height="5.609" x="451.125" y="73.351" fill="#F0F0F0" rx="2.805"/>
        <rect width="28.045" height="5.609" x="403.048" y="73.351" fill="#F0F0F0" rx="2.805"/>
        <rect width="28.045" height="5.609" x="354.971" y="73.351" fill="#F0F0F0" rx="2.805"/>
        <circle cx="487.183" cy="75.755" r="4.006" fill="#FF6060"/>
        <circle cx="439.106" cy="75.755" r="4.006" fill="#FF6060"/>
        <circle cx="391.029" cy="75.755" r="4.006" fill="#FF6060"/>
        <g fill="#E0E3FD" fill-rule="nonzero">
            <path d="M487.115 43.513c.634 0 1.184-.227 1.633-.676.448-.449.676-.998.676-1.633 0-.634-.228-1.183-.677-1.632a2.234 2.234 0 0 0-1.632-.676c-.634 0-1.183.227-1.632.676a2.234 2.234 0 0 0-.677 1.632c0 .635.228 1.184.677 1.633.449.449.998.676 1.632.676zM491.155 46.267a5.703 5.703 0 0 0-.227-1.215 3.008 3.008 0 0 0-.25-.568 2.143 2.143 0 0 0-.378-.492 1.664 1.664 0 0 0-.542-.34 1.874 1.874 0 0 0-.692-.126c-.098 0-.193.04-.375.16l-.391.251a2.24 2.24 0 0 1-.506.223c-.205.066-.413.1-.619.1a2.01 2.01 0 0 1-.618-.1 2.235 2.235 0 0 1-.506-.223 53.61 53.61 0 0 1-.391-.252c-.183-.119-.277-.159-.375-.159-.25 0-.482.042-.692.125-.211.084-.394.198-.543.341-.142.136-.27.302-.377.492a3.014 3.014 0 0 0-.25.568c-.06.187-.11.392-.15.609a5.682 5.682 0 0 0-.077.606c-.013.183-.02.374-.02.566 0 .5.16.905.474 1.204.31.295.72.444 1.218.444h4.615c.499 0 .909-.15 1.218-.444.314-.298.473-.704.473-1.204a8.18 8.18 0 0 0-.02-.566z"/>
        </g>
        <path stroke="#E2E2E2" stroke-linecap="square" d="M40.064 133.047h451.11M40.064 222.792h451.11M40.064 177.92h451.11M40.064 267.664h451.11M40.064 312.315h451.11M40.064 88.175h451.11"/>
    </g>
</svg>
