<svg xmlns="http://www.w3.org/2000/svg" xmlns:xlink="http://www.w3.org/1999/xlink" width="476" height="366" viewBox="0 0 476 366">
    <defs>
        <path id="b" d="M41 42h404a6 6 0 0 1 6 6v294a6 6 0 0 1-6 6H41a6 6 0 0 1-6-6V48a6 6 0 0 1 6-6z"/>
        <filter id="a" width="125.2%" height="134.3%" x="-12.6%" y="-12.3%" filterUnits="objectBoundingBox">
            <feOffset dy="15" in="SourceAlpha" result="shadowOffsetOuter1"/>
            <feGaussianBlur in="shadowOffsetOuter1" result="shadowBlurOuter1" stdDeviation="15"/>
            <feColorMatrix in="shadowBlurOuter1" values="0 0 0 0 0.197172619 0 0 0 0 0.197172619 0 0 0 0 0.197172619 0 0 0 0.142837631 0"/>
        </filter>
    </defs>
    <g fill="none" fill-rule="evenodd" transform="translate(-5 -27)">
        <use fill="#000" filter="url(#a)" xlink:href="#b"/>
        <use fill="#E6E6E6" xlink:href="#b"/>
        <path fill="#FFF" d="M50 57h198v271H50z"/>
        <rect width="79" height="11" x="61" y="158" fill="#F0F0F0" rx="5"/>
        <rect width="79" height="11" x="61" y="234" fill="#F0F0F0" rx="5"/>
        <rect width="59" height="20" x="61" y="189" fill="#E0E3FD" rx="5"/>
        <rect width="59" height="20" x="126" y="189" fill="#E0E3FD" rx="5"/>
        <rect width="79" height="11" x="151" y="158" fill="#F0F0F0" rx="5"/>
        <rect width="79" height="11" x="151" y="234" fill="#F0F0F0" rx="5"/>
        <path fill="#FFF" d="M263 57h173v271H263z"/>
        <g fill-rule="nonzero">
            <path fill="#FFF" d="M407.833 168.952l-4.177 2.279a3.754 3.754 0 0 0-.67.477A13.935 13.935 0 0 0 412 175c3.41 0 6.534-1.22 8.962-3.246a3.706 3.706 0 0 0-.736-.493l-4.473-2.237a1.706 1.706 0 0 1-.943-1.525v-1.755c.125-.144.269-.327.423-.545.61-.86 1.07-1.808 1.39-2.802.574-.177.997-.707.997-1.336v-1.874c0-.412-.184-.78-.469-1.038v-2.708s.557-4.214-5.15-4.214c-5.708 0-5.151 4.214-5.151 4.214v2.708a1.397 1.397 0 0 0-.468 1.038v1.874c0 .493.259.927.647 1.178.468 2.038 1.694 3.505 1.694 3.505v1.711c0 .624-.342 1.198-.89 1.497zM282.833 288.478l-4.177 2.278a3.754 3.754 0 0 0-.67.477 13.935 13.935 0 0 0 9.014 3.293c3.41 0 6.533-1.22 8.962-3.246a3.706 3.706 0 0 0-.736-.494l-4.473-2.236a1.706 1.706 0 0 1-.944-1.526v-1.755c.126-.143.27-.327.424-.544.61-.861 1.07-1.808 1.39-2.802.574-.177.997-.707.997-1.337v-1.873c0-.412-.184-.78-.469-1.038v-2.708s.557-4.214-5.15-4.214c-5.708 0-5.151 4.214-5.151 4.214v2.708a1.397 1.397 0 0 0-.469 1.038v1.873c0 .494.26.928.648 1.179.468 2.038 1.694 3.504 1.694 3.504v1.712c0 .623-.342 1.198-.89 1.497z"/>
            <path fill="#F0F0F0" d="M412.24 147.002c-7.731-.132-14.106 6.028-14.238 13.759-.075 4.383 1.879 8.323 4.99 10.942a3.72 3.72 0 0 1 .663-.472l4.178-2.278c.548-.3.889-.874.889-1.498v-1.712s-1.226-1.466-1.694-3.504a1.405 1.405 0 0 1-.648-1.179v-1.873c0-.412.184-.78.469-1.038v-2.708s-.557-4.215 5.15-4.215c5.708 0 5.151 4.215 5.151 4.215v2.708c.286.258.468.626.468 1.038v1.873c0 .63-.422 1.16-.996 1.337-.32.994-.78 1.94-1.39 2.802a6.756 6.756 0 0 1-.424.544v1.755c0 .646.366 1.237.943 1.526l4.474 2.236c.268.134.51.304.734.493a13.964 13.964 0 0 0 5.038-10.514c.133-7.73-6.027-14.105-13.758-14.237zM287.24 268.002c-7.731-.132-14.106 6.028-14.238 13.759-.075 4.383 1.879 8.323 4.99 10.942a3.72 3.72 0 0 1 .663-.472l4.178-2.279c.548-.299.889-.873.889-1.497v-1.712s-1.226-1.467-1.694-3.504a1.405 1.405 0 0 1-.648-1.179v-1.873c0-.412.184-.78.469-1.038v-2.708s-.557-4.215 5.15-4.215c5.708 0 5.151 4.215 5.151 4.215v2.708c.286.258.468.626.468 1.038v1.873c0 .63-.422 1.16-.996 1.337-.32.994-.78 1.94-1.39 2.802a6.756 6.756 0 0 1-.424.544v1.755c0 .646.365 1.237.943 1.526l4.474 2.236c.268.134.51.304.734.492a13.964 13.964 0 0 0 5.038-10.513c.133-7.73-6.027-14.105-13.758-14.237z"/>
        </g>
        <path fill="#FAD967" d="M421 67H278a5 5 0 0 0-5 5v55.843a5 5 0 0 0 5 5h131.444l2.26 3.95a2 2 0 0 0 3.472 0l2.26-3.95H421a5 5 0 0 0 5-5V72a5 5 0 0 0-5-5z"/>
        <path fill="#E7E7E7" d="M278 188h143a5 5 0 0 1 5 5v55.843a5 5 0 0 1-5 5H289.556l-2.26 3.95a2 2 0 0 1-3.472 0l-2.26-3.95H278a5 5 0 0 1-5-5V193a5 5 0 0 1 5-5z"/>
        <text fill="#4D4D4D" font-family="AppleSDGothicNeo-Regular, Apple SD Gothic Neo" font-size="9" letter-spacing="-.132">
            <tspan x="349.366" y="161">최검토자님</tspan>
        </text>
        <text fill="#4D4D4D" font-family="AppleSDGothicNeo-Regular, Apple SD Gothic Neo" font-size="9" letter-spacing="-.132">
            <tspan x="307.193" y="282">이기안자</tspan>
        </text>
        <text fill="#000" font-family="AppleSDGothicNeo-Bold, Apple SD Gothic Neo" font-size="12" font-weight="bold" letter-spacing="-.175">
            <tspan x="61" y="77">법무관리시스템 구축사업 계약서</tspan>
        </text>
        <text fill="#4D4D4D" font-family="AppleSDGothicNeo-Regular, Apple SD Gothic Neo" font-size="9" letter-spacing="-.132">
            <tspan x="61" y="91">템플릿명:사업계약서</tspan>
        </text>
        <g transform="translate(61 103)">
            <rect width="151" height="2" x="13" y="8" fill="#CCC" rx="1" transform="matrix(1 0 0 -1 0 18)"/>
            <text fill="#AAA" font-family="AppleSDGothicNeo-Regular, Apple SD Gothic Neo" font-size="8" letter-spacing=".07">
                <tspan x="3.015" y="25">작성중</tspan>
            </text>
            <text fill="#AAA" font-family="AppleSDGothicNeo-Regular, Apple SD Gothic Neo" font-size="7" letter-spacing=".061">
                <tspan x="2.257" y="47">ID</tspan>
            </text>
            <text fill="#AAA" font-family="AppleSDGothicNeo-Regular, Apple SD Gothic Neo" font-size="7" letter-spacing=".061">
                <tspan x="1" y="123">시작일</tspan>
            </text>
            <text fill="#AAA" font-family="AppleSDGothicNeo-Regular, Apple SD Gothic Neo" font-size="7" letter-spacing=".061">
                <tspan x="91" y="47">기안자</tspan>
            </text>
            <text fill="#AAA" font-family="AppleSDGothicNeo-Regular, Apple SD Gothic Neo" font-size="7" letter-spacing=".061">
                <tspan x="91" y="123">종료일</tspan>
            </text>
            <text fill="#AAA" font-family="AppleSDGothicNeo-Regular, Apple SD Gothic Neo" font-size="7" letter-spacing=".061">
                <tspan x="0" y="78">라벨</tspan>
            </text>
            <text fill="#000" font-family="AppleSDGothicNeo-Regular, Apple SD Gothic Neo" font-size="7" letter-spacing=".061">
                <tspan x="13" y="95">사업계획서</tspan>
            </text>
            <text fill="#000" font-family="AppleSDGothicNeo-Regular, Apple SD Gothic Neo" font-size="7" letter-spacing=".061">
                <tspan x="82" y="95">전자계약</tspan>
            </text>
            <text fill="#AAA" font-family="AppleSDGothicNeo-Regular, Apple SD Gothic Neo" font-size="8" letter-spacing=".07">
                <tspan x="40.015" y="25">검토중</tspan>
            </text>
            <text fill="#000" font-family="AppleSDGothicNeo-Medium, Apple SD Gothic Neo" font-size="8" font-weight="400" letter-spacing=".07">
                <tspan x="76.015" y="27">서명중</tspan>
            </text>
            <text fill="#AAA" font-family="AppleSDGothicNeo-Regular, Apple SD Gothic Neo" font-size="8" letter-spacing=".07">
                <tspan x="117.01" y="25">승인</tspan>
            </text>
            <text fill="#AAA" font-family="AppleSDGothicNeo-Regular, Apple SD Gothic Neo" font-size="8" letter-spacing=".07">
                <tspan x="154.01" y="25">완료</tspan>
            </text>
            <circle cx="13" cy="9" r="5" fill="#CCC"/>
            <circle cx="50" cy="9" r="5" fill="#CCC"/>
            <circle cx="88" cy="9" r="9" fill="#5666ED"/>
            <path fill="#FFF" fill-rule="nonzero" d="M88.975 6.335l1.627 1.635-4.12 4.14-1.626-1.635 4.119-4.14zm2.862-.394l-.726-.73a.718.718 0 0 0-1.017 0l-.695.699 1.627 1.635.81-.815a.56.56 0 0 0 0-.79zm-7.832 6.832c-.03.134.09.254.224.222l1.813-.442-1.626-1.636-.411 1.856z"/>
            <circle cx="124" cy="9" r="5" fill="#CCC"/>
            <circle cx="161" cy="9" r="5" fill="#CCC"/>
        </g>
        <rect width="121" height="7" x="284" y="76" fill="#000" opacity=".085" rx="3.5"/>
        <rect width="121" height="7" x="284" y="197" fill="#000" opacity=".085" rx="3.5"/>
        <rect width="121" height="7" x="284" y="89" fill="#000" opacity=".085" rx="3.5"/>
        <rect width="121" height="7" x="284" y="210" fill="#000" opacity=".085" rx="3.5"/>
        <rect width="85" height="7" x="284" y="103" fill="#000" opacity=".085" rx="3.5"/>
        <rect width="85" height="7" x="284" y="224" fill="#000" opacity=".085" rx="3.5"/>
        <rect width="168" height="11" x="61" y="258" fill="#F0F0F0" rx="5"/>
        <rect width="97" height="11" x="61" y="278" fill="#F0F0F0" rx="5"/>
    </g>
</svg>
