<svg xmlns="http://www.w3.org/2000/svg" xmlns:xlink="http://www.w3.org/1999/xlink" width="24" height="37" viewBox="0 0 24 37">
    <defs>
        <path id="a" d="M.116.075h22.769v32.136H.115z"/>
    </defs>
    <g fill="none" fill-rule="evenodd">
        <g transform="translate(.947 4.368)">
            <mask id="b" fill="#fff">
                <use xlink:href="#a"/>
            </mask>
            <path fill="#f9a51a" d="M22.729 17.86c-.322-2.896-8.2-5.117-10.745-5.76l-.133-9.617A2.456 2.456 0 0 0 9.405.075a2.44 2.44 0 0 0-2.444 2.349l-.585 15.444c-.926-1.455-2.396-3.215-4.278-3.667-.907-.218-1.405.134-1.62.365-.212.227-.53.74-.257 1.614l2.707 8.687c.081.256.221.493.405.687l4.543 4.766v1.268a.622.622 0 1 0 1.245 0V30.07a.622.622 0 0 0-.172-.43l-4.714-4.946a.52.52 0 0 1-.118-.2L1.41 15.809c-.081-.26-.039-.376-.023-.393.018-.018.14-.073.42-.004 2.663.64 4.512 4.968 4.53 5.011a.622.622 0 0 0 1.196-.217l.672-17.734a1.198 1.198 0 0 1 1.2-1.152c.653 0 1.191.53 1.2 1.182l.14 10.095c.005.285.201.53.478.597 4.153 1 10.085 3.15 10.268 4.804.492 4.443-.327 7.515-.869 9.547-.255.958-.44 1.65-.418 2.188v1.855a.622.622 0 1 0 1.245 0v-1.879c-.015-.375.157-1.023.375-1.843.533-1.993 1.422-5.33.905-10.006" mask="url(#b)"/>
        </g>
        <path fill="#f9a51a" d="M14.027 12.076a.62.62 0 0 0 .88 0 6.535 6.535 0 0 0 0-9.23.622.622 0 0 0-.88.88 5.288 5.288 0 0 1 0 7.47.622.622 0 0 0 0 .88M5.677 12.076a.62.62 0 0 0 .88 0 .622.622 0 0 0 0-.88 5.288 5.288 0 0 1 0-7.47.622.622 0 1 0-.88-.88 6.535 6.535 0 0 0 0 9.23"/>
        <path fill="#f9a51a" d="M19.34 7.46c0 2.417-.94 4.69-2.65 6.399a.622.622 0 1 0 .881.88 10.224 10.224 0 0 0 3.015-7.278c0-2.75-1.07-5.334-3.015-7.278a.622.622 0 0 0-.88.88 8.989 8.989 0 0 1 2.65 6.398M3.455 14.921a.622.622 0 0 0 .44-1.063 8.989 8.989 0 0 1-2.65-6.397c0-2.417.941-4.69 2.65-6.398a.622.622 0 1 0-.88-.88A10.225 10.225 0 0 0 0 7.46c0 2.749 1.07 5.334 3.015 7.278a.62.62 0 0 0 .44.182"/>
    </g>
</svg>
