<svg xmlns="http://www.w3.org/2000/svg" xmlns:xlink="http://www.w3.org/1999/xlink" width="30" height="30" viewBox="0 0 30 30">
    <defs>
        <path id="a" d="M.091 0h12.86v2.748H.09z"/>
    </defs>
    <g fill="none" fill-rule="evenodd">
        <path fill="#f9a51a" d="M22.495 27.31l-.633-1.14c3.378-1.875 5.633-5 6.19-8.575l1.288.2c-.618 3.977-3.113 7.444-6.845 9.514M7.51 27.31c-3.733-2.07-6.227-5.538-6.846-9.515l1.29-.2c.555 3.575 2.81 6.7 6.188 8.574l-.632 1.14z"/>
        <g transform="translate(8.478)">
            <mask id="b" fill="#fff">
                <use xlink:href="#a"/>
            </mask>
            <path fill="#f9a51a" d="M12.341 2.748a12.346 12.346 0 0 0-5.82-1.444c-2.047 0-4.006.486-5.82 1.444L.09 1.593A13.65 13.65 0 0 1 6.521 0c2.26 0 4.424.536 6.43 1.593l-.61 1.155z" mask="url(#b)"/>
        </g>
        <path fill="#f9a51a" d="M20.87 13.992c1.35.83 2.55 1.008 3.913 1.008 1.361 0 2.561-.177 3.913-1.008v-1.89c-.095-.457-2.039-1.667-3.913-1.667-1.875 0-3.819 1.21-3.914 1.68v1.877zm3.913 2.312c-1.468 0-3.082-.171-4.93-1.415l-.288-.194v-2.593c0-1.503 2.988-2.972 5.218-2.972S30 10.6 30 12.102v2.593l-.288.194c-1.848 1.244-3.461 1.415-4.93 1.415z"/>
        <path fill="#f9a51a" d="M24.783 3.913c-1.024 0-1.957.808-1.957 1.696v1.825c0 .888.933 1.696 1.957 1.696s1.956-.808 1.956-1.696V5.61c0-.888-.932-1.696-1.956-1.696m0 6.522c-1.768 0-3.261-1.374-3.261-3V5.608c0-1.627 1.493-3 3.26-3 1.768 0 3.261 1.373 3.261 3v1.825c0 1.627-1.493 3-3.26 3M11.087 27.718c.961.674 2.185.978 3.913.978 1.728 0 2.952-.304 3.913-.978v-1.92c-.095-.458-2.039-1.668-3.913-1.668-1.874 0-3.818 1.21-3.914 1.681l.001 1.907zM15 30c-1.362 0-3.36-.15-4.974-1.448l-.243-.196v-2.559c0-1.502 2.987-2.97 5.217-2.97 2.23 0 5.217 1.468 5.217 2.97v2.559l-.243.196C18.361 29.85 16.362 30 15 30z"/>
        <path fill="#f9a51a" d="M15 17.609c-1.024 0-1.957.808-1.957 1.696v1.825c0 .888.933 1.696 1.957 1.696s1.957-.808 1.957-1.696v-1.825c0-.888-.933-1.696-1.957-1.696m0 6.521c-1.767 0-3.26-1.373-3.26-3v-1.825c0-1.627 1.493-3 3.26-3 1.767 0 3.26 1.373 3.26 3v1.825c0 1.627-1.493 3-3.26 3M1.304 13.992C2.656 14.822 3.856 15 5.217 15c1.362 0 2.562-.177 3.913-1.008v-1.89c-.094-.457-2.038-1.667-3.913-1.667-1.874 0-3.818 1.21-3.913 1.68v1.877zm3.913 2.312c-1.468 0-3.081-.171-4.93-1.415L0 14.695v-2.593C0 10.599 2.988 9.13 5.217 9.13c2.23 0 5.218 1.47 5.218 2.972v2.593l-.288.194c-1.848 1.244-3.462 1.415-4.93 1.415z"/>
        <path fill="#f9a51a" d="M5.217 3.913c-1.024 0-1.956.808-1.956 1.696v1.825c0 .888.932 1.696 1.956 1.696s1.957-.808 1.957-1.696V5.61c0-.888-.933-1.696-1.957-1.696m0 6.522c-1.767 0-3.26-1.374-3.26-3V5.608c0-1.627 1.493-3 3.26-3 1.768 0 3.261 1.373 3.261 3v1.825c0 1.627-1.493 3-3.26 3"/>
    </g>
</svg>
