<svg xmlns="http://www.w3.org/2000/svg" width="30" height="36" viewBox="0 0 30 36">
    <g fill="#f9a51a" fill-rule="evenodd">
        <path d="M20.277 28.389a.676.676 0 0 1-.675-.676c0-2.905 1.183-4.652 2.226-6.194.377-.556.733-1.083 1-1.621a.684.684 0 0 1 .076-.14c.734-1.27 1.221-2.587 1.221-4.83 0-2.878-1.009-4.532-2.523-6.13-1.847-1.947-4.19-3.007-6.593-2.971h-.018c-2.404-.033-4.746 1.024-6.593 2.97-1.515 1.6-2.523 3.253-2.523 6.131 0 2.252.49 3.57 1.23 4.846a.69.69 0 0 1 .06.112c.269.543.627 1.073 1.007 1.633 1.043 1.542 2.226 3.289 2.226 6.194a.676.676 0 1 1-1.351 0c0-2.49-1.014-3.988-1.994-5.436-.4-.592-.78-1.151-1.085-1.765a.67.67 0 0 1-.037-.068c-1-1.73-1.408-3.332-1.408-5.516 0-3.52 1.391-5.473 2.894-7.06C9.524 5.647 12.222 4.442 15 4.475c2.78-.036 5.475 1.171 7.583 3.393 1.503 1.587 2.894 3.54 2.894 7.06 0 2.183-.408 3.784-1.406 5.512a.714.714 0 0 1-.039.072c-.306.614-.685 1.173-1.085 1.765-.98 1.448-1.994 2.945-1.994 5.436a.676.676 0 0 1-.676.676z"/>
        <path d="M18.765 32.162h-7.53a2.188 2.188 0 0 1-2.18-2.189v-2.27c0-.373.302-.676.675-.676h7.567a.676.676 0 0 1 0 1.351h-6.892v1.595c0 .462.373.838.83.838h7.53c.457 0 .83-.376.83-.838v-2.27a.676.676 0 1 1 1.351 0v2.27c0 1.207-.979 2.19-2.181 2.19"/>
        <path d="M15 35.946c-2.626 0-4.46-1.834-4.46-4.46a.676.676 0 1 1 1.352 0c0 1.889 1.22 3.109 3.108 3.109 1.888 0 3.108-1.22 3.108-3.109a.676.676 0 1 1 1.351 0c0 2.626-1.833 4.46-4.459 4.46M15 3.514a.676.676 0 0 1-.676-.676V.676a.676.676 0 1 1 1.352 0v2.162a.676.676 0 0 1-.676.676M8.708 5.03a.676.676 0 0 1-.582-.333l-.998-1.69a.675.675 0 1 1 1.164-.686l.998 1.69a.676.676 0 0 1-.582 1.019M4.235 9.65a.672.672 0 0 1-.331-.087l-1.702-.961a.676.676 0 1 1 .664-1.177l1.702.961a.676.676 0 0 1-.333 1.264M2.973 15.54H.676a.676.676 0 1 1 0-1.35h2.297a.676.676 0 1 1 0 1.35M2.716 23.122a.675.675 0 0 1-.348-1.255l1.677-1.005a.676.676 0 0 1 .695 1.16l-1.678 1.004a.673.673 0 0 1-.346.096M21.076 4.869a.676.676 0 0 1-.59-1.004l.954-1.715a.676.676 0 1 1 1.18.657l-.953 1.715a.675.675 0 0 1-.591.347M25.665 9.372a.675.675 0 0 1-.348-1.255l1.677-1.005a.676.676 0 1 1 .695 1.16l-1.677 1.004a.673.673 0 0 1-.347.096M29.324 15.54h-2.297a.676.676 0 1 1 0-1.35h2.297a.676.676 0 1 1 0 1.35M27.529 22.8a.672.672 0 0 1-.332-.087l-1.702-.961a.676.676 0 1 1 .664-1.177l1.702.96a.675.675 0 0 1-.332 1.265M15 28.378a.676.676 0 0 1-.676-.675v-4.99L11.51 19.92a.676.676 0 1 1 .951-.96l3.016 2.993c.128.127.2.3.2.48v5.27a.676.676 0 0 1-.676.675"/>
        <path d="M15 23.108a.676.676 0 0 1-.475-1.156l3.03-2.993a.675.675 0 1 1 .95.962l-3.03 2.992a.673.673 0 0 1-.475.195"/>
    </g>
</svg>
