<svg xmlns="http://www.w3.org/2000/svg" xmlns:xlink="http://www.w3.org/1999/xlink" width="26" height="31" viewBox="0 0 26 31">
    <defs>
        <path id="a" d="M0 0h21.421v26.295H0z"/>
        <path id="c" d="M0 30.148h25.161V0H0z"/>
    </defs>
    <g fill="none" fill-rule="evenodd">
        <path fill="#f9a51a" d="M1.383 6.989c-.25.254-.25.392-.25.72v16.92c0 .293.249.532.554.532h18.6V1.666a.544.544 0 0 0-.553-.533h-12c-.182 0-.353.07-.483.195L1.383 6.99zm19.471 19.306H1.687c-.93 0-1.687-.748-1.687-1.666V7.71c0-.393 0-.932.58-1.52a.419.419 0 0 1 .01-.01L6.464.511A1.82 1.82 0 0 1 7.734 0h12c.93 0 1.687.747 1.687 1.666v24.062a.567.567 0 0 1-.567.567z"/>
        <path fill="#f9a51a" d="M7.48 8.16H3.74a.567.567 0 1 1 0-1.133h3.174V3.854a.567.567 0 1 1 1.133 0v3.74a.567.567 0 0 1-.567.566"/>
        <g transform="translate(3.74 3.854)">
            <mask id="b" fill="#fff">
                <use xlink:href="#a"/>
            </mask>
            <path fill="#f9a51a" d="M19.593 26.295H1.688C.757 26.295 0 25.547 0 24.629v-.828a.567.567 0 1 1 1.133 0v.828c0 .294.249.532.555.532h17.905a.696.696 0 0 0 .695-.695v-22.8a.544.544 0 0 0-.554-.533h-.806a.567.567 0 1 1 0-1.133h.806c.93 0 1.687.747 1.687 1.666v22.8a1.83 1.83 0 0 1-1.828 1.829" mask="url(#b)"/>
        </g>
        <mask id="d" fill="#fff">
            <use xlink:href="#c"/>
        </mask>
        <path fill="#f9a51a" d="M12.467 10.767h3.967v-5.78h-3.967v5.78zm4.534 1.134h-5.1a.567.567 0 0 1-.567-.567V4.42c0-.313.254-.566.567-.566H17c.313 0 .567.253.567.566v6.914A.567.567 0 0 1 17 11.9zM8.727 11.9h-4.42a.567.567 0 1 1 0-1.133h4.42a.567.567 0 1 1 0 1.134M16.888 15.074H4.307a.567.567 0 1 1 0-1.133h12.58a.567.567 0 1 1 0 1.133M16.888 18.248H4.307a.567.567 0 1 1 0-1.134h12.58a.567.567 0 1 1 0 1.134M16.888 21.421H4.307a.567.567 0 1 1 0-1.133h12.58a.567.567 0 1 1 0 1.133" mask="url(#d)"/>
    </g>
</svg>
