<svg xmlns="http://www.w3.org/2000/svg" width="37" height="37" viewBox="0 0 37 37">
    <g fill="#6F6F7A" fill-rule="nonzero">
        <path d="M31.032 5.968H5.968v9.548H0v1.194h5.968v14.322h25.064V16.71H37v-1.194h-5.968V5.968zm-16.71 3.58h2.388v1.194h-2.387V9.548zm-7.16-2.387h5.967v5.968H7.161V7.161zm5.967 22.678H7.161V23.87h5.968v5.968zm-3.58-7.162v-1.193h1.193v1.193H9.548zm20.29 7.162H14.323v-7.162h-2.388V20.29h-3.58v2.387H7.16V16.71h1.194v2.387h3.58V16.71h2.388v2.387h5.967V16.71h2.387v7.161h5.968v-3.58h-2.387v-1.194h2.387V16.71h1.194v13.129zM9.549 17.903V16.71h1.193v1.193H9.548zm9.548-1.193v1.193h-3.58V16.71h3.58zm-1.194-1.194v-1.193h1.194v1.193h-1.194zm9.549 5.968v1.193H23.87V16.71h3.58v1.193h-2.386v3.58h2.387zm2.387-5.968H20.29V13.13h-3.58v2.387H7.16v-1.193h7.162v-2.388h3.58v-3.58h-3.58V7.16h8.354v1.194H20.29v3.58h2.387v2.388h7.162v1.193zm-7.162-5.968v1.194h-1.193V9.548h1.193zm7.162 3.581H23.87V7.161h5.968v5.968z"/>
        <path d="M8.355 11.935h3.58v-3.58h-3.58v3.58zm1.193-2.387h1.194v1.194H9.548V9.548zM11.935 25.065h-3.58v3.58h3.58v-3.58zm-1.193 2.387H9.548v-1.194h1.194v1.194zM28.645 8.355h-3.58v3.58h3.58v-3.58zm-1.193 2.387h-1.194V9.548h1.194v1.194zM15.516 23.871h2.387v1.194h-2.387v3.58h5.968V20.29h-5.968v3.581zm1.194-2.387h3.58v5.968h-3.58v-1.194h2.387v-3.58H16.71v-1.194zM22.677 28.645h5.968v-3.58h-5.968v3.58zm1.194-2.387h3.58v1.194h-3.58v-1.194zM1.194 1.194h8.951V0H0v10.145h1.194z"/>
        <path d="M3.58 10.145V3.581h6.565V2.387H2.387v7.758zM3.58 26.855H2.388v7.758h7.758v-1.194H3.581z"/>
        <path d="M1.194 26.855H0V37h10.145v-1.194H1.194zM33.42 10.145h1.193V2.387h-7.758v1.194h6.564z"/>
        <path d="M26.855 0v1.194h8.951v8.951H37V0zM35.806 35.806h-8.951V37H37V26.855h-1.194z"/>
        <path d="M33.42 26.855v6.564h-6.565v1.194h7.758v-7.758z"/>
    </g>
</svg>
