<svg xmlns="http://www.w3.org/2000/svg" xmlns:xlink="http://www.w3.org/1999/xlink" width="33" height="43" viewBox="0 0 33 43">
    <defs>
        <path id="a" d="M0 0h32.975v42.628H0z"/>
    </defs>
    <g fill="none" fill-rule="evenodd">
        <mask id="b" fill="#fff">
            <use xlink:href="#a"/>
        </mask>
        <path fill="#6F6F7A" d="M1.257 41.358h30.46V24.884H1.258v16.474zm31.09 1.27H.628A.632.632 0 0 1 0 41.993V24.25c0-.351.281-.635.629-.635h31.717c.347 0 .629.284.629.635v17.743c0 .35-.282.635-.629.635z" mask="url(#b)"/>
        <path fill="#6F6F7A" d="M21.085 35.676H11.89a.632.632 0 0 1-.628-.634v-3.84c0-.351.281-.636.628-.636.348 0 .629.285.629.635v3.206h7.939V31.2c0-.35.281-.635.628-.635s.629.285.629.635v3.84c0 .351-.282.635-.629.635M.799 24.788a.623.623 0 0 1-.379-.128.64.64 0 0 1-.122-.889l6.877-9.192a.625.625 0 0 1 .88-.124c.278.212.333.61.123.89l-6.877 9.191a.626.626 0 0 1-.502.252M32.347 24.788a.626.626 0 0 1-.507-.258l-6.881-9.46a.639.639 0 0 1 .135-.887.625.625 0 0 1 .879.136l6.88 9.459a.639.639 0 0 1-.135.887.621.621 0 0 1-.371.123" mask="url(#b)"/>
        <path fill="#6F6F7A" d="M8.28 18.894h16.582V7.722L18.715 1.27h-8.34c-1.155 0-2.095.997-2.095 2.224v15.4zm17.211 1.27H7.651a.632.632 0 0 1-.628-.635V3.494C7.023 1.567 8.526 0 10.375 0h8.608c.171 0 .334.07.453.195l6.508 6.83a.64.64 0 0 1 .176.441V19.53c0 .35-.282.635-.629.635z" mask="url(#b)"/>
        <path fill="#6F6F7A" d="M19.612 2.21v2.397c0 1.226.94 2.224 2.095 2.224h2.307l-4.402-4.62zm5.879 5.891h-3.784c-1.849 0-3.353-1.568-3.353-3.494V.635c0-.26.156-.492.394-.59a.626.626 0 0 1 .688.15l6.508 6.831a.64.64 0 0 1 .125.689.628.628 0 0 1-.578.386z" mask="url(#b)"/>
    </g>
</svg>
