<svg xmlns="http://www.w3.org/2000/svg" width="36" height="43" viewBox="0 0 36 43">
    <g fill="#6F6F7A" fill-rule="evenodd">
        <path d="M24.333 33.909a.809.809 0 0 1-.81-.807c0-3.47 1.418-5.557 2.67-7.398.453-.665.88-1.294 1.201-1.937a.807.807 0 0 1 .09-.167c.882-1.518 1.466-3.09 1.466-5.77 0-3.436-1.21-5.412-3.027-7.322-2.217-2.325-5.03-3.591-7.912-3.548h-.022c-2.879-.039-5.696 1.223-7.912 3.549C8.26 12.418 7.05 14.394 7.05 17.83c0 2.69.59 4.264 1.476 5.788a.832.832 0 0 1 .073.134c.321.648.752 1.28 1.207 1.95 1.253 1.842 2.672 3.929 2.672 7.399a.809.809 0 0 1-.81.807.809.809 0 0 1-.812-.807c0-2.975-1.216-4.764-2.392-6.494-.481-.706-.936-1.374-1.303-2.108a.798.798 0 0 1-.043-.081c-1.2-2.066-1.69-3.98-1.69-6.588 0-4.205 1.669-6.538 3.472-8.433 2.53-2.654 5.762-4.092 9.1-4.052l.136-.001c3.291 0 6.469 1.435 8.964 4.053 1.803 1.895 3.472 4.228 3.472 8.433 0 2.607-.49 4.52-1.687 6.583a.805.805 0 0 1-.046.086c-.368.734-.822 1.402-1.302 2.108-1.177 1.73-2.393 3.519-2.393 6.494a.809.809 0 0 1-.811.807"/>
        <path d="M22.517 38.416h-9.034a2.62 2.62 0 0 1-2.618-2.615V33.09c0-.445.363-.807.81-.807h9.082c.448 0 .81.362.81.807a.809.809 0 0 1-.81.807h-8.27v1.905a1 1 0 0 0 .996 1h9.034a1 1 0 0 0 .997-1V33.09c0-.445.362-.807.81-.807.448 0 .811.362.811.807v2.712a2.62 2.62 0 0 1-2.618 2.615"/>
        <path d="M18 42.935c-3.15 0-5.351-2.19-5.351-5.326 0-.446.363-.807.81-.807.448 0 .811.361.811.807 0 2.255 1.464 3.712 3.73 3.712s3.73-1.457 3.73-3.712c0-.446.363-.807.81-.807.448 0 .811.361.811.807 0 3.136-2.2 5.326-5.351 5.326M18 4.197a.809.809 0 0 1-.81-.807V.807c0-.446.362-.807.81-.807.448 0 .81.361.81.807V3.39a.809.809 0 0 1-.81.807M10.45 6.008a.811.811 0 0 1-.7-.397L8.555 3.592a.805.805 0 0 1 .286-1.105.813.813 0 0 1 1.11.285l1.197 2.018a.805.805 0 0 1-.697 1.218M5.082 11.527a.809.809 0 0 1-.397-.105l-2.043-1.148a.805.805 0 0 1-.307-1.1.812.812 0 0 1 1.104-.305l2.043 1.148c.39.219.528.711.307 1.1a.811.811 0 0 1-.707.41M3.568 18.562H.81A.809.809 0 0 1 0 17.755c0-.445.363-.807.81-.807h2.758c.447 0 .81.362.81.807a.809.809 0 0 1-.81.807M3.259 27.618a.805.805 0 0 1-.418-1.5l2.013-1.2a.813.813 0 0 1 1.112.278.805.805 0 0 1-.278 1.107l-2.013 1.2a.81.81 0 0 1-.416.115M25.29 5.816a.805.805 0 0 1-.708-1.2l1.146-2.048a.813.813 0 0 1 1.102-.313.805.805 0 0 1 .315 1.097L26 5.401a.811.811 0 0 1-.71.415M30.798 11.195a.805.805 0 0 1-.418-1.5l2.013-1.2a.813.813 0 0 1 1.112.277.805.805 0 0 1-.278 1.107l-2.013 1.2a.81.81 0 0 1-.416.116M35.19 18.562h-2.758a.809.809 0 0 1-.81-.807c0-.445.363-.807.81-.807h2.757c.448 0 .811.362.811.807a.809.809 0 0 1-.81.807M33.034 27.233a.809.809 0 0 1-.397-.104l-2.043-1.148a.805.805 0 0 1-.308-1.1.813.813 0 0 1 1.105-.306l2.043 1.148c.39.22.527.712.307 1.1a.811.811 0 0 1-.707.41M18 33.896a.809.809 0 0 1-.81-.807v-5.958l-3.38-3.338a.804.804 0 0 1-.004-1.141.813.813 0 0 1 1.146-.005l3.619 3.574c.154.152.24.358.24.573v6.295a.809.809 0 0 1-.811.807"/>
        <path d="M18 27.601a.81.81 0 0 1-.577-.24.804.804 0 0 1 .007-1.141l3.637-3.574a.813.813 0 0 1 1.147.007.804.804 0 0 1-.008 1.142l-3.636 3.574a.81.81 0 0 1-.57.232"/>
    </g>
</svg>
