<svg xmlns="http://www.w3.org/2000/svg" width="35" height="42" viewBox="0 0 35 42">
    <g fill="#6F6F7A" fill-rule="evenodd">
        <path d="M23.651 33.085a.788.788 0 0 1-.788-.788c0-3.39 1.376-5.427 2.591-7.226.438-.649.853-1.263 1.164-1.89a.79.79 0 0 1 .089-.166c.854-1.482 1.42-3.018 1.42-5.634 0-3.358-1.173-5.288-2.936-7.153-2.118-2.238-4.795-3.466-7.55-3.466h-.263c-2.755 0-5.432 1.228-7.55 3.466-1.763 1.865-2.937 3.795-2.937 7.153 0 2.627.572 4.165 1.432 5.653a.79.79 0 0 1 .072.134c.311.632.729 1.25 1.17 1.903 1.214 1.799 2.591 3.837 2.591 7.226a.788.788 0 1 1-1.577 0c0-2.907-1.18-4.654-2.32-6.343-.467-.69-.908-1.344-1.264-2.061a.732.732 0 0 1-.042-.078c-1.163-2.017-1.638-3.886-1.638-6.434 0-4.107 1.618-6.386 3.367-8.236 2.453-2.593 5.59-3.999 8.828-3.959h.132c3.192 0 6.275 1.401 8.694 3.959 1.75 1.85 3.368 4.129 3.368 8.236 0 2.546-.474 4.414-1.636 6.43a.795.795 0 0 1-.044.083c-.356.716-.797 1.37-1.263 2.06-1.142 1.689-2.321 3.436-2.321 6.343a.788.788 0 0 1-.789.788"/>
        <path d="M18.446 37.523h-5.34a2.546 2.546 0 0 1-2.543-2.544v-2.66c0-.435.353-.787.788-.787H23.65a.788.788 0 1 1 0 1.576h-11.51v1.871c0 .533.434.967.967.967h5.34a.788.788 0 1 1 0 1.577"/>
        <path d="M21.914 37.523a.788.788 0 1 1 0-1.577c.513 0 .946-.466.946-1.017v-2.61a.788.788 0 1 1 1.577 0v2.61c0 1.43-1.132 2.594-2.523 2.594"/>
        <path d="M17.5 41.937c-3.063 0-5.203-2.14-5.203-5.203a.788.788 0 1 1 1.577 0c0 2.203 1.423 3.626 3.626 3.626s3.626-1.423 3.626-3.626a.788.788 0 1 1 1.577 0c0 3.064-2.14 5.203-5.203 5.203M17.5 4.1a.788.788 0 0 1-.788-.79V.789a.788.788 0 1 1 1.576 0v2.523a.788.788 0 0 1-.788.788M10.152 5.832a.788.788 0 0 1-.68-.388l-1.16-1.971a.788.788 0 0 1 1.358-.8l1.16 1.971a.789.789 0 0 1-.678 1.188M4.947 11.223a.785.785 0 0 1-.388-.102L2.58 10a.788.788 0 1 1 .776-1.373l1.98 1.122a.788.788 0 0 1-.388 1.474M3.468 18.13H.788a.788.788 0 1 1 0-1.576h2.68a.788.788 0 1 1 0 1.577M3.178 26.94a.788.788 0 0 1-.407-1.464l1.952-1.172a.788.788 0 1 1 .812 1.351l-1.952 1.173a.783.783 0 0 1-.405.112M24.545 5.645a.788.788 0 0 1-.688-1.17l1.11-2.002a.788.788 0 1 1 1.379.765l-1.11 2.001a.788.788 0 0 1-.69.406M29.887 10.899a.788.788 0 0 1-.407-1.464l1.952-1.173a.788.788 0 1 1 .812 1.352l-1.952 1.172a.783.783 0 0 1-.405.113M34.212 18.13h-2.68a.788.788 0 1 1 0-1.576h2.68a.788.788 0 1 1 0 1.577M32.055 26.565a.785.785 0 0 1-.387-.103l-1.981-1.121a.788.788 0 1 1 .776-1.372l1.982 1.121a.788.788 0 0 1-.39 1.475M21.284 30.586a.788.788 0 0 1-.789-.789V17.542l-2.837-5.56-2.838 5.56v12.255a.788.788 0 1 1-1.577 0V17.352c0-.124.03-.247.086-.358l3.627-7.105a.788.788 0 0 1 1.404 0l3.626 7.105a.789.789 0 0 1 .086.358v12.445a.788.788 0 0 1-.788.789"/>
        <path d="M20.968 18.13h-6.936a.788.788 0 1 1 0-1.576h6.936a.788.788 0 1 1 0 1.577"/>
        <path d="M17.5 30.428a.788.788 0 0 1-.788-.788V17.342a.788.788 0 1 1 1.576 0V29.64a.788.788 0 0 1-.788.788"/>
    </g>
</svg>
