<svg xmlns="http://www.w3.org/2000/svg" width="42" height="32" viewBox="0 0 42 32">
    <path fill="#6F6F7A" fill-rule="nonzero" d="M26.55.005C21.342.007 16.49 2.689 13.66 7.129a2.758 2.758 0 0 0-1.935.45L9.858 8.843a1.376 1.376 0 0 1-1.55 0L6.443 7.579a2.75 2.75 0 0 0-3.1 0L.311 9.63a.714.714 0 0 0 .078 1.226.69.69 0 0 0 .698-.045L4.117 8.76a1.376 1.376 0 0 1 1.55 0l1.866 1.264a2.75 2.75 0 0 0 3.101 0l1.867-1.264c.1-.066.21-.118.323-.155a15.625 15.625 0 0 0-1.345 3.945l-1.62 1.098a1.38 1.38 0 0 1-1.55 0l-1.867-1.265a2.753 2.753 0 0 0-3.1 0l-3.03 2.052a.718.718 0 0 0-.195.986.693.693 0 0 0 .97.198l3.03-2.052a1.374 1.374 0 0 1 1.55 0l1.866 1.264a2.753 2.753 0 0 0 3.101 0l.595-.402c-.03.39-.05.788-.05 1.19.002.637.042 1.273.12 1.905l-1.44.975a1.376 1.376 0 0 1-1.55 0l-1.867-1.264a2.753 2.753 0 0 0-3.1 0l-3.03 2.052a.717.717 0 0 0-.193.984.692.692 0 0 0 .969.197l3.029-2.052a1.376 1.376 0 0 1 1.55 0l1.866 1.264a2.753 2.753 0 0 0 3.101 0l.925-.626c.19.855.45 1.692.778 2.503a2.74 2.74 0 0 0-.612.305l-1.867 1.264a1.376 1.376 0 0 1-1.55 0l-1.866-1.262a2.75 2.75 0 0 0-3.1 0l-3.03 2.05A.714.714 0 0 0 .39 25.14a.69.69 0 0 0 .698-.046l3.029-2.052a1.376 1.376 0 0 1 1.55 0l1.866 1.264a2.75 2.75 0 0 0 3.101 0l1.867-1.264a1.37 1.37 0 0 1 .435-.189c3.494 6.788 11.32 9.999 18.475 7.58 7.154-2.42 11.524-9.755 10.316-17.317C40.52 5.556 34.09.001 26.55.005zm-7.533 10.019l1.867-1.264a1.375 1.375 0 0 1 1.55 0l3.029 2.052c.321.217.755.13.969-.197a.717.717 0 0 0-.194-.984L23.21 7.579a2.75 2.75 0 0 0-3.1 0l-1.867 1.264a1.365 1.365 0 0 1-.41.185c2.667-3.647 7.259-5.266 11.576-4.08 4.318 1.186 7.482 4.935 7.977 9.451.494 4.516-1.782 8.88-5.737 11a10.749 10.749 0 0 1-12.177-1.396l1.413-.957a1.375 1.375 0 0 1 1.55 0l3.029 2.052c.321.217.755.13.969-.197a.717.717 0 0 0-.194-.984l-3.029-2.053a2.75 2.75 0 0 0-3.1 0l-1.655 1.12a11.07 11.07 0 0 1-1.895-2.987 2.743 2.743 0 0 0 2.458-.317l1.867-1.264a1.375 1.375 0 0 1 1.55 0l3.028 2.052c.321.217.755.129.97-.197a.717.717 0 0 0-.194-.984l-3.03-2.052a2.753 2.753 0 0 0-3.1 0l-1.867 1.264a1.375 1.375 0 0 1-1.55 0l-.768-.523a11.193 11.193 0 0 1-.257-2.357c0-.314.02-.623.046-.93l.205.142a2.753 2.753 0 0 0 3.1 0l1.867-1.264a1.374 1.374 0 0 1 1.55 0l3.029 2.052c.321.217.755.13.969-.197a.717.717 0 0 0-.194-.984l-3.029-2.052a2.754 2.754 0 0 0-3.1 0l-1.867 1.264c-.47.318-1.08.318-1.55 0l-.742-.503c.211-.939.543-1.846.988-2.697a2.749 2.749 0 0 0 2.08-.426zm-5.194 11.422a14.21 14.21 0 0 1-.995-3.187c.41-.144.861-.086 1.222.157l.653.442a12.508 12.508 0 0 0 2.1 4.321c-.037-.02-.076-.03-.11-.053l-1.867-1.262a2.777 2.777 0 0 0-1.003-.418zm-1.246-5.827c.005-.73.066-1.459.182-2.178a1.364 1.364 0 0 1 1.291.123l.362.246a11.714 11.714 0 0 0-.07 3.17 2.735 2.735 0 0 0-1.707-.141 15.65 15.65 0 0 1-.058-1.22zm2.14-3.298a2.74 2.74 0 0 0-1.642-.4 14.243 14.243 0 0 1 1.173-3.027l1.42.96c-.403.786-.721 1.613-.95 2.467zM26.55 29.813c-4.545-.003-8.804-2.254-11.415-6.033l.783.53a2.745 2.745 0 0 0 2.23.387c3.748 3.577 9.294 4.4 13.893 2.063 4.599-2.338 7.275-7.34 6.704-12.533-.571-5.192-4.268-9.471-9.262-10.72-4.994-1.248-10.224.799-13.102 5.128l-1.407-.956C18.698 2.071 25.8-.087 31.943 2.522c6.144 2.608 9.623 9.259 8.312 15.89-1.311 6.633-7.047 11.404-13.706 11.401z"/>
</svg>
