<svg xmlns="http://www.w3.org/2000/svg" xmlns:xlink="http://www.w3.org/1999/xlink" width="749" height="486" viewBox="0 0 749 486">
    <defs>
        <path id="b" d="M104 39h258v100H104z"/>
        <filter id="a" width="148.4%" height="225%" x="-24.2%" y="-51.5%" filterUnits="objectBoundingBox">
            <feOffset dy="11" in="SourceAlpha" result="shadowOffsetOuter1"/>
            <feGaussianBlur in="shadowOffsetOuter1" result="shadowBlurOuter1" stdDeviation="19"/>
            <feColorMatrix in="shadowBlurOuter1" values="0 0 0 0 0.743432971 0 0 0 0 0.556904923 0 0 0 0 0.248245415 0 0 0 0.0829326923 0"/>
        </filter>
        <path id="d" d="M478 49h258v100H478z"/>
        <filter id="c" width="148.4%" height="225%" x="-24.2%" y="-51.5%" filterUnits="objectBoundingBox">
            <feOffset dy="11" in="SourceAlpha" result="shadowOffsetOuter1"/>
            <feGaussianBlur in="shadowOffsetOuter1" result="shadowBlurOuter1" stdDeviation="19"/>
            <feColorMatrix in="shadowBlurOuter1" values="0 0 0 0 0.743432971 0 0 0 0 0.556904923 0 0 0 0 0.248245415 0 0 0 0.0829326923 0"/>
        </filter>
        <path id="f" d="M479 349h258v100H479z"/>
        <filter id="e" width="148.4%" height="225%" x="-24.2%" y="-51.5%" filterUnits="objectBoundingBox">
            <feOffset dy="11" in="SourceAlpha" result="shadowOffsetOuter1"/>
            <feGaussianBlur in="shadowOffsetOuter1" result="shadowBlurOuter1" stdDeviation="19"/>
            <feColorMatrix in="shadowBlurOuter1" values="0 0 0 0 0.743432971 0 0 0 0 0.556904923 0 0 0 0 0.248245415 0 0 0 0.0829326923 0"/>
        </filter>
        <path id="h" d="M64 329h278v100H64z"/>
        <filter id="g" width="145%" height="225%" x="-22.5%" y="-51.5%" filterUnits="objectBoundingBox">
            <feOffset dy="11" in="SourceAlpha" result="shadowOffsetOuter1"/>
            <feGaussianBlur in="shadowOffsetOuter1" result="shadowBlurOuter1" stdDeviation="19"/>
            <feColorMatrix in="shadowBlurOuter1" values="0 0 0 0 0.743432971 0 0 0 0 0.556904923 0 0 0 0 0.248245415 0 0 0 0.0829326923 0"/>
        </filter>
        <path id="i" d="M0 38h38V0H0z"/>
        <path id="k" d="M0 .13h114.716v101.916H0z"/>
        <path id="m" d="M.422.077h10.095v14.071H.422z"/>
        <path id="o" d="M0 17.538h69.64V.078H0z"/>
    </defs>
    <g fill="none" fill-rule="evenodd">
        <g transform="translate(-26 -12)">
            <use fill="#000" filter="url(#a)" xlink:href="#b"/>
            <use fill="#FFF" xlink:href="#b"/>
        </g>
        <g transform="translate(-26 -12)">
            <use fill="#000" filter="url(#c)" xlink:href="#d"/>
            <use fill="#FFF" xlink:href="#d"/>
        </g>
        <g transform="translate(-26 -12)">
            <use fill="#000" filter="url(#e)" xlink:href="#f"/>
            <use fill="#FFF" xlink:href="#f"/>
        </g>
        <g transform="translate(-26 -12)">
            <use fill="#000" filter="url(#g)" xlink:href="#h"/>
            <use fill="#FFF" xlink:href="#h"/>
        </g>
        <text fill="#57575D" font-family="NotoSansCJKkr-Bold, Noto Sans CJK KR" font-size="18" font-weight="bold" transform="translate(-26 -12)">
            <tspan x="143" y="90">ERP</tspan>
        </text>
        <text fill="#57575D" font-family="NotoSansCJKkr-Bold, Noto Sans CJK KR" font-size="18" font-weight="bold" transform="translate(-26 -12)">
            <tspan x="517" y="100">Data base</tspan>
        </text>
        <text fill="#57575D" font-family="NotoSansCJKkr-Bold, Noto Sans CJK KR" font-size="18" font-weight="bold" transform="translate(-26 -12)">
            <tspan x="104" y="380">Legacy Systems</tspan>
        </text>
        <text fill="#57575D" font-family="NotoSansCJKkr-Bold, Noto Sans CJK KR" font-size="18" font-weight="bold" transform="translate(-26 -12)">
            <tspan x="518" y="400">ETC</tspan>
        </text>
        <path stroke="#F9A51A" stroke-dasharray="0,5" stroke-linecap="round" stroke-width="2" d="M336 77.5l101.5-.5M664 139.5v178M509.01 139.166l-203 185M310.07 128.014L508 339M135 139.5v178M352 387.5l101.5-.5"/>
        <g fill="#F9A51A" fill-rule="nonzero" stroke="#F9A51A" stroke-width=".3">
            <path d="M679.88 69.872A1.869 1.869 0 0 0 678.017 68h-30.106c-1.026 0-1.861.84-1.861 1.872v9.546c0 .48.182.917.478 1.248a1.868 1.868 0 0 0-.478 1.249v9.545c0 .48.182.917.478 1.249a1.868 1.868 0 0 0-.478 1.248v9.546c0 1.032.835 1.872 1.861 1.872h30.106c1.026 0 1.861-.84 1.861-1.872v-9.546c0-.48-.182-.917-.478-1.248.296-.332.478-.769.478-1.249v-9.545c0-.48-.182-.917-.478-1.249.296-.331.478-.768.478-1.248v-9.546zm-1.242 33.63a.623.623 0 0 1-.62.625h-30.106a.623.623 0 0 1-.62-.624v-9.546c0-.344.278-.624.62-.624h30.106c.342 0 .62.28.62.624v9.546zm0-12.042a.623.623 0 0 1-.62.625h-30.106a.623.623 0 0 1-.62-.625v-9.545c0-.345.278-.625.62-.625h30.106c.342 0 .62.28.62.625v9.545zm0-12.042a.623.623 0 0 1-.62.624h-30.106a.623.623 0 0 1-.62-.624v-9.546c0-.344.278-.624.62-.624h30.106c.342 0 .62.28.62.624v9.546z"/>
            <path d="M652.59 71.317c-1.824 0-3.309 1.493-3.309 3.328 0 1.835 1.485 3.329 3.31 3.329 1.824 0 3.308-1.494 3.308-3.329 0-1.835-1.484-3.328-3.309-3.328zm0 5.408a2.077 2.077 0 0 1-2.068-2.08c0-1.147.928-2.08 2.068-2.08 1.14 0 2.068.933 2.068 2.08s-.927 2.08-2.068 2.08zM674.306 74.021h-13.154c-.342 0-.62.28-.62.624 0 .345.278.624.62.624h13.154c.342 0 .62-.28.62-.624a.622.622 0 0 0-.62-.624zM652.59 83.359c-1.824 0-3.309 1.493-3.309 3.328 0 1.836 1.485 3.329 3.31 3.329 1.824 0 3.308-1.493 3.308-3.329 0-1.835-1.484-3.328-3.309-3.328zm0 5.409a2.077 2.077 0 0 1-2.068-2.08c0-1.148.928-2.08 2.068-2.08 1.14 0 2.068.932 2.068 2.08 0 1.147-.927 2.08-2.068 2.08zM674.306 86.063h-13.154c-.342 0-.62.28-.62.624 0 .345.278.625.62.625h13.154c.342 0 .62-.28.62-.625a.622.622 0 0 0-.62-.624zM652.59 95.401c-1.824 0-3.309 1.493-3.309 3.329 0 1.835 1.485 3.328 3.31 3.328 1.824 0 3.308-1.493 3.308-3.328 0-1.836-1.484-3.329-3.309-3.329zm0 5.409a2.077 2.077 0 0 1-2.068-2.08c0-1.147.928-2.08 2.068-2.08 1.14 0 2.068.933 2.068 2.08s-.927 2.08-2.068 2.08zM674.306 98.105h-13.154c-.342 0-.62.28-.62.625 0 .344.278.624.62.624h13.154c.342 0 .62-.28.62-.624a.622.622 0 0 0-.62-.625z"/>
        </g>
        <g transform="translate(268 58)">
            <path stroke="#F9A51A" stroke-width="1.4" d="M23.75.792l-3.167 3.166H3.958V23.75h30.084V.792z"/>
            <mask id="j" fill="#fff">
                <use xlink:href="#i"/>
            </mask>
            <path stroke="#F9A51A" stroke-width="1.4" d="M.792 37.208h9.5v-5.541h-9.5zM27.708 37.208h9.5v-5.541h-9.5zM14.25 37.208h9.5v-5.541h-9.5z" mask="url(#j)"/>
        </g>
        <path stroke="#F9A51A" stroke-width="1.4" d="M287 89.667V81.75M284.625 85.708h-11.083v3.959M300.458 89.667v-3.959h-11.083"/>
        <g stroke="#F9A51A" stroke-width="1.4">
            <path d="M281.854 71.854A5.146 5.146 0 0 1 287 66.708c1.425 0 2.708.578 3.642 1.505M283.358 75.496A5.153 5.153 0 0 0 287 77a5.146 5.146 0 0 0 5.146-5.146"/>
            <path d="M287.666 69.296l2.976-1.083v-3.167M286.334 74.413l-2.976 1.083v3.166M268.792 80.958V58.792h19"/>
        </g>
        <g fill="#F9A51A" fill-rule="nonzero">
            <path d="M285.731 351.253l-3.035-3.032a.765.765 0 0 0-.537-.221h-28.835a.765.765 0 0 0-.537.221l-1.518 1.516a.763.763 0 0 0-.222.537v31.832c0 .201.08.394.222.536l1.518 1.516a.765.765 0 0 0 .537.222h1.517c.42 0 .76-.34.76-.758v-19.706c0-.418.34-.758.758-.758h24.282c.419 0 .759.34.759.758v19.706c0 .418.34.758.759.758h1.517c.202 0 .395-.08.537-.222l1.518-1.516a.763.763 0 0 0 .222-.536V351.79a.763.763 0 0 0-.222-.537zm-1.296 30.54l-1.073 1.07h-.445v-18.947a2.278 2.278 0 0 0-2.276-2.274h-24.282a2.278 2.278 0 0 0-2.276 2.274v18.948h-.445l-1.073-1.072v-31.205l1.073-1.071h28.206l2.591 2.587v29.69z"/>
            <path d="M283.707 379.832h-.016a.752.752 0 0 0-.75.758c0 .418.347.758.766.758a.759.759 0 1 0 0-1.516zM282.159 382.864H254.84a.759.759 0 1 0 0 1.516h27.318a.759.759 0 1 0 0-1.516zM277.606 348h-16.694a.759.759 0 0 0-.759.758v9.095a2.278 2.278 0 0 0 2.276 2.274h13.659a2.278 2.278 0 0 0 2.276-2.274v-9.095a.759.759 0 0 0-.758-.758zm-.76 9.853c0 .418-.34.758-.758.758h-13.659a.759.759 0 0 1-.758-.758v-8.337h15.176v8.337z"/>
            <path d="M274.57 348h-6.07a.759.759 0 0 0-.759.758v10.61c0 .419.34.759.759.759h6.07c.42 0 .76-.34.76-.758v-10.611a.759.759 0 0 0-.76-.758zm-.758 10.61h-4.553v-9.094h4.553v9.095zM276.376 370.348a.76.76 0 0 0-1.015-.454.74.74 0 0 1-.947-.294c-.187-.324-.094-.73.22-.967a.754.754 0 0 0 .114-1.106c-1.238-1.405-2.833-2.336-4.612-2.69a.744.744 0 0 0-.6.134.756.756 0 0 0-.305.532.745.745 0 0 1-.731.687.742.742 0 0 1-.73-.685.761.761 0 0 0-.904-.666c-1.78.352-3.374 1.283-4.613 2.69a.76.76 0 0 0 .114 1.106c.316.236.409.642.22.967a.74.74 0 0 1-.947.294.75.75 0 0 0-.607.006.753.753 0 0 0-.408.447c-.317.934-.472 1.805-.472 2.662 0 .856.155 1.728.472 2.662a.76.76 0 0 0 1.015.453c.36-.152.76-.029.947.294.187.324.094.73-.22.967a.754.754 0 0 0-.114 1.107c1.239 1.406 2.832 2.337 4.611 2.69a.764.764 0 0 0 .6-.133.756.756 0 0 0 .305-.532.745.745 0 0 1 .731-.687c.378 0 .692.294.732.685a.761.761 0 0 0 .902.666c1.78-.352 3.374-1.283 4.613-2.69a.76.76 0 0 0-.114-1.106c-.316-.236-.409-.642-.22-.967a.74.74 0 0 1 .947-.294.768.768 0 0 0 .607-.006.752.752 0 0 0 .408-.447c.317-.934.472-1.805.472-2.662 0-.856-.155-1.728-.47-2.663zm-1.249 4.203a2.192 2.192 0 0 0-2.027 1.114c-.422.73-.381 1.616.047 2.307a6.755 6.755 0 0 1-2.653 1.56 2.246 2.246 0 0 0-1.994-1.216c-.86 0-1.615.487-1.994 1.215a6.725 6.725 0 0 1-2.653-1.56c.428-.69.469-1.577.047-2.307a2.207 2.207 0 0 0-2.027-1.114 6.254 6.254 0 0 1-.202-1.539c0-.496.067-1.005.202-1.54.834.017 1.604-.384 2.027-1.114.422-.73.381-1.616-.047-2.307a6.755 6.755 0 0 1 2.653-1.56 2.246 2.246 0 0 0 3.988.003 6.725 6.725 0 0 1 2.653 1.56 2.246 2.246 0 0 0-.047 2.307c.422.73 1.175 1.132 2.027 1.114a6.25 6.25 0 0 1 .202 1.538c0 .496-.067 1.004-.202 1.539z"/>
            <path d="M268.5 369.221a3.797 3.797 0 0 0-3.794 3.79 3.797 3.797 0 0 0 3.794 3.79c2.091 0 3.794-1.701 3.794-3.79a3.797 3.797 0 0 0-3.794-3.79zm0 6.064a2.278 2.278 0 0 1-2.276-2.274 2.278 2.278 0 0 1 2.276-2.274 2.278 2.278 0 0 1 2.276 2.274 2.278 2.278 0 0 1-2.276 2.274z"/>
        </g>
        <g fill="#F9A51A" fill-rule="nonzero">
            <g transform="translate(642 371)">
                <path d="M35.75 0H3.25C1.462 0 0 1.485 0 3.3v26.4C0 31.515 1.462 33 3.25 33h32.5c1.788 0 3.25-1.485 3.25-3.3V3.3C39 1.485 37.538 0 35.75 0zm1.625 29.7c0 .99-.65 1.65-1.625 1.65H3.25c-.975 0-1.625-.66-1.625-1.65V9.9h35.75v19.8zm0-21.45H1.625V3.3c0-.99.65-1.65 1.625-1.65h32.5c.975 0 1.625.66 1.625 1.65v4.95z"/>
                <ellipse cx="14.625" cy="4.95" rx="1.625" ry="1.65"/>
                <ellipse cx="9.75" cy="4.95" rx="1.625" ry="1.65"/>
                <ellipse cx="4.875" cy="4.95" rx="1.625" ry="1.65"/>
            </g>
            <path d="M672.875 384.2c-1.795 0-3.25 1.477-3.25 3.3 0 .481.107.936.29 1.348l-3.225 2.619a3.19 3.19 0 0 0-1.94-.667 3.19 3.19 0 0 0-1.94.667l-3.224-2.619a3.32 3.32 0 0 0 .289-1.348c0-1.823-1.455-3.3-3.25-3.3s-3.25 1.477-3.25 3.3c0 .742.25 1.42.657 1.97l-2.58 3.274a3.187 3.187 0 0 0-1.327-.294c-1.795 0-3.25 1.477-3.25 3.3 0 1.823 1.455 3.3 3.25 3.3s3.25-1.477 3.25-3.3c0-.742-.25-1.42-.657-1.97l2.58-3.274c.406.186.853.294 1.327.294a3.19 3.19 0 0 0 1.94-.667l3.224 2.619a3.32 3.32 0 0 0-.289 1.348c0 1.823 1.455 3.3 3.25 3.3s3.25-1.477 3.25-3.3c0-.481-.107-.936-.29-1.348l3.225-2.619a3.19 3.19 0 0 0 1.94.667c1.795 0 3.25-1.477 3.25-3.3 0-1.823-1.455-3.3-3.25-3.3zm-22.75 13.2c-.896 0-1.625-.74-1.625-1.65 0-.91.729-1.65 1.625-1.65s1.625.74 1.625 1.65c0 .91-.729 1.65-1.625 1.65zm6.5-8.25c-.896 0-1.625-.74-1.625-1.65 0-.91.729-1.65 1.625-1.65s1.625.74 1.625 1.65c0 .91-.729 1.65-1.625 1.65zm8.125 6.6c-.896 0-1.625-.74-1.625-1.65 0-.91.729-1.65 1.625-1.65s1.625.74 1.625 1.65c0 .91-.729 1.65-1.625 1.65zm8.125-6.6c-.896 0-1.625-.74-1.625-1.65 0-.91.729-1.65 1.625-1.65s1.625.74 1.625 1.65c0 .91-.729 1.65-1.625 1.65z"/>
        </g>
        <g>
            <path fill="#FFF" d="M445.674 267.917H358.18c-7.07 0-12.802-5.751-12.802-12.848v-55.21c0-7.096 5.732-12.848 12.802-12.848h87.493c7.071 0 12.804 5.752 12.804 12.848v55.21c0 7.097-5.733 12.848-12.804 12.848"/>
            <g transform="translate(345 186.823)">
                <mask id="l" fill="#fff">
                    <use xlink:href="#k"/>
                </mask>
                <path fill="#6F6F7A" d="M103.485 79.376H11.232c-4.884 0-8.856-3.986-8.856-8.885v-2.55H112.34v2.55c0 4.9-3.972 8.885-8.855 8.885zM11.232 2.516h92.253c4.883 0 8.855 3.986 8.855 8.886v54.155H2.376V11.402c0-4.9 3.972-8.887 8.856-8.887zm34.384 90.203l2.37-10.95h18.42l2.626 10.95H45.616zm35.153 2.385v4.558H33.947v-4.558h8.721l-.002.008H72.05l-.002-.008h8.721zM103.485.13H11.232C5.028.13 0 5.177 0 11.4v59.09c0 6.224 5.028 11.27 11.232 11.27h34.326l-2.373 10.958h-9.948a1.67 1.67 0 0 0-1.666 1.672v5.985c0 .922.746 1.67 1.666 1.67H81.48c.92 0 1.665-.748 1.665-1.67V94.39c0-.923-.746-1.672-1.665-1.672H71.476L68.848 81.76h34.637c6.203 0 11.231-5.045 11.231-11.269v-59.09c0-6.224-5.028-11.27-11.23-11.27z" mask="url(#l)"/>
            </g>
            <g>
                <path fill="#030100" d="M368.527 229.74h12.463v-12.737h-12.463z"/>
                <path fill="#F9A51A" d="M368 230.278h13.517v-13.813H368v13.813zm10.078-10.692v-2.023h2.198v4.266H369.24v-4.266h2.2v2.023h6.637zm-8.837 5.748h11.035v-2.244H369.24v2.244zm0 3.506h11.035v-2.245H369.24v2.245z"/>
                <g transform="translate(368 216.384)">
                    <g transform="translate(17.161)">
                        <mask id="n" fill="#fff">
                            <use xlink:href="#m"/>
                        </mask>
                        <path fill="#030100" d="M8.068 8.9c0-.825-.237-1.509-.714-2.054-.488-.572-1.131-.86-1.93-.86-.803 0-1.456.281-1.956.841-.48.54-.718 1.23-.718 2.063 0 .842.238 1.539.709 2.093.499.576 1.156.867 1.965.867.788 0 1.43-.294 1.93-.885.477-.558.714-1.248.714-2.065m2.45.03c0 1.397-.429 2.604-1.284 3.624-.894 1.064-2.017 1.594-3.363 1.594-1.106 0-2.11-.436-3.01-1.31v1.056H.422V.077h2.439v4.949c.885-.905 1.91-1.357 3.078-1.357 1.375 0 2.495.535 3.358 1.6.812 1.005 1.22 2.225 1.22 3.661" mask="url(#n)"/>
                    </g>
                    <path fill="#030100" d="M37.4 8.15c0 1.738-.136 2.93-.406 3.57-.682 1.623-1.979 2.428-3.891 2.428-2.085 0-3.414-.929-3.988-2.772-.19-.62-.286-1.718-.286-3.3v-4.15h2.482v4.797c0 .709.026 1.217.08 1.517.108.589.347 1.01.713 1.27.274.201.613.306 1.019.306.825 0 1.378-.393 1.66-1.173.1-.288.148-.898.148-1.843V3.926H37.4V8.15zM46.678 8.9c0-.825-.238-1.509-.715-2.054-.488-.572-1.134-.86-1.93-.86-.806 0-1.455.281-1.956.841-.477.54-.713 1.23-.713 2.063 0 .842.233 1.539.704 2.093.501.576 1.155.867 1.965.867.788 0 1.43-.294 1.93-.885.477-.558.715-1.248.715-2.065m2.448.03c0 1.397-.427 2.604-1.282 3.624-.895 1.064-2.018 1.594-3.366 1.594-1.104 0-2.105-.436-3.008-1.31v4.7h-2.437V3.927h2.437v1.099c.884-.905 1.911-1.357 3.082-1.357 1.37 0 2.49.535 3.357 1.6.809 1.005 1.217 2.225 1.217 3.661M54.798 6.088h-1.443v7.806h-2.447V6.088h-1.255V3.926h1.255V.25h2.447v3.676h1.443z"/>
                    <mask id="p" fill="#fff">
                        <use xlink:href="#o"/>
                    </mask>
                    <path fill="#030100" d="M55.738 13.894h2.457V.077h-2.457zM67.164 7.654a2.426 2.426 0 0 0-.974-1.362 2.802 2.802 0 0 0-1.626-.495c-.68 0-1.275.192-1.784.578-.322.241-.62.67-.894 1.28h5.278zm2.475 1.502l-.008.478h-7.853c.12.727.43 1.296.93 1.699.502.41 1.123.61 1.863.61.912 0 1.7-.325 2.356-.97l2.058.986c-1.004 1.458-2.473 2.19-4.402 2.19-1.5 0-2.74-.48-3.714-1.444-.98-.97-1.466-2.214-1.466-3.74 0-1.509.472-2.769 1.42-3.782.948-1.01 2.155-1.514 3.626-1.514 1.535 0 2.785.499 3.746 1.502.993 1.04 1.474 2.366 1.444 3.985z" mask="url(#p)"/>
                </g>
            </g>
        </g>
    </g>
</svg>
