<svg xmlns="http://www.w3.org/2000/svg" width="34" height="41" viewBox="0 0 34 41">
    <g fill="#6F6F7A" fill-rule="evenodd">
        <path d="M32.382 40.309H7.334c-1.257 0-2.28-1-2.28-2.227v-1.107c0-.419.343-.758.766-.758s.766.34.766.758v1.107c0 .392.336.711.748.711h25.048a.086.086 0 0 0 .086-.085V7.228c0-.393-.335-.712-.748-.712h-1.09a.762.762 0 0 1-.765-.758c0-.418.343-.757.766-.757h1.089C32.977 5 34 6 34 7.228v31.48c0 .882-.726 1.6-1.618 1.6"/>
        <path d="M2.47 1.515a.935.935 0 0 0-.938.93V33.08c0 .392.335.712.748.712h25.134V2.227c0-.393-.336-.712-.748-.712H2.47zm25.71 33.793H2.28c-1.257 0-2.28-1-2.28-2.227V2.444C0 1.097 1.108 0 2.47 0h24.196c1.257 0 2.28 1 2.28 2.227V34.55a.762.762 0 0 1-.766.758z"/>
        <path d="M22.82 9.092h-7.658a.762.762 0 0 1-.766-.758c0-.418.343-.757.766-.757h7.658c.423 0 .766.339.766.757a.762.762 0 0 1-.766.758M22.82 13.335h-7.658a.762.762 0 0 1-.766-.757c0-.419.343-.758.766-.758h7.658c.423 0 .766.339.766.758a.762.762 0 0 1-.766.757M22.82 17.578h-17a.762.762 0 0 1-.766-.757c0-.419.343-.758.766-.758h17c.423 0 .766.339.766.758a.762.762 0 0 1-.766.757M22.82 21.821h-17a.762.762 0 0 1-.766-.757c0-.419.343-.758.766-.758h17c.423 0 .766.339.766.758a.762.762 0 0 1-.766.757M22.82 26.064h-17a.762.762 0 0 1-.766-.757c0-.419.343-.758.766-.758h17c.423 0 .766.339.766.758a.762.762 0 0 1-.766.757M16.847 30.156H5.82a.762.762 0 0 1-.766-.758c0-.419.343-.758.766-.758h11.027c.423 0 .766.34.766.758a.762.762 0 0 1-.766.758M9.19 13.335a.762.762 0 0 1-.767-.757V5.91c0-.419.343-.758.766-.758s.766.34.766.758v6.668a.762.762 0 0 1-.766.757"/>
        <path d="M12.559 6.668h-6.74a.762.762 0 0 1-.765-.758c0-.419.343-.758.766-.758h6.739c.422 0 .765.34.765.758a.762.762 0 0 1-.765.758"/>
    </g>
</svg>
