<svg xmlns="http://www.w3.org/2000/svg" width="37" height="37" viewBox="0 0 37 37">
    <g fill="#6F6F7A" fill-rule="nonzero">
        <path d="M36.861 8.754a1.847 1.847 0 0 0-3.385-.443l-.307.535a.615.615 0 0 0-.837.222l-1.563 2.664-.535-.307a.616.616 0 1 0-.616 1.064l.536.308-5.23 9.064-1.293 3.453-.616 1.15a1.846 1.846 0 0 0 .099 1.995l-1.385 1.698-.387-.972a1.23 1.23 0 0 0-2.197-.173l-.222.376-.21-2.462a1.231 1.231 0 0 0-2.393-.289l-1.514 4.541a.615.615 0 0 0 .388.776c.06.028.125.045.19.049.265 0 .5-.168.585-.418l1.508-4.542.215 2.498a1.23 1.23 0 0 0 2.283.53l.228-.376.382.967a1.23 1.23 0 0 0 2.104.313l1.434-1.815c.159.042.322.062.486.062a1.846 1.846 0 0 0 1.606-.911l.616-1.028 2.344-2.85 5.287-9.175.535.308a.615.615 0 0 1 .228.843l-2.462 4.265a.615.615 0 0 0 .197.867.615.615 0 0 0 .843-.227l2.462-4.265a1.845 1.845 0 0 0-.677-2.523l-.536-.308 1.539-2.664a.616.616 0 0 0-.222-.837l.308-.536c.252-.43.319-.946.184-1.427zm-2.32.172a.615.615 0 0 1 .844-.227.616.616 0 0 1 .227.842l-.307.536-1.071-.615.307-.536zm-8.387 17.182l-.308-.179-.91-.53.873-2.337 1.939 1.12-1.594 1.926zm-1.846 1.778a.615.615 0 0 1-.185-.806l.308-.535 1.07.615-.307.53a.615.615 0 0 1-.886.196zm4.141-4.714l-2.129-1.23 4.923-8.53 2.13 1.231-4.924 8.53zm5.539-9.594l-2.13-1.23 1.231-2.13 2.13 1.231-1.231 2.13zM9.71 27.578l-2.178 2.173-1.304-1.305a.616.616 0 1 0-.868.874l1.305 1.305c.23.229.542.357.867.357.327.001.642-.127.874-.357l2.172-2.179a.615.615 0 0 0-.867-.868z"/>
        <path d="M2.462 29.234a5.23 5.23 0 1 0 10.461 0 .615.615 0 0 0-1.23 0 4 4 0 1 1-1.6-3.2.615.615 0 1 0 .738-.985 5.231 5.231 0 0 0-8.37 4.185zM22.154 4.926a.615.615 0 1 0 0-1.23h-16a.615.615 0 0 0-.616.615v2.461c0 .34.276.616.616.616h16a.615.615 0 1 0 0-1.231H6.769v-1.23h15.385zM8 8.618A.615.615 0 0 0 8 9.85h12.308a.615.615 0 1 0 0-1.23H8zM24 12.926H10.462a.615.615 0 0 0 0 1.23H24a.615.615 0 1 0 0-1.23zM17.846 17.234a.615.615 0 0 0-.615-.616H4.923a.615.615 0 0 0 0 1.231h12.308c.34 0 .615-.275.615-.615zM24 16.618h-4.308a.615.615 0 0 0 0 1.231H24a.615.615 0 1 0 0-1.23zM11.077 20.926a.615.615 0 1 0 0-1.23H4.923a.615.615 0 0 0 0 1.23h6.154zM13.538 20.926h4.308a.615.615 0 1 0 0-1.23h-4.308a.615.615 0 0 0 0 1.23z"/>
        <path d="M27.692 28.31a.615.615 0 0 0-.615.616v6.154c0 .34-.276.615-.615.615H1.846a.615.615 0 0 1-.615-.615V1.85c0-.34.275-.616.615-.616h24.616c.34 0 .615.275.615.615v11.557a.615.615 0 0 0 1.23 0V1.85c0-1.02-.826-1.846-1.845-1.846H1.846C.826.003 0 .83 0 1.849v33.23c0 1.02.827 1.847 1.846 1.847h24.616c1.02 0 1.846-.826 1.846-1.846v-6.154a.615.615 0 0 0-.616-.615z"/>
    </g>
</svg>
