<svg xmlns="http://www.w3.org/2000/svg" width="40" height="32" viewBox="0 0 40 32">
    <g fill="#6F6F7A" fill-rule="nonzero">
        <path d="M36.667 3.333H22V2c0-1.133-.867-2-2-2H5.333c-1.133 0-2 .867-2 2v2.667h1.334V2c0-.4.266-.667.666-.667H20c.4 0 .667.267.667.667v2.667h16c1.133 0 2 .866 2 2v22c0 1.133-.867 2-2 2-1.134 0-2-.867-2-2V10a3.301 3.301 0 0 0-3.334-3.333h-28A3.301 3.301 0 0 0 0 10v18.667A3.301 3.301 0 0 0 3.333 32h33.334A3.301 3.301 0 0 0 40 28.667v-22a3.301 3.301 0 0 0-3.333-3.334zM3.333 30.667c-1.133 0-2-.867-2-2V10c0-1.133.867-2 2-2h28c1.134 0 2 .867 2 2v18.667c0 .733.267 1.4.667 2H3.333z"/>
        <path d="M36 8h1.333v20.667H36zM17.333 9.333c-5.533 0-10 4.467-10 10 0 5.534 4.467 10 10 10 5.534 0 10-4.466 10-10 0-5.533-4.466-10-10-10zm0 18.667a8.65 8.65 0 0 1-8.666-8.667 8.65 8.65 0 0 1 8.666-8.666A8.65 8.65 0 0 1 26 19.333 8.65 8.65 0 0 1 17.333 28z"/>
        <path d="M14 21.733l-2.2-2.2-.933.934L14 23.6l8.467-8.467-.934-.933z"/>
    </g>
</svg>
