<svg xmlns="http://www.w3.org/2000/svg" width="50" height="43" viewBox="0 0 50 43">
    <g fill="#000" fill-rule="nonzero" stroke="#000" stroke-width=".3">
        <path d="M48.272 41.963a.726.726 0 0 1-.516-.213l-4.297-4.297a.729.729 0 1 1 1.03-1.03l4.297 4.296a.728.728 0 0 1-.514 1.244z"/>
        <path d="M36.423 40.836c-6.142 0-11.138-4.996-11.138-11.138 0-6.14 4.996-11.137 11.138-11.137 6.141 0 11.137 4.996 11.137 11.137 0 6.142-4.996 11.138-11.137 11.138zm0-20.818c-5.338 0-9.68 4.343-9.68 9.68 0 5.338 4.342 9.68 9.68 9.68 5.337 0 9.68-4.342 9.68-9.68 0-5.337-4.343-9.68-9.68-9.68z"/>
        <path d="M26.489 33.545H5.892A4.897 4.897 0 0 1 1 28.653V5.9a4.898 4.898 0 0 1 4.892-4.892h27.063a4.898 4.898 0 0 1 4.893 4.892v13.414a.729.729 0 0 1-1.458 0V5.9a3.439 3.439 0 0 0-3.435-3.435H5.892a3.439 3.439 0 0 0-3.435 3.435v22.754a3.439 3.439 0 0 0 3.435 3.435H26.49a.729.729 0 0 1 0 1.457z"/>
        <path d="M37.119 10.93H1.729a.729.729 0 0 1 0-1.457h35.39a.729.729 0 1 1 0 1.458zM11.448 8.04a2.039 2.039 0 0 1-2.036-2.037c0-1.123.913-2.037 2.036-2.037s2.037.914 2.037 2.037a2.039 2.039 0 0 1-2.037 2.036zm0-2.616a.58.58 0 1 0 .002 1.16.58.58 0 0 0-.002-1.16zM5.573 8.02a2.039 2.039 0 0 1-2.036-2.036c0-1.123.913-2.036 2.036-2.036A2.04 2.04 0 0 1 7.61 5.984a2.039 2.039 0 0 1-2.037 2.037zm0-2.615a.58.58 0 1 0 .002 1.16.58.58 0 0 0-.002-1.16zM17.323 8.057a2.039 2.039 0 0 1-2.036-2.036c0-1.123.914-2.036 2.036-2.036 1.123 0 2.037.913 2.037 2.036a2.039 2.039 0 0 1-2.037 2.036zm0-2.615a.58.58 0 1 0 .001 1.16.58.58 0 0 0 0-1.16z"/>
    </g>
</svg>
