<svg xmlns="http://www.w3.org/2000/svg" xmlns:xlink="http://www.w3.org/1999/xlink" width="723" height="514" viewBox="0 0 723 514">
    <defs>
        <path id="a" d="M6 0h651a6 6 0 0 1 6 6v442a6 6 0 0 1-6 6H6a6 6 0 0 1-6-6V6a6 6 0 0 1 6-6z"/>
        <filter id="b" width="115.8%" height="123.1%" x="-7.9%" y="-8.3%" filterUnits="objectBoundingBox">
            <feOffset dy="15" in="SourceAlpha" result="shadowOffsetOuter1"/>
            <feGaussianBlur in="shadowOffsetOuter1" result="shadowBlurOuter1" stdDeviation="15"/>
            <feColorMatrix in="shadowBlurOuter1" values="0 0 0 0 0.197172619 0 0 0 0 0.197172619 0 0 0 0 0.197172619 0 0 0 0.142837631 0"/>
        </filter>
        <linearGradient id="d" x1="50%" x2="50%" y1="0%" y2="100%">
            <stop offset="0%" stop-color="#F7F6F7"/>
            <stop offset="100%" stop-color="#D7D5D7"/>
        </linearGradient>
        <linearGradient id="e" x1="50%" x2="50%" y1="0%" y2="100%">
            <stop offset="0%" stop-color="#FEFEFE"/>
            <stop offset="100%" stop-color="#F2F1F2"/>
        </linearGradient>
        <path id="f" d="M.272.047h6.49v8.6H.271z"/>
        <path id="h" d="M0 10.718h44.769V.048H0z"/>
    </defs>
    <g fill="none" fill-rule="evenodd" transform="translate(-41 -13)">
        <g transform="translate(71 28)">
            <mask id="c" fill="#fff">
                <use xlink:href="#a"/>
            </mask>
            <use fill="#000" filter="url(#b)" xlink:href="#a"/>
            <use fill="#FFF" xlink:href="#a"/>
            <path fill="#F7F7F7" d="M0 36h663v32H0z" mask="url(#c)"/>
        </g>
        <path fill="url(#d)" stroke="#C1C1C1" stroke-width=".5" d="M71.25 64.75h662.5V34a5.75 5.75 0 0 0-5.75-5.75H77A5.75 5.75 0 0 0 71.25 34v30.75z"/>
        <path fill="#BCBABC" d="M710 41h24v24h-24z"/>
        <path fill="#6B696B" d="M723 53h5v1h-5v5h-1v-5h-5v-1h5v-5h1v5z"/>
        <path fill="url(#e)" stroke="#D2D0D2" stroke-width=".5" d="M163 35.75h513a4.25 4.25 0 0 1 4.25 4.25v14a4.25 4.25 0 0 1-4.25 4.25H163a4.25 4.25 0 0 1-4.25-4.25V40a4.25 4.25 0 0 1 4.25-4.25z"/>
        <path fill="#999" fill-rule="nonzero" d="M661.525 42.526a5.398 5.398 0 0 0-3.602 1.58 5.425 5.425 0 0 0 0 7.663 5.425 5.425 0 0 0 7.664 0 5.402 5.402 0 0 0 1.585-3.825h-1.517a3.89 3.89 0 0 1-1.14 2.752 3.906 3.906 0 0 1-5.519 0 3.906 3.906 0 0 1 0-5.518 3.885 3.885 0 0 1 2.53-1.133v2.159l4.451-2.942-4.452-2.941v2.205z"/>
        <text fill="#0D0B00" font-family="AppleSDGothicNeo-Regular, Apple SD Gothic Neo" font-size="13">
            <tspan x="343.22" y="51">www.buptle.com</tspan>
        </text>
        <rect width="35" height="7" x="529" y="79" fill="#E2E2E2" rx="3.5"/>
        <rect width="35" height="7" x="574" y="79" fill="#E2E2E2" rx="3.5"/>
        <rect width="35" height="7" x="619" y="79" fill="#E2E2E2" rx="3.5"/>
        <g fill="#B9B9B9" fill-rule="nonzero">
            <path d="M678.915 81.762c.791 0 1.477-.283 2.037-.844.56-.56.844-1.245.844-2.037 0-.791-.284-1.477-.844-2.037a2.788 2.788 0 0 0-2.037-.844c-.792 0-1.477.284-2.037.844a2.788 2.788 0 0 0-.845 2.037c0 .792.284 1.477.845 2.037.56.56 1.245.844 2.037.844zM683.956 85.199a7.117 7.117 0 0 0-.097-.756 5.955 5.955 0 0 0-.186-.76 3.754 3.754 0 0 0-.312-.709 2.675 2.675 0 0 0-.471-.614 2.077 2.077 0 0 0-.677-.425 2.339 2.339 0 0 0-.864-.156c-.122 0-.24.05-.468.198-.14.092-.305.198-.488.315-.157.1-.369.193-.631.278a2.506 2.506 0 0 1-.772.124c-.256 0-.516-.042-.772-.124a2.789 2.789 0 0 1-.63-.278 66.905 66.905 0 0 1-.49-.315c-.227-.148-.345-.199-.467-.199-.311 0-.602.053-.864.157-.263.104-.49.247-.677.425-.178.17-.336.377-.47.614-.13.229-.236.467-.313.709a5.97 5.97 0 0 0-.186.76c-.048.268-.08.522-.097.756-.016.229-.024.466-.024.706 0 .625.199 1.13.59 1.503.387.368.898.555 1.52.555h5.76c.622 0 1.134-.187 1.52-.555.392-.372.59-.878.59-1.503 0-.24-.008-.479-.024-.706z"/>
        </g>
        <circle cx="93" cy="47" r="6" fill="#FF6060"/>
        <circle cx="113" cy="47" r="6" fill="#FFC560"/>
        <circle cx="133" cy="47" r="6" fill="#9AD571"/>
        <path fill="#030100" d="M121.339 85.397h8.012v-7.784h-8.012z"/>
        <path fill="#F9A51A" d="M121 85.726h8.69v-8.442H121v8.442zm6.479-6.535v-1.236h1.413v2.607h-7.094v-2.607h1.414v1.236h4.267zm-5.68 3.513h7.093v-1.371h-7.094v1.371zm0 2.143h7.093v-1.373h-7.094v1.373z"/>
        <g transform="translate(121 77.235)">
            <g transform="translate(11.032)">
                <mask id="g" fill="#fff">
                    <use xlink:href="#f"/>
                </mask>
                <path fill="#030100" d="M5.187 5.439c0-.504-.153-.922-.46-1.255-.313-.35-.727-.526-1.24-.526-.516 0-.936.172-1.257.514-.309.33-.462.752-.462 1.26 0 .515.153.941.455 1.28.321.352.744.53 1.264.53.507 0 .92-.18 1.24-.541.307-.341.46-.763.46-1.262m1.574.018c0 .854-.275 1.592-.825 2.215a2.764 2.764 0 0 1-2.162.974c-.711 0-1.356-.267-1.935-.8v.645H.272V.047h1.567v3.024c.569-.553 1.228-.829 1.979-.829.884 0 1.604.327 2.159.978.522.614.784 1.36.784 2.237" mask="url(#g)"/>
            </g>
            <path fill="#030100" d="M24.043 4.98c0 1.062-.088 1.791-.261 2.182-.438.992-1.272 1.484-2.502 1.484-1.34 0-2.194-.567-2.564-1.694-.121-.378-.183-1.05-.183-2.017V2.399h1.596v2.932c0 .433.016.743.051.927.07.36.223.617.458.776.176.123.394.187.655.187.53 0 .886-.24 1.067-.717.065-.176.096-.549.096-1.126V2.399h1.587v2.582zM30.007 5.439c0-.504-.153-.922-.46-1.255-.313-.35-.728-.526-1.24-.526-.519 0-.935.172-1.258.514-.306.33-.458.752-.458 1.26 0 .515.15.941.453 1.28.322.352.742.53 1.263.53.506 0 .92-.18 1.24-.541.307-.341.46-.763.46-1.262m1.574.018c0 .854-.274 1.592-.824 2.215a2.767 2.767 0 0 1-2.164.974c-.71 0-1.353-.267-1.934-.8v2.872h-1.566V2.4h1.566v.671c.569-.553 1.229-.829 1.981-.829.881 0 1.601.327 2.159.978.52.614.782 1.36.782 2.237M35.228 3.72h-.929v4.77h-1.572V3.72h-.807V2.4h.807V.152h1.572v2.246h.929z"/>
            <mask id="i" fill="#fff">
                <use xlink:href="#h"/>
            </mask>
            <path fill="#030100" d="M35.832 8.49h1.58V.048h-1.58zM43.177 4.678a1.488 1.488 0 0 0-.626-.833 1.868 1.868 0 0 0-1.045-.303c-.438 0-.82.118-1.148.354-.206.147-.399.409-.574.782h3.393zm1.591.917l-.005.292h-5.048c.076.445.276.792.598 1.039.322.25.721.372 1.197.372.586 0 1.092-.198 1.514-.592l1.324.602c-.646.891-1.59 1.338-2.83 1.338-.965 0-1.762-.293-2.388-.882-.63-.592-.943-1.353-.943-2.286 0-.921.304-1.691.913-2.31.61-.617 1.386-.926 2.331-.926.987 0 1.79.305 2.409.918.638.636.947 1.446.928 2.435z" mask="url(#i)"/>
        </g>
        <rect width="49" height="7" x="188" y="79" fill="#E2E2E2" rx="3.5"/>
        <rect width="49" height="7" x="247" y="79" fill="#E2E2E2" rx="3.5"/>
        <text fill="#585858" font-family="AppleSDGothicNeo-Bold, Apple SD Gothic Neo" font-size="13" font-weight="bold" letter-spacing=".186">
            <tspan x="259" y="201">기안자:이우주 / 계약상대:법틀 / 검토자:김동주</tspan>
        </text>
        <text fill="#585858" font-family="AppleSDGothicNeo-Bold, Apple SD Gothic Neo" font-size="13" font-weight="bold" letter-spacing=".186">
            <tspan x="259" y="300">기안자:정의한 / 계약상대:아이디어창고 / 검토자:김우진</tspan>
        </text>
        <text fill="#585858" font-family="AppleSDGothicNeo-Bold, Apple SD Gothic Neo" font-size="13" font-weight="bold" letter-spacing=".186">
            <tspan x="259" y="394">기안자:이진영 / 계약상대:BT마케팅 / 검토자:최성현</tspan>
        </text>
        <text fill="#000" font-family="AppleSDGothicNeo-Bold, Apple SD Gothic Neo" font-size="15" font-weight="bold" letter-spacing="-.219">
            <tspan x="352" y="179">법무관리시스템 구축사업 계약서</tspan>
        </text>
        <text fill="#000" font-family="AppleSDGothicNeo-Bold, Apple SD Gothic Neo" font-size="15" font-weight="bold" letter-spacing="-.219">
            <tspan x="259" y="278">신규개발프로젝트 비밀유지계약서</tspan>
        </text>
        <text fill="#000" font-family="AppleSDGothicNeo-Bold, Apple SD Gothic Neo" font-size="15" font-weight="bold" letter-spacing="-.219">
            <tspan x="259" y="372">온라인 통합 마케팅 외주 용역 계약</tspan>
        </text>
        <rect width="81" height="20" x="260" y="163" stroke="#99ACF3" stroke-width="2" rx="10"/>
        <text fill="#343434" font-family="AppleSDGothicNeo-Regular, Apple SD Gothic Neo" font-size="12" letter-spacing=".171">
            <tspan x="286" y="177">승인 요청</tspan>
        </text>
        <path fill="#99ACF3" d="M274.5 178c.828 0 1.5-.447 1.5-1h-3c0 .553.672 1 1.5 1M270.891 176h7.218c.492 0 .89-.032.89-.514H279v-.083a.869.869 0 0 0-.507-.784l-.283-2.39c0-1.75-1.264-3.21-2.947-3.554v-.928a.755.755 0 0 0-.763-.747.755.755 0 0 0-.763.747v.928c-1.683.344-2.947 1.805-2.947 3.554l-.283 2.39a.87.87 0 0 0-.507.784v.083c0 .482.399.514.891.514"/>
        <path stroke="#E2E2E2" stroke-linecap="square" d="M259 245.5h444.98M259 339.5h444.98M259 443.5h444.98"/>
        <text fill="#B4B4B4" font-family="AppleSDGothicNeo-Regular, Apple SD Gothic Neo" font-size="13" letter-spacing=".186">
            <tspan x="577" y="201">20190207-00001004</tspan>
        </text>
        <text fill="#B4B4B4" font-family="AppleSDGothicNeo-Regular, Apple SD Gothic Neo" font-size="13" letter-spacing=".186">
            <tspan x="577" y="300">20190207-00001004</tspan>
        </text>
        <text fill="#B4B4B4" font-family="AppleSDGothicNeo-Regular, Apple SD Gothic Neo" font-size="13" letter-spacing=".186">
            <tspan x="577" y="394">20190207-00001004</tspan>
        </text>
        <rect width="22" height="16" x="165" y="271" fill="#F95F5F" rx="8"/>
        <rect width="22" height="16" x="166" y="303" fill="#BCBCBC" rx="8"/>
        <rect width="16" height="16" x="198" y="330" fill="#BCBCBC" rx="8"/>
        <rect width="16" height="16" x="177" y="359" fill="#BCBCBC" rx="8"/>
        <text fill="#FFF" font-family="AppleSDGothicNeo-SemiBold, Apple SD Gothic Neo" font-size="10" font-weight="500" letter-spacing=".143">
            <tspan x="171" y="283">23</tspan>
        </text>
        <text fill="#FFF" font-family="AppleSDGothicNeo-SemiBold, Apple SD Gothic Neo" font-size="10" font-weight="500" letter-spacing=".143">
            <tspan x="172" y="315">10</tspan>
        </text>
        <text fill="#FFF" font-family="AppleSDGothicNeo-SemiBold, Apple SD Gothic Neo" font-size="10" font-weight="500" letter-spacing=".143">
            <tspan x="203" y="342">8</tspan>
        </text>
        <text fill="#FFF" font-family="AppleSDGothicNeo-SemiBold, Apple SD Gothic Neo" font-size="10" font-weight="500" letter-spacing=".143">
            <tspan x="183" y="371">5</tspan>
        </text>
        <text fill="#000" font-family="AppleSDGothicNeo-Bold, Apple SD Gothic Neo" font-size="14" font-weight="bold" letter-spacing="-.205">
            <tspan x="112" y="276">용역계약</tspan>
        </text>
        <text fill="#000" font-family="AppleSDGothicNeo-Regular, Apple SD Gothic Neo" font-size="14" letter-spacing="-.191">
            <tspan x="112" y="401">구매 계약서</tspan>
        </text>
        <text font-family="AppleSDGothicNeo-Bold, Apple SD Gothic Neo" font-size="12" font-weight="bold" letter-spacing="-.164">
            <tspan x="127" y="308" fill="#000">IT용역</tspan>  <tspan x="127" y="336" fill="#8D8D94" font-family="AppleSDGothicNeo-Regular, Apple SD Gothic Neo" font-weight="normal">시설유지보수</tspan> <tspan x="127" y="364" fill="#8D8D94" font-family="AppleSDGothicNeo-Regular, Apple SD Gothic Neo" font-weight="normal">일반용역</tspan>
        </text>
        <text fill="#000" font-family="AppleSDGothicNeo-Bold, Apple SD Gothic Neo" font-size="13" font-weight="bold" letter-spacing="-.19">
            <tspan x="101" y="249">카테고리</tspan>
        </text>
        <text fill="#000" font-family="AppleSDGothicNeo-Bold, Apple SD Gothic Neo" font-size="13" font-weight="bold" letter-spacing="-.19">
            <tspan x="101" y="122">라벨</tspan>
        </text>
        <text fill="#000" font-family="AppleSDGothicNeo-Bold, Apple SD Gothic Neo" font-size="17" font-weight="bold" letter-spacing="-.248">
            <tspan x="262" y="136">계약서 리스트</tspan>
        </text>
        <path stroke="#EBEBEB" stroke-linecap="square" d="M102 272.5v139.2"/>
        <path fill="#545FEF" d="M101 272h2v13h-2z"/>
        <rect width="66" height="20" x="102" y="141" fill="#F9A51A" opacity=".6" rx="2"/>
        <rect width="73" height="20" x="259" y="309" fill="#FFE794" opacity=".6" rx="2"/>
        <rect width="59" height="20" x="259" y="210" fill="#BF94FF" opacity=".6" rx="2"/>
        <rect width="66" height="20" x="102" y="196" fill="#BCF0B0" opacity=".6" rx="2"/>
        <rect width="59" height="20" x="337" y="405" fill="#BF94FF" opacity=".6" rx="2"/>
        <rect width="66" height="20" x="102" y="168" fill="#BF94FF" opacity=".6" rx="2"/>
        <rect width="59" height="20" x="342" y="309" fill="#BCF0B0" opacity=".6" rx="2"/>
        <rect width="59" height="20" x="328" y="210" fill="#94EAFF" opacity=".6" rx="2"/>
        <rect width="59" height="20" x="397" y="210" fill="#BCF0B0" opacity=".6" rx="2"/>
        <rect width="68" height="20" x="259" y="405" fill="#5FF4B3" opacity=".6" rx="2"/>
        <text fill="#000" font-family="AppleSDGothicNeo-Regular, Apple SD Gothic Neo" font-size="11" letter-spacing=".157">
            <tspan x="112" y="155">가맹계약</tspan>
        </text>
        <text fill="#000" font-family="AppleSDGothicNeo-Regular, Apple SD Gothic Neo" font-size="11" letter-spacing=".157">
            <tspan x="266" y="323">비밀유지계약</tspan>
        </text>
        <text fill="#000" font-family="AppleSDGothicNeo-Regular, Apple SD Gothic Neo" font-size="11" letter-spacing=".157">
            <tspan x="269" y="224">용역계약</tspan>
        </text>
        <text fill="#000" font-family="AppleSDGothicNeo-Regular, Apple SD Gothic Neo" font-size="11" letter-spacing=".157">
            <tspan x="112" y="182">용역계약</tspan>
        </text>
        <text fill="#000" font-family="AppleSDGothicNeo-Regular, Apple SD Gothic Neo" font-size="11" letter-spacing=".157">
            <tspan x="352" y="323">전자계약</tspan>
        </text>
        <text fill="#000" font-family="AppleSDGothicNeo-Regular, Apple SD Gothic Neo" font-size="11" letter-spacing=".157">
            <tspan x="343" y="224">IT계약</tspan>
        </text>
        <text fill="#000" font-family="AppleSDGothicNeo-Regular, Apple SD Gothic Neo" font-size="11" letter-spacing=".157">
            <tspan x="407" y="224">전자계약</tspan>
        </text>
        <text fill="#000" font-family="AppleSDGothicNeo-Regular, Apple SD Gothic Neo" font-size="11" letter-spacing=".157">
            <tspan x="269" y="419">마케팅계약</tspan>
        </text>
        <text fill="#000" font-family="AppleSDGothicNeo-Regular, Apple SD Gothic Neo" font-size="11" letter-spacing=".157">
            <tspan x="112" y="210">전자계약</tspan>
        </text>
        <text fill="#000" font-family="AppleSDGothicNeo-Regular, Apple SD Gothic Neo" font-size="11" letter-spacing=".157">
            <tspan x="347" y="419">용역계약</tspan>
        </text>
        <g transform="translate(650 357)">
            <rect width="52" height="20" x="1" y="1" stroke="#5A76DE" stroke-width="2" rx="10"/>
            <circle cx="12" cy="11" r="3" fill="#5A76DE"/>
            <text fill="#343434" font-family="AppleSDGothicNeo-Regular, Apple SD Gothic Neo" font-size="12" letter-spacing=".171">
                <tspan x="22" y="15">완료</tspan>
            </text>
        </g>
        <g transform="translate(638 164)">
            <rect width="64" height="20" x="1" y="1" stroke="#FFCB19" stroke-width="2" rx="10"/>
            <text fill="#343434" font-family="AppleSDGothicNeo-Regular, Apple SD Gothic Neo" font-size="12" letter-spacing=".171">
                <tspan x="23" y="15">검토중</tspan>
            </text>
            <circle cx="14" cy="11" r="3" fill="#FFCB19"/>
        </g>
        <g transform="translate(638 263)">
            <rect width="64" height="20" x="1" y="1" stroke="#FFCB19" stroke-width="2" rx="10"/>
            <text fill="#343434" font-family="AppleSDGothicNeo-Regular, Apple SD Gothic Neo" font-size="12" letter-spacing=".171">
                <tspan x="23" y="15">서명중</tspan>
            </text>
            <circle cx="14" cy="11" r="3" fill="#FFCB19"/>
        </g>
    </g>
</svg>
