<svg xmlns="http://www.w3.org/2000/svg" xmlns:xlink="http://www.w3.org/1999/xlink" width="723" height="511" viewBox="0 0 723 511">
    <defs>
        <path id="a" d="M6 0h651a6 6 0 0 1 6 6v440.989a6 6 0 0 1-6 6H6a6 6 0 0 1-6-6V6a6 6 0 0 1 6-6z"/>
        <filter id="b" width="115.8%" height="123.2%" x="-7.9%" y="-8.3%" filterUnits="objectBoundingBox">
            <feOffset dy="15" in="SourceAlpha" result="shadowOffsetOuter1"/>
            <feGaussianBlur in="shadowOffsetOuter1" result="shadowBlurOuter1" stdDeviation="15"/>
            <feColorMatrix in="shadowBlurOuter1" values="0 0 0 0 0.197172619 0 0 0 0 0.197172619 0 0 0 0 0.197172619 0 0 0 0.142837631 0"/>
        </filter>
        <linearGradient id="d" x1="50%" x2="50%" y1="0%" y2="100%">
            <stop offset="0%" stop-color="#F7F6F7"/>
            <stop offset="100%" stop-color="#D7D5D7"/>
        </linearGradient>
        <linearGradient id="e" x1="50%" x2="50%" y1="0%" y2="100%">
            <stop offset="0%" stop-color="#FEFEFE"/>
            <stop offset="100%" stop-color="#F2F1F2"/>
        </linearGradient>
        <path id="f" d="M.272.047h6.49v8.6H.271z"/>
        <path id="h" d="M0 10.718h44.769V.048H0z"/>
        <path id="j" d="M0 0h10.984v10.539H0z"/>
        <path id="l" d="M0 0h10.983v10.983H0z"/>
        <path id="o" d="M0 4.045h160v69.768H0z"/>
        <filter id="n" width="116.2%" height="137.3%" x="-8.1%" y="-15.8%" filterUnits="objectBoundingBox">
            <feOffset dy="2" in="SourceAlpha" result="shadowOffsetOuter1"/>
            <feGaussianBlur in="shadowOffsetOuter1" result="shadowBlurOuter1" stdDeviation="4"/>
            <feComposite in="shadowBlurOuter1" in2="SourceAlpha" operator="out" result="shadowBlurOuter1"/>
            <feColorMatrix in="shadowBlurOuter1" values="0 0 0 0 0 0 0 0 0 0 0 0 0 0 0 0 0 0 0.0646033654 0"/>
        </filter>
        <path id="p" d="M0 0h10.984v10.656H0z"/>
        <path id="r" d="M9.724 1.692L4 7.71a.91.91 0 0 1-1.333 0L.276 5.197a1.03 1.03 0 0 1 0-1.403.911.911 0 0 1 1.333 0l1.724 1.813L8.39.291a.91.91 0 0 1 1.334 0 1.026 1.026 0 0 1 0 1.401"/>
        <path id="s" d="M9.724 1.692L4 7.71a.91.91 0 0 1-1.333 0L.276 5.197a1.03 1.03 0 0 1 0-1.403.911.911 0 0 1 1.333 0l1.724 1.813L8.39.291a.91.91 0 0 1 1.334 0 1.026 1.026 0 0 1 0 1.401"/>
    </defs>
    <g fill="none" fill-rule="evenodd" transform="translate(-12)">
        <g transform="translate(42 13.011)">
            <mask id="c" fill="#fff">
                <use xlink:href="#a"/>
            </mask>
            <use fill="#000" filter="url(#b)" xlink:href="#a"/>
            <use fill="#FFF" xlink:href="#a"/>
            <path fill="#F7F7F7" d="M0 30.414h663v32.428H0z" mask="url(#c)"/>
        </g>
        <path fill="url(#d)" stroke="#C1C1C1" stroke-width=".5" d="M42.25 49.162h662.5V18a5.75 5.75 0 0 0-5.75-5.75H48A5.75 5.75 0 0 0 42.25 18v31.162z"/>
        <path fill="#BCBABC" d="M681 25.145h24v24.267h-24z"/>
        <path fill="#6B696B" d="M694 37.278h5v1.012h-5v5.055h-1V38.29h-5v-1.012h5v-5.055h1v5.055z"/>
        <path fill="url(#e)" stroke="#D2D0D2" stroke-width=".5" d="M134 19.75h513a4.25 4.25 0 0 1 4.25 4.25v14a4.25 4.25 0 0 1-4.25 4.25H134a4.25 4.25 0 0 1-4.25-4.25V24a4.25 4.25 0 0 1 4.25-4.25z"/>
        <path fill="#999" fill-rule="nonzero" d="M632.525 26.526a5.398 5.398 0 0 0-3.602 1.58 5.425 5.425 0 0 0 0 7.663 5.425 5.425 0 0 0 7.664 0 5.402 5.402 0 0 0 1.585-3.825h-1.517a3.89 3.89 0 0 1-1.14 2.752 3.906 3.906 0 0 1-5.519 0 3.906 3.906 0 0 1 0-5.518 3.885 3.885 0 0 1 2.53-1.133v2.159l4.451-2.942-4.452-2.941v2.205z"/>
        <text fill="#0D0B00" font-family="AppleSDGothicNeo-Regular, Apple SD Gothic Neo" font-size="13">
            <tspan x="314.22" y="35.212">www.buptle.com</tspan>
        </text>
        <rect width="35" height="7.078" x="500" y="63.568" fill="#E2E2E2" rx="3.539"/>
        <rect width="35" height="7.078" x="545" y="63.568" fill="#E2E2E2" rx="3.539"/>
        <rect width="35" height="7.078" x="590" y="63.568" fill="#E2E2E2" rx="3.539"/>
        <g fill="#B9B9B9" fill-rule="nonzero">
            <path d="M649.915 66.361c.791 0 1.477-.287 2.037-.853.56-.567.844-1.26.844-2.06s-.284-1.494-.844-2.06a2.773 2.773 0 0 0-2.037-.853c-.792 0-1.477.287-2.037.853a2.835 2.835 0 0 0-.845 2.06c0 .8.284 1.493.845 2.06.56.566 1.245.853 2.037.853zM654.956 69.836a7.272 7.272 0 0 0-.097-.765 6.077 6.077 0 0 0-.186-.768 3.817 3.817 0 0 0-.312-.717 2.701 2.701 0 0 0-.471-.62 2.074 2.074 0 0 0-.677-.43 2.316 2.316 0 0 0-.864-.159c-.122 0-.24.051-.468.201-.14.093-.305.2-.488.318a2.78 2.78 0 0 1-.631.281 2.481 2.481 0 0 1-.772.127c-.256 0-.516-.043-.772-.127a2.774 2.774 0 0 1-.63-.28 66.822 66.822 0 0 1-.49-.319c-.227-.15-.345-.2-.467-.2-.311 0-.602.053-.864.158-.263.105-.49.25-.677.43-.178.172-.336.38-.47.62-.13.231-.236.473-.313.717a6.092 6.092 0 0 0-.186.768c-.048.271-.08.529-.097.765-.016.231-.024.472-.024.714 0 .632.199 1.143.59 1.52.387.372.898.56 1.52.56h5.76c.622 0 1.134-.188 1.52-.56.392-.377.59-.888.59-1.52 0-.244-.008-.484-.024-.714z"/>
        </g>
        <ellipse cx="64" cy="31.212" fill="#FF6060" rx="6" ry="6.067"/>
        <ellipse cx="84" cy="31.212" fill="#FFC560" rx="6" ry="6.067"/>
        <ellipse cx="104" cy="31.212" fill="#9AD571" rx="6" ry="6.067"/>
        <path fill="#030100" d="M92.339 70.397h8.012v-7.784h-8.012z"/>
        <path fill="#F9A51A" d="M92 70.726h8.69v-8.442H92v8.442zm6.479-6.535v-1.236h1.413v2.607h-7.094v-2.607h1.414v1.236h4.267zm-5.68 3.513h7.093v-1.371h-7.094v1.371zm0 2.143h7.093v-1.373h-7.094v1.373z"/>
        <g transform="translate(92 62.235)">
            <g transform="translate(11.032)">
                <mask id="g" fill="#fff">
                    <use xlink:href="#f"/>
                </mask>
                <path fill="#030100" d="M5.187 5.439c0-.504-.153-.922-.46-1.255-.313-.35-.727-.526-1.24-.526-.516 0-.936.172-1.257.514-.309.33-.462.752-.462 1.26 0 .515.153.941.455 1.28.321.352.744.53 1.264.53.507 0 .92-.18 1.24-.541.307-.341.46-.763.46-1.262m1.574.018c0 .854-.275 1.592-.825 2.215a2.764 2.764 0 0 1-2.162.974c-.711 0-1.356-.267-1.935-.8v.645H.272V.047h1.567v3.024c.569-.553 1.228-.829 1.979-.829.884 0 1.604.327 2.159.978.522.614.784 1.36.784 2.237" mask="url(#g)"/>
            </g>
            <path fill="#030100" d="M24.043 4.98c0 1.062-.088 1.791-.261 2.182-.438.992-1.272 1.484-2.502 1.484-1.34 0-2.194-.567-2.564-1.694-.121-.378-.183-1.05-.183-2.017V2.399h1.596v2.932c0 .433.016.743.051.927.07.36.223.617.458.776.176.123.394.187.655.187.53 0 .886-.24 1.067-.717.065-.176.096-.549.096-1.126V2.399h1.587v2.582zM30.007 5.439c0-.504-.153-.922-.46-1.255-.313-.35-.728-.526-1.24-.526-.519 0-.935.172-1.258.514-.306.33-.458.752-.458 1.26 0 .515.15.941.453 1.28.322.352.742.53 1.263.53.506 0 .92-.18 1.24-.541.307-.341.46-.763.46-1.262m1.574.018c0 .854-.274 1.592-.824 2.215a2.767 2.767 0 0 1-2.164.974c-.71 0-1.353-.267-1.934-.8v2.872h-1.566V2.4h1.566v.671c.569-.553 1.229-.829 1.981-.829.881 0 1.601.327 2.159.978.52.614.782 1.36.782 2.237M35.228 3.72h-.929v4.77h-1.572V3.72h-.807V2.4h.807V.152h1.572v2.246h.929z"/>
            <mask id="i" fill="#fff">
                <use xlink:href="#h"/>
            </mask>
            <path fill="#030100" d="M35.832 8.49h1.58V.048h-1.58zM43.177 4.678a1.488 1.488 0 0 0-.626-.833 1.868 1.868 0 0 0-1.045-.303c-.438 0-.82.118-1.148.354-.206.147-.399.409-.574.782h3.393zm1.591.917l-.005.292h-5.048c.076.445.276.792.598 1.039.322.25.721.372 1.197.372.586 0 1.092-.198 1.514-.592l1.324.602c-.646.891-1.59 1.338-2.83 1.338-.965 0-1.762-.293-2.388-.882-.63-.592-.943-1.353-.943-2.286 0-.921.304-1.691.913-2.31.61-.617 1.386-.926 2.331-.926.987 0 1.79.305 2.409.918.638.636.947 1.446.928 2.435z" mask="url(#i)"/>
        </g>
        <rect width="49" height="7.078" x="159" y="63.568" fill="#E2E2E2" rx="3.539"/>
        <rect width="49" height="7.078" x="218" y="63.568" fill="#E2E2E2" rx="3.539"/>
        <text fill="#000" font-family="AppleSDGothicNeo-Regular, Apple SD Gothic Neo" font-size="17" letter-spacing="-.187">
            <tspan x="72" y="122.197">서울특별시 노원구 공릉동</tspan>
        </text>
        <g transform="translate(265 104)">
            <rect width="63" height="29" x=".5" y="2.5" fill="#FFF" stroke="#979797" rx="4"/>
            <text fill="#000" font-family="AppleSDGothicNeo-Regular, Apple SD Gothic Neo" font-size="13" letter-spacing="-.19">
                <tspan x="21.345" y="12">삭제</tspan>
            </text>
        </g>
        <g transform="translate(338 104)">
            <rect width="64" height="29" x=".5" y="2.5" fill="#FFF" stroke="#979797" rx="4"/>
            <text fill="#000" font-family="AppleSDGothicNeo-Regular, Apple SD Gothic Neo" font-size="13" letter-spacing="-.19">
                <tspan x="10.796" y="12">임시저장</tspan>
            </text>
        </g>
        <path fill="#FFF" stroke="#D0D2DB" d="M77 149.003a4.5 4.5 0 0 0-4.5 4.5v279.185a4.5 4.5 0 0 0 4.5 4.5h321a4.5 4.5 0 0 0 4.5-4.5V153.503a4.5 4.5 0 0 0-4.5-4.5H77z"/>
        <path fill="#FFE7D4" d="M210 202.094h48v15.167h-48z"/>
        <path fill="#D2E2FF" d="M90 290.062h154v36.401H90z"/>
        <path fill="#E8E8E8" d="M195 396.232h191v15.167H195z"/>
        <path fill="#FF7D19" fill-opacity=".501" d="M115 220.294h105v15.167H115z"/>
        <g transform="translate(205 197.038)">
            <mask id="k" fill="#fff">
                <use xlink:href="#j"/>
            </mask>
            <path fill="#FF7D19" d="M8.327 3.498h-5.67a.385.385 0 0 1 0-.77h5.67a.385.385 0 1 1 0 .77m0 2.156h-5.67a.385.385 0 0 1 0-.77h5.67a.385.385 0 0 1 0 .77M9.058 0H1.926A1.928 1.928 0 0 0 0 1.926v4.4C0 7.386.864 8.25 1.926 8.25h4.543l2.175 2.175a.385.385 0 0 0 .657-.273V8.236a1.929 1.929 0 0 0 1.683-1.91v-4.4A1.928 1.928 0 0 0 9.058 0" mask="url(#k)"/>
        </g>
        <g fill="#000" font-size="13" letter-spacing=".186">
            <text font-family="AppleSDGothicNeo-Bold, Apple SD Gothic Neo" font-weight="bold" transform="translate(93 167.715)">
                <tspan x="0" y="12.1">제 1조 (목적)</tspan>
            </text>
            <text font-family="AppleSDGothicNeo-Bold, Apple SD Gothic Neo" font-weight="bold" transform="translate(93 167.715)">
                <tspan x="0" y="188.038">제 2조 (계약기간)</tspan>
            </text>
            <text font-family="AppleSDGothicNeo-Regular, Apple SD Gothic Neo" transform="translate(93 167.715)">
                <tspan x="0" y="45.768">본 계약은 “을”이 (이하 “시스템” 이라 함)의 개발 및 설치</tspan> <tspan x="0" y="63.768">용역(이하 “용역”이라 함) 을 “갑” 에게 제공하고, “갑”은</tspan> <tspan x="0" y="81.768">그 대가를 지급함에 있어 필요한 양 당사자의 권리와 의무</tspan> <tspan x="0" y="99.768">명확히 하는 것을 목적으로 한다.</tspan>
            </text>
            <text font-family="AppleSDGothicNeo-Regular, Apple SD Gothic Neo" transform="translate(93 167.715)">
                <tspan x="0" y="221.606">본 계약은 필요한 양 당사자의 권리와 의무를 명확히 하는</tspan> <tspan x="0" y="239.606">것을 목적으로 한다 “을”은 본 계약 기간 내에 시스템을 구</tspan> <tspan x="0" y="257.606">축, 개발 및 설치 완료한다.</tspan>
            </text>
            <text font-family="AppleSDGothicNeo-Regular, Apple SD Gothic Neo" transform="translate(93 167.715)">
                <tspan x="0" y="135.559">용역의 범위는 첨부된</tspan> <tspan x="0" y="153.559">과업지시서의 내용을 따른다.</tspan>
            </text>
        </g>
        <g transform="translate(85 285.007)">
            <mask id="m" fill="#fff">
                <use xlink:href="#l"/>
            </mask>
            <path fill="#196EFF" d="M7.4 7.756a.172.172 0 0 1-.172.171h-.596a.164.164 0 0 1-.145-.077L4.516 4.758v2.998a.172.172 0 0 1-.172.171h-.589a.172.172 0 0 1-.172-.171V3.223a.17.17 0 0 1 .172-.168h.592c.064 0 .111.027.145.078l1.975 3.092V3.223a.17.17 0 0 1 .172-.168h.589a.17.17 0 0 1 .171.168v4.533zM5.49 0a5.491 5.491 0 1 0 0 10.983A5.491 5.491 0 0 0 5.491 0z" mask="url(#m)"/>
        </g>
        <g transform="translate(205 235.461)">
            <use fill="#000" filter="url(#n)" xlink:href="#o"/>
            <path fill="#FFF" stroke="#FF7D19" stroke-linejoin="square" d="M.5 4.545h159v68.768H.5z"/>
        </g>
        <g transform="translate(205 235.461)">
            <mask id="q" fill="#fff">
                <use xlink:href="#p"/>
            </mask>
            <path fill="#FF7D19" d="M8.327 3.537h-5.67a.387.387 0 0 1-.385-.39c0-.215.173-.39.385-.39h5.67c.213 0 .385.175.385.39 0 .215-.173.39-.385.39m0 2.18h-5.67a.387.387 0 0 1-.385-.389c0-.215.173-.39.385-.39h5.67c.213 0 .385.175.385.39 0 .215-.173.39-.385.39M9.058 0H1.926A1.939 1.939 0 0 0 0 1.947v4.449c0 1.073.864 1.947 1.926 1.947h4.543l2.175 2.199a.383.383 0 0 0 .42.084.39.39 0 0 0 .237-.36V8.327a1.943 1.943 0 0 0 1.683-1.931V1.947A1.939 1.939 0 0 0 9.058 0" mask="url(#q)"/>
        </g>
        <text fill="#000" font-family="AppleSDGothicNeo-Regular, Apple SD Gothic Neo" font-size="12" transform="translate(205 235.461)">
            <tspan x="10" y="20.351">IT 용역의 경우 과업지시서,</tspan> <tspan x="10" y="35.351">비밀유지계약서를 반드시 첨</tspan> <tspan x="10" y="50.351">부 해야합니다.</tspan>
        </text>
        <text fill="#364AED" font-family="AppleSDGothicNeo-Regular, Apple SD Gothic Neo" font-size="11" text-decoration="underline" transform="translate(205 235.461)">
            <tspan x="10" y="64.539">삭제</tspan>
        </text>
        <path fill="#525252" fill-rule="nonzero" d="M192.136 401.485s.162.75.993.75h3.76c.832 0 .994-.75.994-.75l.742-7.36h-7.231l.742 7.36zm4.32-6.254c0-.203.162-.368.362-.368.2 0 .361.165.361.368l-.361 5.53a.365.365 0 0 1-.362.369.365.365 0 0 1-.362-.369l.362-5.53zm-1.808 0c0-.203.162-.368.362-.368.2 0 .361.165.361.368v5.53a.365.365 0 0 1-.361.369.365.365 0 0 1-.362-.369v-5.53zm-1.446-.368c.2 0 .361.165.361.368l.362 5.53a.365.365 0 0 1-.362.369.365.365 0 0 1-.361-.369l-.362-5.53c0-.203.162-.368.362-.368zm5.206-2.212h-1.59v-.738c0-.559-.178-.737-.724-.737h-2.17c-.5 0-.722.247-.722.737v.738h-1.591a.566.566 0 0 0-.579.553c0 .306.259.554.579.554h6.797c.32 0 .579-.248.579-.554a.566.566 0 0 0-.579-.553zm-2.314 0h-2.17v-.738h2.17v.738z"/>
        <path fill="#D8D8D8" stroke="#525252" d="M199.5 403.81h187v1h-187z"/>
        <path fill="#000" d="M42 49h663v418H42z" opacity=".129"/>
        <rect width="227" height="1.011" x="439" y="120.192" fill="#CCC" rx=".506" transform="matrix(1 0 0 -1 0 241.394)"/>
        <ellipse cx="444" cy="121.203" fill="#CCC" rx="5" ry="5.056"/>
        <ellipse cx="535" cy="121.203" fill="#CCC" rx="5" ry="5.056"/>
        <ellipse cx="625" cy="121.203" fill="#CCC" rx="5" ry="5.056"/>
        <ellipse cx="490" cy="121.203" fill="#CCC" rx="5" ry="5.056"/>
        <ellipse cx="580" cy="121.203" fill="#CCC" rx="5" ry="5.056"/>
        <ellipse cx="670" cy="121.203" fill="#CCC" rx="5" ry="5.056"/>
        <text fill="#000" font-family="AppleSDGothicNeo-Bold, Apple SD Gothic Neo" font-size="12" font-weight="bold" letter-spacing=".105">
            <tspan x="609" y="149.464">서명중</tspan>
        </text>
        <ellipse cx="626" cy="121.203" fill="#F9A51A" rx="13" ry="13.145"/>
        <g fill="#FFF" fill-rule="nonzero">
            <path d="M627.84 116.96l2.238 2.25-5.664 5.69-2.237-2.248 5.663-5.692zm3.936-.542l-.998-1.003a.987.987 0 0 0-1.4 0l-.955.961 2.238 2.249 1.115-1.12c.299-.301.299-.786 0-1.087zm-10.77 9.395c-.04.184.125.35.308.304l2.494-.607-2.237-2.249-.565 2.552z"/>
        </g>
        <g>
            <path fill="#FFF" stroke="#D0D2DB" d="M433.5 174.282h241v262.906h-241z"/>
            <text fill="#585858" font-family="AppleSDGothicNeo-Bold, Apple SD Gothic Neo" font-size="13" font-weight="bold" letter-spacing=".186" transform="translate(433 173.782)">
                <tspan x="49" y="75.724">최종승인/정민철</tspan>
            </text>
            <text fill="#364AED" font-family="AppleSDGothicNeo-Medium, Apple SD Gothic Neo" font-size="12" font-weight="400" letter-spacing=".171" transform="translate(433 173.782)">
                <tspan x="200" y="123.258">변경</tspan>
            </text>
            <text font-family="AppleSDGothicNeo-Bold, Apple SD Gothic Neo" font-size="13" font-weight="bold" letter-spacing=".186" transform="translate(433 173.782)">
                <tspan x="49" y="124.258" fill="#FF8B19">법무팀</tspan> <tspan x="83.292" y="124.258" fill="#585858"> </tspan> <tspan x="86.897" y="124.258" fill="#FF8B19">검토</tspan> <tspan x="109.758" y="124.258" fill="#585858">/김동주</tspan>
            </text>
            <text fill="#585858" font-family="AppleSDGothicNeo-Bold, Apple SD Gothic Neo" font-size="13" font-weight="bold" letter-spacing=".186" transform="translate(433 173.782)">
                <tspan x="49" y="172.793">부서장 승인/최인호</tspan>
            </text>
            <text fill="#585858" font-family="AppleSDGothicNeo-Regular, Apple SD Gothic Neo" font-size="12" letter-spacing=".171" transform="translate(433 173.782)">
                <tspan x="21" y="230.506">선택한 2개의 계약</tspan>
            </text>
            <path stroke="#EDEDEF" stroke-linecap="square" d="M453 268.829h201.98M453 317.363h201.98M453 365.898h201.98"/>
            <g transform="translate(453 225.782)">
                <rect width="17" height="17" x=".5" y="11.5" fill="#FFF" stroke="#5666ED" rx="4"/>
                <use fill="#5666ED" transform="translate(4 16)" xlink:href="#r"/>
            </g>
            <rect width="17" height="17" x=".5" y="11.5" fill="#FFF" stroke="#EDEDEF" rx="4" transform="translate(453 273.782)"/>
            <g transform="translate(453 322.782)">
                <rect width="17" height="17" x=".5" y="11.5" fill="#FFF" stroke="#5666ED" rx="4"/>
                <use fill="#5666ED" transform="translate(4 16)" xlink:href="#s"/>
            </g>
            <text fill="#000" font-family="AppleSDGothicNeo-Bold, Apple SD Gothic Neo" font-size="15" font-weight="bold" letter-spacing="-.09" transform="translate(433 173.782)">
                <tspan x="20" y="35.334">진행상황</tspan>
            </text>
            <g transform="translate(568 383.782)">
                <rect width="87" height="30" y="2" fill="#F9A51A" rx="4"/>
                <text fill="#FFF" font-family="AppleSDGothicNeo-Regular, Apple SD Gothic Neo" font-size="13" letter-spacing="-.19">
                    <tspan x="9.264" y="12">계약내용 비교</tspan>
                </text>
            </g>
        </g>
    </g>
</svg>
