<svg xmlns="http://www.w3.org/2000/svg" width="42" height="42" viewBox="0 0 42 42">
    <g fill="#000" fill-rule="evenodd">
        <path d="M2.685 35.888A2.688 2.688 0 0 1 0 33.204V9.58a2.688 2.688 0 0 1 2.685-2.684h3.427a.94.94 0 0 1 0 1.88H2.685a.805.805 0 0 0-.804.804v23.624c0 .443.36.803.804.803h36.63c.444 0 .804-.36.804-.803V9.58a.805.805 0 0 0-.804-.804h-4.367a.94.94 0 1 1 0-1.88h4.367A2.688 2.688 0 0 1 42 9.58v23.624a2.688 2.688 0 0 1-2.685 2.684H2.685zM10.657 42a.94.94 0 0 1 0-1.88H31.5a.94.94 0 0 1 0 1.88H10.657z"/>
        <path d="M13.164 41.06v-3.605a.94.94 0 1 1 1.881 0v3.605a.94.94 0 0 1-1.88 0zM27.112 41.06v-3.605a.94.94 0 0 1 1.88 0v3.605a.94.94 0 0 1-1.88 0zM.94 31.5a.94.94 0 0 1 0-1.88h40.12a.94.94 0 0 1 0 1.88H.94zM8.776 23.664V3.557A3.56 3.56 0 0 1 12.333 0h21.831a.94.94 0 0 1 0 1.88H12.333c-.924 0-1.676.753-1.676 1.677v20.107a.94.94 0 0 1-1.88 0z"/>
        <path d="M14.888 14.104a.94.94 0 0 1 0-1.88h11.44a.94.94 0 0 1 0 1.88h-11.44zM14.888 18.336a.94.94 0 0 1 0-1.88H21a.94.94 0 0 1 0 1.88h-6.112zM14.888 9.716a.94.94 0 0 1 0-1.88h11.44a.94.94 0 0 1 0 1.88h-11.44zM30.56 23.194V3.584c0-1.961 1.582-3.557 3.526-3.557 1.944 0 3.526 1.596 3.526 3.557v.872c0 1-.813 1.813-1.812 1.813h-.852a.94.94 0 0 1 0-1.88h.783v-.805c0-.924-.738-1.676-1.645-1.676-.908 0-1.646.752-1.646 1.676v19.61a.94.94 0 0 1-1.88 0z"/>
    </g>
</svg>
