<svg xmlns="http://www.w3.org/2000/svg" xmlns:xlink="http://www.w3.org/1999/xlink" width="42" height="44" viewBox="0 0 42 44">
    <defs>
        <path id="a" d="M0 0h22v23H0z"/>
        <path id="b" d="M0 0h9.28v9.18H0z"/>
    </defs>
    <g fill="none" fill-rule="evenodd">
        <path fill="#000" d="M20.567 33.125a.977.977 0 0 1-.904-1.347c5.882-14.366 15.133-18.506 15.524-18.675a.977.977 0 0 1 .778 1.792c-.089.038-8.935 4.045-14.494 17.623a.977.977 0 0 1-.904.607"/>
        <path fill="#000" d="M24.64 19.32c-2.029 2.688-2.188 6.128-2.187 7.167 0 .012.002.64.202 1.227.26.762.603.791.783.792 2.146-.102 6.233-2.337 9.09-4.87l-1.237-.48a.977.977 0 0 1 .108-1.856c.025-.007 2.34-.61 4.147-1.272 1.792-3.03 2.627-6.157 2.962-7.728-2.352-.068-8.197.245-11.814 4.618-.177.879-.105 1.347-.088 1.436.13.35.04.714-.218.986-.262.275-.67.343-1.031.221l-.717-.242zM23.46 30.46a2.55 2.55 0 0 1-1.85-.76c-1.092-1.099-1.11-3.004-1.109-3.218-.002-1.269.212-5.69 3.078-8.95a.977.977 0 0 1 1.046-.28l.04.014a8.65 8.65 0 0 1 .173-1.002.977.977 0 0 1 .187-.388c5.259-6.62 14.386-5.496 14.772-5.446a.978.978 0 0 1 .84 1.1c-.028.207-.72 5.113-3.596 9.803a.977.977 0 0 1-.483.402c-.59.227-1.243.447-1.869.646a.977.977 0 0 1 .327 1.576c-3.257 3.4-8.53 6.378-11.516 6.502h-.04zM5.698 34.512a.977.977 0 0 1-.977-.977V4.6C4.72 2.064 6.785 0 9.32 0h28.12a.977.977 0 0 1 0 1.953H9.322a2.65 2.65 0 0 0-2.647 2.648v28.934c0 .54-.437.977-.976.977M30.118 43.628H5.494a.977.977 0 0 1 0-1.954h24.624a.977.977 0 0 1 0 1.954"/>
        <path fill="#000" d="M5.494 43.628h-.906c-2.53 0-4.588-2.064-4.588-4.6v-.907c0-1.037.791-1.819 1.84-1.819h23.718c1.095 0 1.954.787 1.954 1.791v.977a.977.977 0 0 1-1.954 0v-.814H1.954v.771a2.644 2.644 0 0 0 2.634 2.647h.906a.977.977 0 0 1 0 1.954"/>
        <g transform="translate(32.72)">
            <mask id="c" fill="#fff">
                <use xlink:href="#b"/>
            </mask>
            <path fill="#000" d="M.977 9.18A.977.977 0 0 1 0 8.203V4.601C0 2.064 2.081 0 4.64 0c2.558 0 4.64 2.064 4.64 4.6v.843a1.885 1.885 0 0 1-1.884 1.883H4.721a.977.977 0 0 1 0-1.954h2.605v-.771c0-1.46-1.205-2.648-2.686-2.648-1.482 0-2.687 1.188-2.687 2.648v3.602c0 .54-.437.977-.976.977" mask="url(#c)"/>
        </g>
        <path fill="#000" d="M30.074 43.628c-2.532 0-4.516-2.002-4.516-4.558a.977.977 0 0 1 1.954 0c0 1.485 1.101 2.604 2.562 2.604a2.65 2.65 0 0 0 2.647-2.647V28.163a.977.977 0 0 1 1.953 0v10.864c0 2.537-2.063 4.6-4.6 4.6M15.622 32.756h-4.53a.977.977 0 0 1 0-1.953h4.53a.977.977 0 0 1 0 1.953M16.528 27.32h-5.436a.977.977 0 0 1 0-1.953h5.436a.977.977 0 0 1 0 1.954M17.434 21.885h-6.342a.977.977 0 0 1 0-1.954h6.342a.977.977 0 0 1 0 1.954M19.246 16.449h-8.154a.977.977 0 0 1 0-1.953h8.154a.977.977 0 0 1 0 1.953M24.53 11.013H11.093a.977.977 0 0 1 0-1.953h13.439a.977.977 0 0 1 0 1.953"/>
    </g>
</svg>
