<svg xmlns="http://www.w3.org/2000/svg" xmlns:xlink="http://www.w3.org/1999/xlink" width="60" height="56" viewBox="0 0 60 56">
    <defs>
        <path id="a" d="M.079.045h27.537v26.712H.079z"/>
    </defs>
    <g fill="none" fill-rule="evenodd" opacity=".797">
        <path fill="#000" d="M11.978 29.787a6.861 6.861 0 0 0-6.854 6.854 6.861 6.861 0 0 0 6.854 6.853 6.861 6.861 0 0 0 6.853-6.853 6.861 6.861 0 0 0-6.853-6.854m0 15.93c-5.005 0-9.076-4.072-9.076-9.076 0-5.005 4.071-9.076 9.076-9.076 5.004 0 9.075 4.071 9.075 9.076 0 5.004-4.07 9.075-9.075 9.075M47.998 29.787a6.861 6.861 0 0 0-6.853 6.854 6.861 6.861 0 0 0 6.853 6.853 6.861 6.861 0 0 0 6.854-6.853 6.861 6.861 0 0 0-6.854-6.854m0 15.93c-5.004 0-9.076-4.072-9.076-9.076 0-5.005 4.072-9.076 9.076-9.076 5.004 0 9.076 4.071 9.076 9.076 0 5.004-4.072 9.075-9.076 9.075"/>
        <g transform="translate(22.4 .044)">
            <mask id="b" fill="#fff">
                <use xlink:href="#a"/>
            </mask>
            <path fill="#000" d="M2.3 17.583h12.697c.295 0 .578.117.786.326l5.055 5.054v-4.269c0-.613.497-1.11 1.11-1.11h3.446V2.266H2.3v15.316zm19.649 9.174a1.11 1.11 0 0 1-.786-.326l-6.626-6.626H1.19a1.111 1.111 0 0 1-1.111-1.11V1.154c0-.613.497-1.11 1.11-1.11h25.316c.613 0 1.11.497 1.11 1.11v17.54c0 .613-.497 1.11-1.11 1.11H23.06v5.84a1.111 1.111 0 0 1-1.111 1.112z" mask="url(#b)"/>
        </g>
        <path fill="#000" d="M13.995 22.572h4.491c.614 0 1.111.498 1.111 1.111V24.8l2.092-1.933c.206-.19.475-.295.754-.295h8.463v-2.726H23.59a1.111 1.111 0 0 1-1.111-1.11v-7.494h-8.484v11.33zm4.49 5.878a1.108 1.108 0 0 1-1.11-1.11v-2.545h-4.49a1.111 1.111 0 0 1-1.112-1.112V10.131c0-.614.498-1.111 1.111-1.111H23.59c.613 0 1.11.497 1.11 1.11v7.494h7.317c.614 0 1.111.497 1.111 1.111v4.948c0 .614-.497 1.112-1.11 1.112h-9.14l-3.638 3.36c-.21.194-.48.295-.754.295zM22.843 55.066a1.111 1.111 0 0 1-1.098-.947 9.874 9.874 0 0 0-3.293-5.984 9.87 9.87 0 0 0-6.474-2.419 9.87 9.87 0 0 0-6.475 2.419 9.874 9.874 0 0 0-3.293 5.984 1.11 1.11 0 1 1-2.198-.328 12.099 12.099 0 0 1 11.966-10.297A12.098 12.098 0 0 1 23.943 53.79a1.111 1.111 0 0 1-1.1 1.276M58.863 55.066a1.111 1.111 0 0 1-1.097-.947 9.874 9.874 0 0 0-3.293-5.984 9.87 9.87 0 0 0-6.475-2.419 9.87 9.87 0 0 0-6.475 2.419 9.874 9.874 0 0 0-3.293 5.984 1.11 1.11 0 1 1-2.197-.328 12.099 12.099 0 0 1 11.965-10.297A12.099 12.099 0 0 1 59.963 53.79a1.111 1.111 0 0 1-1.1 1.276"/>
    </g>
</svg>
