<svg xmlns="http://www.w3.org/2000/svg" width="57" height="58" viewBox="0 0 57 58">
    <g fill="#000" fill-rule="nonzero">
        <path d="M34.024 18.313a1.099 1.099 0 0 0-1.532.26l-.021.03a1.099 1.099 0 1 0 1.792 1.272l.021-.03a1.099 1.099 0 0 0-.26-1.532zM31.521 21.427a1.098 1.098 0 0 0-1.546-.153 13.616 13.616 0 0 1-5.155 2.65 1.099 1.099 0 1 0 .567 2.122 15.8 15.8 0 0 0 5.981-3.073c.47-.385.538-1.077.153-1.546z"/>
        <path d="M53.017 25.756a3.3 3.3 0 0 0-3.296 3.296v.549c0 4.607-3.355 8.443-7.75 9.2.574-.846.91-1.867.91-2.964v-.763a5.302 5.302 0 0 0-5.296-5.296 5.302 5.302 0 0 0-5.296 5.296v.763c0 1.07.32 2.065.868 2.899-4.222-.895-7.4-4.65-7.4-9.135v-.55a3.3 3.3 0 0 0-3.296-3.295 3.3 3.3 0 0 0-3.296 3.296v.549c0 2.23.453 4.386 1.329 6.379H13.019V24.916c0-.49-.326-.922-.797-1.057-5.866-1.677-9.962-7.108-9.962-13.206v-.55a1.1 1.1 0 0 1 2.197 0v.55c0 6.36 5.175 11.535 11.536 11.535h5.287c6.36 0 11.536-5.174 11.536-11.535v-.55a1.1 1.1 0 0 1 2.197 0v.55c0 1.689-.304 3.338-.904 4.902a1.099 1.099 0 1 0 2.051.787 15.826 15.826 0 0 0 1.05-5.69v-.548a3.3 3.3 0 0 0-3.296-3.296 3.3 3.3 0 0 0-3.296 3.296v.549c0 4.607-3.354 8.443-7.749 9.2.574-.846.91-1.867.91-2.964v-.763a5.302 5.302 0 0 0-5.296-5.296 5.302 5.302 0 0 0-5.296 5.296v.763c0 1.07.32 2.065.867 2.899-4.222-.895-7.4-4.65-7.4-9.135v-.55a3.3 3.3 0 0 0-3.296-3.295 3.3 3.3 0 0 0-3.296 3.296v.549c0 3.527 1.135 6.872 3.28 9.671a16.097 16.097 0 0 0 7.48 5.397v11.357c0 .607.491 1.099 1.098 1.099h.2v17.85a1.099 1.099 0 0 0 2.198 0v-17.85h7.356c.24.373.497.739.77 1.095.073.095.148.188.223.28v16.474a1.099 1.099 0 0 0 2.198 0V41.798a16.06 16.06 0 0 0 5.058 2.87v11.358a1.099 1.099 0 0 0 2.198 0V43.864c0-.49-.325-.922-.797-1.057-5.865-1.677-9.962-7.108-9.962-13.206v-.55a1.1 1.1 0 0 1 2.197 0v.55c0 6.36 5.175 11.536 11.536 11.536h5.287c6.361 0 11.536-5.175 11.536-11.536v-.55a1.1 1.1 0 0 1 2.197 0v.55a13.754 13.754 0 0 1-10.193 13.27c-.48.129-.815.564-.815 1.062v7.955a1.099 1.099 0 0 0 2.197 0v-7.135c6.523-2.119 11.008-8.232 11.008-15.152v-.55a3.3 3.3 0 0 0-3.295-3.295zm-37.633-9.63a3.102 3.102 0 0 1 3.099-3.1 3.102 3.102 0 0 1 3.099 3.1v.763a3.102 3.102 0 0 1-3.1 3.098 3.102 3.102 0 0 1-3.098-3.098v-.763zm25.3 19.71a3.102 3.102 0 0 1-3.099 3.1 3.102 3.102 0 0 1-3.098-3.1v-.762a3.102 3.102 0 0 1 3.098-3.099 3.102 3.102 0 0 1 3.099 3.099v.763zM44.982 55.25a1.106 1.106 0 0 0-.776-.322c-.29 0-.573.117-.777.322a1.107 1.107 0 0 0-.322.776c0 .29.117.573.322.777.204.204.488.322.777.322.289 0 .572-.118.776-.322.205-.204.322-.488.322-.777 0-.289-.117-.572-.322-.776z"/>
        <path d="M18.483 41.964c-.607 0-1.099.492-1.099 1.099v12.963a1.099 1.099 0 0 0 2.198 0V43.062c0-.606-.492-1.098-1.1-1.098zM51.259 9.884c-.607 0-1.099.492-1.099 1.098v1.366a1.099 1.099 0 0 0 2.197 0v-1.366c0-.606-.491-1.098-1.098-1.098zM51.259 16.428c-.607 0-1.099.492-1.099 1.099v1.366a1.099 1.099 0 0 0 2.197 0v-1.366c0-.607-.491-1.099-1.098-1.099zM55.214 13.839h-1.366a1.099 1.099 0 0 0 0 2.197h1.366a1.099 1.099 0 0 0 0-2.197zM48.67 13.839h-1.366a1.099 1.099 0 0 0 0 2.197h1.365a1.099 1.099 0 0 0 0-2.197zM24.218.875c-.606 0-1.098.492-1.098 1.099v1.365a1.099 1.099 0 0 0 2.197 0V1.974c0-.607-.492-1.099-1.099-1.099zM24.218 7.42c-.606 0-1.098.492-1.098 1.098v1.366a1.099 1.099 0 0 0 2.197 0V8.518c0-.606-.492-1.098-1.099-1.098zM28.174 4.83h-1.366a1.099 1.099 0 0 0 0 2.197h1.366a1.099 1.099 0 0 0 0-2.197zM21.629 4.83h-1.366a1.099 1.099 0 0 0 0 2.197h1.366a1.099 1.099 0 0 0 0-2.197z"/>
    </g>
</svg>
