<svg xmlns="http://www.w3.org/2000/svg" width="60" height="60" viewBox="0 0 60 60">
    <g fill="#000" fill-rule="nonzero">
        <path d="M4.732 36.648a1.166 1.166 0 0 0 1.654 0L24.09 18.946l10.717 10.717a1.17 1.17 0 0 0 1.655 0l6.216-6.216a1.17 1.17 0 1 0-1.654-1.654l-5.39 5.389-10.717-10.718a1.171 1.171 0 0 0-1.654 0L5.559 34.167l-2.736-2.736L24.09 10.166l10.718 10.718a1.17 1.17 0 0 0 1.654 0L50.585 6.759a1.17 1.17 0 0 0 0-1.654l-.43-.431 6.904-1.85-1.85 6.905-.234-.234a1.17 1.17 0 0 0-1.654 0l-5.682 5.681a1.17 1.17 0 1 0 1.655 1.655l4.854-4.855.84.84a1.17 1.17 0 0 0 1.956-.525l2.9-10.819A1.17 1.17 0 0 0 58.41.04L47.592 2.939a1.17 1.17 0 0 0-.524 1.956l1.036 1.037-12.47 12.47L24.916 7.686a1.17 1.17 0 0 0-1.654 0L.342 30.605a1.17 1.17 0 0 0 0 1.654l4.39 4.389z"/>
        <path d="M58.713 57.544h-1.17v-35.36a1.17 1.17 0 0 0-1.169-1.17h-6.55a1.17 1.17 0 0 0-1.169 1.17v35.36h-2.69V36.14a1.17 1.17 0 0 0-1.17-1.17h-6.55a1.17 1.17 0 0 0-1.169 1.17v21.404h-2.69V42.339a1.17 1.17 0 0 0-1.17-1.17h-6.55a1.17 1.17 0 0 0-1.169 1.17v15.205h-2.69V36.14a1.17 1.17 0 0 0-1.17-1.17h-6.55a1.17 1.17 0 0 0-1.169 1.17v21.404h-2.69V46.822a1.17 1.17 0 0 0-1.17-1.17h-6.55a1.17 1.17 0 0 0-1.169 1.17v10.722H1.17a1.17 1.17 0 0 0 0 2.339h57.544a1.17 1.17 0 1 0 0-2.34zm-54.035 0v-9.552h4.21v9.552h-4.21zm11.58 0V37.31h4.21v20.234h-4.21zm11.578 0V43.509h4.21v14.035h-4.21zm11.58 0V37.31h4.21v20.234h-4.21zm11.578 0V23.353h4.21v34.19h-4.21zM44.331 18.484c-.217.218-.343.52-.343.827a1.172 1.172 0 0 0 1.997.827c.218-.217.343-.519.343-.827 0-.307-.125-.608-.343-.827a1.18 1.18 0 0 0-.827-.343c-.308 0-.61.126-.827.343z"/>
    </g>
</svg>
