<svg xmlns="http://www.w3.org/2000/svg" xmlns:xlink="http://www.w3.org/1999/xlink" width="65" height="51" viewBox="0 0 65 51">
    <defs>
        <path id="a" d="M0 .046h64.975v50.942H0z"/>
    </defs>
    <g fill="none" fill-rule="evenodd" opacity=".797">
        <g transform="translate(0 .084)">
            <mask id="b" fill="#fff">
                <use xlink:href="#a"/>
            </mask>
            <path fill="#000" d="M25.948 36.373c-6.868 0-12.455-5.587-12.455-12.455s5.587-12.455 12.455-12.455 12.455 5.587 12.455 12.455-5.587 12.455-12.455 12.455zm0 6.228c-8.817 0-16.51-6.258-18.293-14.88l-.132-.634-3.371-.862v-4.613l3.369-.852.132-.638a18.515 18.515 0 0 1 2.68-6.447l.358-.543-1.786-2.996 3.262-3.26 2.995 1.785.543-.357a18.515 18.515 0 0 1 6.447-2.68l.638-.132.852-3.37h4.611l.852 3.369.638.131a18.515 18.515 0 0 1 6.447 2.681l.543.357 2.996-1.786 3.26 3.261-1.784 2.996.357.543a18.515 18.515 0 0 1 2.68 6.447l.132.637 3.37.854v4.615l-3.374.873-.13.632a18.626 18.626 0 0 1-4.38 8.64h-6.465c4.235-2.54 7.084-7.165 7.084-12.454 0-8.013-6.518-14.531-14.53-14.531-8.014 0-14.532 6.518-14.532 14.53 0 8.014 6.518 14.532 14.531 14.532h28.024V34.38l7.68 6.144-7.68 6.143v-4.067H25.948zm-23.872 0v-4.152h9.094a20.979 20.979 0 0 0 5.797 4.152H2.076zm62.9-2.076L51.895 30.06v6.312h-9.354a20.676 20.676 0 0 0 3.586-7.583l3.692-.955v-7.84l-3.686-.932a20.56 20.56 0 0 0-2.486-5.977L45.6 9.81l-5.546-5.545-3.277 1.952a20.57 20.57 0 0 0-5.976-2.486L29.87.046h-7.843l-.933 3.686a20.542 20.542 0 0 0-5.976 2.486l-3.276-1.952L6.294 9.81l1.953 3.277a20.576 20.576 0 0 0-2.485 5.977l-3.686.932v7.841l3.689.942a20.553 20.553 0 0 0 3.6 7.593H0v8.303h51.896v6.312l13.08-10.463z" mask="url(#b)"/>
        </g>
        <path fill="#000" d="M18.237 20.912l-1.927-.77c-.285.714-.491 1.46-.612 2.218l2.05.326c.096-.605.261-1.202.49-1.774zM17.661 24.528l-2.071.128c.047.769.18 1.532.397 2.269l1.992-.584a8.31 8.31 0 0 1-.318-1.813M16.877 29.048a10.45 10.45 0 0 0 1.335 1.874l1.547-1.385a8.29 8.29 0 0 1-1.07-1.5l-1.812 1.011zM25.948 25.04a1.04 1.04 0 0 1-1.038-1.038 1.04 1.04 0 0 1 1.038-1.038 1.04 1.04 0 0 1 1.038 1.038 1.04 1.04 0 0 1-1.038 1.038m3.114-1.038a3.11 3.11 0 0 0-2.076-2.923v-7.456H24.91v7.456a3.11 3.11 0 0 0-2.076 2.923 3.118 3.118 0 0 0 3.114 3.114c.48 0 .928-.118 1.334-.313l3.122 3.122 1.468-1.467-3.123-3.122c.196-.406.313-.854.313-1.334"/>
    </g>
</svg>
