<svg xmlns="http://www.w3.org/2000/svg" width="62" height="65" viewBox="0 0 62 65">
    <g fill="#000" fill-rule="evenodd" opacity=".797">
        <path d="M31 28.18a.94.94 0 1 1 0 1.88.94.94 0 0 1 0-1.88"/>
        <path d="M41.333 35.697V24.111c0-.863.703-1.566 1.566-1.566h2.192V32.88a.94.94 0 1 0 1.879 0V22.545h2.192c.863 0 1.565.703 1.565 1.566v11.586h-9.394zm4.697 5.636a4.705 4.705 0 0 1-4.602-3.757h9.205a4.705 4.705 0 0 1-4.603 3.757zM41.333 61.26l-2.818.94-2.818-.94V41.232a6.553 6.553 0 0 0 1.879-4.596V25.051h1.879v11.585c0 1.788.717 3.41 1.878 4.596V61.26zM31 41.333a4.705 4.705 0 0 1-4.602-3.757h9.205A4.705 4.705 0 0 1 31 41.333zm1.128-5.636h-2.256L31 34.344l1.128 1.353zm-5.825-11.586c0-.726.498-1.337 1.17-1.513l2.805 3.367a.94.94 0 0 0 1.444 0l2.806-3.367c.671.176 1.17.787 1.17 1.513v11.586h-1.124l-2.852-3.422a.94.94 0 0 0-1.444 0l-2.851 3.422h-1.124V24.111zm0 37.15l-2.818.939-2.818-.94V41.232a6.553 6.553 0 0 0 1.878-4.596V25.051h1.88v11.585c0 1.788.717 3.41 1.878 4.596V61.26zM15.97 41.332a4.705 4.705 0 0 1-4.603-3.757h9.205a4.705 4.705 0 0 1-4.602 3.757zm-4.697-17.222c0-.863.702-1.566 1.565-1.566h2.192V32.88a.94.94 0 1 0 1.88 0V22.545H19.1c.863 0 1.566.703 1.566 1.566v11.586h-9.394V24.111zm0-8.141v-1.566h2.353a.94.94 0 0 0 .781-.417 1.878 1.878 0 0 1 3.125 0 .94.94 0 0 0 .78.417h2.355v1.566a4.702 4.702 0 0 1-4.697 4.697 4.702 4.702 0 0 1-4.697-4.697zm0-3.758a4.702 4.702 0 0 1 4.697-4.697 4.702 4.702 0 0 1 4.697 4.697v.313H18.77a3.751 3.751 0 0 0-2.8-1.252c-1.08 0-2.093.46-2.801 1.252h-1.896v-.313zM15.97 1.88a1.88 1.88 0 0 1 1.878 1.879 1.88 1.88 0 0 1-1.878 1.878 1.88 1.88 0 0 1-1.88-1.878 1.88 1.88 0 0 1 1.88-1.88zm16.156 20.666L31 23.896l-1.126-1.35h2.252zM3.758 7.515h1.878v5.323a.94.94 0 0 1-1.878 0V7.515zm53.545 6.263a.94.94 0 0 1-.94-.94V7.515h1.88v5.323a.94.94 0 0 1-.94.94zm-4.697 22.858V25.051h6.576A2.821 2.821 0 0 0 62 22.232a2.821 2.821 0 0 0-2.818-2.818h-.94v-3.919a2.823 2.823 0 0 0 1.88-2.657V6.576a.94.94 0 0 0-.94-.94h-3.758a.94.94 0 0 0-.94.94v6.262c0 1.225.786 2.27 1.88 2.657v3.92h-.94a.94.94 0 1 0 0 1.878h3.758a.94.94 0 0 1 0 1.879h-6.707a3.45 3.45 0 0 0-3.313-2.505h-6.263a3.45 3.45 0 0 0-3.313 2.505h-2.142a3.45 3.45 0 0 0-3.306-2.505H27.858a3.45 3.45 0 0 0-3.302 2.505h-2.142a3.459 3.459 0 0 0-2.09-2.28 6.56 6.56 0 0 0 2.221-4.922v-3.758a6.584 6.584 0 0 0-3.778-5.95c.597-.665.96-1.543.96-2.504A3.762 3.762 0 0 0 15.97 0a3.762 3.762 0 0 0-3.758 3.758c0 .961.364 1.84.96 2.505a6.584 6.584 0 0 0-3.778 5.95v3.757a6.56 6.56 0 0 0 2.222 4.922 3.46 3.46 0 0 0-2.09 2.28H2.817a.94.94 0 0 1 0-1.88h3.758a.94.94 0 1 0 0-1.878h-.94v-3.919a2.823 2.823 0 0 0 1.88-2.657V6.576a.94.94 0 0 0-.94-.94H2.818a.94.94 0 0 0-.94.94v6.262c0 1.225.786 2.27 1.88 2.657v3.92h-.94A2.821 2.821 0 0 0 0 22.231a2.821 2.821 0 0 0 2.818 2.819h6.576v11.585c0 1.788.718 3.41 1.879 4.596v9.138L1.51 53.722a.94.94 0 0 0-.634.889v3.757a.94.94 0 1 0 1.879 0v-3.087l9.761-3.352a.94.94 0 0 0 .635-.889v-8.464c.854.407 1.81.636 2.818.636a6.535 6.535 0 0 0 2.818-.636v19.361a.94.94 0 0 0 .642.892l3.758 1.252a.938.938 0 0 0 .594 0l3.758-1.252a.94.94 0 0 0 .642-.892v-19.36c.855.407 1.81.635 2.818.635a6.535 6.535 0 0 0 2.818-.636v19.361a.94.94 0 0 0 .642.892l3.758 1.252a.939.939 0 0 0 .594 0l3.758-1.252a.94.94 0 0 0 .642-.892v-19.36c.855.407 1.81.635 2.818.635a6.535 6.535 0 0 0 2.818-.636v8.464a.94.94 0 0 0 .635.889l9.761 3.352v3.087a.94.94 0 1 0 1.88 0v-3.757a.94.94 0 0 0-.635-.889l-9.762-3.352v-9.138a6.553 6.553 0 0 0 1.88-4.596z"/>
        <path d="M46.36 16.91a4.702 4.702 0 0 1-4.697-4.698 4.702 4.702 0 0 1 4.697-4.697 4.702 4.702 0 0 1 4.697 4.697 4.702 4.702 0 0 1-4.697 4.697m6.78-8.611a.94.94 0 0 0-1.284-.344l-.333.193a6.628 6.628 0 0 0-1.098-1.098l.193-.333a.94.94 0 1 0-1.627-.94l-.191.332a6.52 6.52 0 0 0-1.5-.403v-.382a.94.94 0 1 0-1.88 0v.382a6.522 6.522 0 0 0-1.5.403l-.19-.332a.94.94 0 1 0-1.628.94l.193.333a6.63 6.63 0 0 0-1.098 1.098l-.333-.193a.94.94 0 0 0-.94 1.627l.331.191a6.538 6.538 0 0 0-.47 2.44 6.583 6.583 0 0 0 6.575 6.576 6.583 6.583 0 0 0 6.576-6.576c0-.862-.169-1.685-.471-2.44l.33-.19a.94.94 0 0 0 .344-1.284M31 16.91a4.702 4.702 0 0 1-4.697-4.698A4.702 4.702 0 0 1 31 7.515a4.702 4.702 0 0 1 4.697 4.697A4.702 4.702 0 0 1 31 16.91m0-11.273a6.583 6.583 0 0 0-6.576 6.576A6.583 6.583 0 0 0 31 18.788a6.583 6.583 0 0 0 6.576-6.576A6.583 6.583 0 0 0 31 5.636"/>
    </g>
</svg>
