<svg xmlns="http://www.w3.org/2000/svg" width="63" height="64" viewBox="0 0 63 64">
    <path fill="#000" fill-rule="nonzero" d="M61.646 30.958h-2.084C59.026 16.228 47.21 4.411 32.48 3.875V1.792a1.042 1.042 0 1 0-2.083 0v2.083c-14.73.536-26.547 12.353-27.084 27.083H1.23a1.042 1.042 0 1 0 0 2.084h2.083c.537 14.73 12.354 26.547 27.084 27.083v2.083a1.042 1.042 0 1 0 2.083 0v-2.083c14.73-.536 26.547-12.353 27.084-27.083h2.083a1.042 1.042 0 1 0 0-2.084zm-31.25 27.084c-13.58-.534-24.467-11.42-25-25h2.083c.53 12.43 10.486 22.387 22.917 22.916v2.084zm0-4.23c-11.238-.548-20.227-9.533-20.781-20.77h12.51a9.375 9.375 0 0 0 8.27 8.27v12.5zm0-14.604a7.292 7.292 0 0 1-6.167-6.166h6.167v6.166zm0-8.25h-6.167a7.292 7.292 0 0 1 6.167-6.166v6.166zm0-8.27a9.375 9.375 0 0 0-8.271 8.27h-12.5c.549-11.238 9.533-20.226 20.77-20.78v12.51zm0-14.646c-12.43.53-22.387 10.486-22.917 22.916H5.396c.533-13.58 11.42-24.466 25-25v2.084zm2.083 2.146c11.238.548 20.227 9.533 20.781 20.77H40.75a9.375 9.375 0 0 0-8.27-8.27v-12.5zm0 14.604a7.292 7.292 0 0 1 6.167 6.166h-6.167v-6.166zm0 8.25h6.167a7.292 7.292 0 0 1-6.167 6.166v-6.166zm0 8.27a9.375 9.375 0 0 0 8.271-8.27h12.5c-.549 11.238-9.533 20.226-20.77 20.78v-12.51zm0 16.73v-2.084c12.43-.53 22.387-10.486 22.917-22.916h2.083c-.533 13.58-11.42 24.467-25 25zm22.917-27.084c-.53-12.43-10.486-22.387-22.917-22.916V5.958c13.58.534 24.467 11.42 25 25h-2.083z"/>
</svg>
