<svg xmlns="http://www.w3.org/2000/svg" width="50" height="66" viewBox="0 0 50 66">
    <g fill="#000" fill-rule="nonzero" opacity=".797">
        <path d="M46.361 0h-.004a3.516 3.516 0 0 0-3.463 3.007l-5.093 35.705a3.334 3.334 0 0 0 2.495 3.715l1.707.428-.918 18.388a4.359 4.359 0 0 0 1.204 3.249 4.347 4.347 0 0 0 3.18 1.366c2.42 0 4.39-1.972 4.39-4.396V3.502A3.503 3.503 0 0 0 46.36 0zm1.366 61.462a2.263 2.263 0 0 1-2.258 2.262c-.625 0-1.206-.25-1.637-.703a2.242 2.242 0 0 1-.619-1.672l.962-19.263a1.066 1.066 0 0 0-.806-1.089l-2.557-.64a1.206 1.206 0 0 1-.902-1.344l5.094-35.705a1.374 1.374 0 0 1 1.352-1.174h.005c.753 0 1.366.613 1.366 1.368v57.96zM32.811 1.013a1.066 1.066 0 0 0-2.128.107l.91 18.225h-3.326V1.067a1.066 1.066 0 1 0-2.13 0v18.278H22.81l.91-18.225a1.066 1.066 0 1 0-2.128-.106L20.52 22.482a3.36 3.36 0 0 0 1.483 2.948l1.287.86c.349.232.55.622.537 1.041l-1.005 34.018a4.356 4.356 0 0 0 1.24 3.18 4.344 4.344 0 0 0 3.14 1.329 4.343 4.343 0 0 0 3.14-1.328 4.357 4.357 0 0 0 1.239-3.183l-1.004-34.016c-.013-.42.188-.809.537-1.042l1.287-.86a3.36 3.36 0 0 0 1.482-2.947L32.811 1.013zM31.22 23.654l-1.287.86a3.325 3.325 0 0 0-1.485 2.88l1.004 34.014a2.237 2.237 0 0 1-.636 1.634c-.427.44-1 .682-1.613.682a2.231 2.231 0 0 1-1.613-.682 2.236 2.236 0 0 1-.636-1.632l1.004-34.016a3.325 3.325 0 0 0-1.485-2.88l-1.287-.86a1.215 1.215 0 0 1-.536-1.066l.055-1.11H31.7l.055 1.11c.021.423-.184.832-.536 1.066zM9.02 0C6.8 0 3.728 1.116 1.694 6.432.444 9.702 0 13.554 0 15.86a8.976 8.976 0 0 0 4.328 7.713c.753.46 1.191 1.239 1.17 2.082L4.63 61.352a4.367 4.367 0 0 0 1.248 3.18 4.355 4.355 0 0 0 3.143 1.326c1.193 0 2.31-.471 3.143-1.327a4.367 4.367 0 0 0 1.248-3.179l-.87-35.697c-.02-.843.418-1.621 1.171-2.082a8.976 8.976 0 0 0 4.328-7.713c0-2.306-.444-6.158-1.694-9.428C14.312 1.116 11.24 0 9.02 0zm3.583 21.752c-1.39.85-2.23 2.365-2.192 3.955l.87 35.697a2.248 2.248 0 0 1-.643 1.637c-.429.44-1.004.683-1.618.683-.615 0-1.19-.243-1.619-.683a2.248 2.248 0 0 1-.642-1.637l.87-35.697c.038-1.59-.801-3.106-2.192-3.955a6.857 6.857 0 0 1-3.306-5.892c0-4.479 1.684-13.726 6.889-13.726s6.89 9.247 6.89 13.726a6.856 6.856 0 0 1-3.307 5.892z"/>
    </g>
</svg>
