<svg xmlns="http://www.w3.org/2000/svg" width="64" height="64" viewBox="0 0 64 64">
    <g fill="#F9A51A" fill-rule="nonzero">
        <path d="M6.194 57.806h2.064v2.065H6.194zM10.323 57.806h2.064v2.065h-2.064zM14.452 57.806h2.064v2.065h-2.064zM49.548 57.806h8.258v2.065h-8.258z"/>
        <path d="M61.935 53.677V19.613a5.167 5.167 0 0 0-5.16-5.161h-3.098C53.677 6.482 47.195 0 39.226 0c-7.97 0-14.452 6.482-14.452 14.452H7.226a5.167 5.167 0 0 0-5.161 5.16v34.065H0v5.162A5.167 5.167 0 0 0 5.161 64H58.84A5.167 5.167 0 0 0 64 58.839v-5.162h-2.065zm-5.16-37.16a3.1 3.1 0 0 1 3.096 3.096v34.064h-2.065V20.645a2.067 2.067 0 0 0-2.064-2.064h-2.673c.199-.67.342-1.36.443-2.065h3.262zm-29.336-5.859l10.956 4.566 3.751 11.252c-.938.229-1.913.363-2.92.363-6.83 0-12.387-5.557-12.387-12.387 0-1.324.213-2.598.6-3.794zm16.668 15.174l-3.7-11.102 8.268-8.268a12.32 12.32 0 0 1 2.938 7.99c0 5.097-3.097 9.482-7.506 11.38zM39.226 2.065a12.33 12.33 0 0 1 7.99 2.937l-8.23 8.23-10.748-4.476c2.066-3.97 6.212-6.691 10.988-6.691zM4.129 19.613a3.1 3.1 0 0 1 3.097-3.097H24.94c.1.705.243 1.396.443 2.065H8.258a2.067 2.067 0 0 0-2.064 2.064v33.032H4.129V19.613zm57.806 39.226a3.1 3.1 0 0 1-3.096 3.096H5.16a3.1 3.1 0 0 1-3.096-3.096v-3.097H23.33a8.021 8.021 0 0 0 5.396 2.064h6.547c2.012 0 3.911-.73 5.396-2.064h13.007v-2.065H39.831l-.303.303a5.976 5.976 0 0 1-4.255 1.762h-6.547a5.978 5.978 0 0 1-4.255-1.762l-.302-.303H8.26V20.645h17.93c2.325 4.875 7.286 8.258 13.037 8.258 5.75 0 10.712-3.383 13.037-8.258h3.479v35.097h6.193v3.097z"/>
        <path d="M50.58 43.355a3.08 3.08 0 0 0-1.714.521l-3.601-2.7a3.05 3.05 0 0 0 .154-.918 3.1 3.1 0 0 0-3.096-3.097 3.1 3.1 0 0 0-3.097 3.097c0 .355.072.692.182 1.01l-5.781 4.625A3.064 3.064 0 0 0 32 45.42a3.07 3.07 0 0 0-1.847.626l-4.45-2.968c.061-.242.103-.492.103-.754a3.1 3.1 0 0 0-3.096-3.097 3.1 3.1 0 0 0-3.097 3.097c0 .262.042.512.104.754l-4.45 2.968a3.064 3.064 0 0 0-1.848-.626 3.1 3.1 0 0 0-3.096 3.097 3.1 3.1 0 0 0 3.096 3.097 3.1 3.1 0 0 0 3.097-3.097c0-.262-.042-.512-.104-.754l4.45-2.968a3.064 3.064 0 0 0 1.848.625c.694 0 1.33-.237 1.846-.625l4.452 2.968a3.035 3.035 0 0 0-.105.754A3.1 3.1 0 0 0 32 51.613a3.1 3.1 0 0 0 3.097-3.097c0-.355-.072-.691-.183-1.01l5.782-4.625a3.064 3.064 0 0 0 1.627.474 3.08 3.08 0 0 0 1.714-.521l3.602 2.7a3.05 3.05 0 0 0-.155.918 3.1 3.1 0 0 0 3.097 3.096 3.1 3.1 0 0 0 3.096-3.096 3.1 3.1 0 0 0-3.096-3.097zm-37.16 6.193a1.034 1.034 0 0 1-1.033-1.032c0-.568.464-1.032 1.032-1.032.569 0 1.033.464 1.033 1.032 0 .569-.464 1.032-1.033 1.032zm9.29-6.193a1.034 1.034 0 0 1-1.033-1.032c0-.569.464-1.033 1.033-1.033.568 0 1.032.464 1.032 1.033 0 .568-.464 1.032-1.032 1.032zM32 49.548a1.034 1.034 0 0 1-1.032-1.032c0-.568.463-1.032 1.032-1.032s1.032.464 1.032 1.032c0 .569-.463 1.032-1.032 1.032zm10.323-8.258a1.034 1.034 0 0 1-1.033-1.032c0-.568.464-1.032 1.033-1.032.568 0 1.032.464 1.032 1.032 0 .569-.464 1.032-1.032 1.032zm8.258 6.194a1.034 1.034 0 0 1-1.033-1.032c0-.569.464-1.033 1.033-1.033.568 0 1.032.464 1.032 1.033 0 .568-.464 1.032-1.032 1.032zM26.839 22.71H10.323V37.16h16.516V22.71zm-2.065 12.387H12.387V24.774h12.387v10.323z"/>
        <path d="M14.452 26.839h8.258v2.064h-8.258zM14.452 30.968h8.258v2.064h-8.258zM28.903 33.032h2.065v2.065h-2.065zM33.032 33.032h20.645v2.065H33.032z"/>
    </g>
</svg>
