<svg xmlns="http://www.w3.org/2000/svg" width="62" height="62" viewBox="0 0 62 62">
    <g fill="#F9A51A" fill-rule="nonzero">
        <path d="M58.9 0H3.1A3.1 3.1 0 0 0 0 3.1v55.8A3.1 3.1 0 0 0 3.1 62h55.8a3.1 3.1 0 0 0 3.1-3.1V3.1A3.1 3.1 0 0 0 58.9 0zm1.033 58.9c0 .57-.462 1.033-1.033 1.033H3.1c-.57 0-1.033-.462-1.033-1.033V10.333h57.866V58.9zM2.067 8.267V3.1c0-.57.462-1.033 1.033-1.033h55.8c.57 0 1.033.462 1.033 1.033v5.167H2.067z"/>
        <path d="M14.802 20.15l-3.952 4.009 3.952 4.008 1.508-1.529-2.445-2.48 2.445-2.479zM24.839 28.167l3.952-4.008-3.952-4.009-1.508 1.53 2.445 2.479-2.445 2.48zM14.802 42.715l-3.952 4.009 3.952 4.009 1.508-1.53-2.445-2.48 2.445-2.479zM23.331 44.244l2.445 2.48-2.445 2.48 1.508 1.529 3.952-4.01-3.952-4.008zM17.688 23.077h4.265v2.163h-4.265zM17.743 49.625l2.134-6.488 2.022.684-2.135 6.488zM19.82 32.197h4.265v2.163H19.82zM26.217 32.197h24.521v2.163H26.217zM19.82 36.523h4.265v2.163H19.82zM26.217 36.523h24.521v2.163H26.217zM4.133 4.133H6.2V6.2H4.133zM8.267 4.133h2.067V6.2H8.267zM12.4 4.133h2.067V6.2H12.4z"/>
    </g>
</svg>
