<svg xmlns="http://www.w3.org/2000/svg" width="63" height="43" viewBox="0 0 63 43">
    <g fill="#000" fill-rule="nonzero" opacity=".797">
        <path d="M62.835 35.55a1.231 1.231 0 0 0-1.682-.45l-3.272 1.887-4.08-7.056c.439-.296.866-.609 1.28-.943a13.165 13.165 0 0 0 4.857-11.275 13.239 13.239 0 0 0-4.773-9.146L45.226.403a1.232 1.232 0 0 0-1.397-.116L31.5 7.394 19.171.287a1.231 1.231 0 0 0-1.397.116L7.835 8.567a13.237 13.237 0 0 0-4.772 9.146 13.164 13.164 0 0 0 4.856 11.275c.414.334.842.647 1.28.943l-4.08 7.056L1.847 35.1a1.232 1.232 0 0 0-1.682.45c-.34.588-.138 1.34.45 1.68l4.34 2.5 5.218 3.008a1.228 1.228 0 0 0 1.682-.45c.34-.587.139-1.34-.45-1.678l-4.153-2.394 4.078-7.053c.495.244 1 .468 1.518.667a13.215 13.215 0 0 0 12.208-1.439 13.241 13.241 0 0 0 5.547-8.7l.897-5.386.897 5.386a13.243 13.243 0 0 0 5.547 8.7 13.21 13.21 0 0 0 12.208 1.439 18.418 18.418 0 0 0 1.518-.667l4.078 7.053-4.152 2.394a1.228 1.228 0 1 0 1.23 2.129l5.219-3.008 4.34-2.502c.588-.34.79-1.091.45-1.68zM44.32 2.843l9.28 7.622a10.777 10.777 0 0 1 3.593 5.691H54.83a13.209 13.209 0 0 0-3.646-4.758l-2.54-2.086a1.232 1.232 0 0 0-1.733.168 1.228 1.228 0 0 0 .169 1.73l2.54 2.086a10.736 10.736 0 0 1 2.44 2.86h-18.09l-1.117-6.704 11.467-6.61zM23.662 28.365a10.747 10.747 0 0 1-9.93 1.17 15.774 15.774 0 0 1-4.264-2.458 10.709 10.709 0 0 1-3.951-9.172 10.766 10.766 0 0 1 3.882-7.44l9.28-7.622 11.467 6.61-1.117 6.703H14.757a1.23 1.23 0 1 0 0 2.459H28.62l-.445 2.673a10.772 10.772 0 0 1-4.512 7.077zm25.606 1.17a10.746 10.746 0 0 1-9.93-1.17 10.772 10.772 0 0 1-4.512-7.077l-.445-2.673h23.133a10.708 10.708 0 0 1-3.982 8.462 15.757 15.757 0 0 1-4.264 2.458z"/>
        <path d="M9.455 16.156c-.324 0-.641.132-.87.36-.23.229-.361.546-.361.87 0 .323.132.64.36.869.23.228.547.36.87.36.326 0 .643-.132.871-.36.23-.23.361-.546.361-.87 0-.323-.131-.64-.36-.868a1.24 1.24 0 0 0-.871-.36zM43.515 8.452c.23.229.546.36.87.36.324 0 .642-.131.871-.36a1.24 1.24 0 0 0 .36-.869c0-.323-.131-.64-.36-.869a1.234 1.234 0 0 0-2.102.87c0 .322.131.64.361.868z"/>
    </g>
</svg>
