<svg xmlns="http://www.w3.org/2000/svg" width="63" height="63" viewBox="0 0 63 63">
    <g fill="#F9A51A" fill-rule="nonzero">
        <path d="M9.47 0a6.239 6.239 0 0 0-6.232 6.232 6.239 6.239 0 0 0 6.231 6.231 6.239 6.239 0 0 0 6.232-6.231A6.239 6.239 0 0 0 9.469 0zm0 10.386a4.159 4.159 0 0 1-4.155-4.154 4.159 4.159 0 0 1 4.154-4.155 4.159 4.159 0 0 1 4.155 4.155 4.159 4.159 0 0 1-4.155 4.154z"/>
        <path d="M13.626 8.309H13.6a1.04 1.04 0 0 0-.829.412c-.799 1.059-2.002 1.665-3.302 1.665-1.299 0-2.503-.606-3.301-1.665a1.09 1.09 0 0 0-.855-.412A5.197 5.197 0 0 0 .122 13.5v4.156c0 .574.465 1.04 1.038 1.04h16.618c.573 0 1.039-.466 1.039-1.04V13.5a5.197 5.197 0 0 0-5.191-5.191zm3.114 8.309H2.199V13.5a3.118 3.118 0 0 1 2.68-3.08 6.156 6.156 0 0 0 4.59 2.043c1.766 0 3.411-.74 4.593-2.047A3.12 3.12 0 0 1 16.74 13.5v3.118zM53.091 0a6.239 6.239 0 0 0-6.231 6.232 6.239 6.239 0 0 0 6.231 6.231 6.239 6.239 0 0 0 6.232-6.231A6.239 6.239 0 0 0 53.091 0zm0 10.386a4.159 4.159 0 0 1-4.154-4.154 4.159 4.159 0 0 1 4.154-4.155 4.159 4.159 0 0 1 4.155 4.155 4.159 4.159 0 0 1-4.155 4.154z"/>
        <path d="M57.248 8.309h-.026a1.04 1.04 0 0 0-.829.412c-.799 1.059-2.002 1.665-3.302 1.665-1.299 0-2.503-.606-3.301-1.665a1.09 1.09 0 0 0-.855-.412 5.197 5.197 0 0 0-5.191 5.191v4.157c0 .573.465 1.038 1.038 1.038H61.4c.573 0 1.039-.465 1.039-1.038V13.5a5.196 5.196 0 0 0-5.191-5.191zm3.114 8.309h-14.54V13.5a3.118 3.118 0 0 1 2.679-3.08 6.156 6.156 0 0 0 4.59 2.043c1.766 0 3.411-.74 4.593-2.047a3.12 3.12 0 0 1 2.678 3.084v3.118zM9.47 43.622a6.239 6.239 0 0 0-6.232 6.232 6.239 6.239 0 0 0 6.231 6.232 6.239 6.239 0 0 0 6.232-6.232 6.239 6.239 0 0 0-6.232-6.232zm0 10.386a4.159 4.159 0 0 1-4.155-4.154 4.159 4.159 0 0 1 4.154-4.155 4.159 4.159 0 0 1 4.155 4.155 4.159 4.159 0 0 1-4.155 4.154z"/>
        <path d="M13.626 51.931H13.6a1.04 1.04 0 0 0-.829.412c-.799 1.059-2.002 1.665-3.302 1.665-1.3 0-2.503-.606-3.302-1.665a1.09 1.09 0 0 0-.854-.412 5.197 5.197 0 0 0-5.191 5.191v4.157a1.04 1.04 0 0 0 1.038 1.038h16.618c.573 0 1.039-.465 1.039-1.038v-4.157a5.197 5.197 0 0 0-5.191-5.19zm3.114 8.309H2.199v-3.118a3.118 3.118 0 0 1 2.68-3.08 6.156 6.156 0 0 0 4.59 2.044c1.766 0 3.411-.74 4.593-2.048a3.12 3.12 0 0 1 2.678 3.084v3.118zM53.091 43.622a6.239 6.239 0 0 0-6.231 6.232 6.239 6.239 0 0 0 6.231 6.232 6.239 6.239 0 0 0 6.232-6.232 6.239 6.239 0 0 0-6.232-6.232zm0 10.386a4.159 4.159 0 0 1-4.154-4.154 4.159 4.159 0 0 1 4.154-4.155 4.159 4.159 0 0 1 4.155 4.155 4.159 4.159 0 0 1-4.155 4.154z"/>
        <path d="M57.248 51.931h-.026a1.04 1.04 0 0 0-.829.412c-.799 1.059-2.002 1.665-3.302 1.665-1.299 0-2.503-.606-3.301-1.665a1.09 1.09 0 0 0-.855-.412 5.197 5.197 0 0 0-5.191 5.191v4.157c0 .573.465 1.038 1.038 1.038H61.4c.573 0 1.039-.465 1.039-1.038v-4.157a5.196 5.196 0 0 0-5.191-5.19zm3.114 8.309h-14.54v-3.118a3.118 3.118 0 0 1 2.679-3.08 6.156 6.156 0 0 0 4.59 2.044c1.766 0 3.411-.74 4.593-2.048a3.12 3.12 0 0 1 2.678 3.084v3.118zM48.491 5.187a31.49 31.49 0 0 0-2.772-1.641 1.04 1.04 0 0 0-.963 1.84c.882.462 1.753.978 2.587 1.531a1.04 1.04 0 0 0 1.149-1.73zM40.167 1.288A31.147 31.147 0 0 0 34.283.143a1.039 1.039 0 0 0-.198 2.068c1.859.179 3.706.538 5.49 1.068a1.044 1.044 0 0 0 1.292-.699 1.04 1.04 0 0 0-.7-1.292zM28.29.142c-1.992.19-3.971.575-5.885 1.143a1.039 1.039 0 0 0 .593 1.99 28.95 28.95 0 0 1 5.49-1.065A1.038 1.038 0 0 0 28.29.142zM18.244 3.983a1.039 1.039 0 0 0-1.403-.437 31.48 31.48 0 0 0-2.772 1.64 1.038 1.038 0 1 0 1.15 1.731 29.035 29.035 0 0 1 2.586-1.532c.51-.266.704-.894.439-1.402zM59.027 42.932a1.038 1.038 0 0 0-1.38.502 29.25 29.25 0 0 1-1.41 2.655 1.04 1.04 0 0 0 .89 1.573c.353 0 .697-.18.89-.504.551-.92 1.06-1.876 1.512-2.845a1.039 1.039 0 0 0-.502-1.38zM62.298 28.187a1.038 1.038 0 1 0-2.068.196 29.418 29.418 0 0 1-.283 7.7 1.04 1.04 0 0 0 1.025 1.213c.496 0 .935-.358 1.022-.863a31.391 31.391 0 0 0 .304-8.246zM60.428 20.14a31.188 31.188 0 0 0-1.296-2.95 1.039 1.039 0 0 0-1.857.934c.45.894.857 1.82 1.21 2.752a1.039 1.039 0 1 0 1.943-.736zM4.825 16.729a1.038 1.038 0 0 0-1.395.461 31.237 31.237 0 0 0-1.296 2.95 1.038 1.038 0 1 0 1.943.736 29.13 29.13 0 0 1 1.21-2.752 1.04 1.04 0 0 0-.462-1.395zM2.613 36.076a29.321 29.321 0 0 1-.283-7.698 1.038 1.038 0 0 0-.935-1.133 1.044 1.044 0 0 0-1.132.935 31.49 31.49 0 0 0 .302 8.245 1.04 1.04 0 0 0 2.048-.35zM6.322 46.089a29.235 29.235 0 0 1-1.41-2.655 1.038 1.038 0 1 0-1.882.879c.453.969.96 1.925 1.512 2.845a1.038 1.038 0 1 0 1.78-1.07zM45.818 27.004h-18.69c-1.147 0-2.08.933-2.08 2.08v12.459c0 1.147.933 2.08 2.081 2.08h9.953l5.928 5.927a1.039 1.039 0 0 0 1.772-.735v-5.193h1.037c1.147 0 2.08-.933 2.08-2.08V29.083c0-1.146-.933-2.079-2.081-2.079zm.001 14.54h-2.075c-.573 0-1.039.466-1.039 1.04v3.724l-4.459-4.459a1.036 1.036 0 0 0-.734-.304l-10.386-.003V29.083l.002-.002 18.693.002-.002 12.462z"/>
        <path d="M34.393 20.772h-18.69c-1.147 0-2.08.933-2.08 2.08v12.46c0 1.146.933 2.079 2.08 2.079h1.037v5.193a1.04 1.04 0 0 0 1.773.734l5.927-5.927h1.647c.574 0 1.039-.466 1.039-1.039v-7.269l8.309-.002c.573 0 1.039-.465 1.039-1.038v-5.191c0-1.147-.933-2.08-2.08-2.08zm.003 6.232h-7.268c-1.147 0-2.08.933-2.08 2.08v6.23H24.01c-.275 0-.54.108-.734.304l-4.46 4.458v-3.724c0-.574-.464-1.039-1.038-1.039l-2.077-.002.002-12.461 18.693.002v4.152z"/>
        <path d="M36.474 32.197h-6.232a1.039 1.039 0 0 0 0 2.077h6.232a1.039 1.039 0 0 0 0-2.077zM42.705 32.197h-2.077a1.039 1.039 0 0 0 0 2.077h2.077a1.039 1.039 0 0 0 0-2.077zM42.705 36.352h-6.231a1.039 1.039 0 0 0 0 2.077h6.231a1.039 1.039 0 0 0 0-2.077zM32.319 36.352h-2.077a1.039 1.039 0 0 0 0 2.077h2.077a1.039 1.039 0 0 0 0-2.077zM20.997 58.363c-.93-.353-1.856-.759-2.752-1.21a1.039 1.039 0 0 0-.933 1.856c.96.483 1.953.92 2.95 1.297a1.039 1.039 0 0 0 .735-1.942zM35.92 60.941a1.037 1.037 0 0 0-1.154-.908c-2.3.276-4.679.276-6.988-.002a1.037 1.037 0 1 0-.247 2.062 31.595 31.595 0 0 0 7.482.003c.57-.068.976-.586.908-1.155zM45.71 57.614a1.039 1.039 0 0 0-1.395-.46c-.895.45-1.822.857-2.752 1.21a1.038 1.038 0 1 0 .735 1.941c.997-.378 1.99-.814 2.95-1.296.513-.257.72-.881.462-1.395z"/>
    </g>
</svg>
