<svg xmlns="http://www.w3.org/2000/svg" width="64" height="64" viewBox="0 0 64 64">
    <g fill="#F9A51A" fill-rule="nonzero">
        <path d="M48.458 58.002a1.25 1.25 0 0 0-1.708-.454l-.048.028a1.25 1.25 0 0 0 1.254 2.162l.048-.027a1.25 1.25 0 0 0 .454-1.709z"/>
        <path d="M59.712 16.01C55.439 8.61 48.54 3.316 40.286 1.104 32.032-1.108 23.41.027 16.01 4.3 8.61 8.573 3.315 15.472 1.104 23.726-1.108 31.98.027 40.602 4.3 48.002A31.986 31.986 0 0 0 32.027 64c3.883 0 7.76-.706 11.423-2.114a1.25 1.25 0 1 0-.897-2.333c-9.752 3.748-20.31 2.045-28.198-3.876l1.12-5.845.54-.176a3.893 3.893 0 0 0 2.496-4.9l-.396-1.218a1.38 1.38 0 0 1 .002-.862 3.89 3.89 0 0 0-2.95-5.028l-2.82-.552-5.444-4.138a1.25 1.25 0 0 0-1.143-.194l-3.187 1.035a29.468 29.468 0 0 1-.004-3.413c.125.117.207.197.258.25.062.103.14.198.23.28.26.238.496.345.99.345.456 0 1.129-.09 2.24-.255 1.055-.156 2.104-.331 2.115-.333a1.25 1.25 0 0 0 .826-1.937l-1.533-2.248 2.195-1.57a1.25 1.25 0 0 0 .358-.395l3.403-5.94 1.372-1.47a5.28 5.28 0 0 0 1.018-5.6 5.749 5.749 0 0 0-2.277-2.682 29.582 29.582 0 0 1 3.496-2.366 29.308 29.308 0 0 1 14.404-3.942l-2.232 2.8-8.277 2.901a1.25 1.25 0 0 0-.742.703l-2.311 5.604a1.25 1.25 0 0 0 .138 1.202l3.376 4.73c-.484.44-.954 1.083-1.517 1.88-.246.35-.479.681-.64.866-.14.162-.28.32-.418.475-.726.817-1.477 1.662-2.01 2.79-1.173 2.483-.936 5.368.618 7.53 1.502 2.09 3.98 3.154 6.623 2.843.431-.05.833-.15 1.222-.247 1.071-.265 1.41-.291 1.754.03.168.157.183.187.18.718-.003.338-.005.758.111 1.239.187.768.67 1.299 1.057 1.725.192.212.392.431.453.578.39.935.22 1.452-.152 2.586l-.097.297c-.565 1.75.223 3.485.918 5.016.225.497.439.966.578 1.38 1.124 3.336 1.967 4.1 2.643 4.407.354.16.72.231 1.09.231 1.802 0 3.683-1.673 4.546-2.733.543-.666.676-1.333.774-1.82.049-.243.087-.434.16-.559.112-.191.243-.34.41-.527.335-.377.752-.847 1.022-1.698.206-.647.355-.805.848-1.331l.276-.296c1.665-1.812 1.237-3.196.782-4.661-.382-1.233.287-2.021 1.903-3.526.7-.653 1.425-1.327 1.984-2.138.245-.354.99-1.434.53-2.503-.453-1.049-1.602-1.225-2.525-1.367-.365-.056-.916-.14-1.091-.255-.773-.505-1.247-1.56-1.704-2.581-.091-.203-.181-.404-.272-.599a20.16 20.16 0 0 1-.497-1.212c-.455-1.177-.97-2.51-1.847-3.44-.79-.836-2.276-1.239-3.587-1.594-.441-.12-.858-.232-1.133-.334-.23-.085-.48-.1-.718-.044-.638.15-1.036.315-1.332.552-.078.062-.31.268-.445.598-.458-.22-1.087-.639-1.474-.897l-.024-.016c.13-.522.012-.941-.112-1.203-.698-1.477-3.016-1.361-3.473-1.323-.26.022-.588.034-.936.046a23 23 0 0 0-1.747.108l.031-.086a3.196 3.196 0 0 1 3.001-2.111h.71a1.25 1.25 0 0 0 0-2.5h-.71a5.706 5.706 0 0 0-4.838 2.699l-1.865-2.612 1.835-4.446 8.087-2.835a1.25 1.25 0 0 0 .564-.4l3.596-4.51c9.186.873 17.834 6.024 22.79 14.607a29.17 29.17 0 0 1 2.944 7.154l-.53.473a3.339 3.339 0 0 0-1.113 2.458l-.863-2.374a3.12 3.12 0 0 0-.563-.965l-1.54-1.803a3.132 3.132 0 0 0-2.385-1.1h-1.884c-.67 0-1.281.367-1.597.957a1.807 1.807 0 0 0 .09 1.858l.191.287a13.853 13.853 0 0 1-4.127 2.45l-2.584-4.949v-1.104c0-.341-.14-.668-.386-.904l-2.327-2.221a1.252 1.252 0 0 0-.449-.275l-2.094-.736a1.25 1.25 0 1 0-.829 2.358l1.84.647 1.746 1.666v.876c0 .201.048.4.142.578l3.234 6.196c.291.558.952.813 1.54.595l.943-.348a16.358 16.358 0 0 0 5.865-3.754 1.25 1.25 0 0 0 .156-1.577l-.067-.1h.597c.187 0 .364.082.485.224l1.54 1.803c.05.058.088.123.114.196l1.7 4.672a1.25 1.25 0 0 0 2.058.457l.808-.809a3.902 3.902 0 0 0 1.034-1.88c1.25 10.026-2.68 20.398-10.99 26.92a1.25 1.25 0 1 0 1.544 1.966 31.975 31.975 0 0 0 11.605-18.963 31.97 31.97 0 0 0-3.684-22.179zM5.91 35.343l5.154 3.92c.153.115.33.194.517.231l3.107.607c.396.078.727.312.931.66.205.349.248.752.122 1.136a3.864 3.864 0 0 0-.003 2.413l.396 1.219a1.39 1.39 0 0 1-.892 1.75L14 47.682a1.25 1.25 0 0 0-.841.954l-1 5.218a29.822 29.822 0 0 1-5.694-7.102 29.337 29.337 0 0 1-3.631-10.409l3.076-1zm7.285-19.936l-1.47 1.576c-.066.07-.123.148-.171.231l-3.34 5.83-2.967 2.122a1.25 1.25 0 0 0-.306 1.72l1.11 1.629c-.64.095-1.214.173-1.596.215-.073-.07-.15-.142-.229-.215-.297-.277-.71-.645-1.325-1.184 1.015-6.283 4.042-12.202 8.804-16.72a3.25 3.25 0 0 1 2.025 1.855 2.774 2.774 0 0 1-.535 2.941zm10.191 6.83c.558-.313 1.852-.359 2.796-.392.379-.014.737-.027 1.056-.053a3.4 3.4 0 0 1 .533.002 1.249 1.249 0 0 0 .575 1.555c.234.125.56.343.906.573.977.652 2.084 1.39 3.125 1.456.946.061 1.472-.478 1.697-.707.019-.018.035-.037.053-.053a1.34 1.34 0 0 0 .335-.41c.2.057.41.114.625.172.74.2 2.118.574 2.422.896.54.573.962 1.664 1.334 2.627.188.486.365.945.565 1.37.085.183.17.371.255.562.577 1.286 1.23 2.745 2.617 3.651.629.411 1.4.53 2.08.634l.272.043c-.403.563-.978 1.098-1.586 1.664-1.547 1.44-3.473 3.234-2.586 6.095.419 1.351.438 1.497-.235 2.23l-.257.276c-.577.614-1.032 1.098-1.41 2.286-.109.345-.25.504-.508.794-.206.232-.463.521-.7.926-.283.486-.377.953-.452 1.328-.074.37-.116.555-.26.733-.331.405-.947.994-1.579 1.395-.587.373-.93.424-1.047.417-.134-.143-.617-.769-1.347-2.935-.18-.535-.43-1.085-.671-1.617-.532-1.172-1.083-2.385-.815-3.213l.094-.287c.427-1.304.831-2.535.083-4.327-.228-.546-.59-.945-.91-1.297-.207-.228-.441-.486-.477-.634-.044-.181-.043-.39-.041-.633.004-.653.01-1.64-.97-2.558-1.384-1.295-2.997-.896-4.064-.632-.328.08-.638.157-.912.19-1.756.206-3.324-.457-4.303-1.819-1.024-1.425-1.172-3.342-.388-5.003.38-.804.954-1.45 1.619-2.197.145-.164.291-.328.438-.497.243-.281.512-.662.795-1.064.339-.481.97-1.376 1.243-1.546z"/>
        <path d="M51.253 43.035l-.602-2.267a1.25 1.25 0 0 0-2.306-.275c-.137.252-.26.52-.38.778-.2.435-.408.885-.624 1.134-.121.14-.433.29-.734.435-.72.347-1.705.823-2.081 2.023-.234.745-.147 1.334-.083 1.764.055.372.068.502-.032.736l-.013.03c-.398.933-1.138 2.671-.1 4.149.74 1.054 1.52 1.325 2.125 1.325.118 0 .23-.01.333-.027 1.275-.208 2.233-1.534 3.017-4.174l1.47-4.955a1.25 1.25 0 0 0 .01-.676zm-3.877 4.92c-.399 1.346-.752 1.974-.956 2.253a2.399 2.399 0 0 1-.076-.103c-.24-.34.118-1.178.354-1.733l.013-.03c.38-.894.279-1.58.205-2.082-.048-.321-.065-.459-.005-.649.049-.155.341-.307.783-.52.195-.094.41-.198.628-.324l-.946 3.188zM33.754 14.857l-.085-.029a1.25 1.25 0 0 0-.827 2.359l.084.03a1.248 1.248 0 0 0 1.593-.766 1.25 1.25 0 0 0-.765-1.594z"/>
    </g>
</svg>
