<svg xmlns="http://www.w3.org/2000/svg" width="60" height="59" viewBox="0 0 60 59">
    <g fill="#000" fill-rule="nonzero" stroke="#000" stroke-width=".3" opacity=".797">
        <path d="M33.827 36.771a9.65 9.65 0 1 0 9.65-9.649c-5.328.006-9.645 4.323-9.65 9.65zm9.65-7.72a7.72 7.72 0 1 1-7.72 7.72 7.728 7.728 0 0 1 7.72-7.72zM37.962 56.07h11.029V58H37.962zM33.827 52.21h19.299v1.93h-19.3zM12.598 52.21h1.93v1.93h-1.93zM6.808 54.14h1.93v1.93h-1.93z"/>
        <path d="M12.694 46.78a73.082 73.082 0 0 0 9.284-28.562l8.974 8.921a.963.963 0 0 0 .832.268.963.963 0 0 0 .707-.52 9.42 9.42 0 0 0-1.768-10.888l-.789-.79h6.787a.965.965 0 0 0 .916-1.27 9.421 9.421 0 0 0-8.949-6.449h-1.254l4.819-4.847A.965.965 0 0 0 32 1.1a9.423 9.423 0 0 0-10.893 1.767l-.922.922c-.3.302-.58.625-.836.965a9.272 9.272 0 0 0-.83-.965l-.92-.922A9.419 9.419 0 0 0 6.711 1.1a.965.965 0 0 0-.253 1.544l4.825 4.847h-1.267a9.42 9.42 0 0 0-8.95 6.449.965.965 0 0 0 .917 1.27h6.78l-.789.79a9.42 9.42 0 0 0-1.768 10.888.965.965 0 0 0 1.544.252l8.357-8.307A52.3 52.3 0 0 1 6.019 44.333a36.004 36.004 0 0 0-3.939-.802l-.603-.061-.193 1.921.563.055A34.43 34.43 0 0 1 4.724 46c-.193.242-.386.488-.586.727l1.48 1.238a54.327 54.327 0 0 0 12.624-31.256l1.11-1.103.832.826A70.552 70.552 0 0 1 7.948 50.688l1.58 1.106a65.122 65.122 0 0 0 2.184-3.352 34.225 34.225 0 0 1 11.676 9.147l1.493-1.223a36.043 36.043 0 0 0-6.408-6.085h40.442v-1.93H15.614a35.572 35.572 0 0 0-2.92-1.57zm18.58-22.045L21.077 14.6a7.443 7.443 0 0 1 7.366 1.843l.922.922a7.492 7.492 0 0 1 1.907 7.371zm3.975-11.455h-7.99a9.41 9.41 0 0 0-5.977-.713 7.483 7.483 0 0 1 6.1-3.147h1.303a7.492 7.492 0 0 1 6.564 3.86zM21.547 5.152l.922-.921a7.497 7.497 0 0 1 7.375-1.908l-5.72 5.754a9.412 9.412 0 0 0-4.555 3.575 7.304 7.304 0 0 1 1.98-6.5h-.002zm-5.316-.921l.922.921c.43.439.802.93 1.11 1.462a9.18 9.18 0 0 0-.738 3.208 9.413 9.413 0 0 0-2.943-1.745L8.861 2.323a7.494 7.494 0 0 1 7.373 1.908h-.003zm-6.217 5.19h1.303a7.485 7.485 0 0 1 6.106 3.145 9.415 9.415 0 0 0-5.974.714H3.456a7.493 7.493 0 0 1 6.561-3.86h-.003zM7.432 24.734a7.492 7.492 0 0 1 1.908-7.371l.921-.922a7.375 7.375 0 0 1 5.232-2.154c.724 0 1.443.104 2.138.307l-10.2 10.14z"/>
    </g>
</svg>
