<svg xmlns="http://www.w3.org/2000/svg" width="53" height="53" viewBox="0 0 53 53">
    <g fill="#000" fill-rule="nonzero">
        <path d="M49.123 10.526a3.512 3.512 0 0 0-3.509 3.51 3.512 3.512 0 0 0 3.509 3.508 3.512 3.512 0 0 0 3.509-3.509 3.512 3.512 0 0 0-3.51-3.509zm0 5.263a1.756 1.756 0 0 1-1.755-1.754c0-.967.787-1.754 1.755-1.754.967 0 1.754.786 1.754 1.754s-.787 1.754-1.754 1.754zM3.509 39.474A3.512 3.512 0 0 0 0 42.982a3.512 3.512 0 0 0 3.509 3.51 3.512 3.512 0 0 0 3.508-3.51 3.512 3.512 0 0 0-3.508-3.508zm0 5.263a1.756 1.756 0 0 1-1.755-1.755c0-.967.787-1.754 1.755-1.754.967 0 1.754.787 1.754 1.754 0 .968-.787 1.755-1.754 1.755z"/>
        <path d="M47.422 11.635l-7.568-3.653a.876.876 0 1 0-.762 1.58l7.568 3.653a.875.875 0 0 0 1.17-.409.877.877 0 0 0-.408-1.17zM39.474 45.614a3.512 3.512 0 0 0-3.51 3.509 3.512 3.512 0 0 0 3.51 3.509 3.512 3.512 0 0 0 3.508-3.51 3.512 3.512 0 0 0-3.508-3.508zm0 5.263a1.756 1.756 0 0 1-1.755-1.754c0-.968.787-1.755 1.755-1.755.967 0 1.754.787 1.754 1.755 0 .967-.787 1.754-1.754 1.754z"/>
        <path d="M37.773 46.723l-7.568-3.654a.877.877 0 0 0-.762 1.58l7.568 3.654a.876.876 0 0 0 1.171-.409.877.877 0 0 0-.41-1.171zM26.316 23.684a3.512 3.512 0 0 0-3.509 3.509 3.512 3.512 0 0 0 3.509 3.509 3.512 3.512 0 0 0 3.509-3.51 3.512 3.512 0 0 0-3.51-3.508zm0 5.263a1.756 1.756 0 0 1-1.755-1.754c0-.968.787-1.754 1.755-1.754.967 0 1.754.786 1.754 1.754s-.787 1.754-1.754 1.754z"/>
        <path d="M24.774 24.891l-5.813-4.53a.878.878 0 0 0-1.079 1.384l5.813 4.53a.875.875 0 0 0 1.231-.152.878.878 0 0 0-.152-1.232zM42.105 22.807c-5.32 0-9.649 4.329-9.649 9.65 0 5.32 4.33 9.648 9.65 9.648s9.648-4.329 9.648-9.649c0-5.32-4.329-9.649-9.649-9.649zm0 17.544c-4.353 0-7.894-3.541-7.894-7.895 0-4.353 3.54-7.895 7.894-7.895S50 28.103 50 32.456c0 4.354-3.541 7.895-7.895 7.895z"/>
        <path d="M42.105 26.316a3.512 3.512 0 0 0-3.508 3.509 3.512 3.512 0 0 0 3.508 3.508 3.512 3.512 0 0 0 3.509-3.508 3.512 3.512 0 0 0-3.509-3.51zm0 5.263a1.756 1.756 0 0 1-1.754-1.754c0-.968.787-1.755 1.754-1.755.968 0 1.755.787 1.755 1.755 0 .967-.787 1.754-1.755 1.754zM44.65 35.088h-5.09c-1.499 0-2.718 1.187-2.718 2.644v2.313c0 .313.167.602.438.76 1.47.85 3.138 1.3 4.825 1.3 1.687 0 3.356-.45 4.826-1.3a.876.876 0 0 0 .437-.76v-2.312c0-1.458-1.219-2.645-2.718-2.645zm.964 4.434a7.954 7.954 0 0 1-7.018 0v-1.789c0-.49.433-.89.964-.89h5.09c.531 0 .964.4.964.89v1.789zM21.053 33.333c-5.32 0-9.65 4.33-9.65 9.65s4.33 9.649 9.65 9.649 9.649-4.33 9.649-9.65-4.33-9.649-9.65-9.649zm0 17.544c-4.354 0-7.895-3.541-7.895-7.895 0-4.353 3.541-7.894 7.895-7.894 4.353 0 7.894 3.54 7.894 7.894s-3.54 7.895-7.894 7.895z"/>
        <path d="M21.053 36.842a3.512 3.512 0 0 0-3.51 3.509 3.512 3.512 0 0 0 3.51 3.509 3.512 3.512 0 0 0 3.508-3.51 3.512 3.512 0 0 0-3.508-3.508zm0 5.263a1.756 1.756 0 0 1-1.755-1.754c0-.968.787-1.755 1.755-1.755.967 0 1.754.787 1.754 1.755 0 .967-.787 1.754-1.754 1.754zM23.597 45.614h-5.09c-1.498 0-2.718 1.187-2.718 2.645v2.312c0 .313.167.603.438.76 1.47.85 3.139 1.3 4.826 1.3 1.687 0 3.355-.45 4.825-1.3a.876.876 0 0 0 .438-.759V48.26c0-1.46-1.22-2.646-2.719-2.646zm.964 4.434a7.954 7.954 0 0 1-7.017 0V48.26c0-.492.432-.892.964-.892h5.09c.53 0 .963.4.963.892v1.788zM9.65 11.403c-5.321 0-9.65 4.33-9.65 9.65s4.329 9.649 9.65 9.649c5.32 0 9.648-4.33 9.648-9.65s-4.329-9.649-9.649-9.649zm0 17.544c-4.354 0-7.896-3.54-7.896-7.894s3.542-7.895 7.895-7.895c4.354 0 7.895 3.541 7.895 7.895 0 4.353-3.541 7.894-7.895 7.894z"/>
        <path d="M9.65 14.912a3.512 3.512 0 0 0-3.51 3.51 3.512 3.512 0 0 0 3.51 3.508 3.512 3.512 0 0 0 3.508-3.509 3.512 3.512 0 0 0-3.509-3.509zm0 5.263a1.756 1.756 0 0 1-1.755-1.754c0-.968.787-1.754 1.754-1.754.968 0 1.755.786 1.755 1.754s-.787 1.754-1.755 1.754zM12.194 23.684h-5.09c-1.499 0-2.718 1.187-2.718 2.645v2.312c0 .313.167.603.438.76 1.47.85 3.138 1.3 4.825 1.3 1.687 0 3.355-.45 4.826-1.3a.876.876 0 0 0 .437-.759V26.33c0-1.459-1.22-2.646-2.718-2.646zm.964 4.434a7.954 7.954 0 0 1-7.018 0V26.33c0-.491.433-.891.964-.891h5.09c.531 0 .964.4.964.89v1.79zM30.702 0c-5.32 0-9.65 4.329-9.65 9.65 0 5.32 4.33 9.648 9.65 9.648S40.35 14.97 40.35 9.65C40.35 4.33 36.02 0 30.7 0zm0 17.544c-4.354 0-7.895-3.541-7.895-7.895 0-4.353 3.541-7.895 7.895-7.895 4.353 0 7.895 3.542 7.895 7.895 0 4.354-3.542 7.895-7.895 7.895z"/>
        <path d="M30.702 3.509a3.512 3.512 0 0 0-3.509 3.508 3.512 3.512 0 0 0 3.509 3.51 3.512 3.512 0 0 0 3.509-3.51A3.512 3.512 0 0 0 30.7 3.51zm0 5.263a1.756 1.756 0 0 1-1.755-1.755c0-.967.787-1.754 1.755-1.754.967 0 1.754.787 1.754 1.754 0 .968-.787 1.755-1.754 1.755zM33.247 12.28h-5.09c-1.499 0-2.718 1.188-2.718 2.645v2.313c0 .313.166.602.437.76 1.47.85 3.139 1.3 4.826 1.3 1.687 0 3.355-.45 4.825-1.3a.876.876 0 0 0 .438-.76v-2.312c0-1.458-1.22-2.645-2.718-2.645zm.964 4.435a7.954 7.954 0 0 1-7.018 0v-1.789c0-.49.432-.89.964-.89h5.09c.531 0 .963.4.963.89v1.789zM22.597 9.078a.878.878 0 0 0-1.236-.096l-6.08 5.202a.877.877 0 1 0 1.14 1.333l6.08-5.202a.877.877 0 0 0 .096-1.237z"/>
        <path d="M41.93 23.159l-5.263-7.018a.877.877 0 0 0-1.404 1.052l5.263 7.018a.877.877 0 0 0 1.404-1.052zM34.73 35.357a.877.877 0 0 0-1.227-.175l-4.9 3.674a.876.876 0 1 0 1.052 1.403l4.9-3.675a.876.876 0 0 0 .176-1.227zM12.28 42.105H6.14a.877.877 0 1 0 0 1.755h6.14a.877.877 0 1 0 0-1.755zM9.65 0a3.512 3.512 0 0 0-3.51 3.509 3.512 3.512 0 0 0 3.51 3.508 3.512 3.512 0 0 0 3.508-3.508A3.512 3.512 0 0 0 9.649 0zm0 5.263A1.756 1.756 0 0 1 7.894 3.51c0-.968.787-1.755 1.754-1.755.968 0 1.755.787 1.755 1.755 0 .967-.787 1.754-1.755 1.754z"/>
        <path d="M9.65 5.263a.877.877 0 0 0-.878.877v6.14a.877.877 0 1 0 1.754 0V6.14a.877.877 0 0 0-.877-.877z"/>
    </g>
</svg>
