<svg xmlns="http://www.w3.org/2000/svg" xmlns:xlink="http://www.w3.org/1999/xlink" width="60" height="64" viewBox="0 0 60 64">
    <defs>
        <path id="a" d="M0 .028h59.961v36.636H0z"/>
    </defs>
    <g fill="none" fill-rule="evenodd">
        <path fill="#000" d="M12.86 42.647a5.042 5.042 0 0 0-5.037 5.036 5.042 5.042 0 0 0 5.037 5.037 5.042 5.042 0 0 0 5.037-5.037 5.042 5.042 0 0 0-5.037-5.036m0 12.41c-4.066 0-7.373-3.308-7.373-7.374 0-4.065 3.307-7.373 7.373-7.373 4.065 0 7.373 3.308 7.373 7.373 0 4.066-3.308 7.373-7.373 7.373"/>
        <path fill="#000" d="M5.56 61.28h14.6c-.562-3.523-3.621-6.224-7.3-6.224s-6.739 2.701-7.3 6.224m15.86 2.337H4.3a1.168 1.168 0 0 1-1.169-1.168c0-5.365 4.364-9.729 9.729-9.729 5.364 0 9.729 4.364 9.729 9.729 0 .645-.524 1.168-1.169 1.168M29.98 42.647a5.042 5.042 0 0 0-5.036 5.036 5.042 5.042 0 0 0 5.037 5.037 5.042 5.042 0 0 0 5.036-5.037 5.042 5.042 0 0 0-5.036-5.036m0 12.41c-4.066 0-7.373-3.308-7.373-7.374 0-4.065 3.307-7.373 7.373-7.373 4.065 0 7.373 3.308 7.373 7.373 0 4.066-3.308 7.373-7.373 7.373"/>
        <path fill="#000" d="M22.68 61.28h14.6c-.56-3.523-3.62-6.224-7.3-6.224-3.678 0-6.738 2.701-7.3 6.224m15.861 2.337h-17.12a1.168 1.168 0 0 1-1.169-1.168c0-5.365 4.364-9.729 9.729-9.729 5.364 0 9.728 4.364 9.728 9.729 0 .645-.523 1.168-1.168 1.168M47.102 42.647a5.042 5.042 0 0 0-5.037 5.036 5.042 5.042 0 0 0 5.037 5.037 5.042 5.042 0 0 0 5.036-5.037 5.042 5.042 0 0 0-5.036-5.036m0 12.41c-4.066 0-7.374-3.308-7.374-7.374 0-4.065 3.308-7.373 7.374-7.373 4.065 0 7.373 3.308 7.373 7.373 0 4.066-3.308 7.373-7.373 7.373"/>
        <path fill="#000" d="M39.802 61.28h14.6c-.562-3.523-3.622-6.224-7.3-6.224-3.68 0-6.739 2.701-7.3 6.224m15.86 2.337h-17.12a1.168 1.168 0 0 1-1.169-1.168c0-5.365 4.364-9.729 9.729-9.729 5.364 0 9.728 4.364 9.728 9.729 0 .645-.523 1.168-1.168 1.168M14.727 7.21a5.042 5.042 0 0 0-5.037 5.037 5.042 5.042 0 0 0 5.037 5.036 5.042 5.042 0 0 0 5.037-5.036 5.042 5.042 0 0 0-5.037-5.037m0 12.41c-4.065 0-7.373-3.308-7.373-7.373 0-4.066 3.308-7.373 7.373-7.373 4.066 0 7.373 3.307 7.373 7.373 0 4.065-3.307 7.373-7.373 7.373"/>
        <path fill="#000" d="M22.138 41.28a1.168 1.168 0 0 1-1.168-1.169V23.203a1.168 1.168 0 0 1 1.186-1.169l3.68.056a.923.923 0 0 0 .719-.347c.028-.035.058-.068.09-.1l5.06-4.984a.917.917 0 0 0 .269-.65.927.927 0 0 0-1.58-.659l-4.607 4.548a1.168 1.168 0 0 1-.82.336h-.006l-10.038-.045a1.168 1.168 0 0 1 .005-2.336h.005l9.556.043 4.26-4.205a3.265 3.265 0 0 1 4.61.014c.616.617.953 1.438.951 2.31a3.24 3.24 0 0 1-.961 2.304l-5.021 4.946a3.247 3.247 0 0 1-2.496 1.162h-.022l-2.503-.038V40.11c0 .645-.523 1.168-1.169 1.168"/>
        <path fill="#000" d="M8.786 41.245c-1.82 0-3.3-1.48-3.3-3.3V27.292c0-5.206 4.236-9.441 9.442-9.441a1.168 1.168 0 0 1 0 2.336 7.113 7.113 0 0 0-7.105 7.105v10.655a.964.964 0 0 0 1.926 0v-8.427a1.168 1.168 0 0 1 2.336 0v8.427c0 1.82-1.48 3.3-3.299 3.3M30.36 16.645a1.168 1.168 0 0 1-1.168-1.168v-8.64a1.168 1.168 0 0 1 2.337 0v8.64c0 .645-.523 1.168-1.168 1.168M53.307 10.473H36.703a1.168 1.168 0 0 1 0-2.336h16.604a1.168 1.168 0 0 1 0 2.336M53.307 16.219H36.703a1.168 1.168 0 0 1 0-2.337h16.604a1.168 1.168 0 0 1 0 2.337M53.307 21.964H36.703a1.168 1.168 0 0 1 0-2.337h16.604a1.168 1.168 0 0 1 0 2.337M53.307 28.284H36.703a1.168 1.168 0 0 1 0-2.337h16.604a1.168 1.168 0 0 1 0 2.337"/>
        <g transform="translate(0 .066)">
            <mask id="b" fill="#fff">
                <use xlink:href="#a"/>
            </mask>
            <path fill="#000" d="M58.793 36.664H22.138a1.168 1.168 0 0 1 0-2.337h35.487V2.364H2.336v31.963h4.319a1.168 1.168 0 0 1 0 2.337H1.168A1.168 1.168 0 0 1 0 35.495V1.196C0 .551.523.028 1.168.028h57.625c.645 0 1.168.523 1.168 1.168v34.3c0 .645-.523 1.168-1.168 1.168" mask="url(#b)"/>
        </g>
    </g>
</svg>
