<svg xmlns="http://www.w3.org/2000/svg" xmlns:xlink="http://www.w3.org/1999/xlink" width="60" height="75" viewBox="0 0 60 75">
    <defs>
        <path id="a" d="M0 74.565h59.973V0H0z"/>
    </defs>
    <g fill="none" fill-rule="evenodd">
        <path fill="#000" d="M10.17 28.453a5.818 5.818 0 0 0-5.81 5.81 5.818 5.818 0 0 0 5.81 5.812 5.818 5.818 0 0 0 5.811-5.811 5.818 5.818 0 0 0-5.81-5.811m0 13.891c-4.456 0-8.08-3.625-8.08-8.08 0-4.456 3.624-8.08 8.08-8.08 4.455 0 8.08 3.624 8.08 8.08 0 4.455-3.625 8.08-8.08 8.08"/>
        <path fill="#000" d="M3.52 66.551A3.524 3.524 0 0 1 0 63.031V51.104C0 45.372 4.663 40.71 10.395 40.71a1.135 1.135 0 0 1 0 2.27c-4.48 0-8.126 3.645-8.126 8.125v11.927c0 .69.561 1.25 1.251 1.25.69 0 1.25-.56 1.25-1.25v-9.433a1.135 1.135 0 0 1 2.27 0v9.433a3.524 3.524 0 0 1-3.52 3.52"/>
        <path fill="#000" d="M17.132 45.884a1.13 1.13 0 0 1-.825-.356 8.052 8.052 0 0 0-5.912-2.55 1.135 1.135 0 0 1 0-2.27c2.85 0 5.606 1.19 7.562 3.263a1.135 1.135 0 0 1-.825 1.913"/>
        <path fill="#000" d="M16.97 70.1a1.135 1.135 0 0 1-1.135-1.135V51.203a1.135 1.135 0 0 1 1.95-.79l2.869 2.958c.26.26.62.385.985.345.045-.005.089-.008.134-.007l6.176.06h.002a1.21 1.21 0 0 0-.005-2.42l-5.473-.047a1.135 1.135 0 0 1-.798-.337l-5.725-5.796a1.135 1.135 0 0 1 1.615-1.595l5.395 5.463 4.998.043a3.452 3.452 0 0 1 2.451 1.025 3.457 3.457 0 0 1 1.013 2.462 3.483 3.483 0 0 1-3.479 3.471h-.008l-6.123-.06a3.465 3.465 0 0 1-2.78-1.02l-.927-.956v14.963c0 .627-.508 1.135-1.135 1.135M46.049 28.453a5.818 5.818 0 0 0-5.812 5.81 5.818 5.818 0 0 0 5.812 5.812 5.818 5.818 0 0 0 5.81-5.811 5.818 5.818 0 0 0-5.81-5.811m0 13.891c-4.456 0-8.08-3.625-8.08-8.08 0-4.456 3.624-8.08 8.08-8.08 4.455 0 8.08 3.624 8.08 8.08 0 4.455-3.625 8.08-8.08 8.08"/>
        <path fill="#000" d="M52.699 66.551a3.524 3.524 0 0 1-3.52-3.52v-9.433a1.135 1.135 0 0 1 2.27 0v9.433c0 .69.56 1.25 1.25 1.25s1.25-.56 1.25-1.25V51.104c0-4.48-3.645-8.126-8.126-8.126a1.135 1.135 0 0 1 0-2.27c5.733 0 10.396 4.664 10.396 10.396v11.927c0 1.941-1.58 3.52-3.52 3.52"/>
        <path fill="#000" d="M39.087 45.884a1.135 1.135 0 0 1-.825-1.913 10.439 10.439 0 0 1 7.561-3.262 1.135 1.135 0 0 1 0 2.27c-2.26 0-4.36.905-5.91 2.55a1.132 1.132 0 0 1-.826.355"/>
        <path fill="#000" d="M27.161 51.336a1.135 1.135 0 0 1-.005-2.27l6.104-.03 5.394-5.462a1.135 1.135 0 0 1 1.615 1.595l-5.725 5.796c-.212.214-.5.336-.802.337l-6.575.034h-.006zM39.249 70.1a1.135 1.135 0 0 1-1.135-1.135V54.002l-.926.956-.01.01a3.461 3.461 0 0 1-2.773 1.01l-7.237.045h-.007a1.135 1.135 0 0 1-.007-2.269l7.296-.045c.043 0 .086.002.13.007.365.04.725-.086.985-.345l2.87-2.958a1.135 1.135 0 0 1 1.949.79v17.762c0 .627-.509 1.135-1.135 1.135"/>
        <mask id="b" fill="#fff">
            <use xlink:href="#a"/>
        </mask>
        <path fill="#000" d="M47.977 72.296h9.727v-5.745h-9.727v5.745zm10.861 2.27H46.843a1.135 1.135 0 0 1-1.135-1.135v-8.014c0-.627.508-1.135 1.135-1.135h11.995c.627 0 1.135.508 1.135 1.135v8.014c0 .626-.508 1.134-1.135 1.134zM4.501 70.1a1.135 1.135 0 0 1-1.134-1.135v-3.549a1.135 1.135 0 0 1 2.27 0v3.55c0 .626-.509 1.134-1.136 1.134M28.054 7.966c-1.776 0-3.455.691-4.735 1.95a6.71 6.71 0 0 0-2.028 4.762 6.776 6.776 0 0 0 3.965 6.21c.352.16.598.488.653.87l.348 2.404c.129.887.901 1.556 1.797 1.556.895 0 1.668-.669 1.796-1.555l.348-2.404c.056-.383.302-.71.653-.87a6.782 6.782 0 0 0 3.966-6.16c0-3.694-3.005-6.727-6.698-6.762h-.065m0 20.02a4.106 4.106 0 0 1-4.043-3.5l-.263-1.816a9.05 9.05 0 0 1-4.726-8.01 8.965 8.965 0 0 1 2.706-6.363 8.97 8.97 0 0 1 6.413-2.6 8.976 8.976 0 0 1 6.328 2.673 8.977 8.977 0 0 1 2.617 6.358 9.06 9.06 0 0 1-4.727 7.942l-.263 1.817a4.106 4.106 0 0 1-4.042 3.499M28.054 4.471a1.135 1.135 0 0 1-1.135-1.135V1.135a1.135 1.135 0 0 1 2.27 0v2.201c0 .627-.509 1.135-1.135 1.135M36.205 7.848a1.135 1.135 0 0 1-.802-1.937l1.557-1.557a1.135 1.135 0 0 1 1.604 1.604l-1.556 1.557a1.131 1.131 0 0 1-.803.333M18.345 25.707a1.135 1.135 0 0 1-.802-1.937l1.557-1.557a1.135 1.135 0 0 1 1.605 1.605l-1.557 1.557a1.131 1.131 0 0 1-.803.332M19.902 7.848c-.29 0-.58-.111-.802-.333l-1.557-1.557a1.135 1.135 0 1 1 1.605-1.604l1.557 1.557a1.135 1.135 0 0 1-.803 1.937M37.762 25.707c-.29 0-.58-.11-.802-.332l-1.557-1.557a1.135 1.135 0 1 1 1.605-1.605l1.556 1.557a1.135 1.135 0 0 1-.802 1.937M16.526 15.999h-2.202a1.135 1.135 0 0 1 0-2.27h2.202a1.135 1.135 0 0 1 0 2.27M41.783 15.999h-2.201a1.135 1.135 0 0 1 0-2.27h2.201a1.135 1.135 0 0 1 0 2.27" mask="url(#b)"/>
        <path fill="#000" d="M28.054 27.672a1.135 1.135 0 0 1-1.135-1.134V19.8a1.135 1.135 0 0 1 2.27 0v6.738c0 .626-.509 1.134-1.135 1.134" mask="url(#b)"/>
        <path fill="#000" d="M28.054 20.578c-.29 0-.581-.11-.803-.332l-1.4-1.401a1.134 1.134 0 1 1 1.604-1.605l1.401 1.401a1.135 1.135 0 0 1-.802 1.937" mask="url(#b)"/>
        <path fill="#000" d="M28.054 20.578a1.135 1.135 0 0 1-.802-1.937l1.4-1.4a1.135 1.135 0 0 1 1.605 1.604l-1.4 1.401a1.131 1.131 0 0 1-.803.332" mask="url(#b)"/>
    </g>
</svg>
