<svg xmlns="http://www.w3.org/2000/svg" width="57" height="57" viewBox="0 0 57 57">
    <g fill="#000" fill-rule="nonzero">
        <path d="M52.875 48.898A4.638 4.638 0 0 0 53.906 46v-1.875a4.688 4.688 0 0 0-9.375 0V46a4.638 4.638 0 0 0 1.032 2.898 4.677 4.677 0 0 0-2.907 1.819 4.677 4.677 0 0 0-2.906-1.82A4.638 4.638 0 0 0 40.781 46v-1.875a4.688 4.688 0 0 0-9.375 0V46a4.638 4.638 0 0 0 1.032 2.898 4.677 4.677 0 0 0-2.907 1.819 4.677 4.677 0 0 0-2.906-1.82A4.638 4.638 0 0 0 27.656 46v-1.875a4.688 4.688 0 0 0-9.375 0V46a4.638 4.638 0 0 0 1.032 2.898 4.687 4.687 0 0 0-3.844 4.602v2.813h1.875V53.5a2.812 2.812 0 0 1 2.812-2.813h5.625a2.812 2.812 0 0 1 2.813 2.813v2.813h1.875V53.5a2.812 2.812 0 0 1 2.812-2.813h5.625A2.812 2.812 0 0 1 41.72 53.5v2.813h1.875V53.5a2.812 2.812 0 0 1 2.812-2.813h5.625a2.812 2.812 0 0 1 2.813 2.813v2.813h1.875V53.5a4.687 4.687 0 0 0-3.844-4.602zM25.781 46a2.812 2.812 0 1 1-5.625 0v-1.875a2.812 2.812 0 1 1 5.625 0V46zm13.125 0a2.812 2.812 0 1 1-5.625 0v-1.875a2.812 2.812 0 1 1 5.625 0V46zm13.125 0a2.812 2.812 0 1 1-5.625 0v-1.875a2.812 2.812 0 1 1 5.625 0V46zM23.312 18.878a.936.936 0 0 0-.343-.066h-3.75a.938.938 0 0 0-.882.617l-.993 2.733-.033-.089a4.969 4.969 0 0 0-4.655-3.26h-.024c.62-.807.958-1.795.962-2.813v-1.875a4.688 4.688 0 0 0-9.375 0V16a4.639 4.639 0 0 0 .962 2.813h-.025A4.693 4.693 0 0 0 .47 23.5v11.25c0 .518.42.938.937.938H4.22v9.093L2.5 47.355a.937.937 0 0 0 .78 1.458h11.25a.937.937 0 0 0 .78-1.458l-1.717-2.574v-17.31l.236.469a3.833 3.833 0 0 0 6.987-.29l1.523-3.806 1.5-3.75a.938.938 0 0 0-.528-1.216zM6.094 14.125a2.812 2.812 0 1 1 5.625 0V16a2.812 2.812 0 1 1-5.625 0v-1.875zM4.219 33.813H2.344v-1.876h1.875v1.875zm5.625 13.124v-11.25H7.969v11.25H5.033l.903-1.354a.944.944 0 0 0 .158-.52v-11.25h5.625v11.25c0 .185.055.366.157.52l.903 1.355H9.844zm9.232-19.98a1.958 1.958 0 0 1-3.569.149L13.5 23.08a.937.937 0 0 0-1.781.419v8.438H6.094V23.5a.938.938 0 0 0-1.875 0v6.563H2.344V23.5a2.812 2.812 0 0 1 2.812-2.813H7.97v9.375h1.875v-9.375h2.812a3.086 3.086 0 0 1 2.892 2.026l.914 2.514a.938.938 0 0 0 1.763 0l.287-.79h1.572l-1.008 2.52zm1.758-4.395h-1.64l.681-1.875h1.71l-.75 1.875z"/>
        <path d="M55.781 5.688c.518 0 .938-.42.938-.938V1a.938.938 0 0 0-.938-.938H16.406A.938.938 0 0 0 15.47 1v3.75c0 .518.42.938.937.938h.938v11.25h1.875V5.688h33.75v20.625h-30v1.875h12.187v4.143l-6.093 3.48.93 1.628 5.163-2.949v3.072h1.875V34.49l5.157 2.949.93-1.628-6.087-3.48v-4.144H56.72v-1.875h-1.875V5.688h.937zM17.344 3.813V1.937h37.5v1.875h-37.5z"/>
        <path d="M46.634 10.403l-3.75-.937-.456 1.818 1.756.44-7.115 4.98-4.14-3.311a.937.937 0 0 0-1.13-.03l-6.562 4.687 1.089 1.525 5.986-4.275 4.133 3.307a.937.937 0 0 0 1.125.036l7.899-5.53v1.95h1.875v-3.75a.938.938 0 0 0-.71-.91z"/>
    </g>
</svg>
